<svg width="46" height="60" viewBox="0 0 46 60" fill="none" xmlns="http://www.w3.org/2000/svg">
<mask id="path-1-outside-1_85_186" maskUnits="userSpaceOnUse" x="-1.5" y="5" width="49" height="49" fill="black">
<rect fill="white" x="-1.5" y="5" width="49" height="49"/>
<path d="M30.8209 43.56H15.1009L12.5809 51H1.84086L17.0809 8.88H28.9609L44.2009 51H33.3409L30.8209 43.56ZM28.1809 35.64L22.9609 20.22L17.8009 35.64H28.1809Z"/>
</mask>
<path d="M30.8209 43.56H15.1009L12.5809 51H1.84086L17.0809 8.88H28.9609L44.2009 51H33.3409L30.8209 43.56ZM28.1809 35.64L22.9609 20.22L17.8009 35.64H28.1809Z" fill="#FFD098"/>
<path d="M30.8209 43.56L33.6623 42.5976C33.2497 41.3796 32.1068 40.56 30.8209 40.56V43.56ZM15.1009 43.56V40.56C13.8149 40.56 12.672 41.3796 12.2594 42.5976L15.1009 43.56ZM12.5809 51V54C13.8668 54 15.0097 53.1804 15.4223 51.9624L12.5809 51ZM1.84086 51L-0.98016 49.9793C-1.31284 50.8987 -1.17656 51.9226 -0.614963 52.7231C-0.0533676 53.5235 0.863071 54 1.84086 54V51ZM17.0809 8.88V5.88C15.8176 5.88 14.6897 6.67137 14.2598 7.85929L17.0809 8.88ZM28.9609 8.88L31.7819 7.85929C31.3521 6.67137 30.2241 5.88 28.9609 5.88V8.88ZM44.2009 51V54C45.1786 54 46.0951 53.5235 46.6567 52.7231C47.2183 51.9226 47.3546 50.8987 47.0219 49.9793L44.2009 51ZM33.3409 51L30.4994 51.9624C30.912 53.1804 32.0549 54 33.3409 54V51ZM28.1809 35.64V38.64C29.1477 38.64 30.0552 38.1741 30.6187 37.3885C31.1821 36.6028 31.3325 35.5938 31.0225 34.6781L28.1809 35.64ZM22.9609 20.22L25.8025 19.2581C25.3894 18.038 24.2437 17.2178 22.9556 17.22C21.6675 17.2223 20.5247 18.0465 20.1159 19.268L22.9609 20.22ZM17.8009 35.64L14.9559 34.688C14.6497 35.6031 14.8024 36.6096 15.3661 37.3927C15.9299 38.1758 16.8359 38.64 17.8009 38.64V35.64ZM30.8209 40.56H15.1009V46.56H30.8209V40.56ZM12.2594 42.5976L9.73943 50.0376L15.4223 51.9624L17.9423 44.5224L12.2594 42.5976ZM12.5809 48H1.84086V54H12.5809V48ZM4.66188 52.0207L19.9019 9.90071L14.2598 7.85929L-0.98016 49.9793L4.66188 52.0207ZM17.0809 11.88H28.9609V5.88H17.0809V11.88ZM26.1398 9.90071L41.3798 52.0207L47.0219 49.9793L31.7819 7.85929L26.1398 9.90071ZM44.2009 48H33.3409V54H44.2009V48ZM36.1823 50.0376L33.6623 42.5976L27.9794 44.5224L30.4994 51.9624L36.1823 50.0376ZM31.0225 34.6781L25.8025 19.2581L20.1193 21.1819L25.3393 36.6019L31.0225 34.6781ZM20.1159 19.268L14.9559 34.688L20.6458 36.592L25.8058 21.172L20.1159 19.268ZM17.8009 38.64H28.1809V32.64H17.8009V38.64Z" fill="#F7941E" mask="url(#path-1-outside-1_85_186)"/>
</svg>
