<svg width="420" height="768" viewBox="0 0 420 768" fill="none" xmlns="http://www.w3.org/2000/svg">
<g clip-path="url(#clip0_608_10)">
<path d="M338.257 197.99C295.274 169.079 244.172 158.774 210.674 158.774C179.305 158.774 133.136 163.726 91.3549 187.285C65.9826 201.362 44.7559 221.861 29.8022 246.727C12.1793 276.112 2.62147 312.469 1.43812 354.779C1.35539 357.907 1.90047 361.02 3.04109 363.934C4.18172 366.847 5.89476 369.503 8.07902 371.743C10.2633 373.983 12.8744 375.763 15.7581 376.977C18.6419 378.191 21.7397 378.815 24.8686 378.811H107.139C112.779 378.791 118.224 376.744 122.481 373.045C126.739 369.346 129.525 364.239 130.333 358.657C133.974 332.859 149.303 289.475 210.856 288.364C257.735 287.563 277.087 321.517 283.24 336.155C293.235 359.968 290.687 388.206 276.45 411.691C254.567 447.866 214.369 453.328 192.25 453.328C180.077 453.362 168.412 458.205 159.794 466.802C151.177 475.399 146.307 487.053 146.244 499.225V587.743C146.254 593.959 148.728 599.918 153.123 604.313C157.518 608.709 163.477 611.182 169.693 611.192H249.797C256.013 611.182 261.972 608.709 266.367 604.313C270.763 599.918 273.236 593.959 273.246 587.743V569.209C273.249 568.992 273.318 568.781 273.445 568.605C273.573 568.43 273.751 568.297 273.956 568.226C305.846 556.881 334.87 538.699 358.993 514.955C399.446 474.72 419.964 422.797 419.964 360.624C420.091 271.651 375.542 223.059 338.257 197.99Z" fill="#61298A"/>
<path d="M207.742 652.538H214.224C229.355 652.807 243.775 659.006 254.38 669.802C264.986 680.598 270.928 695.126 270.928 710.26C270.928 725.393 264.986 739.922 254.38 750.718C243.775 761.513 229.355 767.713 214.224 767.982H207.742C192.612 767.713 178.191 761.513 167.586 750.718C156.98 739.922 151.038 725.393 151.038 710.26C151.038 695.126 156.98 680.598 167.586 669.802C178.191 659.006 192.612 652.807 207.742 652.538Z" fill="#61298A"/>
<path d="M169.384 628.378H249.488C255.603 628.466 261.503 626.126 265.895 621.87C270.287 617.614 272.813 611.791 272.918 605.676V569.482C272.926 569.271 272.998 569.067 273.125 568.898C273.252 568.729 273.427 568.602 273.628 568.536C286.821 563.805 299.463 557.658 311.332 550.202C260.156 549.838 166.871 549.328 145.953 550.075V605.676C146.059 611.791 148.584 617.614 152.976 621.87C157.368 626.126 163.269 628.466 169.384 628.378Z" fill="#61298A"/>
<path d="M235.36 227.392L183.948 78.1035C173.025 40.7267 142.294 15.8756 105.228 27.7641L101.878 29.0749C85.5656 35.3731 72.2226 47.5822 64.5041 63.2727C56.7855 78.9632 55.2574 96.9846 60.2237 113.751C69.818 146.103 80.8141 181.714 87.5319 198.463C101.423 233.054 137.779 223.405 137.779 223.405C137.779 223.405 145.88 246.509 149.376 256.904L168.218 275.511L175.992 267.009L235.36 227.392Z" fill="#FFDEB8"/>
<path d="M137.779 223.405C137.779 223.405 160.244 216.123 177.958 192.455C177.958 192.455 177.175 222.859 141.201 233.145L137.779 223.405Z" fill="#F7941E"/>
<path d="M85.3654 137.328C85.8577 138.626 86.8356 139.683 88.0926 140.274C89.3495 140.865 90.787 140.945 92.1014 140.495C92.7544 140.302 93.3622 139.981 93.8888 139.549C94.4154 139.117 94.8502 138.585 95.1675 137.982C95.4849 137.38 95.6783 136.72 95.7364 136.042C95.7945 135.363 95.7161 134.68 95.5058 134.032C95.0209 132.727 94.0449 131.663 92.7863 131.068C91.5277 130.473 90.0863 130.393 88.7698 130.846C88.1161 131.041 87.508 131.365 86.9813 131.798C86.4545 132.232 86.0197 132.766 85.7025 133.37C85.3853 133.974 85.1921 134.635 85.1342 135.315C85.0763 135.994 85.1549 136.679 85.3654 137.328Z" fill="#263238"/>
<path d="M73.004 124.583C73.8597 125.002 76.6451 120.742 81.9247 118.703C87.2043 116.664 92.229 117.811 92.5567 116.882C92.7387 116.482 91.6464 115.553 89.4617 115.062C86.5256 114.347 83.4398 114.563 80.6321 115.681C77.8489 116.739 75.472 118.651 73.8414 121.142C72.6945 123.018 72.5853 124.419 73.004 124.583Z" fill="#263238"/>
<path d="M130.133 119.577C131.007 119.977 133.774 115.735 139.053 113.678C144.333 111.621 149.376 112.786 149.704 111.857C149.867 111.457 148.793 110.528 146.609 110.037C143.666 109.325 140.576 109.542 137.761 110.656C134.986 111.72 132.616 113.631 130.988 116.118C129.823 118.011 129.714 119.395 130.133 119.577Z" fill="#263238"/>
<path d="M122.65 154.113C122.559 153.804 119.009 154.514 113.347 155.934C111.927 156.316 110.525 156.553 109.943 155.716C109.276 154.349 109.048 152.811 109.287 151.31C109.287 147.499 109.287 143.505 109.287 139.33C109.178 122.344 108.523 108.58 107.849 108.599C107.175 108.617 106.702 122.38 106.811 139.367C106.811 143.554 106.866 147.547 106.975 151.346C106.757 153.329 107.24 155.326 108.341 156.99C108.728 157.392 109.2 157.702 109.723 157.898C110.246 158.093 110.807 158.169 111.363 158.119C112.203 158.028 113.029 157.832 113.82 157.536C119.373 155.697 122.741 154.423 122.65 154.113Z" fill="#263238"/>
<path d="M117.753 89.4823C119.009 90.5564 123.651 87.1155 129.932 84.5302C136.213 81.945 141.839 80.8891 141.948 79.2505C141.948 78.4677 140.419 77.6484 137.761 77.4299C134.3 77.2436 130.841 77.8485 127.649 79.1987C124.457 80.5489 121.614 82.6088 119.337 85.2221C117.662 87.2611 117.189 88.9543 117.753 89.4823Z" fill="#263238"/>
<path d="M66.6685 108.944C68.2523 109.745 72.1301 106.851 77.4097 104.848C82.6893 102.845 87.4409 102.081 88.0053 100.424C88.2237 99.6412 87.0586 98.6035 84.6919 98.2393C81.4721 97.7829 78.1888 98.2043 75.1886 99.4591C72.1619 100.606 69.5056 102.558 67.5059 105.103C66.1041 107.033 65.9585 108.526 66.6685 108.944Z" fill="#263238"/>
<path d="M190.502 103.319C190.994 102.827 211.711 86.9334 220.14 111.093C228.57 135.252 202.645 138.711 202.354 138.038C202.062 137.364 190.502 103.319 190.502 103.319Z" fill="#FFDEB8"/>
<path d="M206.523 126.313C206.523 126.204 207.051 126.459 207.87 126.55C209.02 126.624 210.155 126.252 211.038 125.512C213.259 123.691 213.987 118.885 212.585 114.588C211.918 112.497 210.793 110.581 209.29 108.981C208.8 108.31 208.155 107.768 207.41 107.4C206.665 107.032 205.842 106.85 205.012 106.869C204.484 106.909 203.987 107.133 203.607 107.503C203.228 107.872 202.99 108.363 202.936 108.89C202.845 109.673 203.173 110.11 203.046 110.182C202.918 110.255 202.39 109.964 202.245 108.908C202.176 108.271 202.324 107.63 202.663 107.087C203.16 106.362 203.916 105.853 204.775 105.667C205.834 105.517 206.914 105.641 207.911 106.027C208.909 106.412 209.791 107.047 210.473 107.87C212.224 109.602 213.53 111.732 214.278 114.079C215.826 118.994 214.934 124.419 211.784 126.641C211.204 127.055 210.538 127.334 209.835 127.457C209.132 127.58 208.411 127.543 207.724 127.351C206.778 126.877 206.45 126.386 206.523 126.313Z" fill="#F7941E"/>
<path d="M140.837 151.674C140 151.91 141.839 157.481 138.398 163.016C134.957 168.551 128.84 169.934 129.058 170.717C129.058 171.1 130.733 171.354 133.264 170.59C136.543 169.55 139.349 167.383 141.183 164.473C142.932 161.681 143.533 158.321 142.858 155.097C142.294 152.693 141.22 151.528 140.837 151.674Z" fill="#263238"/>
<path d="M0.0182274 96.8193C-0.0470536 95.2519 0.494123 93.7196 1.52928 92.5409C3.71394 89.9374 6.99092 89.0271 10.0312 87.8983C17.6248 85.0293 24.471 80.4796 30.0572 74.5898C27.2604 74.2695 24.5321 73.5075 21.974 72.3323C16.7127 69.8198 12.3798 64.6493 12.3251 58.8234C12.2701 58.2799 12.338 57.7309 12.524 57.2172C12.7099 56.7035 13.0091 56.2382 13.3993 55.8559C14.8011 54.8181 16.7127 55.8559 18.2419 56.7116C23.2302 59.4607 27.1626 60.0068 32.3147 57.5854C35.4634 56.2503 38.2701 54.2214 40.5254 51.6503C40.5254 51.5047 40.6346 51.3408 40.7074 51.1951C41.5085 49.3746 42.2913 47.8088 43.0742 46.1885C48.9727 34.0087 54.58 25.0332 61.4617 18.8796C71.5657 9.99507 90.5904 1.14697 103.953 0.0546147C117.316 -1.03774 131.88 5.00664 138.016 16.9862C142.84 8.73886 153.181 5.15229 162.757 5.57102L162.921 5.40717C173.425 5.40717 182.2 13.436 188.317 21.9746L189.282 23.3946C194.198 27.3242 199.986 30.0153 206.159 31.2414C207.251 31.4417 208.507 31.7148 208.981 32.7161C209.134 33.2454 209.148 33.8054 209.02 34.3415C208.892 34.8776 208.628 35.3714 208.252 35.7747C206.566 38.1638 204.363 40.1426 201.808 41.5642C203.468 43.5378 205.296 45.3651 207.269 47.026C208.962 48.446 210.91 50.1392 210.692 52.3239C210.511 53.154 210.082 53.9092 209.46 54.4883C208.839 55.0675 208.055 55.443 207.215 55.5646C205.522 55.7737 203.804 55.6248 202.172 55.1276L207.925 61.4997C204.735 63.2698 201.174 64.2675 197.529 64.4127C198.694 74.0072 202.991 91.0116 202.845 97.8388C196.492 100.206 194.689 100.06 191.922 102.263C188.281 105.121 192.432 111.948 186.26 111.766C183.129 111.675 175.191 102.663 173.28 100.206C160.53 83.6033 151.497 64.4555 146.791 44.0584C141.463 41.2932 135.653 39.5809 129.678 39.0154L130.224 39.2338C119.155 39.2338 106.83 39.8528 99.1106 47.7724C93.121 53.9078 91.5189 62.938 88.1873 70.8576C81.9246 85.8593 72.4396 96.0182 57.3472 102.081C59.7139 113.205 65.4487 130.737 68.4162 140.859L52.9415 123.964V124.055C51.8865 123.148 50.8779 122.188 49.9194 121.179L49.5917 120.888C48.0625 119.304 46.5696 117.72 44.8219 116.227V116.354C41.1808 122.981 30.6398 118.521 32.8427 111.257C33.2724 109.806 33.9233 108.431 34.7725 107.178C33.9712 108.782 32.769 110.151 31.2824 111.153C29.7959 112.154 28.0757 112.755 26.2887 112.895C24.4971 112.97 22.7308 112.452 21.263 111.422C19.7953 110.392 18.7079 108.907 18.1691 107.197C17.8996 106.01 17.9461 104.774 18.3039 103.611C18.6617 102.448 19.3183 101.399 20.2081 100.57C15.9608 102.466 11.2422 103.043 6.66324 102.226C3.5319 101.717 0.273104 100.242 0.0182274 96.8193Z" fill="#263238"/>
<path d="M128.403 25.015C130.016 25.5435 131.581 26.2074 133.082 26.9994C137.051 29.3844 140.332 32.7596 142.603 36.7942C144.255 39.5528 145.615 42.4754 146.663 45.5149C147.828 48.7555 148.793 52.3239 149.831 56.0925C150.865 60.0512 152.142 63.9425 153.654 67.7444C154.485 69.7566 155.464 71.704 156.585 73.5703C157.663 75.6074 159.242 77.3366 161.173 78.5951C162.018 79.0789 162.975 79.3335 163.949 79.3335C164.923 79.3335 165.88 79.0789 166.726 78.5951C168.371 77.6766 169.655 76.2256 170.367 74.4806C171.361 71.1776 171.442 67.6673 170.603 64.3216L169.893 64.6675C171.896 66.952 174.22 68.933 176.793 70.5481C179.247 72.0223 182.176 72.4919 184.967 71.8589C186.252 71.5724 187.435 70.9433 188.39 70.0383C189.245 69.1274 189.804 67.9783 189.992 66.743C190.184 65.5977 190.064 64.4219 189.646 63.3385C189.236 62.345 188.497 61.5225 187.553 61.0082L187.28 61.4633C190.229 63.1358 193.498 64.1657 196.874 64.4855C197.759 64.5316 198.646 64.5316 199.532 64.4855C199.835 64.5126 200.139 64.5126 200.442 64.4855C200.14 64.4424 199.834 64.4424 199.532 64.4855C198.648 64.4639 197.767 64.3909 196.892 64.267C193.598 63.8352 190.424 62.7522 187.553 61.081L187.298 61.5543C188.136 62.0908 188.787 62.8753 189.159 63.7988C189.531 64.7222 189.606 65.7386 189.373 66.7066C189.194 67.8117 188.679 68.835 187.899 69.6378C187.045 70.4841 185.974 71.0766 184.804 71.3491C182.187 71.8935 179.461 71.425 177.176 70.0383C174.686 68.4409 172.436 66.4977 170.494 64.267L169.602 63.3203L169.784 64.6129C170.577 67.8092 170.502 71.1594 169.566 74.3167C168.935 75.8548 167.807 77.1369 166.361 77.9579C165.641 78.3698 164.825 78.5865 163.995 78.5865C163.165 78.5865 162.349 78.3698 161.628 77.9579C159.839 76.7687 158.38 75.1467 157.386 73.2426C156.258 71.3585 155.272 69.3929 154.437 67.362C152.931 63.5951 151.654 59.7405 150.614 55.8195C149.54 52.069 148.557 48.5371 147.355 45.2236C146.262 42.1455 144.846 39.1918 143.131 36.4119C140.774 32.3244 137.359 28.9472 133.246 26.6353C131.733 25.8285 130.096 25.2809 128.403 25.015Z" fill="#F7941E"/>
<path d="M31.4045 97.766C31.4045 97.766 31.5138 97.766 31.7686 97.9116L32.8792 98.2393C33.4763 98.4227 34.0844 98.5687 34.6997 98.6763C35.541 98.85 36.3922 98.9716 37.2485 99.0404C42.7293 99.5306 48.2461 98.6549 53.3057 96.4916C60.8271 93.2655 67.252 87.9282 71.8025 81.1257C77.2786 72.7954 80.9957 63.4344 82.7257 53.6165C83.7817 48.446 84.3278 43.3302 85.2199 38.4692C85.922 33.7912 87.3019 29.2405 89.3161 24.9604C91.118 21.098 93.8596 17.7491 97.2901 15.2202C98.8479 14.1309 100.568 13.2952 102.388 12.7442C104.086 12.2493 105.844 11.986 107.613 11.9613C110.682 11.9266 113.723 12.5473 116.533 13.7819C118.656 14.7057 120.612 15.9728 122.323 17.5323C123.698 18.9457 124.919 20.502 125.964 22.1749C125.964 22.1749 125.964 22.0474 125.8 21.8289L125.254 20.8094C124.48 19.5332 123.557 18.3537 122.505 17.2957C120.796 15.6588 118.827 14.3176 116.679 13.3268C113.823 12.0154 110.719 11.3325 107.576 11.3241C105.73 11.332 103.892 11.5892 102.115 12.0888C100.205 12.6448 98.3975 13.5054 96.7621 14.6376C93.2008 17.2131 90.3457 20.6443 88.4604 24.6144C86.4408 28.935 85.0433 33.5199 84.3096 38.2325C83.4175 43.1299 82.8714 48.2276 81.8155 53.3616C80.127 63.0881 76.4989 72.3754 71.1471 80.6706C66.7015 87.3851 60.4202 92.6808 53.0508 95.9272C48.0968 98.136 42.6792 99.1045 37.2667 98.7491C35.2951 98.5367 33.3376 98.2084 31.4045 97.766Z" fill="#F7941E"/>
<path d="M22.7205 83.4015C23.2292 83.6094 23.7609 83.7561 24.3044 83.8384C25.7561 84.1438 27.2289 84.3386 28.7101 84.421C30.9192 84.5579 33.1359 84.5092 35.3369 84.2754C38.0281 83.9593 40.6849 83.3987 43.2744 82.6004C45.8518 81.7691 48.3448 80.6963 50.7205 79.3962C52.642 78.3413 54.4693 77.1231 56.1821 75.755C57.3441 74.8391 58.4336 73.8348 59.4409 72.751C60.1509 71.9681 60.5332 71.5312 60.4786 71.4766C60.424 71.422 58.7673 73.0605 55.7998 75.2634C54.0698 76.5591 52.244 77.7215 50.3381 78.7408C45.6451 81.2526 40.5285 82.8759 35.2458 83.5289C33.0635 83.7638 30.8668 83.8368 28.6737 83.7474C25.0326 83.7474 22.7569 83.2376 22.7205 83.4015Z" fill="#F7941E"/>
<path d="M88.7517 335.772C88.4422 335.772 92.5749 356.527 96.6165 377.956H97.8909C93.8493 356.527 89.0794 335.681 88.7517 335.772Z" fill="#263238"/>
<path d="M106.193 378.993C117.88 378.993 128.64 370.582 130.278 359.112C133.919 333.351 148.648 289.766 210.601 288.692C257.808 287.891 277.67 321.299 283.241 336.173C292.07 359.75 290.978 388.388 276.632 411.837C254.603 447.867 214.06 453.328 191.867 453.474C179.665 453.454 167.949 458.261 159.276 466.845C150.603 475.43 145.677 487.096 145.571 499.298V595.553L273.428 593.132V569.118C273.432 568.899 273.505 568.687 273.635 568.51C273.766 568.334 273.948 568.203 274.156 568.135C298.9 559.526 321.936 546.627 342.208 530.03L333.888 419.192C333.888 419.192 358.211 372.421 357.009 361.898C345.995 265.771 313.316 211.371 300.008 206.292C285.098 200.611 227.495 203.379 227.495 203.379C227.495 203.379 202.609 249.422 167.709 254.574C148.284 257.414 141.202 233.164 141.202 233.164L96.0339 259.617C63.9194 275.82 57.6932 338.813 57.1106 378.993H106.193Z" fill="#F7941E"/>
<g opacity="0.3">
<path d="M254.421 435.632C280.182 442.186 305.597 450.488 331.376 457.042C333.336 457.342 335.158 458.231 336.601 459.591C338.512 461.794 338.075 465.053 337.22 467.893C334.24 476.73 328.871 484.569 321.709 490.541C316.101 495.457 309.384 499.644 301.938 500.19C293.654 500.846 285.68 497.004 278.689 492.526C260.512 480.877 245.739 464.628 235.87 445.427C235.87 445.427 241.914 442.933 246.538 440.457C249.25 438.989 251.881 437.379 254.421 435.632Z" fill="black"/>
</g>
<path d="M282.713 336.81C293.017 360.587 290.395 388.788 275.704 412.256C268.38 424.181 258.102 434.014 245.865 440.803C256.949 453.238 269.278 464.506 282.658 474.429C295.821 483.769 326.169 481.111 337.675 460.665C351.875 435.414 353.059 370.965 353.059 370.965L355.753 332.095L276.377 319.933L275.74 322.118C278.521 326.785 280.856 331.704 282.713 336.81Z" fill="#FFDEB8"/>
<path d="M144.497 320.425L139.982 327.707C136.541 330.092 133.282 328.781 131.152 324.375L82.2886 250.004L94.195 242.43L148.156 313.761C148.156 313.761 148.921 317.457 144.497 320.425Z" fill="#F7941E"/>
<path d="M31.6229 248.639C24.1698 244.419 17.8188 238.498 13.0873 231.358C8.3558 224.219 5.37754 216.063 4.39509 207.554C3.41264 199.046 4.45379 190.425 7.43376 182.395C10.4137 174.366 15.2482 167.153 21.5435 161.345C27.8388 155.538 35.4168 151.299 43.6603 148.975C51.9038 146.651 60.5797 146.307 68.9813 147.971C77.3829 149.635 85.2727 153.261 92.008 158.552C98.7433 163.843 104.134 170.65 107.74 178.418C112.596 188.865 114.009 200.585 111.773 211.887C109.537 223.188 103.768 233.487 95.2997 241.298C86.8311 249.108 76.1002 254.026 64.6553 255.342C53.2105 256.659 41.6433 254.305 31.6229 248.621V248.639ZM83.3993 157.172C72.8729 151.222 60.5674 149.229 48.7012 151.551C36.835 153.874 26.1888 160.359 18.6817 169.838C11.1747 179.317 7.30083 191.166 7.75844 203.249C8.21606 215.331 12.975 226.854 21.1775 235.737C29.38 244.621 40.4863 250.283 52.4942 251.701C64.502 253.119 76.6215 250.2 86.6677 243.471C96.7138 236.743 104.026 226.646 107.285 215.002C110.545 203.358 109.537 190.933 104.445 179.966C99.9855 170.354 92.6252 162.382 83.3993 157.172Z" fill="#263238"/>
<path d="M33.9349 246.363C26.4818 242.143 20.1309 236.222 15.3993 229.083C10.6678 221.943 7.68955 213.787 6.7071 205.278C5.72465 196.77 6.7658 188.15 9.74577 180.12C12.7257 172.09 17.5602 164.877 23.8555 159.07C30.1508 153.262 37.7288 149.024 45.9723 146.7C54.2158 144.376 62.8917 144.032 71.2933 145.696C79.695 147.36 87.5847 150.985 94.32 156.276C101.055 161.567 106.446 168.374 110.052 176.143C114.902 186.59 116.309 198.308 114.071 209.606C111.834 220.905 106.066 231.201 97.6002 239.011C89.1344 246.821 78.4075 251.742 66.9656 253.063C55.5237 254.384 43.9578 252.038 33.9349 246.363ZM85.7113 154.896C75.1885 148.95 62.8878 146.959 51.0265 149.281C39.1652 151.604 28.5237 158.087 21.0203 167.563C13.5168 177.038 9.64495 188.882 10.1027 200.961C10.5605 213.039 15.3178 224.556 23.517 233.436C31.7161 242.317 42.8179 247.976 54.8209 249.394C66.8239 250.812 78.9386 247.895 88.9811 241.169C99.0237 234.444 106.333 224.352 109.593 212.713C112.852 201.074 111.846 188.653 106.757 177.69C102.294 168.081 94.9349 160.11 85.7113 154.896Z" fill="#F7941E"/>
<path d="M105.956 199.81C105.933 199.513 105.933 199.215 105.956 198.918C105.964 198.067 105.928 197.217 105.847 196.369C105.619 193.242 105.008 190.154 104.026 187.175C103.374 185.121 102.584 183.114 101.659 181.167C100.601 178.941 99.3839 176.793 98.0183 174.741C96.4944 172.477 94.7896 170.339 92.9207 168.35C90.9297 166.186 88.7417 164.211 86.385 162.452C84.0289 160.7 81.5041 159.187 78.8479 157.937C76.3647 156.796 73.7883 155.87 71.147 155.169C66.6554 154.016 62.015 153.549 57.3837 153.786C54.254 153.937 51.1485 154.413 48.1171 155.206C47.043 155.461 46.2966 155.788 45.6776 155.934C45.3932 156.032 45.1008 156.105 44.8037 156.152C45.0682 156.023 45.342 155.913 45.623 155.825C46.1873 155.624 46.9884 155.279 48.0625 154.987C51.0866 154.099 54.2012 153.556 57.3473 153.367C62.0287 153.068 66.7279 153.505 71.2744 154.66C73.9585 155.348 76.5778 156.268 79.1028 157.409C81.7894 158.678 84.3444 160.208 86.7309 161.978C89.1078 163.767 91.3195 165.766 93.3395 167.95C95.2259 169.972 96.9429 172.146 98.4734 174.449C99.8381 176.534 101.055 178.712 102.114 180.967C103.032 182.944 103.811 184.982 104.445 187.066C105.391 190.077 105.942 193.198 106.083 196.351C106.083 197.462 106.083 198.336 106.083 198.918C106.06 199.218 106.018 199.516 105.956 199.81Z" fill="white"/>
<path d="M49.2095 244.087C49.2095 243.942 51.7218 244.87 55.9091 245.453L57.5658 245.653C58.1301 245.653 58.7309 245.653 59.3863 245.653C60.6243 245.762 61.9533 245.653 63.3369 245.653C69.405 245.371 75.3385 243.768 80.7231 240.956C81.8964 240.352 83.0387 239.69 84.1458 238.971C84.6737 238.625 85.1835 238.316 85.6568 237.97L86.9676 236.969C90.2992 234.383 91.9923 232.326 92.0833 232.435C91.7339 232.939 91.3376 233.408 90.9 233.837C90.436 234.396 89.931 234.92 89.3889 235.403C88.6987 236.047 87.9756 236.655 87.2225 237.224L85.9117 238.261C85.4566 238.625 84.9286 238.935 84.4188 239.299C83.3095 240.046 82.1609 240.733 80.978 241.356C75.5409 244.242 69.5238 245.866 63.3733 246.108C61.9533 246.108 60.6061 246.108 59.3681 246.108C58.7309 246.108 58.1302 246.108 57.5476 245.962L55.8909 245.726C54.9396 245.596 53.9972 245.407 53.069 245.161C52.3575 245.02 51.6577 244.825 50.9754 244.579C50.3742 244.464 49.7835 244.3 49.2095 244.087Z" fill="white"/>
<path d="M86.6217 209.241C86.5125 209.368 79.3395 202.268 70.7829 193.402C62.2264 184.536 55.2537 177.253 55.3811 177.144C55.5086 177.035 62.6633 184.117 71.2017 192.983C79.74 201.849 86.7491 209.132 86.6217 209.241Z" fill="white"/>
<path d="M78.247 223.496C78.065 223.339 77.8947 223.169 77.7373 222.987L76.3354 221.475C75.0975 220.092 73.3861 218.162 71.2743 215.832C66.996 211.062 61.0793 204.489 54.4525 197.298C47.8257 190.107 41.7087 183.68 37.3576 179.092L32.1508 173.63C31.5682 173.011 31.0949 172.52 30.749 172.119C30.5808 171.946 30.4227 171.764 30.2756 171.573C30.4771 171.707 30.6606 171.866 30.8218 172.046L32.2964 173.485C33.589 174.741 35.4096 176.561 37.6488 178.946C42.1274 183.534 48.2444 189.87 54.8894 197.152C61.5344 204.435 67.3784 210.952 71.5838 215.795C73.6775 218.217 75.3706 220.183 76.5175 221.566L77.8283 223.15C77.9792 223.251 78.1195 223.367 78.247 223.496Z" fill="white"/>
<g opacity="0.3">
<path d="M33.8987 156.881L100.694 229.395C100.694 229.395 95.2328 236.951 90.3356 240.319L22.1379 166.038C25.4294 162.254 29.4234 159.144 33.8987 156.881Z" fill="white"/>
</g>
<g opacity="0.3">
<path d="M16.4031 174.395L82.0884 245.089C82.0884 245.089 82.6892 245.416 78.1742 246.563L14.5461 177.981C14.8846 176.66 15.5197 175.434 16.4031 174.395Z" fill="white"/>
</g>
<path d="M189.3 291.022C175.264 279.753 140.892 252.189 139.308 251.461C137.342 250.532 107.085 239.791 101.277 243.232C95.4694 246.672 79.9402 266.207 79.9402 266.207C79.9402 266.207 81.4148 278.333 94.9779 269.648L107.103 261.893L121.521 265.261C121.521 265.261 103.935 272.543 100.221 276.457C96.5072 280.372 90.5722 295.1 94.2133 298.578C96.4137 300.591 99.1896 301.864 102.151 302.219C102.151 302.219 94.8687 312.523 107.758 318.75C107.758 318.75 109.579 327.398 115.987 330.802C122.395 334.207 134.192 332.987 134.192 332.987C134.929 332.582 135.563 332.015 136.048 331.328C136.533 330.642 136.857 329.855 136.993 329.026C137.13 328.197 137.077 327.348 136.838 326.542C136.598 325.736 136.18 324.996 135.612 324.375C131.534 318.914 124.016 318.24 124.016 318.24L133.337 312.778C137.701 314.445 141.76 316.819 145.352 319.806C150.346 313.491 156.052 307.773 162.356 302.765C171.914 295.865 189.3 291.022 189.3 291.022Z" fill="#FFDEB8"/>
<path d="M129.659 295.592C129.201 295.524 128.734 295.524 128.276 295.592C127.041 295.768 125.823 296.048 124.635 296.429C120.634 297.721 117.036 300.027 114.19 303.121C111.345 306.216 109.348 309.994 108.395 314.089C108.112 315.316 107.936 316.564 107.867 317.821C107.8 318.28 107.8 318.746 107.867 319.205C108.013 319.205 108.031 317.239 108.85 314.217C109.898 310.253 111.897 306.605 114.672 303.588C117.448 300.571 120.918 298.276 124.78 296.903C127.711 295.92 129.678 295.719 129.659 295.592Z" fill="#F7941E"/>
<path d="M130.278 279.917C129.784 279.88 129.287 279.917 128.804 280.026C128.228 280.077 127.656 280.169 127.092 280.299C126.337 280.437 125.59 280.613 124.853 280.827C122.919 281.363 121.037 282.07 119.227 282.939C117.025 284.036 114.929 285.334 112.965 286.817C111.03 288.33 109.243 290.025 107.631 291.878C106.323 293.4 105.159 295.039 104.153 296.775C103.698 297.485 103.371 298.195 103.061 298.796C102.752 299.397 102.533 299.943 102.351 300.38C102.143 300.829 101.984 301.299 101.878 301.782C102.005 301.782 102.77 299.961 104.572 297.03C105.616 295.357 106.798 293.774 108.104 292.297C109.714 290.499 111.481 288.848 113.384 287.363C115.388 285.751 117.519 284.302 119.755 283.03C121.436 282.261 123.186 281.651 124.98 281.209C128.203 280.372 130.296 280.044 130.278 279.917Z" fill="#F7941E"/>
<path d="M132.918 261.911C132.316 261.585 131.636 261.428 130.952 261.456C129.318 261.38 127.688 261.673 126.182 262.311C124.631 262.879 123.269 263.869 122.25 265.17C121.449 266.116 121.139 266.845 121.212 266.881C122.686 265.24 124.467 263.904 126.455 262.949C128.52 262.179 130.716 261.826 132.918 261.911Z" fill="#F7941E"/>
<path d="M294.473 204.853C294.473 204.853 338.876 209.114 352.967 247.692C364.146 278.314 370.226 370.036 367.423 371.911L289.012 369.399C287.992 347.042 281.966 329.783 273.519 318.622L294.473 204.853Z" fill="#F7941E"/>
<path d="M290.177 369.399C290.729 369.612 291.25 369.9 291.724 370.254C292.671 370.855 294.018 371.784 295.657 372.985C299.885 376.135 303.871 379.598 307.581 383.345C311.298 387.08 314.771 391.051 317.976 395.233C319.196 396.835 320.143 398.164 320.78 399.111C321.146 399.571 321.447 400.079 321.672 400.622C320.173 399.045 318.763 397.386 317.448 395.652C314.863 392.557 311.24 388.369 306.907 384C303.215 380.291 299.319 376.79 295.238 373.513C292.107 371.001 290.104 369.581 290.177 369.399Z" fill="#F7941E"/>
<path d="M280.837 275.037C281.092 275.037 279.654 284.887 277.633 296.885C275.612 308.882 273.737 318.604 273.482 318.604C273.228 318.604 274.666 308.773 276.687 296.757C278.707 284.741 280.583 275.001 280.837 275.037Z" fill="#263238"/>
<path d="M182.182 550.148C182.604 550.031 183.038 549.964 183.475 549.947L187.225 549.565L201.025 548.254C212.658 547.144 228.715 545.469 246.429 543.229C264.143 540.99 280.109 538.605 291.652 536.803L305.342 534.618L308.983 534.053C309.415 533.97 309.854 533.928 310.294 533.926C309.881 534.078 309.454 534.187 309.02 534.254L305.378 534.982C302.174 535.619 297.514 536.457 291.743 537.458C280.219 539.442 264.234 541.918 246.52 544.176C228.806 546.434 212.713 547.981 201.007 548.928C195.181 549.401 190.447 549.747 187.189 549.929L183.42 550.129C183.008 550.161 182.595 550.167 182.182 550.148Z" fill="#263238"/>
<path d="M175.246 538.423C176.317 538.24 177.4 538.142 178.486 538.132L187.298 537.658L216.427 536.165L245.555 534.49L254.367 533.981C255.445 533.897 256.529 533.897 257.607 533.981C256.553 534.216 255.482 534.362 254.403 534.418C252.328 534.618 249.324 534.891 245.61 535.201C238.164 535.82 227.878 536.548 216.481 537.167C205.085 537.786 194.817 538.186 187.352 538.387C183.711 538.478 180.616 538.532 178.523 538.55C177.429 538.587 176.334 538.545 175.246 538.423Z" fill="#263238"/>
<path d="M50.3926 372.421C50.6649 371.303 51.1468 370.246 51.8127 369.308C52.6719 368.028 53.839 366.985 55.2067 366.275C56.5744 365.564 58.0987 365.209 59.6396 365.242C61.1804 365.274 62.6883 365.694 64.0247 366.462C65.3611 367.229 66.483 368.321 67.2873 369.636C67.2905 368.387 67.7064 367.174 68.4703 366.186C69.2342 365.198 70.3032 364.491 71.511 364.174C72.6092 363.914 73.7562 363.945 74.8387 364.264C75.9211 364.583 76.9015 365.18 77.6826 365.994C79.2989 367.323 80.4211 369.157 80.8686 371.201C82.7802 366.905 92.5929 367.433 93.7945 370.655C93.7945 370.655 102.242 361.406 106.538 365.958C108.359 367.778 107.576 370.746 106.374 373.641C104.791 377.519 103.753 379.103 101.677 383.417L93.667 383.836C92.9934 386.349 91.5734 396.58 91.2821 399.093C91.1091 401.694 90.363 404.224 89.0975 406.503C88.4541 407.631 87.5358 408.578 86.4281 409.256C85.3204 409.934 84.0593 410.321 82.762 410.38C81.4638 410.381 80.2166 409.875 79.2852 408.971C78.3538 408.067 77.8116 406.835 77.7737 405.538C77.314 407.711 76.2617 409.715 74.7333 411.327C73.9587 412.112 72.9994 412.69 71.9434 413.008C70.8874 413.326 69.7685 413.374 68.6891 413.148C67.6175 412.87 66.6826 412.213 66.0569 411.3C65.4312 410.386 65.1569 409.277 65.2847 408.178C62.4447 410.162 58.221 408.396 56.4187 405.447C54.6163 402.497 54.5981 398.801 54.5981 395.342C54.9794 392.175 54.6941 388.962 53.7606 385.912C53.518 385.48 53.311 385.03 53.1417 384.564C53.0508 383.809 53.0143 383.049 53.0324 382.289C52.9329 380.674 52.6081 379.08 52.0676 377.555C51.9401 377.209 51.8127 376.881 51.667 376.554C51.2847 375.698 50.7021 374.97 50.2652 374.151C50.164 373.977 50.096 373.785 50.0649 373.586C50.1063 373.182 50.2172 372.788 50.3926 372.421Z" fill="#FFDEB8"/>
<path d="M41.4173 367.979C40.3533 367.862 39.2767 367.978 38.2616 368.317C37.2465 368.657 36.317 369.212 35.537 369.945C33.8439 371.766 33.4433 376.354 33.7164 378.884C36.6839 379.449 38.2678 378.793 41.2171 379.339C41.8543 379.467 42.364 379.339 42.892 379.667C44.2574 380.65 44.0389 383.909 44.5851 385.493C45.1613 386.829 46.2286 387.894 47.5667 388.466C48.9048 389.039 50.4116 389.076 51.7762 388.57C53.1201 387.999 54.271 387.054 55.0911 385.846C55.9113 384.639 56.3659 383.22 56.4004 381.761C56.4328 378.82 55.3609 375.975 53.3965 373.786C51.9107 372.042 50.0787 370.625 48.0167 369.625C45.9546 368.625 43.7074 368.065 41.4173 367.979Z" fill="#FFDEB8"/>
<path d="M91.8647 394.905C91.5552 394.905 92.7749 389.444 93.5578 382.671C93.897 379.802 94.0005 376.909 93.8673 374.023C93.7165 372.815 93.6435 371.599 93.6488 370.382C94.1873 371.524 94.4906 372.762 94.5409 374.023C94.8865 376.956 94.8865 379.92 94.5409 382.853C94.2192 385.766 93.7084 388.654 93.0116 391.501C92.7968 392.685 92.4105 393.832 91.8647 394.905Z" fill="#F7941E"/>
<path d="M77.4277 406.557C77.5579 404.815 77.8257 403.086 78.2288 401.387C78.7931 398.219 79.6124 393.849 80.2314 388.988C80.7832 384.837 81.0388 380.651 80.996 376.463C80.996 373.258 80.7229 371.274 80.8686 371.256C81.3788 372.939 81.6484 374.686 81.6696 376.445C81.9127 380.699 81.742 384.967 81.1599 389.189C80.6221 393.371 79.8625 397.522 78.8842 401.623C78.5623 403.312 78.0745 404.965 77.4277 406.557Z" fill="#F7941E"/>
<path d="M65.2119 408.651C65.4381 406.716 65.7724 404.795 66.2132 402.898C67.0423 398.286 67.5956 393.629 67.8699 388.952C68.112 384.275 68.0695 379.587 67.7425 374.915C67.509 372.982 67.3874 371.037 67.3783 369.089C67.5853 369.577 67.7202 370.092 67.7789 370.619C67.9791 371.602 68.1976 373.058 68.4161 374.861C68.9356 379.557 69.0696 384.288 68.8166 389.007C68.5589 393.726 67.9073 398.415 66.8686 403.025C66.4681 404.846 66.0858 406.211 65.7763 407.176C65.6781 407.698 65.4869 408.197 65.2119 408.651Z" fill="#F7941E"/>
<path d="M49.1183 372.985C50.0498 373.176 50.912 373.617 51.6124 374.26C53.4344 375.676 54.8325 377.565 55.654 379.722C56.5436 381.853 56.7348 384.211 56.2002 386.458C55.6722 388.278 54.5617 388.825 54.5253 388.715C54.9784 387.961 55.3217 387.145 55.5448 386.294C55.8565 384.187 55.5923 382.036 54.7802 380.067C53.9768 378.068 52.7321 376.276 51.1391 374.824C49.9739 373.641 49.0454 373.222 49.1183 372.985Z" fill="#F7941E"/>
</g>
<defs>
<clipPath id="clip0_608_10">
<rect width="420" height="768" fill="white"/>
</clipPath>
</defs>
</svg>
