<svg width="60" height="60" viewBox="0 0 60 60" fill="none" xmlns="http://www.w3.org/2000/svg">
<path d="M52.9718 14.1541C53.8015 10.1096 53.7926 6.54495 53.7226 4.86507C53.6978 4.26992 53.2319 3.80399 52.6366 3.77916C50.9567 3.70911 47.3921 3.7003 43.3476 4.52997C42.4075 4.72284 42.096 5.87347 42.7746 6.55209L50.9496 14.7271C51.6283 15.4057 52.7789 15.0942 52.9718 14.1541Z" fill="white"/>
<path d="M6.58319 56.2009C5.17365 56.1536 4.09335 55.3016 3.9511 53.8984C3.83968 52.7994 3.75 51.1649 3.75 48.75C3.75 46.3351 3.83968 44.7006 3.9511 43.6016C4.09335 42.1984 5.17365 41.3464 6.58319 41.2991C7.41808 41.2711 8.53346 41.25 10 41.25C11.4665 41.25 12.5819 41.2711 13.4167 41.2991C14.8264 41.3464 15.9066 42.1984 16.0489 43.6016C16.1604 44.7006 16.25 46.3351 16.25 48.75C16.25 51.1649 16.1604 52.7994 16.0489 53.8984C15.9066 55.3016 14.8264 56.1536 13.4167 56.2009C12.5819 56.2289 11.4665 56.25 10 56.25C8.53346 56.25 7.41808 56.2289 6.58319 56.2009Z" fill="#D7A2FF"/>
<path d="M46.9466 56.168C45.3216 56.0685 44.1928 54.8949 44.0746 53.2713C43.9144 51.0698 43.75 47.0845 43.75 40C43.75 32.9155 43.9144 28.9302 44.0746 26.7287C44.1928 25.1051 45.3216 23.9315 46.9466 23.832C47.7339 23.7839 48.7366 23.75 50 23.75C51.2634 23.75 52.2661 23.7839 53.0534 23.832C54.6784 23.9315 55.8072 25.1051 55.9254 26.7287C56.0856 28.9302 56.25 32.9155 56.25 40C56.25 47.0845 56.0856 51.0698 55.9254 53.2713C55.8072 54.8949 54.6784 56.0685 53.0534 56.168C52.2661 56.2161 51.2634 56.25 50 56.25C48.7366 56.25 47.7339 56.2161 46.9466 56.168Z" fill="#D7A2FF"/>
<path d="M26.874 56.19C25.2949 56.1208 24.1415 55.0647 24.009 53.4896C23.8725 51.8675 23.75 49.2329 23.75 45C23.75 40.7671 23.8725 38.1325 24.009 36.5104C24.1415 34.9352 25.2949 33.8793 26.8741 33.81C27.6721 33.7749 28.6975 33.75 30 33.75C31.3025 33.75 32.3279 33.7749 33.1259 33.81C34.7051 33.8793 35.8585 34.9352 35.991 36.5104C36.1275 38.1325 36.25 40.7671 36.25 45C36.25 49.2329 36.1275 51.8675 35.991 53.4896C35.8585 55.0647 34.7051 56.1207 33.1259 56.1901C32.3279 56.2251 31.3025 56.25 30 56.25C28.6975 56.25 27.6721 56.2251 26.874 56.19Z" fill="#D7A2FF"/>
<path d="M6.25 32.5C13.5755 23.8019 20.2299 18.7922 23.2659 16.7345C24.2585 16.0616 25.5679 16.2812 26.3217 17.2137C27.8699 19.1289 29.3406 21.121 30.4585 22.6855C31.469 24.0997 33.5995 24.1451 34.7187 22.8152C39.889 16.6731 46.8761 10.625 46.8761 10.625" stroke="#61298A" stroke-width="3.75" stroke-linecap="round" stroke-linejoin="round"/>
<path d="M52.9711 14.1541C53.8009 10.1096 53.792 6.54495 53.722 4.86507C53.6971 4.26992 53.2313 3.80399 52.6361 3.77916C50.9563 3.70911 47.3915 3.7003 43.347 4.52997C42.4069 4.72284 42.0954 5.87347 42.774 6.55209L50.949 14.7271C51.6276 15.4057 52.7783 15.0942 52.9711 14.1541Z" stroke="#61298A" stroke-width="3.75" stroke-linecap="round" stroke-linejoin="round"/>
<path d="M6.58319 56.2009C5.17365 56.1536 4.09335 55.3016 3.9511 53.8984C3.83968 52.7994 3.75 51.1649 3.75 48.75C3.75 46.3351 3.83968 44.7006 3.9511 43.6016C4.09335 42.1984 5.17365 41.3464 6.58319 41.2991C7.41808 41.2711 8.53346 41.25 10 41.25C11.4665 41.25 12.5819 41.2711 13.4168 41.2991C14.8264 41.3464 15.9066 42.1984 16.0489 43.6016C16.1604 44.7006 16.25 46.3351 16.25 48.75C16.25 51.1649 16.1604 52.7994 16.0489 53.8984C15.9066 55.3016 14.8264 56.1536 13.4168 56.2009C12.5819 56.2289 11.4665 56.25 10 56.25C8.53346 56.25 7.41808 56.2289 6.58319 56.2009Z" stroke="#61298A" stroke-width="3.75" stroke-linecap="round" stroke-linejoin="round"/>
<path d="M46.9466 56.168C45.3216 56.0685 44.1928 54.8949 44.0746 53.2713C43.9144 51.0698 43.75 47.0845 43.75 40C43.75 32.9155 43.9144 28.9302 44.0746 26.7287C44.1928 25.1051 45.3216 23.9315 46.9466 23.832C47.7339 23.7839 48.7366 23.75 50 23.75C51.2634 23.75 52.2661 23.7839 53.0534 23.832C54.6784 23.9315 55.8072 25.1051 55.9254 26.7287C56.0856 28.9302 56.25 32.9155 56.25 40C56.25 47.0845 56.0856 51.0698 55.9254 53.2713C55.8072 54.8949 54.6784 56.0685 53.0534 56.168C52.2661 56.2161 51.2634 56.25 50 56.25C48.7366 56.25 47.7339 56.2161 46.9466 56.168Z" stroke="#61298A" stroke-width="3.75" stroke-linecap="round" stroke-linejoin="round"/>
<path d="M26.874 56.19C25.2949 56.1207 24.1415 55.0647 24.009 53.4896C23.8725 51.8675 23.75 49.2329 23.75 45C23.75 40.7671 23.8725 38.1325 24.009 36.5104C24.1415 34.9352 25.2949 33.8793 26.8741 33.81C27.6721 33.7749 28.6975 33.75 30 33.75C31.3025 33.75 32.3279 33.7749 33.1259 33.81C34.7051 33.8793 35.8585 34.9352 35.991 36.5104C36.1275 38.1325 36.25 40.7671 36.25 45C36.25 49.2329 36.1275 51.8675 35.991 53.4896C35.8585 55.0647 34.7051 56.1207 33.1259 56.1901C32.3279 56.2251 31.3025 56.25 30 56.25C28.6975 56.25 27.6721 56.2251 26.874 56.19Z" stroke="#61298A" stroke-width="3.75" stroke-linecap="round" stroke-linejoin="round"/>
</svg>
