<svg width="46" height="60" viewBox="0 0 46 60" fill="none" xmlns="http://www.w3.org/2000/svg">
<mask id="path-1-outside-1_85_213" maskUnits="userSpaceOnUse" x="-1" y="5" width="48" height="50" fill="black">
<rect fill="white" x="-1" y="5" width="48" height="50"/>
<path d="M2.12844 29.88C2.12844 25.72 3.02844 22.02 4.82844 18.78C6.62844 15.5 9.12844 12.96 12.3284 11.16C15.5684 9.32 19.2284 8.4 23.3084 8.4C28.3084 8.4 32.5884 9.72 36.1484 12.36C39.7084 15 42.0884 18.6 43.2884 23.16H32.0084C31.1684 21.4 29.9684 20.06 28.4084 19.14C26.8884 18.22 25.1484 17.76 23.1884 17.76C20.0284 17.76 17.4684 18.86 15.5084 21.06C13.5484 23.26 12.5684 26.2 12.5684 29.88C12.5684 33.56 13.5484 36.5 15.5084 38.7C17.4684 40.9 20.0284 42 23.1884 42C25.1484 42 26.8884 41.54 28.4084 40.62C29.9684 39.7 31.1684 38.36 32.0084 36.6H43.2884C42.0884 41.16 39.7084 44.76 36.1484 47.4C32.5884 50 28.3084 51.3 23.3084 51.3C19.2284 51.3 15.5684 50.4 12.3284 48.6C9.12844 46.76 6.62844 44.22 4.82844 40.98C3.02844 37.74 2.12844 34.04 2.12844 29.88Z"/>
</mask>
<path d="M2.12844 29.88C2.12844 25.72 3.02844 22.02 4.82844 18.78C6.62844 15.5 9.12844 12.96 12.3284 11.16C15.5684 9.32 19.2284 8.4 23.3084 8.4C28.3084 8.4 32.5884 9.72 36.1484 12.36C39.7084 15 42.0884 18.6 43.2884 23.16H32.0084C31.1684 21.4 29.9684 20.06 28.4084 19.14C26.8884 18.22 25.1484 17.76 23.1884 17.76C20.0284 17.76 17.4684 18.86 15.5084 21.06C13.5484 23.26 12.5684 26.2 12.5684 29.88C12.5684 33.56 13.5484 36.5 15.5084 38.7C17.4684 40.9 20.0284 42 23.1884 42C25.1484 42 26.8884 41.54 28.4084 40.62C29.9684 39.7 31.1684 38.36 32.0084 36.6H43.2884C42.0884 41.16 39.7084 44.76 36.1484 47.4C32.5884 50 28.3084 51.3 23.3084 51.3C19.2284 51.3 15.5684 50.4 12.3284 48.6C9.12844 46.76 6.62844 44.22 4.82844 40.98C3.02844 37.74 2.12844 34.04 2.12844 29.88Z" fill="#FFD098"/>
<path d="M4.82844 18.78L7.45091 20.2369C7.45343 20.2324 7.45594 20.2278 7.45844 20.2233L4.82844 18.78ZM12.3284 11.16L13.7992 13.7747L13.8099 13.7687L12.3284 11.16ZM36.1484 12.36L37.9354 9.95029V9.95028L36.1484 12.36ZM43.2884 23.16V26.16C44.2188 26.16 45.0964 25.7284 45.6644 24.9916C46.2324 24.2548 46.4264 23.2962 46.1897 22.3965L43.2884 23.16ZM32.0084 23.16L29.301 24.4522C29.799 25.4956 30.8523 26.16 32.0084 26.16V23.16ZM28.4084 19.14L26.855 21.7065C26.8648 21.7124 26.8746 21.7183 26.8845 21.7241L28.4084 19.14ZM15.5084 21.06L17.7484 23.0556L17.7484 23.0556L15.5084 21.06ZM28.4084 40.62L26.8845 38.0359C26.8746 38.0417 26.8648 38.0476 26.855 38.0535L28.4084 40.62ZM32.0084 36.6V33.6C30.8523 33.6 29.799 34.2644 29.301 35.3078L32.0084 36.6ZM43.2884 36.6L46.1897 37.3635C46.4264 36.4638 46.2324 35.5052 45.6644 34.7684C45.0964 34.0316 44.2188 33.6 43.2884 33.6V36.6ZM36.1484 47.4L37.9178 49.8227C37.9237 49.8184 37.9296 49.8141 37.9354 49.8097L36.1484 47.4ZM12.3284 48.6L10.833 51.2007C10.8458 51.2081 10.8586 51.2153 10.8715 51.2225L12.3284 48.6ZM4.82844 40.98L7.45091 39.5231L4.82844 40.98ZM5.12844 29.88C5.12844 26.1663 5.92762 22.9788 7.45091 20.2369L2.20597 17.3231C0.129254 21.0612 -0.871562 25.2737 -0.871562 29.88H5.12844ZM7.45844 20.2233C8.99439 17.4245 11.0971 15.2947 13.7992 13.7747L10.8577 8.54527C7.15974 10.6253 4.26249 13.5755 2.19844 17.3367L7.45844 20.2233ZM13.8099 13.7687C16.5562 12.2091 19.6971 11.4 23.3084 11.4V5.4C18.7597 5.4 14.5807 6.43092 10.847 8.55131L13.8099 13.7687ZM23.3084 11.4C27.7512 11.4 31.3837 12.5614 34.3615 14.7697L37.9354 9.95028C33.7932 6.87855 28.8657 5.4 23.3084 5.4V11.4ZM34.3615 14.7697C37.3373 16.9765 39.3488 19.9777 40.3872 23.9235L46.1897 22.3965C44.828 17.2223 42.0796 13.0235 37.9354 9.95029L34.3615 14.7697ZM43.2884 20.16H32.0084V26.16H43.2884V20.16ZM34.7159 21.8678C33.6394 19.6124 32.0466 17.8027 29.9324 16.5559L26.8845 21.7241C27.8903 22.3173 28.6974 23.1876 29.301 24.4522L34.7159 21.8678ZM29.9618 16.5735C27.9259 15.3412 25.6379 14.76 23.1884 14.76V20.76C24.659 20.76 25.851 21.0988 26.855 21.7065L29.9618 16.5735ZM23.1884 14.76C19.2426 14.76 15.8426 16.175 13.2685 19.0644L17.7484 23.0556C19.0943 21.545 20.8142 20.76 23.1884 20.76V14.76ZM13.2685 19.0644C10.7056 21.941 9.56844 25.6544 9.56844 29.88H15.5684C15.5684 26.7456 16.3912 24.579 17.7484 23.0556L13.2685 19.0644ZM9.56844 29.88C9.56844 34.1056 10.7056 37.819 13.2685 40.6956L17.7484 36.7044C16.3912 35.181 15.5684 33.0144 15.5684 29.88H9.56844ZM13.2685 40.6956C15.8426 43.585 19.2426 45 23.1884 45V39C20.8142 39 19.0943 38.215 17.7484 36.7044L13.2685 40.6956ZM23.1884 45C25.6379 45 27.9259 44.4188 29.9618 43.1865L26.855 38.0535C25.851 38.6612 24.659 39 23.1884 39V45ZM29.9324 43.2041C32.0466 41.9573 33.6394 40.1476 34.7159 37.8922L29.301 35.3078C28.6974 36.5724 27.8903 37.4427 26.8845 38.0359L29.9324 43.2041ZM32.0084 39.6H43.2884V33.6H32.0084V39.6ZM40.3872 35.8365C39.3488 39.7823 37.3373 42.7835 34.3615 44.9903L37.9354 49.8097C42.0796 46.7365 44.828 42.5377 46.1897 37.3635L40.3872 35.8365ZM34.3791 44.9773C31.4003 47.1529 27.7614 48.3 23.3084 48.3V54.3C28.8555 54.3 33.7766 52.8471 37.9178 49.8227L34.3791 44.9773ZM23.3084 48.3C19.6857 48.3 16.5359 47.5056 13.7854 45.9775L10.8715 51.2225C14.601 53.2944 18.7712 54.3 23.3084 54.3V48.3ZM13.8239 45.9993C11.0985 44.4322 8.98728 42.2885 7.45091 39.5231L2.20597 42.4369C4.26959 46.1515 7.15834 49.0878 10.833 51.2007L13.8239 45.9993ZM7.45091 39.5231C5.92762 36.7812 5.12844 33.5937 5.12844 29.88H-0.871562C-0.871562 34.4863 0.129254 38.6988 2.20597 42.4369L7.45091 39.5231Z" fill="#F7941E" mask="url(#path-1-outside-1_85_213)"/>
</svg>
