<svg width="48" height="48" viewBox="0 0 48 48" fill="none" xmlns="http://www.w3.org/2000/svg">
<path fill-rule="evenodd" clip-rule="evenodd" d="M17.6878 19.9752C19.7093 18.3248 21 15.8131 21 13C21 8.02944 16.9706 4 12 4C7.02944 4 3 8.02944 3 13C3 16.0088 4.47649 18.6728 6.74444 20.3069C7.93167 21.276 9.8836 22.5687 12.2505 24C9.8836 25.4313 7.93167 26.724 6.74444 27.6931C4.47649 29.3272 3 31.9912 3 35C3 39.9706 7.02944 44 12 44C16.9706 44 21 39.9706 21 35C21 32.1869 19.7093 29.6752 17.6878 28.0248C17.6878 28.0248 19.9273 29.4142 23 31.0996L34.0565 28.0248C30.8951 26.844 27.4066 25.4732 24 24C32.6664 20.2523 41.8625 17.1666 44.8557 16.1887C45.4027 16.01 45.6715 15.4146 45.3671 14.9264C44.4855 13.5127 42.3122 11 38 11C32.1545 11 17.6878 19.9752 17.6878 19.9752ZM15 13C15 14.6569 13.6569 16 12 16C10.3431 16 9 14.6569 9 13C9 11.3431 10.3431 10 12 10C13.6569 10 15 11.3431 15 13ZM15 35C15 33.3431 13.6569 32 12 32C10.3431 32 9 33.3431 9 35C9 36.6569 10.3431 38 12 38C13.6569 38 15 36.6569 15 35Z" fill="#D7A1FF"/>
<path d="M17.6878 19.9752L16.7392 18.8133C16.1267 19.3134 16.0076 20.2031 16.467 20.8467C16.9265 21.4903 17.8067 21.6667 18.4786 21.2498L17.6878 19.9752ZM24 24L23.4046 22.6232C22.8555 22.8607 22.5 23.4017 22.5 24C22.5 24.5983 22.8555 25.1393 23.4046 25.3768L24 24ZM17.6878 28.0248L18.4786 26.7502C17.8067 26.3333 16.9265 26.5097 16.467 27.1533C16.0076 27.7969 16.1267 28.6866 16.7392 29.1867L17.6878 28.0248ZM6.74444 27.6931L7.62132 28.9101C7.64574 28.8925 7.66962 28.8742 7.69294 28.8551L6.74444 27.6931ZM12.2505 24L13.0267 25.2836C13.476 25.0119 13.7505 24.5251 13.7505 24C13.7505 23.4749 13.476 22.9881 13.0267 22.7164L12.2505 24ZM6.74444 20.3069L7.69294 19.1449C7.66962 19.1258 7.64574 19.1075 7.62132 19.0899L6.74444 20.3069ZM22.2786 32.4148C23.0049 32.8132 23.9167 32.5473 24.3151 31.821C24.7136 31.0947 24.4477 30.1829 23.7214 29.7845L22.2786 32.4148ZM33.5317 29.43C34.3077 29.7198 35.1718 29.3257 35.4617 28.5496C35.7515 27.7736 35.3574 26.9095 34.5813 26.6196L33.5317 29.43ZM45.3671 14.9264L44.0942 15.72L45.3671 14.9264ZM44.8557 16.1887L45.3215 17.6145L44.8557 16.1887ZM18.6365 21.1371C20.9919 19.2141 22.5 16.2826 22.5 13H19.5C19.5 15.3437 18.4267 17.4355 16.7392 18.8133L18.6365 21.1371ZM38 12.5C41.6111 12.5 43.3731 14.5636 44.0942 15.72L46.6399 14.1327C45.5979 12.4617 43.0132 9.5 38 9.5V12.5ZM44.3899 14.7629C41.3837 15.745 32.1354 18.8477 23.4046 22.6232L24.5954 25.3768C33.1974 21.6569 42.3413 18.5882 45.3215 17.6145L44.3899 14.7629ZM16.7392 29.1867C18.4267 30.5645 19.5 32.6563 19.5 35H22.5C22.5 31.7174 20.9919 28.7859 18.6365 26.8629L16.7392 29.1867ZM19.5 35C19.5 39.1421 16.1421 42.5 12 42.5V45.5C17.799 45.5 22.5 40.799 22.5 35H19.5ZM12 42.5C7.85786 42.5 4.5 39.1421 4.5 35H1.5C1.5 40.799 6.20101 45.5 12 45.5V42.5ZM4.5 35C4.5 32.4938 5.7278 30.2744 7.62132 28.9101L5.86757 26.4761C3.22517 28.38 1.5 31.4886 1.5 35H4.5ZM7.69294 28.8551C8.79378 27.9566 10.6697 26.7089 13.0267 25.2836L11.4744 22.7164C9.09753 24.1537 7.06956 25.4915 5.79595 26.531L7.69294 28.8551ZM5.79595 21.469C7.06956 22.5085 9.09753 23.8463 11.4744 25.2836L13.0267 22.7164C10.6697 21.2911 8.79378 20.0434 7.69294 19.1449L5.79595 21.469ZM1.5 13C1.5 16.5114 3.22517 19.62 5.86757 21.5239L7.62132 19.0899C5.7278 17.7256 4.5 15.5062 4.5 13H1.5ZM12 2.5C6.20101 2.5 1.5 7.20101 1.5 13H4.5C4.5 8.85786 7.85786 5.5 12 5.5V2.5ZM22.5 13C22.5 7.20101 17.799 2.5 12 2.5V5.5C16.1421 5.5 19.5 8.85786 19.5 13H22.5ZM13.5 13C13.5 13.8284 12.8284 14.5 12 14.5V17.5C14.4853 17.5 16.5 15.4853 16.5 13H13.5ZM12 11.5C12.8284 11.5 13.5 12.1716 13.5 13H16.5C16.5 10.5147 14.4853 8.5 12 8.5V11.5ZM10.5 13C10.5 12.1716 11.1716 11.5 12 11.5V8.5C9.51472 8.5 7.5 10.5147 7.5 13H10.5ZM12 14.5C11.1716 14.5 10.5 13.8284 10.5 13H7.5C7.5 15.4853 9.51472 17.5 12 17.5V14.5ZM16.5 35C16.5 32.5147 14.4853 30.5 12 30.5V33.5C12.8284 33.5 13.5 34.1716 13.5 35H16.5ZM12 39.5C14.4853 39.5 16.5 37.4853 16.5 35H13.5C13.5 35.8284 12.8284 36.5 12 36.5V39.5ZM7.5 35C7.5 37.4853 9.51472 39.5 12 39.5V36.5C11.1716 36.5 10.5 35.8284 10.5 35H7.5ZM12 30.5C9.51472 30.5 7.5 32.5147 7.5 35H10.5C10.5 34.1716 11.1716 33.5 12 33.5V30.5ZM38 9.5C36.2418 9.5 34.0199 10.1532 31.8197 11.0031C29.5712 11.8717 27.1618 13.0203 24.9639 14.1547C22.7616 15.2913 20.7478 16.4262 19.2858 17.276C18.5542 17.7012 17.9593 18.056 17.5463 18.305C17.3398 18.4295 17.1787 18.5277 17.0686 18.5951C17.0136 18.6288 16.9713 18.6548 16.9425 18.6725C16.928 18.6814 16.917 18.6882 16.9094 18.6929C16.9056 18.6953 16.9027 18.6971 16.9006 18.6984C16.8996 18.699 16.8988 18.6995 16.8982 18.6999C16.8979 18.7001 16.8976 18.7002 16.8975 18.7003C16.8972 18.7005 16.8971 18.7006 17.6878 19.9752C18.4786 21.2498 18.4786 21.2499 18.4786 21.2499C18.4786 21.2498 18.4787 21.2498 18.4788 21.2497C18.4791 21.2495 18.4796 21.2492 18.4804 21.2487C18.4818 21.2479 18.4841 21.2464 18.4873 21.2444C18.4937 21.2405 18.5035 21.2345 18.5166 21.2264C18.5429 21.2102 18.5825 21.1858 18.6349 21.1537C18.7396 21.0896 18.895 20.995 19.0955 20.8741C19.4965 20.6323 20.0774 20.2858 20.7934 19.8697C22.2266 19.0366 24.1948 17.9277 26.3398 16.8205C28.4893 15.7111 30.7926 14.6159 32.9007 13.8016C35.057 12.9687 36.8355 12.5 38 12.5V9.5ZM17.6878 28.0248C16.8971 29.2994 16.8971 29.2995 16.8972 29.2995L16.8973 29.2996C16.8975 29.2997 16.8976 29.2998 16.8978 29.2999C16.8982 29.3001 16.8987 29.3005 16.8994 29.3009C16.9007 29.3017 16.9026 29.3029 16.905 29.3043C16.9098 29.3073 16.9168 29.3116 16.9259 29.3172C16.944 29.3284 16.9706 29.3448 17.0052 29.3661C17.0745 29.4086 17.1762 29.4708 17.3074 29.5505C17.5699 29.7098 17.9509 29.9392 18.4283 30.2214C19.3829 30.7857 20.7252 31.5627 22.2786 32.4148L23.7214 29.7845C22.2021 28.9511 20.8884 28.1907 19.955 27.6389C19.4885 27.3632 19.1176 27.1398 18.8641 26.986C18.7374 26.9091 18.6401 26.8495 18.5749 26.8095C18.5423 26.7895 18.5178 26.7744 18.5016 26.7644C18.4935 26.7594 18.4876 26.7557 18.4837 26.7533C18.4818 26.7521 18.4804 26.7513 18.4796 26.7508C18.4791 26.7505 18.4788 26.7503 18.4787 26.7502C18.4786 26.7502 18.4786 26.7501 18.4786 26.7501C18.4786 26.7502 18.4786 26.7502 17.6878 28.0248ZM34.5813 26.6196C31.4362 25.4449 27.9724 24.0836 24.5954 22.6232L23.4046 25.3768C26.8409 26.8627 30.354 28.2431 33.5317 29.43L34.5813 26.6196ZM44.0942 15.72C43.9784 15.5342 43.9645 15.2909 44.0477 15.0928C44.1241 14.9108 44.2628 14.8044 44.3899 14.7629L45.3215 17.6145C46.6406 17.1836 47.542 15.5793 46.6399 14.1327L44.0942 15.72Z" fill="#61298A"/>
<path d="M31 33H29" stroke="#61298A" stroke-width="3" stroke-linecap="round" stroke-linejoin="round"/>
<path d="M38 33H36" stroke="#61298A" stroke-width="3" stroke-linecap="round" stroke-linejoin="round"/>
<path d="M45 33H43" stroke="#61298A" stroke-width="3" stroke-linecap="round" stroke-linejoin="round"/>
</svg>
