<svg width="85" height="71" viewBox="0 0 85 71" fill="none" xmlns="http://www.w3.org/2000/svg">
<g clip-path="url(#clip0_362_10)">
<path fill-rule="evenodd" clip-rule="evenodd" d="M38.07 62.4999C27.81 57.0299 21.39 47.3299 23.49 35.4999C23.78 33.8599 25.58 33.8499 25.49 35.7499C25.2 40.4099 26.22 44.4599 29.89 47.5599C29.2321 45.9303 28.9485 44.1738 29.06 42.4199C29.15 40.8899 30.95 40.8599 31.06 42.4199C31.56 47.9999 40.24 46.7299 40.87 56.8699C41.09 60.3699 45.1 63.1499 46.66 66.1899C46.67 66.2299 43.88 66.6399 38.07 62.4999Z" fill="url(#paint0_linear_362_10)"/>
<path fill-rule="evenodd" clip-rule="evenodd" d="M42.23 45.3801C36.23 38.4801 36.38 31.9801 42.23 25.8301C48.08 31.9801 48.24 38.4801 42.23 45.3801Z" fill="#80C342"/>
<path fill-rule="evenodd" clip-rule="evenodd" d="M30.67 26.3499C20.95 23.1999 17.36 16.8799 19.43 7.63989C28.56 10.1499 32.45 16.2899 30.67 26.3499Z" fill="#80C342"/>
<path fill-rule="evenodd" clip-rule="evenodd" d="M32.55 9.47C28.77 6.89 28.03 3.72 30.08 0C33.67 2.24 34.59 5.37 32.55 9.47Z" fill="#80C342"/>
<path fill-rule="evenodd" clip-rule="evenodd" d="M13.81 20.82C10.23 20.45 8.53002 18.54 8.56002 15.21C11.89 15.4 13.67 17.23 13.81 20.82Z" fill="#80C342"/>
<path fill-rule="evenodd" clip-rule="evenodd" d="M19.09 40.0799C9.28 39.0799 4.67001 33.8199 4.72001 24.6699C13.85 25.2199 18.76 30.2399 19.09 40.0799Z" fill="#80C342"/>
<path fill-rule="evenodd" clip-rule="evenodd" d="M15.98 53.23C7.56998 54.96 2.32998 51.83 -0.0200195 44.23C7.71998 42.27 13.11 45.14 15.98 53.23Z" fill="#80C342"/>
<path fill-rule="evenodd" clip-rule="evenodd" d="M32.99 68.2401C22.43 72.8601 14.67 70.24 9.48999 60.86C19.08 56.15 26.97 58.4101 32.99 68.2401Z" fill="#80C342"/>
<path fill-rule="evenodd" clip-rule="evenodd" d="M44.43 57.14C44.4344 57.0634 44.4344 56.9866 44.43 56.91C45.06 46.77 53.74 48.04 54.24 42.46C54.39 40.87 56.18 40.9 56.24 42.46C56.3515 44.2138 56.0679 45.9703 55.41 47.6C59.08 44.5 60.1 40.45 59.81 35.79C59.69 33.89 61.49 33.9 61.81 35.54C63.86 47.05 57.81 56.54 48.02 62.09C47.53 61.46 47.02 60.84 46.48 60.23C45.6344 59.3173 44.9421 58.2738 44.43 57.14Z" fill="url(#paint1_linear_362_10)"/>
<path fill-rule="evenodd" clip-rule="evenodd" d="M53.79 26.3499C63.51 23.1999 67.1 16.8799 65.03 7.63989C55.9 10.1499 52.01 16.2899 53.79 26.3499Z" fill="#80C342"/>
<path fill-rule="evenodd" clip-rule="evenodd" d="M51.91 9.47C55.69 6.89 56.43 3.72 54.38 0C50.77 2.24 49.87 5.37 51.91 9.47Z" fill="#80C342"/>
<path fill-rule="evenodd" clip-rule="evenodd" d="M70.67 20.82C74.25 20.45 75.95 18.54 75.92 15.21C72.57 15.4 70.78 17.23 70.67 20.82Z" fill="#80C342"/>
<path fill-rule="evenodd" clip-rule="evenodd" d="M65.37 40.0799C75.18 39.0799 79.84 33.7999 79.74 24.6499C70.61 25.2199 65.67 30.2399 65.37 40.0799Z" fill="#80C342"/>
<path fill-rule="evenodd" clip-rule="evenodd" d="M68.48 53.23C76.88 54.96 82.13 51.83 84.48 44.23C76.74 42.27 71.35 45.14 68.48 53.23Z" fill="#80C342"/>
<path fill-rule="evenodd" clip-rule="evenodd" d="M51.47 68.2401C62.03 72.8601 69.79 70.24 74.97 60.86C65.37 56.15 57.49 58.4101 51.47 68.2401Z" fill="#80C342"/>
<path fill-rule="evenodd" clip-rule="evenodd" d="M42.23 19.4001C45.23 15.9501 45.16 12.6901 42.23 9.62012C39.3 12.6901 39.22 15.9501 42.23 19.4001Z" fill="#80C342"/>
<path fill-rule="evenodd" clip-rule="evenodd" d="M19.43 7.63989L30.09 25.7399C30.09 25.7399 16.01 23.0799 19.43 7.63989Z" fill="#5D991D"/>
<path fill-rule="evenodd" clip-rule="evenodd" d="M65.03 7.63989L53.79 26.3499C53.79 26.3499 68.67 23.2499 65.03 7.63989Z" fill="#5D991D"/>
<path fill-rule="evenodd" clip-rule="evenodd" d="M68.48 53.23L84.48 44.23C84.48 44.23 82.04 56.25 68.48 53.23Z" fill="#5D991D"/>
<path fill-rule="evenodd" clip-rule="evenodd" d="M51.47 68.2401L74.97 60.8601C74.97 60.8601 67.77 75.9401 51.47 68.2401Z" fill="#5D991D"/>
<path fill-rule="evenodd" clip-rule="evenodd" d="M9.48999 60.8601L32.99 68.2401C32.99 68.2401 17.89 75.8801 9.48999 60.8601Z" fill="#5D991D"/>
</g>
<defs>
<linearGradient id="paint0_linear_362_10" x1="16.69" y1="80.0799" x2="40.61" y2="41.8999" gradientUnits="userSpaceOnUse">
<stop offset="0.53" stop-color="#9420D1"/>
<stop offset="0.73" stop-color="#61298A"/>
<stop offset="1" stop-color="#290A44"/>
</linearGradient>
<linearGradient id="paint1_linear_362_10" x1="75.18" y1="64.18" x2="48.36" y2="43.4" gradientUnits="userSpaceOnUse">
<stop offset="0.53" stop-color="#9420D1"/>
<stop offset="0.73" stop-color="#61298A"/>
<stop offset="1" stop-color="#290A44"/>
</linearGradient>
<clipPath id="clip0_362_10">
<rect width="84.46" height="70.45" fill="white"/>
</clipPath>
</defs>
</svg>
