<svg width="500" height="461" viewBox="0 0 500 461" fill="none" xmlns="http://www.w3.org/2000/svg">
<path d="M232.59 11.2312C365.366 -0.547365 365.634 74.332 425.469 144.147C485.304 213.961 498.121 245.603 475.56 326.082C452.998 406.562 376.984 469.641 282.938 433.898C188.892 398.156 135.021 432.474 75.6999 400.704C16.379 368.935 -5.67902 307.633 37.7838 235.366C81.2466 163.099 68.8255 25.8151 232.59 11.2312Z" fill="#F7941E"/>
<path opacity="0.7" d="M232.59 11.2312C365.366 -0.547365 365.634 74.332 425.469 144.147C485.304 213.961 498.121 245.603 475.56 326.082C452.998 406.562 376.984 469.641 282.938 433.898C188.892 398.156 135.021 432.474 75.6999 400.704C16.379 368.935 -5.67902 307.633 37.7838 235.366C81.2466 163.099 68.8255 25.8151 232.59 11.2312Z" fill="white"/>
<path opacity="0.2" d="M305.745 277.779C305.745 277.779 305.66 318.726 305.745 321.114C305.831 323.501 308.958 337.882 308.958 337.882L299.01 356.214L307.576 363.109L324.227 346.748C324.227 346.748 338.404 355.496 340.995 368.024C343.587 380.552 359.017 389.675 375.025 424.368C391.033 459.062 409.289 346.748 409.289 346.748L359.895 284.557L305.745 277.779Z" fill="black" fill-opacity="0.7"/>
<path d="M456.746 57.7992L441.616 205.438L432.311 296.261L302.276 282.941L276.974 280.349L260.773 278.69L275.132 138.525L285.208 40.2278L456.746 57.7992Z" fill="white"/>
<mask id="mask0_365_2545" style="mask-type:luminance" maskUnits="userSpaceOnUse" x="260" y="40" width="197" height="257">
<path d="M456.746 57.7992L441.616 205.438L432.311 296.261L302.276 282.941L276.974 280.349L260.773 278.69L275.132 138.525L285.208 40.2278L456.746 57.7992Z" fill="white"/>
</mask>
<g mask="url(#mask0_365_2545)">
<path d="M406.923 63.3566L332.879 55.7648C332.548 55.7311 332.214 55.7627 331.896 55.858C331.578 55.9533 331.282 56.1103 331.024 56.3201C330.767 56.5299 330.553 56.7884 330.395 57.0807C330.238 57.3731 330.139 57.6937 330.105 58.0241C330.072 58.3546 330.103 58.6884 330.199 59.0066C330.294 59.3249 330.451 59.6212 330.661 59.8787C330.87 60.1362 331.129 60.3499 331.421 60.5076C331.714 60.6652 332.034 60.7637 332.365 60.7974L406.409 68.3892C407.076 68.4574 407.743 68.2576 408.263 67.8339C408.784 67.4102 409.114 66.7973 409.182 66.1299C409.25 65.4625 409.051 64.7954 408.627 64.2753C408.203 63.7552 407.59 63.4248 406.923 63.3566Z" fill="#263238"/>
<path d="M387.349 71.7622L350.332 67.961C349.998 67.928 349.663 68.0289 349.402 68.2415C349.142 68.4542 348.976 68.7613 348.94 69.096C348.924 69.2612 348.941 69.428 348.989 69.5869C349.037 69.7458 349.116 69.8936 349.222 70.0219C349.327 70.1502 349.457 70.2564 349.603 70.3345C349.75 70.4127 349.91 70.4612 350.075 70.4773L387.092 74.2785C387.427 74.3115 387.761 74.2106 388.022 73.998C388.283 73.7853 388.449 73.4782 388.484 73.1435C388.502 72.978 388.486 72.8106 388.439 72.6512C388.391 72.4917 388.312 72.3433 388.206 72.2148C388.101 72.0862 387.97 71.9799 387.823 71.9022C387.676 71.8245 387.515 71.7769 387.349 71.7622Z" fill="#263238"/>
<path d="M428.092 180.724L307.908 168.41C307.583 168.374 307.255 168.465 306.996 168.664C306.736 168.864 306.564 169.157 306.516 169.481C306.483 169.816 306.584 170.15 306.797 170.411C307.009 170.672 307.317 170.838 307.651 170.873L427.835 183.283C428 183.3 428.167 183.283 428.326 183.235C428.485 183.187 428.633 183.108 428.761 183.002C428.889 182.897 428.995 182.767 429.074 182.621C429.152 182.474 429.2 182.314 429.216 182.148C429.24 181.98 429.23 181.809 429.186 181.646C429.141 181.482 429.064 181.329 428.959 181.195C428.854 181.062 428.723 180.952 428.574 180.871C428.425 180.79 428.261 180.74 428.092 180.724Z" fill="#263238"/>
<path d="M427.204 189.772L287.414 175.456C287.249 175.438 287.082 175.454 286.924 175.501C286.765 175.548 286.617 175.626 286.488 175.73C286.36 175.835 286.254 175.964 286.175 176.11C286.097 176.256 286.048 176.416 286.032 176.581C285.996 176.906 286.087 177.233 286.286 177.493C286.486 177.753 286.779 177.925 287.103 177.973L426.85 192.289C427.015 192.306 427.182 192.29 427.341 192.242C427.501 192.195 427.649 192.116 427.777 192.011C427.906 191.906 428.013 191.777 428.092 191.631C428.171 191.485 428.22 191.324 428.237 191.159C428.254 190.994 428.238 190.827 428.19 190.668C428.143 190.509 428.064 190.361 427.959 190.232C427.854 190.103 427.725 189.996 427.579 189.917C427.433 189.839 427.272 189.789 427.107 189.772H427.204Z" fill="#263238"/>
<path d="M387.103 194.816L286.45 184.504C286.116 184.469 285.782 184.567 285.521 184.778C285.26 184.989 285.094 185.295 285.058 185.628C285.023 185.962 285.121 186.296 285.332 186.557C285.543 186.818 285.849 186.985 286.182 187.021L386.835 197.332C387.001 197.348 387.167 197.332 387.326 197.284C387.485 197.235 387.633 197.156 387.761 197.051C387.89 196.945 387.996 196.816 388.074 196.669C388.152 196.523 388.201 196.362 388.217 196.197C388.234 196.033 388.22 195.867 388.173 195.709C388.127 195.551 388.05 195.404 387.947 195.275C387.843 195.147 387.715 195.04 387.571 194.961C387.426 194.883 387.267 194.833 387.103 194.816Z" fill="#263238"/>
<path d="M284.907 194.262L280.819 234.164L421.702 248.599L425.79 208.696L284.907 194.262Z" fill="#BFBFBF" stroke="#263238" stroke-miterlimit="10"/>
<path d="M349.512 148.089C362.82 137.001 364.62 117.225 353.532 103.917C342.444 90.6096 322.668 88.8098 309.361 99.8974C296.053 110.985 294.253 130.761 305.341 144.069C316.428 157.377 336.204 159.176 349.512 148.089Z" fill="#F7941E"/>
<mask id="mask1_365_2545" style="mask-type:luminance" maskUnits="userSpaceOnUse" x="298" y="92" width="63" height="64">
<path d="M349.512 148.089C362.82 137.001 364.62 117.225 353.532 103.917C342.444 90.6096 322.668 88.8098 309.361 99.8974C296.053 110.985 294.253 130.761 305.341 144.069C316.428 157.377 336.204 159.176 349.512 148.089Z" fill="white"/>
</mask>
<g mask="url(#mask1_365_2545)">
<path opacity="0.5" d="M349.512 148.089C362.82 137.001 364.62 117.225 353.532 103.917C342.444 90.6096 322.668 88.8098 309.361 99.8974C296.053 110.985 294.253 130.761 305.341 144.069C316.428 157.377 336.204 159.176 349.512 148.089Z" fill="white"/>
</g>
<path d="M349.512 148.089C362.82 137.001 364.62 117.225 353.532 103.917C342.444 90.6096 322.668 88.8098 309.361 99.8974C296.053 110.985 294.253 130.761 305.341 144.069C316.428 157.377 336.204 159.176 349.512 148.089Z" stroke="#263238" stroke-miterlimit="10"/>
<path d="M330.341 123.92L356.425 137.037C358.859 131.983 359.826 126.347 359.217 120.771C358.607 115.194 356.445 109.901 352.977 105.492L330.341 123.92Z" fill="white"/>
<path d="M330.512 122.506L352.356 104.731C349.095 100.845 344.897 97.853 340.16 96.0366L336.188 106.851L330.512 122.506Z" fill="#F7941E"/>
<path d="M332.975 94.2805L330.341 120.108L339.228 95.6832C337.201 94.992 335.104 94.5217 332.975 94.2805Z" fill="#757575"/>
<path d="M328.981 123.684L332.011 94.1736C326.849 93.7399 321.661 94.6516 316.956 96.8196C312.25 98.9876 308.187 102.338 305.162 106.544C302.137 110.75 300.253 115.668 299.695 120.819C299.137 125.97 299.922 131.177 301.976 135.934L328.981 123.684Z" fill="#999999"/>
<path d="M326.39 153.816C332.345 154.422 338.345 153.231 343.618 150.397C348.891 147.563 353.195 143.216 355.975 137.915L329.431 124.562L302.372 136.855C304.582 141.507 307.952 145.511 312.159 148.482C316.366 151.452 321.267 153.289 326.39 153.816Z" fill="#BFBFBF"/>
<path d="M379.765 103.644L376.196 103.278C375.826 103.241 375.495 103.51 375.457 103.881L375.091 107.449C375.053 107.82 375.323 108.151 375.693 108.189L379.262 108.555C379.632 108.593 379.964 108.323 380.002 107.952L380.367 104.384C380.405 104.013 380.136 103.682 379.765 103.644Z" fill="#F7941E" stroke="#263238" stroke-miterlimit="10"/>
<path d="M429.484 110.556L383.377 105.834C383.268 105.784 383.178 105.702 383.119 105.598C383.061 105.494 383.036 105.375 383.049 105.256C383.062 105.138 383.112 105.026 383.192 104.938C383.272 104.849 383.378 104.788 383.494 104.763L429.602 109.4C429.741 109.427 429.865 109.506 429.949 109.62C430.033 109.734 430.072 109.875 430.057 110.016C430.042 110.157 429.975 110.287 429.869 110.381C429.763 110.475 429.626 110.526 429.484 110.524V110.556Z" fill="#263238"/>
<path d="M424.719 112.548L383.13 108.265C382.981 108.249 382.845 108.174 382.751 108.058C382.656 107.942 382.612 107.793 382.627 107.644C382.634 107.57 382.655 107.498 382.69 107.432C382.725 107.366 382.773 107.308 382.831 107.261C382.889 107.214 382.956 107.179 383.027 107.159C383.099 107.138 383.174 107.132 383.248 107.141L424.837 111.424C424.976 111.451 425.1 111.529 425.184 111.643C425.268 111.757 425.307 111.899 425.292 112.04C425.277 112.181 425.21 112.311 425.104 112.405C424.998 112.499 424.861 112.55 424.719 112.548Z" fill="#263238"/>
<path d="M378.639 114.64L375.071 114.275C374.7 114.237 374.369 114.507 374.331 114.877L373.966 118.446C373.928 118.816 374.197 119.147 374.568 119.185L378.136 119.551C378.507 119.589 378.838 119.319 378.876 118.949L379.242 115.38C379.28 115.01 379.01 114.678 378.639 114.64Z" fill="#757575" stroke="#263238" stroke-linecap="round" stroke-linejoin="round"/>
<path d="M428.36 121.553L382.231 116.831C382.092 116.804 381.968 116.725 381.884 116.611C381.8 116.497 381.761 116.356 381.776 116.215C381.791 116.074 381.858 115.944 381.964 115.85C382.07 115.756 382.207 115.705 382.349 115.707L428.445 120.429C428.595 120.445 428.733 120.519 428.829 120.635C428.925 120.751 428.971 120.9 428.959 121.05C428.943 121.195 428.872 121.328 428.76 121.422C428.649 121.515 428.505 121.562 428.36 121.553Z" fill="#263238"/>
<path d="M423.584 123.556L382.006 119.273C381.855 119.258 381.717 119.185 381.62 119.068C381.524 118.952 381.478 118.802 381.492 118.651C381.506 118.501 381.58 118.362 381.696 118.266C381.813 118.17 381.963 118.123 382.113 118.138L423.702 122.421C423.777 122.428 423.849 122.451 423.915 122.486C423.981 122.522 424.039 122.57 424.086 122.628C424.133 122.687 424.169 122.754 424.19 122.825C424.211 122.897 424.218 122.973 424.211 123.047C424.203 123.122 424.181 123.194 424.145 123.26C424.109 123.326 424.061 123.384 424.003 123.431C423.945 123.478 423.878 123.514 423.806 123.535C423.734 123.556 423.659 123.563 423.584 123.556Z" fill="#263238"/>
<path d="M377.524 125.637L373.956 125.271C373.585 125.233 373.254 125.503 373.216 125.873L372.85 129.442C372.812 129.813 373.082 130.144 373.453 130.182L377.021 130.547C377.392 130.585 377.723 130.316 377.761 129.945L378.126 126.377C378.164 126.006 377.895 125.675 377.524 125.637Z" fill="#999999" stroke="#263238" stroke-linecap="round" stroke-linejoin="round"/>
<path d="M427.204 132.561L381.16 127.828C381.081 127.827 381.004 127.809 380.932 127.776C380.86 127.744 380.796 127.696 380.744 127.637C380.692 127.578 380.652 127.509 380.628 127.434C380.604 127.359 380.596 127.28 380.604 127.201C380.612 127.123 380.637 127.047 380.676 126.979C380.715 126.91 380.768 126.851 380.831 126.804C380.895 126.757 380.967 126.724 381.044 126.707C381.121 126.69 381.201 126.689 381.278 126.704L427.375 131.426C427.449 131.434 427.522 131.456 427.588 131.492C427.653 131.527 427.712 131.576 427.759 131.634C427.806 131.692 427.841 131.759 427.863 131.831C427.884 131.902 427.891 131.978 427.884 132.052C427.876 132.127 427.853 132.199 427.818 132.265C427.782 132.331 427.734 132.389 427.676 132.436C427.617 132.484 427.551 132.519 427.479 132.54C427.407 132.562 427.332 132.569 427.257 132.561H427.204Z" fill="#263238"/>
<path d="M422.46 134.553L380.871 130.269C380.722 130.253 380.586 130.179 380.491 130.063C380.397 129.946 380.353 129.797 380.368 129.648C380.384 129.499 380.458 129.361 380.574 129.265C380.69 129.169 380.839 129.122 380.989 129.134L422.578 133.418C422.728 133.433 422.866 133.508 422.962 133.625C423.057 133.743 423.102 133.893 423.086 134.044C423.071 134.194 422.996 134.333 422.878 134.428C422.761 134.523 422.61 134.568 422.46 134.553Z" fill="#263238"/>
<path d="M376.387 136.643L372.819 136.277C372.448 136.239 372.117 136.509 372.079 136.879L371.713 140.448C371.675 140.818 371.945 141.15 372.315 141.188L375.884 141.553C376.254 141.591 376.586 141.321 376.624 140.951L376.989 137.382C377.027 137.012 376.758 136.681 376.387 136.643Z" fill="#BFBFBF" stroke="#263238" stroke-miterlimit="10"/>
<path d="M426.133 143.558L380.036 138.836C379.961 138.829 379.889 138.807 379.822 138.773C379.756 138.738 379.697 138.69 379.649 138.632C379.602 138.574 379.566 138.508 379.544 138.436C379.522 138.364 379.514 138.289 379.522 138.215C379.538 138.065 379.612 137.927 379.728 137.832C379.844 137.736 379.993 137.689 380.143 137.701L426.25 142.433C426.329 142.435 426.407 142.452 426.479 142.485C426.55 142.518 426.614 142.565 426.667 142.624C426.719 142.683 426.758 142.752 426.782 142.827C426.806 142.902 426.815 142.982 426.807 143.06C426.798 143.138 426.774 143.214 426.735 143.283C426.696 143.351 426.643 143.411 426.579 143.457C426.516 143.504 426.443 143.537 426.367 143.555C426.29 143.572 426.21 143.573 426.133 143.558Z" fill="#263238"/>
<path d="M421.335 145.549L379.746 141.266C379.607 141.239 379.484 141.161 379.399 141.047C379.315 140.933 379.277 140.791 379.291 140.65C379.306 140.509 379.373 140.379 379.479 140.285C379.585 140.191 379.723 140.14 379.864 140.142L421.453 144.425C421.541 144.406 421.632 144.409 421.719 144.432C421.806 144.455 421.886 144.499 421.952 144.559C422.019 144.619 422.07 144.694 422.102 144.778C422.134 144.862 422.146 144.953 422.136 145.042C422.126 145.131 422.095 145.217 422.046 145.292C421.996 145.367 421.93 145.429 421.852 145.474C421.774 145.518 421.686 145.543 421.596 145.547C421.506 145.551 421.417 145.533 421.335 145.496V145.549Z" fill="#263238"/>
<path d="M375.261 147.649L371.693 147.284C371.322 147.246 370.991 147.516 370.953 147.886L370.587 151.455C370.549 151.825 370.819 152.156 371.19 152.194L374.758 152.56C375.129 152.598 375.46 152.328 375.498 151.958L375.864 148.389C375.902 148.019 375.632 147.687 375.261 147.649Z" fill="white" stroke="#263238" stroke-linecap="round" stroke-linejoin="round"/>
<path d="M424.976 154.555L378.869 149.832C378.76 149.783 378.67 149.7 378.612 149.596C378.553 149.493 378.528 149.373 378.541 149.255C378.554 149.136 378.604 149.025 378.684 148.936C378.764 148.848 378.87 148.787 378.987 148.762L425.062 153.43C425.15 153.411 425.241 153.414 425.328 153.437C425.415 153.46 425.495 153.504 425.561 153.564C425.628 153.624 425.679 153.7 425.711 153.784C425.743 153.868 425.755 153.958 425.745 154.047C425.735 154.137 425.704 154.222 425.655 154.297C425.605 154.372 425.539 154.435 425.461 154.479C425.382 154.523 425.295 154.548 425.205 154.552C425.115 154.556 425.026 154.539 424.944 154.501L424.976 154.555Z" fill="#263238"/>
<path d="M420.211 156.514L378.622 152.231C378.544 152.23 378.466 152.212 378.394 152.18C378.323 152.147 378.259 152.099 378.206 152.04C378.154 151.981 378.115 151.912 378.09 151.837C378.066 151.762 378.058 151.683 378.066 151.605C378.075 151.526 378.099 151.45 378.138 151.382C378.177 151.314 378.23 151.254 378.294 151.207C378.357 151.16 378.429 151.127 378.506 151.11C378.583 151.093 378.663 151.092 378.74 151.107L420.318 155.39C420.398 155.39 420.476 155.406 420.549 155.438C420.621 155.469 420.687 155.516 420.74 155.575C420.793 155.633 420.834 155.702 420.859 155.778C420.884 155.853 420.893 155.932 420.886 156.011C420.878 156.09 420.854 156.167 420.816 156.236C420.777 156.305 420.724 156.365 420.66 156.412C420.597 156.46 420.524 156.493 420.447 156.511C420.369 156.528 420.289 156.53 420.211 156.514Z" fill="#263238"/>
<path d="M404.461 235.146L407.092 235.415L408.634 220.364L406.003 220.094L404.461 235.146Z" fill="#757575" stroke="#263238" stroke-linecap="round" stroke-linejoin="round"/>
<path d="M404.7 232.869L407.331 233.139L408.057 226.055L405.426 225.786L404.7 232.869Z" fill="#F7941E" stroke="#263238" stroke-miterlimit="10"/>
<path d="M410.786 231.947L413.417 232.217L414.959 217.166L412.328 216.896L410.786 231.947Z" fill="#757575" stroke="#263238" stroke-linecap="round" stroke-linejoin="round"/>
<path d="M411.908 220.873L411.182 227.956L413.813 228.226L414.539 221.142L411.908 220.873Z" fill="#F7941E" stroke="#263238" stroke-miterlimit="10"/>
<path d="M416.408 235.428L419.039 235.698L420.581 220.647L417.95 220.377L416.408 235.428Z" fill="#757575" stroke="#263238" stroke-linecap="round" stroke-linejoin="round"/>
<path d="M416.987 229.78L419.618 230.05L420.344 222.966L417.713 222.696L416.987 229.78Z" fill="#F7941E" stroke="#263238" stroke-miterlimit="10"/>
<path d="M398.841 231.567L401.472 231.836L403.015 216.785L400.383 216.516L398.841 231.567Z" fill="#757575" stroke="#263238" stroke-linecap="round" stroke-linejoin="round"/>
<path d="M399.081 229.28L401.712 229.549L402.438 222.466L399.807 222.196L399.081 229.28Z" fill="#F7941E" stroke="#263238" stroke-miterlimit="10"/>
<path d="M392.465 235.396L395.096 235.666L396.638 220.614L394.007 220.345L392.465 235.396Z" fill="#757575" stroke="#263238" stroke-linecap="round" stroke-linejoin="round"/>
<path d="M392.633 233.707L395.264 233.977L395.99 226.893L393.359 226.624L392.633 233.707Z" fill="#F7941E" stroke="#263238" stroke-miterlimit="10"/>
<path d="M386.945 230.903L389.576 231.173L391.118 216.121L388.487 215.852L386.945 230.903Z" fill="#757575" stroke="#263238" stroke-linecap="round" stroke-linejoin="round"/>
<path d="M386.993 230.357L389.624 230.626L390.35 223.543L387.719 223.273L386.993 230.357Z" fill="#F7941E" stroke="#263238" stroke-miterlimit="10"/>
<path d="M380.199 238.17L382.83 238.439L384.372 223.388L381.741 223.119L380.199 238.17Z" fill="#757575" stroke="#263238" stroke-linecap="round" stroke-linejoin="round"/>
<path d="M380.245 237.612L382.876 237.881L383.602 230.798L380.971 230.528L380.245 237.612Z" fill="#F7941E" stroke="#263238" stroke-miterlimit="10"/>
<path d="M375.247 228.074L377.878 228.344L379.42 213.293L376.789 213.023L375.247 228.074Z" fill="#757575" stroke="#263238" stroke-linecap="round" stroke-linejoin="round"/>
<path d="M375.486 225.81L378.117 226.08L378.843 218.996L376.212 218.726L375.486 225.81Z" fill="#F7941E" stroke="#263238" stroke-miterlimit="10"/>
<path d="M369.4 226.606L372.031 226.875L373.574 211.824L370.943 211.554L369.4 226.606Z" fill="#757575" stroke="#263238" stroke-linecap="round" stroke-linejoin="round"/>
<path d="M370.002 220.915L372.633 221.184L373.359 214.1L370.728 213.831L370.002 220.915Z" fill="#F7941E" stroke="#263238" stroke-miterlimit="10"/>
<path d="M362.523 235.428L365.154 235.698L366.696 220.646L364.065 220.377L362.523 235.428Z" fill="#757575" stroke="#263238" stroke-linecap="round" stroke-linejoin="round"/>
<path d="M363.164 229.193L365.795 229.463L366.521 222.379L363.89 222.11L363.164 229.193Z" fill="#F7941E" stroke="#263238" stroke-miterlimit="10"/>
<path d="M357.274 228.205L359.905 228.475L361.447 213.423L358.816 213.154L357.274 228.205Z" fill="#757575" stroke="#263238" stroke-linecap="round" stroke-linejoin="round"/>
<path d="M357.563 225.374L360.194 225.644L360.919 218.56L358.288 218.291L357.563 225.374Z" fill="#F7941E" stroke="#263238" stroke-miterlimit="10"/>
<path d="M350.93 231.544L353.561 231.814L355.103 216.763L352.472 216.493L350.93 231.544Z" fill="#757575" stroke="#263238" stroke-linecap="round" stroke-linejoin="round"/>
<path d="M351.18 229.259L353.811 229.528L354.536 222.444L351.905 222.175L351.18 229.259Z" fill="#F7941E" stroke="#263238" stroke-miterlimit="10"/>
<path d="M344.315 237.69L346.946 237.96L348.488 222.909L345.857 222.639L344.315 237.69Z" fill="#757575" stroke="#263238" stroke-linecap="round" stroke-linejoin="round"/>
<path d="M344.335 237.678L346.966 237.948L347.692 230.864L345.061 230.594L344.335 237.678Z" fill="#F7941E" stroke="#263238" stroke-miterlimit="10"/>
<path d="M339.39 227.542L342.021 227.812L343.564 212.76L340.933 212.491L339.39 227.542Z" fill="#757575" stroke="#263238" stroke-linecap="round" stroke-linejoin="round"/>
<path d="M339.549 225.831L342.18 226.101L342.906 219.017L340.275 218.747L339.549 225.831Z" fill="#F7941E" stroke="#263238" stroke-miterlimit="10"/>
<path d="M334.13 220.33L336.761 220.599L338.303 205.548L335.672 205.279L334.13 220.33Z" fill="#757575" stroke="#263238" stroke-linecap="round" stroke-linejoin="round"/>
<path d="M334.309 218.62L336.94 218.889L337.666 211.806L335.035 211.536L334.309 218.62Z" fill="#F7941E" stroke="#263238" stroke-miterlimit="10"/>
<path d="M327.382 227.683L330.013 227.952L331.555 212.901L328.924 212.631L327.382 227.683Z" fill="#757575" stroke="#263238" stroke-linecap="round" stroke-linejoin="round"/>
<path d="M327.962 222.013L330.593 222.282L331.319 215.199L328.688 214.929L327.962 222.013Z" fill="#F7941E" stroke="#263238" stroke-miterlimit="10"/>
<path d="M320.592 235.58L323.223 235.85L324.765 220.799L322.134 220.529L320.592 235.58Z" fill="#757575" stroke="#263238" stroke-linecap="round" stroke-linejoin="round"/>
<path d="M321.293 228.769L323.924 229.038L324.65 221.955L322.019 221.685L321.293 228.769Z" fill="#F7941E" stroke="#263238" stroke-miterlimit="10"/>
<path d="M315.536 226.465L318.167 226.734L319.709 211.683L317.078 211.413L315.536 226.465Z" fill="#757575" stroke="#263238" stroke-linecap="round" stroke-linejoin="round"/>
<path d="M315.764 224.211L318.396 224.48L319.121 217.397L316.49 217.127L315.764 224.211Z" fill="#F7941E" stroke="#263238" stroke-miterlimit="10"/>
<path d="M309.867 223.365L312.498 223.634L314.04 208.583L311.409 208.313L309.867 223.365Z" fill="#757575" stroke="#263238" stroke-linecap="round" stroke-linejoin="round"/>
<path d="M310.508 217.118L313.139 217.388L313.864 210.304L311.233 210.035L310.508 217.118Z" fill="#F7941E" stroke="#263238" stroke-miterlimit="10"/>
<path d="M303.451 227.444L306.082 227.713L307.624 212.662L304.993 212.393L303.451 227.444Z" fill="#757575" stroke="#263238" stroke-linecap="round" stroke-linejoin="round"/>
<path d="M303.46 227.43L306.091 227.7L306.817 220.616L304.186 220.347L303.46 227.43Z" fill="#F7941E" stroke="#263238" stroke-miterlimit="10"/>
<path d="M298.011 222.135L300.642 222.404L302.184 207.353L299.553 207.083L298.011 222.135Z" fill="#757575" stroke="#263238" stroke-linecap="round" stroke-linejoin="round"/>
<path d="M298.129 221.013L300.76 221.282L301.486 214.199L298.855 213.929L298.129 221.013Z" fill="#F7941E" stroke="#263238" stroke-miterlimit="10"/>
<path d="M291.881 223.56L294.512 223.83L296.054 208.778L293.423 208.509L291.881 223.56Z" fill="#757575" stroke="#263238" stroke-linecap="round" stroke-linejoin="round"/>
<path d="M291.94 222.992L294.571 223.262L295.296 216.178L292.665 215.909L291.94 222.992Z" fill="#F7941E" stroke="#263238" stroke-miterlimit="10"/>
<path d="M286.153 221.015L288.784 221.284L290.326 206.233L287.695 205.963L286.153 221.015Z" fill="#757575" stroke="#263238" stroke-linecap="round" stroke-linejoin="round"/>
<path d="M286.913 213.648L289.544 213.918L290.27 206.834L287.639 206.565L286.913 213.648Z" fill="#F7941E" stroke="#263238" stroke-miterlimit="10"/>
<path d="M420.618 253.612L300.445 241.288C300.11 241.255 299.776 241.356 299.515 241.568C299.254 241.781 299.088 242.088 299.053 242.423C299.035 242.587 299.05 242.754 299.097 242.913C299.144 243.071 299.223 243.219 299.327 243.348C299.432 243.476 299.561 243.583 299.707 243.661C299.853 243.739 300.013 243.788 300.177 243.804L420.361 256.096C420.696 256.129 421.031 256.029 421.291 255.816C421.552 255.603 421.718 255.296 421.753 254.961C421.777 254.633 421.672 254.308 421.46 254.056C421.248 253.804 420.946 253.645 420.618 253.612Z" fill="#263238"/>
<path d="M419.708 262.66L279.95 248.333C279.616 248.3 279.281 248.401 279.02 248.614C278.76 248.826 278.594 249.134 278.558 249.468C278.541 249.634 278.556 249.801 278.604 249.961C278.651 250.12 278.73 250.268 278.836 250.397C278.942 250.526 279.072 250.632 279.219 250.71C279.366 250.787 279.528 250.835 279.693 250.85L419.44 265.177C419.773 265.207 420.105 265.104 420.363 264.892C420.622 264.68 420.786 264.374 420.822 264.042C420.839 263.878 420.825 263.712 420.778 263.554C420.732 263.396 420.655 263.248 420.552 263.12C420.448 262.991 420.32 262.885 420.176 262.806C420.031 262.727 419.872 262.678 419.708 262.66Z" fill="#263238"/>
<path d="M360.066 265.733L279.019 257.424C278.684 257.391 278.349 257.492 278.089 257.705C277.828 257.917 277.662 258.224 277.627 258.559C277.61 258.724 277.627 258.891 277.675 259.05C277.723 259.209 277.802 259.357 277.908 259.485C278.013 259.613 278.143 259.72 278.289 259.798C278.436 259.876 278.596 259.924 278.762 259.94L359.809 268.25C359.974 268.267 360.141 268.251 360.3 268.203C360.459 268.155 360.607 268.077 360.736 267.972C360.865 267.867 360.972 267.738 361.05 267.592C361.129 267.445 361.179 267.285 361.195 267.12C361.212 266.955 361.196 266.788 361.149 266.629C361.101 266.47 361.023 266.321 360.918 266.193C360.813 266.064 360.684 265.957 360.537 265.878C360.391 265.799 360.231 265.75 360.066 265.733Z" fill="#263238"/>
<path opacity="0.2" d="M433.874 184.879C429.73 184.547 428.296 191.154 428.296 191.154C428.296 191.154 421.742 182.587 422.781 162.371C422.781 162.371 419.569 153.419 411.003 158.827C402.436 164.234 393.538 183.283 395.658 204.056L379.018 148.708C373.258 149.929 361.554 157.67 364.638 195.051L346.435 175.777C346.435 175.777 341.509 174.192 338.725 178.551C335.941 182.909 337.269 214.122 339.571 225.793C341.873 237.465 336.005 260.915 336.005 260.915C336.005 260.915 329.731 234.359 318.38 227.635L275.153 138.525L260.773 278.689L276.974 280.349L302.993 267.682C302.843 273.539 302.704 278.925 302.276 282.94L432.311 296.261L441.616 205.438C438.457 194.12 435.438 184.997 433.874 184.879Z" fill="black" fill-opacity="0.7"/>
</g>
<path d="M456.746 57.7992L441.616 205.438L432.311 296.261L302.276 282.941L276.974 280.349L260.773 278.69L275.132 138.525L285.208 40.2278L456.746 57.7992Z" stroke="#263238" stroke-linecap="round" stroke-linejoin="round"/>
<path d="M454.605 437.882L378.579 450.817C378.579 450.817 365.345 380.52 357.453 369.438C349.561 358.355 351.028 353.804 347.174 346.341C344.861 341.833 333.254 333.428 324.163 325.129C323.37 324.412 322.599 323.694 321.86 322.988C321.539 322.698 321.239 322.388 320.94 322.099C319.73 320.9 318.605 319.732 317.609 318.587C317.245 318.18 316.888 317.773 316.539 317.366C314.851 315.486 313.594 313.261 312.855 310.845C312.823 310.737 312.801 310.626 312.791 310.513C312.76 310.383 312.739 310.25 312.727 310.117C312.523 308.457 312.309 306.562 312.095 304.506C312.095 304.099 312.009 303.671 311.956 303.242L311.892 302.728C311.71 301.015 311.506 299.195 311.271 297.321C311.035 295.447 310.778 293.327 310.478 291.282C310.382 290.575 310.285 289.868 310.168 289.14C310.05 288.348 309.921 287.556 309.793 286.753L309.418 284.686C309.418 284.568 309.365 284.461 309.354 284.365L308.904 281.988C308.875 281.901 308.857 281.811 308.851 281.72C308.701 281.024 308.561 280.339 308.401 279.643C308.069 278.09 307.694 276.569 307.33 275.092C306.593 272.311 305.644 269.59 304.492 266.954C299.01 254.715 306.141 259.137 301.848 227.646C301.848 227.646 305.006 220.343 314.012 226.179C314.708 226.633 315.379 227.122 316.025 227.646C317.85 229.122 319.461 230.844 320.811 232.764C322.642 235.378 324.038 238.271 324.944 241.33C326.416 246.293 326.832 251.509 326.165 256.642C326.165 256.642 332.932 279.835 336.498 285.114C340.064 290.393 354.808 260.069 353.855 256.535C353.521 254.95 353.267 253.349 353.095 251.738C353.031 251.213 352.967 250.667 352.892 250.068C352.817 249.468 352.752 248.868 352.688 248.237C352.688 247.937 352.613 247.616 352.57 247.305C352.57 247.177 352.57 247.048 352.57 246.93C352.442 245.72 352.292 244.435 352.153 243.108C352.153 242.733 352.078 242.38 352.035 242.037C351.971 241.405 351.906 240.752 351.842 240.11C351.836 240.003 351.836 239.895 351.842 239.788C351.842 239.424 351.757 239.049 351.724 238.718C351.639 237.968 351.564 237.208 351.489 236.447C351.414 235.687 351.36 235.141 351.296 234.488C351.168 233.257 351.05 232.025 350.932 230.837C350.846 229.948 350.761 229.07 350.686 228.213C350.686 228.02 350.686 227.828 350.632 227.646C350.182 222.934 349.829 219.079 349.701 217.409C349.701 217.409 338.993 201.54 337.922 194.066C336.851 186.592 336.916 178.722 341.402 175.52C352.024 167.961 348.898 180.146 353.673 185.157C358.449 190.169 365.719 198.467 369.853 201.048C373.665 203.468 377.07 212.826 377.552 214.24C377.005 212.184 371.555 191.967 371.437 187.899C371.298 183.615 368.022 160.958 373.579 152.831C379.136 144.703 386.546 151.01 387.231 152.616C387.917 154.223 388.12 176.174 390.08 182.277C392.039 188.38 400.241 213.833 400.241 213.833C400.241 213.833 400.584 189.076 402.383 177.994C404.182 166.911 409.043 158.249 413.754 157.756C418.466 157.264 422.824 162.457 422.824 162.457C422.824 162.457 420.961 180.125 421.496 184.204C422.032 188.284 420.725 203.018 422.963 210.974C422.963 210.974 422.706 189.869 425.983 187.17C429.259 184.472 432.075 183.176 433.917 185.029C435.759 186.881 436.155 199.345 438.029 206.862C439.903 214.379 439.667 224.594 440.899 236.319C442.13 248.044 446.981 264.32 446.017 273.625C445.053 282.93 442.087 306.005 439.699 319.55C437.312 333.096 431.219 351.674 431.219 351.674C431.219 351.674 433.992 361.578 433.457 370.412C432.921 379.246 454.605 437.882 454.605 437.882Z" fill="white"/>
<path opacity="0.4" d="M389.983 182.213C391.44 186.732 396.312 201.851 398.732 209.4C398.732 209.4 388.11 217.206 388.367 224.466C388.624 231.726 386.429 246.384 381.653 245.956C376.877 245.528 377.37 215.064 375.753 209.935C376.727 212.141 377.348 213.929 377.477 214.283C377.123 212.966 371.448 191.989 371.331 187.834C371.331 186.86 371.106 184.911 370.881 182.395C370.881 182.395 381.449 172.276 389.202 178.465C389.377 179.731 389.638 180.983 389.983 182.213Z" fill="#F7941E"/>
<path opacity="0.4" d="M421.561 190.908C416.614 195.598 409.15 203.885 408.208 211.884C408.208 211.884 410.96 234.22 409.782 244.007L400.145 213.801C400.145 213.801 400.488 189.044 402.287 177.962C402.287 177.662 402.394 177.352 402.447 177.052C408.462 173.991 415.101 172.353 421.85 172.265C421.436 176.202 421.296 180.163 421.432 184.119C421.594 186.378 421.637 188.644 421.561 190.908Z" fill="#F7941E"/>
<path opacity="0.4" d="M425.94 187.053C425.822 187.128 425.533 187.363 425.115 187.716C425.364 187.235 425.643 186.77 425.951 186.324L425.94 187.053Z" fill="#F7941E"/>
<path opacity="0.4" d="M428.456 248.804C428.456 248.804 422.096 224.947 422.032 205.738C421.978 198.628 422.803 192.149 425.105 187.77C425.353 187.288 425.632 186.824 425.94 186.378V187.063C427.092 186.07 428.365 185.228 429.731 184.558C427.942 187.342 425.886 192.792 428.264 201.69C432.001 215.514 428.745 232.464 428.456 248.804Z" fill="#F7941E"/>
<path opacity="0.4" d="M340.728 294.269C340.728 294.269 342.43 317.002 324.163 325.14C323.37 324.422 322.599 323.705 321.861 322.998C321.539 322.709 321.239 322.399 320.94 322.11C319.73 320.91 318.605 319.743 317.61 318.597C317.235 318.18 316.903 317.773 316.539 317.377C314.851 315.497 313.594 313.272 312.855 310.856C312.823 310.748 312.801 310.636 312.791 310.524C312.76 310.393 312.739 310.261 312.727 310.128C312.523 308.468 312.309 306.573 312.095 304.517C312.095 304.11 312.009 303.682 311.956 303.253L311.892 302.739C311.71 301.026 311.506 299.206 311.271 297.332C311.035 295.458 310.778 293.338 310.478 291.293C310.371 290.586 310.275 289.868 310.168 289.151C310.05 288.359 309.921 287.566 309.793 286.763L309.418 284.686C309.418 284.568 309.365 284.461 309.354 284.365L308.904 281.988C308.875 281.901 308.857 281.811 308.851 281.72C308.701 281.024 308.561 280.339 308.401 279.643C308.058 278.101 307.683 276.58 307.33 275.092C314.558 268.142 331.241 272.5 323.167 256.385C323.167 256.385 327.236 242.594 316.025 227.646C323.692 233.824 327.621 244.692 326.165 256.557C326.165 256.557 332.932 279.75 336.498 285.029C340.064 290.307 354.808 259.983 353.855 256.45C353.521 254.864 353.267 253.263 353.095 251.653C353.031 251.128 352.967 250.582 352.892 249.982C352.817 249.382 352.752 248.783 352.688 248.151C352.688 247.851 352.613 247.53 352.57 247.219C352.57 247.091 352.57 246.962 352.57 246.845C352.442 245.624 352.303 244.35 352.153 243.022C352.153 242.647 352.078 242.294 352.035 241.951C351.971 241.32 351.906 240.666 351.842 240.024C351.836 239.917 351.836 239.81 351.842 239.703C351.842 239.339 351.757 238.964 351.724 238.632C351.639 237.882 351.564 237.122 351.489 236.362C351.414 235.602 351.36 235.055 351.296 234.402C351.168 233.171 351.05 231.94 350.932 230.751C350.846 229.862 350.771 228.973 350.686 228.128C350.686 227.935 350.686 227.742 350.632 227.56C350.921 228.963 356.35 254.811 359.455 260.829C362.571 266.997 349.037 299.623 340.728 294.269Z" fill="#F7941E"/>
<path opacity="0.4" d="M439.657 319.401C437.269 332.957 431.176 351.524 431.176 351.524C431.176 351.524 433.949 361.429 433.414 370.262C433.264 372.64 434.742 378.647 436.947 386.142C436.305 384.493 429.452 366.804 429.591 360.636C429.73 354.158 427.889 352.37 424.237 344.414C420.586 336.458 415.125 337.336 415.125 337.336C415.125 337.336 412.984 357.178 408.015 344.136C403.047 331.093 402.072 315.921 414.633 263.238C414.633 263.238 416.528 269.845 414.943 289.472C413.358 309.1 418.048 315.043 418.048 315.043C425.098 302.757 430.699 289.695 434.742 276.12C434.742 276.12 433.114 299.024 431.669 309.453C430.223 319.882 436.819 297.364 441.423 283.455C445.706 270.402 445.91 265.433 444.261 256.139C445.482 262.682 446.402 268.988 445.931 273.496C445.01 282.759 442.044 305.855 439.657 319.401Z" fill="#F7941E"/>
<path opacity="0.4" d="M353.748 363.559C357.453 369.449 366.523 377.233 371.951 398.766C377.38 420.3 373.954 443.868 373.954 443.868L353.748 363.559Z" fill="#F7941E"/>
<path opacity="0.2" d="M324.955 241.287C324.955 241.287 305.992 250.924 304.492 266.986C299.01 254.747 306.141 259.169 301.848 227.678C301.848 227.678 305.006 220.375 314.012 226.211C314.708 226.665 315.379 227.155 316.025 227.678C317.85 229.154 319.461 230.876 320.811 232.796L324.955 241.287Z" fill="black" fill-opacity="0.7"/>
<path d="M378.579 450.817C378.579 450.817 365.345 380.52 357.453 369.438C349.561 358.355 351.028 353.804 347.174 346.341C343.319 338.878 314.054 320.718 312.759 310.106C311.463 299.495 309.975 279.193 304.492 266.943C299.01 254.693 306.141 259.126 301.837 227.635C301.837 227.635 305.049 220.332 314.012 226.168C322.974 232.004 327.75 243.675 326.176 256.599C326.176 256.599 332.943 279.771 336.519 285.061C340.096 290.35 354.808 260.015 353.855 256.471C352.902 252.927 350.075 222.784 349.636 217.281C349.636 217.281 338.929 201.401 337.858 193.927C336.787 186.453 336.851 178.583 341.338 175.392C351.96 167.832 348.833 180.018 353.609 185.029C358.385 190.04 365.655 198.328 369.778 200.919C373.9 203.51 377.498 214.336 377.498 214.336C377.498 214.336 371.448 192.128 371.33 187.834C371.212 183.54 367.914 160.894 373.472 152.777C379.029 144.661 386.45 150.946 387.135 152.552C387.82 154.158 388.024 176.109 389.994 182.213L400.134 213.768C400.134 213.768 400.487 189.012 402.34 177.93C404.192 166.847 409 158.184 413.712 157.692C418.423 157.199 422.781 162.393 422.781 162.393C422.781 162.393 420.918 180.06 421.443 184.14C421.967 188.22 420.682 202.943 422.92 210.909C422.92 210.909 422.663 189.804 425.94 187.106C429.216 184.408 432.033 183.112 433.874 184.965C435.716 186.817 436.112 199.281 437.986 206.798C439.86 214.315 439.624 224.53 440.856 236.255C442.087 247.98 446.938 264.255 445.974 273.55C445.01 282.844 442.044 305.941 439.646 319.497C437.247 333.053 431.187 351.62 431.187 351.62C431.187 351.62 433.949 361.525 433.414 370.359C432.878 379.193 454.594 438 454.594 438" stroke="#263238" stroke-linecap="round" stroke-linejoin="round"/>
<path d="M400.134 213.747C402.351 218.951 407.822 240.923 409.771 243.964C410.764 245.651 412.211 247.024 413.947 247.926" stroke="#263238" stroke-linecap="round" stroke-linejoin="round"/>
<path d="M422.92 210.856C422.92 210.856 422.449 215.364 424.88 229.712C427.31 244.061 428.499 250.175 429.859 253.376" stroke="#263238" stroke-linecap="round" stroke-linejoin="round"/>
<path d="M377.498 214.336C380.464 223.084 382.145 237.026 383.837 241.223C385.529 245.421 387.049 246.288 387.049 246.288" stroke="#263238" stroke-linecap="round" stroke-linejoin="round"/>
<path d="M382.306 235.302C384.092 236.659 385.507 238.445 386.418 240.495" stroke="#263238" stroke-linecap="round" stroke-linejoin="round"/>
<path d="M336.52 285.072C336.52 285.072 338.136 296.668 345.407 295.779" stroke="#263238" stroke-linecap="round" stroke-linejoin="round"/>
<path d="M353.855 256.482C353.855 256.482 355.74 270.273 352.656 276.12" stroke="#263238" stroke-linecap="round" stroke-linejoin="round"/>
<path d="M411.934 256.61C411.934 256.61 416.817 259.598 413.551 268.389C410.285 277.18 404.6 312.537 404.6 312.537" stroke="#263238" stroke-linecap="round" stroke-linejoin="round"/>
<path d="M433.189 265.862C435.234 273.786 435.416 273.989 432.118 283.722C428.82 293.456 423.434 317.302 423.434 317.302" stroke="#263238" stroke-linecap="round" stroke-linejoin="round"/>
<path d="M431.187 351.502C431.187 351.502 427.974 345.078 430.63 339.724" stroke="#263238" stroke-linecap="round" stroke-linejoin="round"/>
<path d="M357.453 369.448C357.453 369.448 365.527 380.788 369.039 393.477" stroke="#263238" stroke-linecap="round" stroke-linejoin="round"/>
<path d="M416.86 170.68L419.044 168.517L420.029 168.239L419.965 169.31L417.963 171.869L416.86 170.68Z" fill="#757575" stroke="#263238" stroke-linecap="round" stroke-linejoin="round"/>
<path d="M418.637 171.88L415.082 179.932L319.569 307.29L308.936 300.501L323.338 282.384L409.129 174.771L416.699 169.963C417.163 170.083 417.586 170.323 417.927 170.66C418.267 170.996 418.512 171.417 418.637 171.88Z" fill="#F7941E"/>
<mask id="mask2_365_2545" style="mask-type:luminance" maskUnits="userSpaceOnUse" x="308" y="169" width="111" height="139">
<path d="M418.637 171.88L415.082 179.932L319.569 307.29L308.936 300.501L323.338 282.384L409.129 174.771L416.699 169.963C417.163 170.083 417.586 170.323 417.927 170.66C418.267 170.996 418.512 171.417 418.637 171.88Z" fill="white"/>
</mask>
<g mask="url(#mask2_365_2545)">
<path opacity="0.3" d="M418.637 171.88L415.082 179.932L319.569 307.29L308.936 300.501L323.338 282.384C329.977 281.699 331.091 285.596 331.091 285.596L413.38 178.197C412.566 175.306 409.097 174.749 409.097 174.749L416.667 169.942C417.139 170.058 417.571 170.3 417.918 170.641C418.265 170.982 418.513 171.41 418.637 171.88Z" fill="black" fill-opacity="0.7"/>
</g>
<path d="M418.637 171.88L415.082 179.932L319.569 307.29L308.936 300.501L323.338 282.384L409.129 174.771L416.699 169.963C417.163 170.083 417.586 170.323 417.927 170.66C418.267 170.996 418.512 171.417 418.637 171.88Z" stroke="#263238" stroke-linecap="round" stroke-linejoin="round"/>
<path d="M350.718 269.577C350.718 269.577 340.01 290.736 329.795 305.705L322.471 307.601C322.471 307.601 305.66 324.305 295.402 332.646C293.539 331.489 291.852 330.072 290.39 328.438C290.39 328.438 304.953 300.469 321.068 282.769C322.956 283.439 324.735 284.385 326.347 285.575C328.438 287.058 330.3 288.84 331.872 290.864L349.829 268.271L350.718 269.577Z" fill="#F7941E"/>
<mask id="mask3_365_2545" style="mask-type:luminance" maskUnits="userSpaceOnUse" x="290" y="268" width="61" height="65">
<path d="M350.718 269.577C350.718 269.577 340.01 290.736 329.795 305.705L322.471 307.601C322.471 307.601 305.66 324.305 295.402 332.646C293.539 331.489 291.852 330.072 290.39 328.438C290.39 328.438 304.953 300.469 321.068 282.769C322.956 283.439 324.735 284.385 326.347 285.575C328.438 287.058 330.3 288.84 331.872 290.864L349.829 268.271L350.718 269.577Z" fill="white"/>
</mask>
<g mask="url(#mask3_365_2545)">
<path opacity="0.3" d="M350.718 269.577C350.718 269.577 340.01 290.736 329.795 305.705L322.471 307.6C322.471 307.6 305.66 324.305 295.402 332.646L295.68 328.106C306.805 311.113 320.94 292.577 326.347 285.575C328.438 287.058 330.3 288.84 331.872 290.864L321.893 304.185L327.611 303.114L349.829 268.228L350.718 269.577Z" fill="black" fill-opacity="0.7"/>
</g>
<path d="M350.718 269.577C350.718 269.577 340.01 290.736 329.795 305.705L322.471 307.601C322.471 307.601 305.66 324.305 295.402 332.646C293.539 331.489 291.852 330.072 290.39 328.438C290.39 328.438 304.953 300.469 321.068 282.769C322.956 283.439 324.735 284.385 326.347 285.575C328.438 287.058 330.3 288.84 331.872 290.864L349.829 268.271L350.718 269.577Z" stroke="#263238" stroke-linecap="round" stroke-linejoin="round"/>
<path d="M387.028 246.267L357.196 275.178L352.431 279.803C355.697 271.408 354.112 258.388 353.909 256.857C353.909 256.771 353.909 256.717 353.909 256.717C353.909 256.717 353.909 256.546 353.909 256.492C353.574 254.907 353.321 253.306 353.149 251.695C353.084 251.171 353.02 250.625 352.945 250.025C352.87 249.425 352.806 248.826 352.742 248.194C352.742 247.894 352.667 247.573 352.624 247.262C352.624 247.134 352.624 247.005 352.624 246.888C352.496 245.678 352.346 244.393 352.206 243.065C352.206 242.69 352.132 242.337 352.089 241.994C352.024 241.362 351.96 240.709 351.896 240.067C351.89 239.96 351.89 239.853 351.896 239.746C351.896 239.381 351.81 239.007 351.778 238.675C351.692 237.925 351.618 237.165 351.543 236.405C351.468 235.644 351.414 235.098 351.35 234.445C351.221 233.214 351.104 231.982 350.986 230.794C350.9 229.905 350.814 229.027 350.739 228.17C350.739 227.978 350.74 227.785 350.686 227.603C350.236 222.892 349.883 219.037 349.754 217.366C349.754 217.366 339.047 201.497 337.976 194.023C336.905 186.549 336.969 178.679 341.456 175.478C352.078 167.918 348.951 180.103 353.727 185.115C358.503 190.126 365.773 198.424 369.906 201.005C374.04 203.585 377.498 214.336 377.498 214.336C380.464 223.074 382.145 237.015 383.837 241.213C385.529 245.41 387.028 246.267 387.028 246.267Z" fill="white"/>
<path d="M382.306 235.302C384.092 236.659 385.507 238.445 386.418 240.495" stroke="#263238" stroke-linecap="round" stroke-linejoin="round"/>
<path opacity="0.4" d="M353.566 185.072C358.299 190.126 365.57 198.328 369.703 200.941C369.125 200.652 361.511 196.947 357.26 201.069C352.838 205.352 349.636 217.292 349.636 217.292C349.636 217.292 338.929 201.423 337.858 193.949C336.787 186.475 336.851 178.604 341.338 175.403C351.917 167.843 348.812 180.071 353.566 185.072Z" fill="#F7941E"/>
<path opacity="0.4" d="M357.196 275.199L352.431 279.825C355.697 271.43 354.112 258.409 353.909 256.878C353.923 256.757 353.923 256.635 353.909 256.514C353.574 254.929 353.32 253.328 353.149 251.717C353.084 251.192 353.02 250.646 352.945 250.046C352.87 249.447 352.806 248.847 352.742 248.215C352.742 247.915 352.667 247.594 352.624 247.284C352.624 247.155 352.624 247.027 352.624 246.909C352.495 245.688 352.356 244.414 352.206 243.086C352.206 242.712 352.131 242.358 352.089 242.015C352.024 241.384 351.96 240.731 351.896 240.088C351.889 239.981 351.889 239.874 351.896 239.767C351.896 239.403 351.81 239.028 351.778 238.696C351.692 237.947 351.617 237.186 351.542 236.426C351.467 235.666 351.414 235.12 351.35 234.467C351.221 233.235 351.103 232.004 350.986 230.815C350.9 229.926 350.825 229.038 350.739 228.192C350.739 227.999 350.739 227.806 350.686 227.624C350.975 229.027 356.404 254.876 359.509 260.893C360.558 263.078 359.466 268.946 357.196 275.199Z" fill="#F7941E"/>
<path d="M387.039 246.267C387.039 246.267 385.529 245.399 383.826 241.202C382.124 237.004 380.453 223.063 377.487 214.315C377.487 214.315 373.857 203.607 369.724 200.973C365.591 198.339 358.31 190.136 353.555 185.082C348.801 180.028 351.906 167.843 341.284 175.445C336.798 178.658 336.701 186.517 337.804 193.981C338.907 201.444 349.583 217.334 349.583 217.334C350.022 222.838 352.849 252.991 353.802 256.525" stroke="#263238" stroke-linecap="round" stroke-linejoin="round"/>
<path d="M353.855 256.482C353.855 256.482 355.74 270.273 352.656 276.12" stroke="#263238" stroke-linecap="round" stroke-linejoin="round"/>
<path opacity="0.2" d="M170.72 273.346C170.72 273.346 177.498 304.827 162.818 327.72C148.138 350.613 136.83 356.728 131.766 363.559C126.701 370.391 106.795 408.585 106.795 408.585L83.5593 339.767L106.795 254.629L170.72 273.346Z" fill="black" fill-opacity="0.7"/>
<path d="M307.673 249.286L163.589 309.924L148.738 316.177L120.747 249.671L55.7513 95.2334L214.687 28.342L307.673 249.286Z" fill="white"/>
<mask id="mask4_365_2545" style="mask-type:luminance" maskUnits="userSpaceOnUse" x="55" y="28" width="253" height="289">
<path d="M307.673 249.286L163.589 309.924L148.738 316.177L120.747 249.671L55.7513 95.2334L214.687 28.342L307.673 249.286Z" fill="white"/>
</mask>
<g mask="url(#mask4_365_2545)">
<path d="M173.622 57.0924L105.018 86.0034C104.399 86.2632 103.908 86.7584 103.654 87.3799C103.4 88.0014 103.403 88.6983 103.663 89.3174C103.923 89.9365 104.418 90.427 105.04 90.681C105.661 90.9351 106.358 90.9318 106.977 90.672L175.571 61.7503C175.883 61.6256 176.166 61.4402 176.405 61.2047C176.645 60.9692 176.835 60.6885 176.964 60.3788C177.093 60.0692 177.16 59.7369 177.16 59.4012C177.159 59.0656 177.092 58.7334 176.962 58.4241C176.832 58.1147 176.641 57.8344 176.402 57.5994C176.162 57.3645 175.878 57.1796 175.566 57.0556C175.254 56.9317 174.921 56.8711 174.585 56.8774C174.249 56.8837 173.919 56.9568 173.612 57.0924H173.622Z" fill="#263238"/>
<path d="M160.505 73.8928L126.241 88.3269C125.931 88.4575 125.686 88.7058 125.56 89.017C125.433 89.3283 125.435 89.677 125.566 89.9866C125.697 90.2961 125.945 90.5411 126.256 90.6676C126.567 90.7941 126.916 90.7918 127.226 90.6612L161.491 76.2164C161.651 76.1576 161.799 76.0667 161.923 75.9492C162.048 75.8317 162.148 75.6901 162.216 75.533C162.284 75.3759 162.32 75.2065 162.32 75.0352C162.321 74.8638 162.287 74.6942 162.22 74.5364C162.153 74.3787 162.055 74.2362 161.931 74.1177C161.808 73.9991 161.661 73.9069 161.501 73.8467C161.34 73.7865 161.17 73.7595 160.998 73.7675C160.827 73.7754 160.66 73.818 160.505 73.8928Z" fill="#263238"/>
<path d="M216.946 161.868C216.946 161.868 218.391 173.229 214.162 175.006C210.296 176.634 205.21 170.541 200.766 172.404C196.323 174.267 199.824 190.393 195.541 192.192C191.258 193.991 186.097 187.374 182.392 188.98C178.687 190.586 180.936 198.831 177.124 200.437C173.976 201.754 169.478 195.169 165.881 193.723C165.549 193.562 165.189 193.469 164.821 193.451C164.453 193.432 164.085 193.489 163.739 193.616C159.97 195.201 161.844 212.515 158.589 213.875C157.678 214.267 156.686 214.433 155.698 214.357C154.486 214.129 153.257 214.01 152.025 214.004C151.553 214.052 151.091 214.171 150.654 214.357C147.881 215.524 148.256 224.637 145.718 225.707C143.18 226.778 140.675 225.45 137.965 226.585C135.256 227.72 135.299 232.464 131.252 234.166L132.965 238.225L231.594 196.721" fill="#BFBFBF"/>
<path d="M216.946 161.868C216.946 161.868 218.391 173.229 214.162 175.006C210.296 176.634 205.21 170.541 200.766 172.404C196.323 174.267 199.824 190.393 195.541 192.192C191.258 193.991 186.097 187.374 182.392 188.98C178.687 190.586 180.936 198.831 177.124 200.437C173.976 201.754 169.478 195.169 165.881 193.723C165.549 193.562 165.189 193.469 164.821 193.451C164.453 193.432 164.085 193.489 163.739 193.616C159.97 195.201 161.844 212.515 158.589 213.875C157.678 214.267 156.686 214.433 155.698 214.357C154.486 214.129 153.257 214.01 152.025 214.004C151.553 214.052 151.091 214.171 150.654 214.357C147.881 215.524 148.256 224.637 145.718 225.707C143.18 226.778 140.675 225.45 137.965 226.585C135.256 227.72 135.299 232.464 131.252 234.166L132.965 238.225L231.594 196.721" stroke="#263238" stroke-miterlimit="10"/>
<path d="M112.995 190.693L132.965 238.139L236.231 194.687" stroke="#263238" stroke-linecap="round" stroke-linejoin="round"/>
<path d="M224.88 180.692C224.88 180.692 224.388 180.092 223.66 179.375C222.385 178.144 220.362 176.58 218.82 177.233C217.278 177.887 217.181 180.36 217.214 183.037C217.214 186.249 217.535 189.783 215.897 190.468C214.505 191.057 213.262 190.179 211.977 189.215C210.511 188.145 209.011 186.924 207.202 187.684C204.161 188.969 205.06 192.931 203.989 196.325C203.699 197.302 203.184 198.197 202.487 198.941C201.79 199.684 200.93 200.255 199.974 200.608C197.351 201.679 194.684 200.608 192.168 198.917C187.885 196.025 184.116 191.335 181.653 192.374C177.723 194.034 182.049 204.656 177.83 206.433C175.475 207.429 170.592 200.009 165.848 193.584C162.101 188.519 158.439 184.108 156.211 185.018C151.125 187.159 159.509 212.569 155.815 214.122L155.698 214.175C155.103 214.42 154.457 214.516 153.817 214.455C153.177 214.393 152.562 214.176 152.025 213.822C150.697 213.072 149.605 211.991 148.138 212.612C145.407 213.768 147.003 223.726 144.005 224.99C141.006 226.253 139.197 224.422 135.813 225.847C132.954 227.057 131.252 233.984 131.252 233.984L132.965 238.043L231.594 196.539" fill="#757575"/>
<path d="M224.88 180.692C224.88 180.692 224.388 180.092 223.66 179.375C222.385 178.144 220.362 176.58 218.82 177.233C217.278 177.887 217.181 180.36 217.214 183.037C217.214 186.249 217.535 189.783 215.897 190.468C214.505 191.057 213.262 190.179 211.977 189.215C210.511 188.145 209.011 186.924 207.202 187.684C204.161 188.969 205.06 192.931 203.989 196.325C203.699 197.302 203.184 198.197 202.487 198.941C201.79 199.684 200.93 200.255 199.974 200.608C197.351 201.679 194.684 200.608 192.168 198.917C187.885 196.025 184.116 191.335 181.653 192.374C177.723 194.034 182.049 204.656 177.83 206.433C175.475 207.429 170.592 200.009 165.848 193.584C162.101 188.519 158.439 184.108 156.211 185.018C151.125 187.159 159.509 212.569 155.815 214.122L155.698 214.175C155.103 214.42 154.457 214.516 153.817 214.455C153.177 214.393 152.562 214.176 152.025 213.822C150.697 213.072 149.605 211.991 148.138 212.612C145.407 213.768 147.003 223.726 144.005 224.99C141.006 226.253 139.197 224.422 135.813 225.847C132.954 227.057 131.252 233.984 131.252 233.984L132.965 238.043L231.594 196.539" stroke="#263238" stroke-linecap="round" stroke-linejoin="round"/>
<path d="M204 214.561L169.735 228.995C169.426 229.125 169.181 229.374 169.054 229.685C168.928 229.996 168.93 230.345 169.061 230.654C169.191 230.964 169.44 231.209 169.751 231.335C170.062 231.462 170.411 231.46 170.721 231.329L204.985 216.895C205.295 216.764 205.54 216.516 205.666 216.205C205.793 215.894 205.791 215.545 205.66 215.235C205.529 214.926 205.281 214.681 204.97 214.554C204.659 214.428 204.31 214.43 204 214.561Z" fill="#263238"/>
<path d="M231.166 157.736L227.86 159.127C227.516 159.272 227.355 159.667 227.499 160.01L228.891 163.317C229.035 163.66 229.431 163.821 229.774 163.677L233.08 162.286C233.424 162.141 233.585 161.746 233.441 161.402L232.049 158.096C231.905 157.753 231.509 157.591 231.166 157.736Z" fill="#BFBFBF" stroke="#263238" stroke-miterlimit="10"/>
<path d="M249.101 152.124L235.395 157.895C235.255 157.949 235.098 157.947 234.959 157.89C234.819 157.832 234.707 157.723 234.646 157.585C234.589 157.447 234.588 157.292 234.644 157.154C234.7 157.015 234.809 156.905 234.946 156.846L248.662 151.074C248.8 151.017 248.955 151.017 249.093 151.073C249.232 151.129 249.342 151.237 249.401 151.374C249.431 151.443 249.447 151.517 249.448 151.592C249.449 151.667 249.436 151.742 249.408 151.812C249.38 151.881 249.338 151.945 249.286 151.998C249.233 152.052 249.171 152.095 249.101 152.124Z" fill="#263238"/>
<path d="M245.878 156.16L236.349 160.165C236.211 160.222 236.056 160.223 235.918 160.167C235.779 160.111 235.669 160.002 235.61 159.865C235.58 159.796 235.564 159.722 235.563 159.647C235.561 159.572 235.575 159.498 235.603 159.428C235.631 159.358 235.672 159.295 235.725 159.241C235.778 159.187 235.84 159.145 235.91 159.116L245.439 155.111C245.577 155.054 245.732 155.053 245.87 155.109C246.009 155.165 246.119 155.274 246.178 155.411C246.236 155.55 246.237 155.707 246.181 155.847C246.125 155.987 246.016 156.099 245.878 156.16Z" fill="#263238"/>
<path d="M235.458 167.929L232.152 169.32C231.808 169.465 231.647 169.86 231.791 170.204L233.183 173.51C233.327 173.854 233.723 174.015 234.066 173.87L237.372 172.479C237.716 172.335 237.877 171.939 237.733 171.596L236.341 168.289C236.197 167.946 235.801 167.785 235.458 167.929Z" fill="#757575" stroke="#263238" stroke-linecap="round" stroke-linejoin="round"/>
<path d="M253.384 162.317L239.679 168.078C239.608 168.107 239.533 168.122 239.457 168.121C239.381 168.121 239.306 168.106 239.236 168.077C239.166 168.047 239.102 168.004 239.048 167.95C238.995 167.897 238.952 167.833 238.924 167.762C238.895 167.692 238.88 167.617 238.88 167.541C238.881 167.465 238.896 167.389 238.925 167.319C238.955 167.249 238.997 167.186 239.051 167.132C239.105 167.079 239.169 167.036 239.24 167.007L252.945 161.236C253.016 161.207 253.091 161.192 253.167 161.193C253.243 161.193 253.318 161.208 253.388 161.237C253.458 161.267 253.522 161.31 253.576 161.364C253.629 161.418 253.672 161.481 253.7 161.552C253.729 161.622 253.744 161.697 253.744 161.773C253.743 161.849 253.728 161.925 253.699 161.995C253.669 162.065 253.627 162.128 253.573 162.182C253.519 162.235 253.455 162.278 253.384 162.307V162.317Z" fill="#263238"/>
<path d="M250.161 166.344L240.642 170.359C240.5 170.419 240.34 170.419 240.198 170.361C240.055 170.303 239.942 170.19 239.882 170.048C239.822 169.906 239.822 169.747 239.88 169.604C239.938 169.461 240.051 169.348 240.193 169.288L249.722 165.283C249.793 165.255 249.868 165.24 249.944 165.24C250.02 165.241 250.095 165.256 250.165 165.285C250.235 165.314 250.299 165.357 250.353 165.411C250.406 165.465 250.448 165.529 250.477 165.599C250.506 165.67 250.521 165.745 250.521 165.821C250.52 165.897 250.505 165.972 250.476 166.042C250.446 166.112 250.404 166.176 250.35 166.229C250.296 166.283 250.232 166.325 250.161 166.354V166.344Z" fill="#263238"/>
<path d="M271.416 204.335L160.056 251.192C159.746 251.323 159.501 251.571 159.374 251.882C159.248 252.193 159.25 252.542 159.381 252.852C159.512 253.161 159.76 253.406 160.071 253.533C160.382 253.659 160.731 253.657 161.041 253.526L272.401 206.658C272.562 206.6 272.709 206.509 272.834 206.391C272.959 206.274 273.058 206.132 273.127 205.975C273.195 205.818 273.23 205.648 273.231 205.477C273.232 205.306 273.198 205.136 273.131 204.978C273.064 204.821 272.966 204.678 272.842 204.56C272.719 204.441 272.572 204.349 272.412 204.289C272.251 204.228 272.08 204.201 271.909 204.209C271.738 204.217 271.57 204.26 271.416 204.335Z" fill="#263238"/>
<path d="M274.95 212.719L145.461 267.211C145.3 267.27 145.153 267.36 145.028 267.478C144.903 267.595 144.804 267.737 144.736 267.894C144.667 268.051 144.632 268.221 144.631 268.392C144.63 268.563 144.664 268.733 144.731 268.891C144.798 269.048 144.896 269.191 145.02 269.309C145.144 269.428 145.29 269.52 145.451 269.58C145.611 269.641 145.782 269.668 145.953 269.66C146.124 269.652 146.292 269.609 146.446 269.534L275.924 215.043C276.09 214.988 276.242 214.899 276.371 214.783C276.5 214.667 276.604 214.525 276.677 214.366C276.749 214.208 276.787 214.036 276.79 213.862C276.792 213.688 276.759 213.515 276.691 213.355C276.624 213.194 276.524 213.049 276.398 212.929C276.272 212.809 276.123 212.716 275.96 212.656C275.796 212.597 275.622 212.571 275.448 212.582C275.274 212.593 275.105 212.64 274.95 212.719Z" fill="#263238"/>
<path d="M278.473 221.103L148.995 275.595C148.834 275.654 148.686 275.745 148.562 275.862C148.437 275.98 148.338 276.121 148.269 276.278C148.201 276.436 148.166 276.605 148.165 276.776C148.164 276.948 148.198 277.117 148.265 277.275C148.332 277.433 148.43 277.575 148.554 277.694C148.677 277.812 148.824 277.905 148.984 277.965C149.145 278.025 149.316 278.052 149.487 278.044C149.658 278.036 149.826 277.993 149.98 277.919L279.437 223.427C279.598 223.368 279.745 223.277 279.869 223.16C279.994 223.042 280.094 222.901 280.162 222.743C280.23 222.586 280.266 222.417 280.266 222.246C280.267 222.074 280.233 221.905 280.166 221.747C280.099 221.589 280.001 221.447 279.877 221.328C279.754 221.21 279.607 221.117 279.447 221.057C279.287 220.997 279.116 220.97 278.944 220.978C278.773 220.986 278.606 221.029 278.451 221.103H278.473Z" fill="#263238"/>
<path d="M282.007 229.487L152.528 283.936C152.363 283.991 152.211 284.079 152.082 284.196C151.952 284.312 151.848 284.454 151.776 284.612C151.704 284.771 151.666 284.943 151.663 285.117C151.66 285.291 151.694 285.463 151.761 285.624C151.828 285.784 151.928 285.929 152.054 286.049C152.18 286.17 152.33 286.262 152.493 286.322C152.657 286.382 152.831 286.407 153.004 286.396C153.178 286.386 153.348 286.339 153.503 286.26L282.981 231.768C283.146 231.713 283.298 231.625 283.428 231.508C283.557 231.392 283.661 231.25 283.733 231.092C283.805 230.933 283.844 230.761 283.846 230.587C283.849 230.413 283.815 230.241 283.748 230.08C283.681 229.92 283.581 229.775 283.455 229.654C283.329 229.534 283.18 229.441 283.016 229.382C282.853 229.322 282.679 229.297 282.505 229.308C282.331 229.318 282.161 229.365 282.007 229.444V229.487Z" fill="#263238"/>
<path d="M231.144 260.754L156.051 292.363C155.89 292.422 155.743 292.513 155.618 292.63C155.493 292.748 155.394 292.889 155.326 293.046C155.257 293.204 155.222 293.373 155.221 293.544C155.22 293.716 155.254 293.885 155.321 294.043C155.388 294.201 155.486 294.343 155.61 294.462C155.734 294.58 155.88 294.673 156.04 294.733C156.201 294.793 156.372 294.82 156.543 294.812C156.714 294.804 156.882 294.761 157.036 294.687L232.129 263.088C232.283 263.023 232.422 262.929 232.539 262.811C232.655 262.692 232.748 262.552 232.81 262.398C232.873 262.244 232.905 262.079 232.904 261.912C232.903 261.746 232.869 261.582 232.804 261.428C232.739 261.275 232.645 261.136 232.527 261.019C232.408 260.902 232.268 260.81 232.114 260.747C231.96 260.685 231.795 260.653 231.628 260.654C231.462 260.655 231.298 260.689 231.144 260.754Z" fill="#263238"/>
<path d="M189.791 97.3C189.791 97.3 191.237 108.672 187.007 110.449C183.142 112.077 178.045 105.984 173.612 107.847C169.179 109.71 172.669 125.826 168.386 127.635C164.103 129.445 158.931 122.817 155.237 124.369C151.543 125.922 153.781 134.22 149.969 135.816C146.821 137.144 142.324 130.558 138.726 129.113C138.395 128.951 138.034 128.859 137.666 128.84C137.298 128.822 136.93 128.878 136.584 129.006C132.815 130.59 134.689 147.894 131.434 149.265C130.524 149.659 129.531 149.821 128.543 149.736C127.33 149.517 126.102 149.403 124.87 149.393C124.398 149.44 123.935 149.559 123.499 149.747C120.726 150.914 121.101 160.026 118.563 161.086C116.025 162.146 113.52 160.84 110.811 161.975C108.102 163.11 108.144 167.853 104.097 169.556L105.81 173.614L204.482 132.111" fill="#BFBFBF"/>
<path d="M189.791 97.3C189.791 97.3 191.237 108.672 187.007 110.449C183.142 112.077 178.045 105.984 173.612 107.847C169.179 109.71 172.669 125.826 168.386 127.635C164.103 129.445 158.931 122.817 155.237 124.369C151.543 125.922 153.781 134.22 149.969 135.816C146.821 137.144 142.324 130.558 138.726 129.113C138.395 128.951 138.034 128.859 137.666 128.84C137.298 128.822 136.93 128.878 136.584 129.006C132.815 130.59 134.689 147.894 131.434 149.265C130.524 149.659 129.531 149.821 128.543 149.736C127.33 149.517 126.102 149.403 124.87 149.393C124.398 149.44 123.935 149.559 123.499 149.747C120.726 150.914 121.101 160.026 118.563 161.086C116.025 162.146 113.52 160.84 110.811 161.975C108.102 163.11 108.144 167.853 104.097 169.556L105.81 173.614L204.482 132.111" stroke="#263238" stroke-miterlimit="10"/>
<path d="M196.162 112.452C196.162 112.452 197.062 117.955 194.888 118.876C193.078 119.637 191.965 118.576 190.059 118.512C189.128 118.484 188.203 118.663 187.35 119.037C185.604 119.765 185.208 122.121 184.876 124.648C184.491 127.764 184.298 131.147 182.017 132.143C180.422 132.818 178.698 132.422 176.92 131.801C174.083 130.815 171.106 129.252 168.226 130.462C166.834 131.051 165.859 132.604 165.099 134.435C163.311 138.857 162.754 145.26 160.816 146.074C158.064 147.241 153.021 142.508 150.579 143.536C148.138 144.564 149.134 148.804 147.153 149.64C145.172 150.475 144.037 148.012 140.546 149.479C137.055 150.946 138.758 156.107 133.832 158.184C128.907 160.262 126.744 156.439 121.99 158.441C117.235 160.444 118.092 164.063 114.73 165.476C111.367 166.89 109.954 164.406 107.556 165.476C105.157 166.547 104.579 170.284 104.547 170.52L105.864 173.646L204.482 132.111" fill="#F7941E"/>
<path d="M196.162 112.452C196.162 112.452 197.062 117.955 194.888 118.876C193.078 119.637 191.965 118.576 190.059 118.512C189.128 118.484 188.203 118.663 187.35 119.037C185.604 119.765 185.208 122.121 184.876 124.648C184.491 127.764 184.298 131.147 182.017 132.143C180.422 132.818 178.698 132.422 176.92 131.801C174.083 130.815 171.106 129.252 168.226 130.462C166.834 131.051 165.859 132.604 165.099 134.435C163.311 138.857 162.754 145.26 160.816 146.074C158.064 147.241 153.021 142.508 150.579 143.536C148.138 144.564 149.134 148.804 147.153 149.64C145.172 150.475 144.037 148.012 140.546 149.479C137.055 150.946 138.758 156.107 133.832 158.184C128.907 160.262 126.744 156.439 121.99 158.441C117.235 160.444 118.092 164.063 114.73 165.476C111.367 166.89 109.954 164.406 107.556 165.476C105.157 166.547 104.579 170.284 104.547 170.52L105.864 173.646L204.482 132.111" stroke="#263238" stroke-miterlimit="10"/>
<path d="M85.8401 126.168L105.81 173.614L209.076 130.151" stroke="#263238" stroke-linecap="round" stroke-linejoin="round"/>
<path d="M176.535 149.297L142.27 163.731C141.961 163.86 141.715 164.107 141.588 164.417C141.46 164.727 141.461 165.076 141.59 165.385C141.719 165.695 141.966 165.94 142.277 166.068C142.587 166.195 142.935 166.194 143.245 166.065L177.509 151.631C177.663 151.566 177.802 151.472 177.919 151.354C178.035 151.235 178.128 151.095 178.19 150.941C178.253 150.787 178.285 150.622 178.284 150.455C178.283 150.289 178.249 150.125 178.184 149.971C178.119 149.818 178.025 149.679 177.907 149.562C177.788 149.445 177.648 149.353 177.494 149.29C177.34 149.228 177.175 149.196 177.008 149.197C176.842 149.198 176.678 149.232 176.524 149.297H176.535Z" fill="#263238"/>
<path d="M202.285 89.0903L198.978 90.4815C198.635 90.626 198.474 91.0215 198.618 91.3649L200.009 94.6713C200.154 95.0147 200.549 95.1759 200.893 95.0314L204.199 93.6402C204.542 93.4957 204.704 93.1002 204.559 92.7568L203.168 89.4505C203.023 89.1071 202.628 88.9458 202.285 89.0903Z" fill="#BFBFBF" stroke="#263238" stroke-miterlimit="10"/>
<path d="M220.212 83.4764L206.506 89.2479C206.365 89.3021 206.209 89.3001 206.069 89.2423C205.93 89.1845 205.818 89.0753 205.756 88.9373C205.7 88.7982 205.701 88.6422 205.759 88.5037C205.817 88.3653 205.928 88.2555 206.067 88.1985L219.773 82.427C219.912 82.3705 220.068 82.3714 220.206 82.4296C220.345 82.4878 220.455 82.5985 220.512 82.7376C220.541 82.8056 220.557 82.879 220.558 82.9533C220.559 83.0276 220.545 83.1013 220.518 83.1702C220.49 83.239 220.448 83.3016 220.396 83.3542C220.343 83.4068 220.281 83.4483 220.212 83.4764Z" fill="#263238"/>
<path d="M216.989 87.513L207.459 91.5177C207.317 91.5759 207.158 91.5754 207.016 91.5161C206.875 91.4569 206.762 91.3438 206.704 91.2018C206.646 91.0598 206.647 90.9005 206.706 90.759C206.765 90.6174 206.878 90.5052 207.02 90.4469L216.55 86.4315C216.688 86.3743 216.843 86.3737 216.981 86.4298C217.119 86.4859 217.23 86.5943 217.289 86.7314C217.322 86.8021 217.341 86.8789 217.344 86.9571C217.347 87.0353 217.334 87.1133 217.306 87.1864C217.278 87.2595 217.236 87.3261 217.181 87.3823C217.127 87.4384 217.061 87.4829 216.989 87.513Z" fill="#263238"/>
<path d="M206.577 99.2729L203.27 100.664C202.927 100.809 202.766 101.204 202.91 101.548L204.301 104.854C204.446 105.197 204.841 105.359 205.185 105.214L208.491 103.823C208.834 103.678 208.996 103.283 208.851 102.939L207.46 99.6331C207.315 99.2897 206.92 99.1284 206.577 99.2729Z" fill="#F7941E" stroke="#263238" stroke-miterlimit="10"/>
<path d="M224.495 93.67L210.789 99.4415C210.65 99.4981 210.494 99.4971 210.355 99.4389C210.217 99.3807 210.107 99.27 210.05 99.131C210.02 99.0629 210.004 98.9895 210.003 98.9152C210.002 98.8409 210.016 98.7672 210.044 98.6983C210.072 98.6295 210.114 98.5669 210.166 98.5143C210.219 98.4617 210.281 98.4202 210.35 98.3921L224.056 92.6206C224.126 92.5918 224.201 92.5771 224.277 92.5774C224.353 92.5777 224.429 92.5929 224.499 92.6222C224.569 92.6516 224.632 92.6944 224.686 92.7483C224.74 92.8023 224.782 92.8662 224.811 92.9365C224.84 93.0068 224.854 93.0821 224.854 93.1581C224.854 93.2341 224.839 93.3093 224.809 93.3794C224.78 93.4495 224.737 93.5131 224.683 93.5667C224.629 93.6202 224.565 93.6626 224.495 93.6914V93.67Z" fill="#263238"/>
<path d="M221.272 97.7068L211.753 101.712C211.611 101.771 211.451 101.772 211.308 101.714C211.166 101.655 211.052 101.543 210.993 101.401C210.933 101.259 210.932 101.099 210.99 100.957C211.049 100.814 211.161 100.7 211.303 100.641L220.833 96.636C220.903 96.6072 220.979 96.5925 221.055 96.5928C221.131 96.5931 221.206 96.6083 221.276 96.6376C221.346 96.667 221.41 96.7098 221.463 96.7637C221.517 96.8177 221.559 96.8816 221.588 96.9519C221.617 97.0222 221.631 97.0975 221.631 97.1735C221.631 97.2495 221.616 97.3247 221.586 97.3948C221.557 97.4649 221.514 97.5285 221.46 97.582C221.406 97.6356 221.342 97.678 221.272 97.7068Z" fill="#263238"/>
<path opacity="0.2" d="M163.589 309.924L148.738 316.177L120.748 249.671C123.248 247.191 124.888 243.975 125.427 240.495C127.097 231.586 125.919 202.943 148.224 199.987C170.528 197.032 151.714 247.187 152.742 256.738C153.685 265.454 166.395 290.757 163.589 309.924Z" fill="black" fill-opacity="0.7"/>
</g>
<path d="M307.673 249.286L163.589 309.924L148.738 316.177L120.747 249.671L55.7513 95.2334L214.687 28.342L307.673 249.286Z" stroke="#263238" stroke-linecap="round" stroke-linejoin="round"/>
<path d="M154.616 260.379C157.122 251.813 166.887 224.38 165.602 212.248C165.498 211.238 165.267 210.245 164.917 209.293C161.49 200.234 147.485 201.112 142.099 208.618C136.199 216.874 131.391 231.736 130.963 240.741C130.584 245.259 129.114 249.617 126.68 253.441C125.838 254.854 124.89 256.2 123.842 257.467L91.9114 181.709C88.6856 184.396 85.8684 187.537 83.5487 191.036C82.2444 192.987 81.4022 195.21 81.0859 197.536C80.4327 205.01 71.9736 235.752 68.4936 248.601C68.4186 248.879 68.3436 249.147 68.2794 249.404C64.8958 261.846 73.826 308.061 71.2669 321.489C68.7077 334.916 67.1337 334.606 66.7589 344.146C66.4912 351.106 56.533 372.265 45.3434 393.991C38.9187 406.444 32.1514 419.058 26.5513 429.326L108.273 425.932C109.686 416.006 111.143 405.523 112.47 395.372C113.047 391.15 113.863 386.964 114.912 382.833C116.711 375.552 118.906 368.967 120.266 365.112C122.002 359.45 123.432 353.699 124.549 347.883C134.057 337.818 146.521 322.002 150.13 311.295V311.22C151.013 309.021 151.294 306.625 150.943 304.281C150.545 302.357 150.326 300.4 150.29 298.435C149.873 286.806 152.517 267.5 154.616 260.379Z" fill="white"/>
<path opacity="0.4" d="M126.701 253.515C124.163 258.602 121.112 263.538 119.206 269.234C117.3 274.931 115.169 275.745 109.451 280.21C103.733 284.675 99.5568 277.319 99.5568 277.319C99.5568 277.319 107.127 269.459 104.611 265.08C102.095 260.7 92.6717 249.81 93.2285 243.803C93.7853 237.796 87.5213 224.326 87.5213 224.326C87.5213 224.326 101.795 215.942 99.0214 206.123C97.5116 200.769 90.0376 195.062 83.5916 191.003C85.9113 187.505 88.7285 184.363 91.9543 181.677L123.906 257.509C124.938 256.251 125.872 254.916 126.701 253.515Z" fill="#F7941E"/>
<path opacity="0.4" d="M74.9183 299.998C75.1111 300.64 79.7583 315.985 75.8392 322.377C71.9202 328.77 67.8941 337.25 69.8108 345.934C71.3313 352.873 58.4819 377.929 45.3864 394.012C56.5438 372.286 66.5021 351.127 66.8019 344.167C67.1766 334.627 68.7507 334.916 71.3098 321.51C73.869 308.104 64.8852 261.868 68.3224 249.425C68.3866 249.168 68.4616 248.9 68.5365 248.622C71.0314 262.724 76.835 290.811 78.4305 299.837C80.39 311.359 75.0897 300.48 74.9183 299.998Z" fill="#F7941E"/>
<path opacity="0.4" d="M104.301 392.62C113.798 351.727 145.761 320.375 150.087 311.295C146.478 322.002 134.025 337.818 124.506 347.883C123.389 353.699 121.959 359.45 120.223 365.112C118.884 368.967 116.689 375.552 114.869 382.833C105.628 393.787 104.301 392.62 104.301 392.62Z" fill="#F7941E"/>
<path opacity="0.4" d="M154.616 260.379C152.474 267.5 149.873 286.806 150.279 298.402C148.598 291.121 145.365 281.87 144.829 268.988C143.919 247.144 156.297 255.025 152.014 244.221C147.731 233.417 135.396 247.252 141.456 224.476C145.879 207.847 158.482 207.997 164.949 209.293C165.3 210.245 165.53 211.238 165.634 212.248C166.887 224.38 157.122 251.813 154.616 260.379Z" fill="#F7941E"/>
<path d="M38.983 406.786C49.2196 388.059 59.1886 368.795 66.3521 348.022C67.2087 345.035 66.063 341.137 66.9303 338.15C76.6315 311.177 65.6239 283.09 67.4335 255.454C68.9648 244.564 72.4448 233.61 75.989 222.613C77.6273 214.679 78.2377 205.791 80.8611 197.803C83.5594 191.785 86.215 184.793 91.965 181.741C102.887 206.765 113.766 231.907 123.917 257.574C128.511 254.918 129.271 249.008 130.02 244.028C132.483 232.111 134.978 221.189 139.486 211.156C144.069 203.093 155.74 199.656 162.904 206.241C164.958 208.299 166.133 211.075 166.18 213.983C164.788 227.817 160.441 241.823 156.062 254.758C154.338 260.733 152.582 265.733 151.843 271.665C151.918 273.635 151.961 274.61 152.046 276.58C149.509 286.528 151.843 295.287 151.265 305.159C149.048 322.966 134.796 335.366 124.495 348.59C121.947 358.537 119.409 368.485 115.929 378.475C111.646 393.466 110.275 408.243 108.808 422.645" stroke="#263238" stroke-linecap="round" stroke-linejoin="round"/>
<path d="M123.874 257.542C121.936 261.281 120.358 265.196 119.163 269.235C117.824 274.481 111.046 273.732 107.545 276.987" stroke="#263238" stroke-linecap="round" stroke-linejoin="round"/>
<path d="M98.304 248.301C98.304 248.301 107.523 251.513 112.899 255.743C118.274 259.972 122.236 260.957 122.236 260.957" stroke="#263238" stroke-linecap="round" stroke-linejoin="round"/>
<path d="M92.4255 225.44C92.4255 225.44 99.921 227.528 105.382 224.904C105.631 222.232 106.1 219.586 106.785 216.991" stroke="#263238" stroke-linecap="round" stroke-linejoin="round"/>
<path d="M107.159 225.986C107.159 225.986 107.234 227.057 111.025 227.057" stroke="#263238" stroke-linecap="round" stroke-linejoin="round"/>
<path d="M124.506 347.883C119.311 353.128 115.32 359.442 112.813 366.386" stroke="#263238" stroke-linecap="round" stroke-linejoin="round"/>
<path d="M67.8082 251.727C67.4655 258.152 75.0038 280.938 77.2846 292.267C79.5653 303.596 80.4326 311.605 80.4326 311.605" stroke="#263238" stroke-linecap="round" stroke-linejoin="round"/>
</svg>
