<svg width="471" height="443" viewBox="0 0 471 443" fill="none" xmlns="http://www.w3.org/2000/svg">
<g clip-path="url(#clip0_457_352)">
<path d="M452.22 301.76C442.97 342.24 429.99 381.69 412.68 406.94C402.8 421.38 391.49 431.17 378.68 433.86C310.9 448.06 117.26 442.86 84.3399 429.34C78.2099 426.82 70.3399 417.93 61.7599 404.51C46.7599 380.92 29.9099 343.31 17.5999 301.51C-0.720112 239.42 -8.91011 168.19 13.9599 120.15C37.5999 70.6201 84.2899 39.4201 124.97 20.6501C170.404 -0.256643 221.497 -5.47669 270.22 5.8101C278.17 7.6501 286.78 9.8101 296.04 12.3601C359.29 29.7901 470.31 111.76 470.96 159.53C471.27 182.42 465.64 243.17 452.22 301.76Z" fill="white"/>
<path d="M461.15 256.22C458.68 271.08 455.72 286.49 452.22 301.76C442.97 342.24 429.99 381.69 412.68 406.94C402.8 421.38 391.49 431.17 378.68 433.86C310.9 448.06 117.26 442.86 84.3401 429.34C78.2101 426.82 70.3401 417.93 61.7601 404.51C46.7601 380.92 29.9101 343.31 17.6001 301.51C13.2801 286.86 9.5201 271.69 6.6001 256.44L82.6701 224.54L108.73 225.99L113.8 227.44L128.28 204.27L168.81 174.59L186.18 180.42L231.78 283.22L256.4 274.53L270.87 246.3L281.73 243.4L320.82 202.14L355.57 209.42L359.19 220.28L375.09 237.6L425.09 260.04L437.39 241.22L451.87 242.67L461.15 256.22Z" fill="#263238"/>
<path opacity="0.7" d="M461.15 256.22C460.483 260.14 459.793 264.097 459.08 268.09C457.08 279.2 454.8 290.52 452.22 301.76C442.97 342.24 429.99 381.69 412.68 406.94C402.8 421.38 391.49 431.17 378.68 433.86C310.9 448.06 117.26 442.86 84.3401 429.34C78.2101 426.82 70.3401 417.93 61.7601 404.51C46.7601 380.92 29.9101 343.31 17.6001 301.51C13.2801 286.86 9.5201 271.69 6.6001 256.44L82.6701 224.54L108.73 225.99L113.8 227.44L128.28 204.27L164.09 178.11L168.85 174.62L186.18 180.42L231.78 283.22L256.4 274.53L270.87 246.3L281.73 243.4L320.82 202.14L355.57 209.42L359.19 220.28L375.09 237.6L425.09 260.04L434.43 245.75L437.43 241.22L451.91 242.67L461.15 256.22Z" fill="white"/>
<path d="M186.18 180.41L231.78 283.21L220.93 286.1L177.49 268.01L189.07 254.97L209.34 265.83L179.66 210.09L182.56 197.79L164.46 178.97L164.04 178.11L168.8 174.62L186.18 180.41Z" fill="#FDDFBB"/>
<path d="M375.12 237.6L425.07 260.04L414.21 268.73L353.4 265.11L350.5 254.97L367.15 244.12L348.33 233.26L345.44 224.57L331.68 218.78L320.82 202.13L355.57 209.37L359.19 220.23L375.12 237.6Z" fill="#FDDFBB"/>
<path d="M461.15 256.22C460.483 260.14 459.793 264.097 459.08 268.09L443.89 248.42L434.41 245.71L437.41 241.18L451.89 242.63L461.15 256.22Z" fill="white"/>
<path d="M151.7 306.65L145.59 310.72L150.18 319.39L156.29 317.35L159.35 312.25L151.7 306.65Z" fill="#263238"/>
<path d="M148.14 336.2L146.1 342.82L150.68 344.86L152.21 339.26L148.14 336.2Z" fill="#263238"/>
<path d="M168.79 330.11L164.44 329.01L163.28 332.04L166.96 332.84L168.79 330.11Z" fill="#263238"/>
<path d="M452.22 298.54V301.76L451.74 303.84C449.28 314.47 446.55 325 443.56 335.21C441.19 343.33 438.64 351.21 435.91 358.83C429.25 377.41 421.53 394.03 412.68 406.94L388.68 386.54L368.47 374.42L361.19 354.42L336.3 332.52C336.3 332.52 330.84 316.74 333.3 311.89C334.947 309.337 336.858 306.964 339 304.81C346.08 297.13 357.23 286.66 359.4 285.81C362.4 284.58 452.22 298.54 452.22 298.54Z" fill="#263238"/>
<path opacity="0.3" d="M452.22 298.54V301.76L451.74 303.84L409.52 299L414.11 303.08L396.28 309.2L360.61 290.85L338.97 304.85C346.05 297.17 357.2 286.7 359.37 285.85C362.4 284.58 452.22 298.54 452.22 298.54Z" fill="white"/>
<path opacity="0.3" d="M443.56 335.21C441.19 343.33 438.64 351.21 435.91 358.83C434.895 358.305 433.91 357.724 432.96 357.09C413.6 344.35 405.96 344.35 405.96 344.35L403.41 334.67L442.13 335.67L443.56 335.21Z" fill="white"/>
<path d="M137.92 327.64C135.79 332.34 128.87 339.45 126.92 340.41C124.49 341.63 112.92 355.58 112.92 355.58L108.07 369.58L100.79 382.93L85.8899 389.61L65.5899 398.71L61.6899 404.55C48.0899 383.06 32.9299 350.02 21.0899 312.8C19.8965 309.093 18.7432 305.34 17.6299 301.54L22.6299 300.41L86.9499 285.79C86.9499 285.79 123.36 291.86 126.39 293.68C129.42 295.5 137.32 320.99 138.53 324.63C138.695 325.674 138.478 326.743 137.92 327.64Z" fill="#263238"/>
<path opacity="0.3" d="M137.92 327.64L113.49 330.09L119.6 305.63L91.0901 296.42L22.5601 300.42L86.8801 285.8C86.8801 285.8 123.29 291.87 126.32 293.69C129.35 295.51 137.25 321 138.46 324.64C138.643 325.672 138.452 326.736 137.92 327.64Z" fill="white"/>
<g opacity="0.3">
<path d="M413.5 147.74C413.5 147.74 406.89 131.16 393.17 129.2C379.45 127.24 374.96 145.13 364.51 146.42C354.06 147.71 350.79 135.32 342.95 139.24C335.11 143.16 335.77 152.96 331.19 154.24C326.61 155.52 318.78 150.32 316.19 155.55C313.6 160.78 310.96 166.66 310.96 166.66C307.938 168.501 304.629 169.823 301.17 170.57C295.29 171.88 288.75 170.57 287.45 173.19H452.09C452.09 173.19 452.75 158.19 442.95 154.19C433.15 150.19 422.19 163.06 413.5 147.74Z" stroke="black" stroke-miterlimit="10"/>
<path d="M86.3 153.42C86.3 153.42 83.3 145.79 76.94 144.89C70.58 143.99 68.56 152.22 63.75 152.82C58.94 153.42 57.43 147.71 53.83 149.51C50.23 151.31 50.52 155.83 48.41 156.43C46.3 157.03 42.7 154.63 41.5 157.03C40.3 159.43 39.09 162.17 39.09 162.17C37.7 163.024 36.175 163.636 34.58 163.98C31.87 164.58 28.87 163.98 28.27 165.18H104.09C104.09 165.18 104.39 158.26 99.88 156.46C95.37 154.66 90.3 160.5 86.3 153.42Z" stroke="black" stroke-miterlimit="10"/>
<path d="M237.09 36.0707C237.09 36.0707 234.26 28.9607 228.38 28.0707C222.5 27.1807 220.61 34.9807 216.09 35.5107C211.57 36.0407 210.21 30.7507 206.85 32.4307C203.49 34.1107 203.77 38.3107 201.85 38.8707C199.93 39.4307 196.53 37.1907 195.41 39.4307C194.29 41.6707 193.16 44.1907 193.16 44.1907C191.864 44.9815 190.444 45.5494 188.96 45.8707C186.44 46.4307 183.64 45.8707 183.08 46.9907H253.66C253.66 46.9907 253.94 40.5507 249.74 38.8707C245.54 37.1907 240.86 42.6307 237.09 36.0707Z" stroke="black" stroke-miterlimit="10"/>
<path d="M169.57 40.6908C169.57 40.6908 167.93 36.5908 164.57 36.1008C161.21 35.6108 160.07 40.0408 157.48 40.3708C154.89 40.7008 154.09 37.6208 152.09 38.5908C150.09 39.5608 150.31 41.9808 149.18 42.3008C148.05 42.6208 146.11 41.3008 145.47 42.6308C144.83 43.9608 144.18 45.3708 144.18 45.3708C143.433 45.8402 142.611 46.1784 141.75 46.3708C140.3 46.7008 138.68 46.3708 138.36 47.0208H179.09C179.09 47.0208 179.25 43.3008 176.83 42.3308C174.41 41.3608 171.72 44.4808 169.57 40.6908Z" stroke="black" stroke-miterlimit="10"/>
</g>
<path d="M389.59 81.97C408.782 81.97 424.34 66.4119 424.34 47.22C424.34 28.0281 408.782 12.47 389.59 12.47C370.398 12.47 354.84 28.0281 354.84 47.22C354.84 66.4119 370.398 81.97 389.59 81.97Z" fill="#FDDFBB"/>
<path d="M154.59 237.56L144.88 238.48C144.88 238.48 137.71 236.63 137.02 238.25C136.33 239.87 136.55 246.11 137.48 248.89C138.41 251.67 137.71 256.05 138.17 258.6C138.63 261.15 143.72 269.23 144.65 269.46C145.58 269.69 147.19 267.61 147.19 266.69C147.19 265.77 147.42 255.82 147.65 254.69C147.88 253.56 150.89 245.9 150.89 245.9L155.28 245.21L154.59 237.56Z" fill="white" stroke="#263238" stroke-linecap="round" stroke-linejoin="round"/>
<path d="M150.09 248L146.09 245.88L145.95 238.38L144.95 238.48C144.95 238.48 137.78 236.63 137.09 238.25C136.4 239.87 136.62 246.11 137.55 248.89C138.48 251.67 137.78 256.05 138.24 258.6C138.7 261.15 143.79 269.23 144.72 269.46C145.65 269.69 147.26 267.61 147.26 266.69C147.26 265.77 147.49 255.82 147.72 254.69C147.8 253.9 149.16 250.35 150.09 248Z" fill="#263238" stroke="#263238" stroke-linecap="round" stroke-linejoin="round"/>
<path d="M213.78 183.22L203.84 220.42C203.84 220.42 175.63 226.89 173.32 228.05C171.01 229.21 151.81 236.6 151.81 236.6L155.28 248.86C155.28 248.86 210.28 235.45 212.16 234.98C214.04 234.51 216.09 234.29 217.02 232.9C217.95 231.51 236.9 200.53 239.91 195.9C242.92 191.27 216.55 188.31 213.78 183.22Z" fill="#263238" stroke="#263238" stroke-linecap="round" stroke-linejoin="round"/>
<path d="M247.24 99.2399C247.24 99.2399 224.58 90.3099 222.12 90.6099C219.66 90.9099 194.38 94.3099 193.3 94.7799C192.22 95.2499 159.14 122.78 157.78 124.16C156.795 125.179 156.038 126.396 155.56 127.73C154.82 129.21 153.22 132.66 152.97 133.28C152.72 133.9 150.63 138.7 151.25 138.83C151.87 138.96 154.95 135.83 154.95 135.83C154.95 135.83 153.34 139.65 154.7 139.03C156.06 138.41 158.64 134.35 159.01 133.98C159.38 133.61 165.42 130.16 165.42 130.16C165.42 130.16 163.57 134.47 164.07 135.7C164.57 136.93 165.79 136.57 165.92 135.7C165.904 134.742 166.262 133.817 166.92 133.12C167.956 131.663 168.594 129.96 168.77 128.18C168.77 126.95 168.65 122.27 168.65 122.27L197.65 107.99L218.65 108.6L225.74 116.16C225.74 116.16 221.43 152.83 221.27 153.6C221.11 154.37 219.58 155.6 219.11 157.3C218.64 159 219.42 159.77 220.5 160.07C221.58 160.37 239.76 167.16 244.08 169.17C248.4 171.18 250.86 172.56 251.94 171.79C253.02 171.02 255.33 166.55 255.33 166.55L267.5 143.12L273.05 135.12C273.05 135.12 289.05 137.12 296.78 136.97C304.51 136.82 306.64 133.73 307.11 132.19C305.832 132.322 304.541 132.185 303.32 131.787C302.098 131.389 300.974 130.74 300.02 129.88C297.603 127.473 295.482 124.788 293.7 121.88C293.7 121.88 282.76 119.1 281.37 118.18C279.98 117.26 277.83 115.87 270.43 111.09C263.03 106.31 260.88 105.54 260.88 105.54L247.24 99.2399Z" fill="white" stroke="#263238" stroke-linecap="round" stroke-linejoin="round"/>
<path d="M225.66 116.2C225.66 116.2 221.35 152.87 221.19 153.64C221.03 154.41 219.5 155.64 219.03 157.34C218.56 159.04 219.34 159.81 220.42 160.11C221.5 160.41 239.68 167.2 244 169.21C248.32 171.22 250.78 172.6 251.86 171.83C252.94 171.06 255.25 166.59 255.25 166.59L267.42 143.16L272.97 135.16C272.97 135.16 288.97 137.16 296.7 137.01C304.43 136.86 306.56 133.77 307.03 132.23C305.752 132.362 304.461 132.225 303.24 131.827C302.019 131.429 300.894 130.78 299.94 129.92C297.523 127.513 295.402 124.828 293.62 121.92C293.62 121.92 282.68 119.14 281.29 118.22C279.9 117.3 277.75 115.91 270.35 111.13C262.95 106.35 260.8 105.58 260.8 105.58L247.24 99.2599C247.24 99.2599 224.58 90.33 222.12 90.63C219.66 90.93 194.38 94.3299 193.3 94.7999C193.089 94.928 192.885 95.0682 192.69 95.22C194.05 97.69 196.81 103.12 197.61 108.05L218.61 108.66L225.66 116.2Z" fill="#F7941E" stroke="#263238" stroke-linecap="round" stroke-linejoin="round"/>
<path d="M218.57 108.65L214.41 103.56" stroke="#263238" stroke-linecap="round" stroke-linejoin="round"/>
<path d="M280.98 126.37L272.97 135.15L289.77 126.52" stroke="#263238" stroke-linecap="round" stroke-linejoin="round"/>
<path d="M154.95 135.87C154.95 135.87 158.78 129.6 160.32 128.22" stroke="#263238" stroke-linecap="round" stroke-linejoin="round"/>
<path d="M153.7 131.91L158.78 125.9" stroke="#263238" stroke-linecap="round" stroke-linejoin="round"/>
<path d="M248.51 114.95L249.31 122.66C249.31 122.66 239.47 128.51 236.95 127.31C234.43 126.11 218.34 115.31 217.27 115.75C216.2 116.19 196.01 122.66 193.22 123.19C190.43 123.72 187.63 124.12 187.63 124.12L180.85 131.97L195.61 137.15C195.61 137.15 206.38 130.37 210.5 127.84L218.74 122.84C218.74 122.84 235.09 132.68 235.62 132.55C236.15 132.42 250.9 123.77 250.9 123.77C252.772 123.158 254.56 122.312 256.22 121.25C257.95 119.92 260.22 114.59 260.8 114.4C261.38 114.21 261.94 113.01 261.94 113.01L259.81 112.87L254.63 118.72L251.3 117.66L250.64 111.81L248.51 114.95Z" fill="#263238" stroke="#263238" stroke-linecap="round" stroke-linejoin="round"/>
<path d="M253.71 119.12L260.8 114.35L266.34 122.36L262.95 106.33L256.48 114.81L253.71 119.12Z" fill="#F7941E" stroke="#263238" stroke-linecap="round" stroke-linejoin="round"/>
<path d="M275.74 85.07C275.74 85.07 276.98 88.15 276.05 89.38L274.67 91.23C274.67 91.23 278.67 95.7 277.75 96.78C277.053 97.5086 276.212 98.0841 275.28 98.47C275.28 98.47 272.2 105.41 271.43 106.18C270.66 106.95 266.96 105.72 266.96 105.72L253.71 119.12L253.25 111.88L249.86 97.7L250.63 96.16C250.63 96.16 251.4 84.3 255.87 80.29C260.34 76.28 268.35 76.42 272.35 78.42C276.35 80.42 275.74 85.07 275.74 85.07Z" fill="white" stroke="#263238" stroke-linecap="round" stroke-linejoin="round"/>
<path d="M266.96 105.72L263.58 103.32L263.07 109.24L266.96 105.72Z" fill="#263238" stroke="#263238" stroke-linecap="round" stroke-linejoin="round"/>
<path d="M260.64 87.8399L262.64 87.6899C262.64 87.6899 262.94 85.3799 263.71 85.0699C264.48 84.7599 265.26 85.6799 266.64 84.4499C268.02 83.2199 268.49 79.9799 271.27 80.1399C274.05 80.2999 275.43 82.7599 275.73 85.0699C276.03 87.3799 280.82 84.5999 281.44 82.9099C282.06 81.2199 283.13 77.0499 281.59 76.5899C280.05 76.1299 277.59 78.8999 277.43 78.4399C277.27 77.9799 277.89 71.3499 275.43 71.9699C274.161 72.1949 272.984 72.7818 272.04 73.6599C272.04 73.6599 263.26 68.8899 259.09 70.1199C254.92 71.3499 249.54 75.3599 249.09 78.2899C248.64 81.2199 249.25 97.2399 250.64 96.1599C252.03 95.0799 258.49 89.2299 258.49 89.2299L260.64 87.8399Z" fill="#263238" stroke="#263238" stroke-linecap="round" stroke-linejoin="round"/>
<path d="M261.26 89.2301C261.26 89.2301 260.64 82.6001 257.41 84.6001C254.18 86.6001 255.41 91.0801 256.17 92.1601C256.93 93.2401 259.26 92.4601 259.26 92.4601" fill="white"/>
<path d="M261.26 89.2301C261.26 89.2301 260.64 82.6001 257.41 84.6001C254.18 86.6001 255.41 91.0801 256.17 92.1601C256.93 93.2401 259.26 92.4601 259.26 92.4601" stroke="#263238" stroke-linecap="round" stroke-linejoin="round"/>
<path d="M257.71 92.77C257.71 92.77 257.56 98.47 258.48 99.4C259.656 100.398 260.891 101.323 262.18 102.17" stroke="#263238" stroke-linecap="round" stroke-linejoin="round"/>
<path d="M275.09 88.1501C274.84 87.6057 274.417 87.1594 273.887 86.8807C273.357 86.6021 272.75 86.5069 272.16 86.6101" stroke="#263238" stroke-linecap="round" stroke-linejoin="round"/>
<path d="M270.5 98.1699C270.5 98.1699 272.82 98.4699 273.12 99.8599" stroke="#263238" stroke-linecap="round" stroke-linejoin="round"/>
<path d="M273.59 90.42C273.59 91.06 273.31 91.58 272.97 91.58C272.63 91.58 272.35 91.06 272.35 90.42C272.35 89.78 272.63 89.27 272.97 89.27C273.31 89.27 273.59 89.75 273.59 90.42Z" fill="#263238"/>
<path d="M249.85 97.7L253.25 111.88L245.54 120.67L245.69 98.78L249.85 97.7Z" fill="#F7941E" stroke="#263238" stroke-linecap="round" stroke-linejoin="round"/>
<path d="M191.6 95.8499C192.846 97.6563 193.832 99.629 194.53 101.71C195.3 104.48 196.07 109.57 196.07 109.57C196.07 109.57 196.07 110.19 198.69 109.57C201.31 108.95 202.08 110.65 202.39 107.41C202.516 103.412 201.836 99.4293 200.39 95.6999C199.16 92.9299 200.39 92.9299 198.54 92.9299C196.69 92.9299 191.91 93.8499 191.6 95.8499Z" fill="#F7941E" stroke="#263238" stroke-linecap="round" stroke-linejoin="round"/>
<path d="M295.01 117.27C295.01 117.27 289.61 122.82 290.23 123.75C290.85 124.68 299.63 133.61 301.63 134.23C303.63 134.85 305.79 134.84 308.26 132.23C310.73 129.62 308.72 125.45 307.64 123.45C306.56 121.45 296.39 116.66 295.01 117.27Z" fill="#F7941E" stroke="#263238" stroke-linecap="round" stroke-linejoin="round"/>
<path d="M302.56 85.0701C302.56 85.0701 294.56 119.07 294.08 120.51C293.6 121.95 299.48 128.22 301.63 128.68C303.78 129.14 306.72 128.06 307.18 125.75C307.64 123.44 308.09 119.42 308.09 119.42L308.24 80.7401C308.24 80.7401 302.54 71.3401 301.31 71.3401C300.08 71.3401 294.52 76.4301 294.99 77.5101C295.46 78.5901 296.53 81.2001 297.61 81.6701C298.257 82.0185 298.925 82.3258 299.61 82.5901C300.682 83.3055 301.671 84.1372 302.56 85.0701Z" fill="white" stroke="#263238" stroke-linecap="round" stroke-linejoin="round"/>
<path d="M307.77 80.03C307.77 80.03 303.33 68.89 302.25 69.19C301.17 69.49 295.62 71.81 295.62 72.43C295.62 73.05 295.47 75.51 295.78 76.13C297.77 78.2496 299.88 80.253 302.1 82.13C302.56 82.44 302.4 82.75 303.79 82.13C305.18 81.51 306.26 80.13 305.33 79.82" fill="white"/>
<path d="M307.77 80.03C307.77 80.03 303.33 68.89 302.25 69.19C301.17 69.49 295.62 71.81 295.62 72.43C295.62 73.05 295.47 75.51 295.78 76.13C297.77 78.2496 299.88 80.253 302.1 82.13C302.56 82.44 302.4 82.75 303.79 82.13C305.18 81.51 306.26 80.13 305.33 79.82" stroke="#263238" stroke-linecap="round" stroke-linejoin="round"/>
<path d="M295.19 73.74C295.19 73.74 292.73 74.51 292.81 75.52C292.89 76.53 294.94 78.75 295.45 78.84C295.96 78.93 296.98 78.58 296.98 77.99C296.492 76.5298 295.894 75.109 295.19 73.74Z" fill="white" stroke="#263238" stroke-linecap="round" stroke-linejoin="round"/>
<path d="M305.64 76.8801C305.64 76.8801 301.64 78.3301 301.64 78.8801C301.64 79.4301 302.09 82.1001 302.09 82.1001" fill="white"/>
<path d="M305.64 76.8801C305.64 76.8801 301.64 78.3301 301.64 78.8801C301.64 79.4301 302.09 82.1001 302.09 82.1001" stroke="#263238" stroke-linecap="round" stroke-linejoin="round"/>
<path d="M304.62 74.51C304.62 74.51 299.69 76.12 299.69 76.88C299.69 77.64 299.95 80.2 299.95 80.2" stroke="#263238" stroke-linecap="round" stroke-linejoin="round"/>
<path d="M303.52 71.53C303.52 71.53 297.32 73.66 297.32 74.68C297.412 75.8204 297.582 76.9531 297.83 78.07" stroke="#263238" stroke-linecap="round" stroke-linejoin="round"/>
<path d="M302.56 85.0701C303.172 85.6086 303.912 85.9806 304.71 86.1501" stroke="#263238" stroke-linecap="round" stroke-linejoin="round"/>
<path d="M311.09 247.34L314.9 249.11C314.9 249.11 322.96 244.11 326.11 242.74C329.26 241.37 330.84 238.82 331.78 239.29C332.72 239.76 330.08 247.22 328.91 249.05C327.74 250.88 323.39 256.69 321.91 257.66C320.43 258.63 313.66 265.1 311.37 265.61C309.08 266.12 306.3 258.5 305.79 257.49C305.28 256.48 303 252.67 303 252.67L311.09 247.34Z" fill="white" stroke="#263238" stroke-linecap="round" stroke-linejoin="round"/>
<path d="M305.73 257.49C306.24 258.49 309.03 266.11 311.31 265.61C313.59 265.11 320.31 258.61 321.85 257.66C323.39 256.71 327.72 250.88 328.85 249.05C329.98 247.22 332.66 239.75 331.72 239.29C330.78 238.83 329.21 241.34 326.05 242.74C322.89 244.14 314.84 249.11 314.84 249.11L314.99 252.65L305.73 257.49Z" fill="#263238" stroke="#263238" stroke-linecap="round" stroke-linejoin="round"/>
<path d="M220.42 160.11C220.42 160.11 214.01 169.81 211.93 176.75C211.117 179.659 211.288 182.754 212.417 185.556C213.545 188.357 215.568 190.707 218.17 192.24C222.33 194.55 234.36 197.09 238.98 197.79C243.6 198.49 269.73 199.18 269.73 199.18C269.73 199.18 278.79 222.65 282.03 227.74C285.27 232.83 295.67 247.85 295.67 247.85L299.83 256.41L314.16 246.42C314.16 246.42 304.45 230.24 303.99 228.62C303.53 227 284.76 185.03 283.6 183.62C282.44 182.21 251.93 173.22 251.93 173.22C251.93 173.22 224.75 159.67 220.42 160.11Z" fill="#263238" stroke="#263238" stroke-linecap="round" stroke-linejoin="round"/>
<path d="M217.94 172.59C217.94 172.59 225.34 169.12 228.34 168.42C231.34 167.72 251.86 171.83 251.86 171.83" stroke="white" stroke-linecap="round" stroke-linejoin="round"/>
<path d="M219.09 167.96C221.647 166.871 224.401 166.32 227.18 166.34" stroke="white" stroke-linecap="round" stroke-linejoin="round"/>
</g>
<defs>
<clipPath id="clip0_457_352">
<rect width="470.97" height="442.32" fill="white"/>
</clipPath>
</defs>
</svg>
