<svg width="49" height="48" viewBox="0 0 49 48" fill="none" xmlns="http://www.w3.org/2000/svg">
<path d="M24.9639 41C15.3443 41 9.96268 40.5904 7.20693 40.2656C5.60365 40.0765 4.45602 39.0017 4.28342 37.3966C4.21789 36.7872 4.15075 36.0324 4.0865 35.0991C4.00798 33.9585 4.92179 33 6.06507 33H17.7616C18.4636 33 19.0844 33.4554 19.2953 34.125C19.5062 34.7946 20.1271 35.25 20.8291 35.25H29.0989C29.801 35.25 30.4218 34.7946 30.6327 34.125C30.8436 33.4554 31.4645 33 32.1665 33H43.8628C45.0061 33 45.9199 33.9585 45.8414 35.0991C45.7772 36.0324 45.71 36.7872 45.6445 37.3966C45.4719 39.0017 44.3243 40.0765 42.721 40.2656C39.9652 40.5904 34.5836 41 24.9639 41Z" fill="#D7A1FF"/>
<path d="M6.27863 33H17.7616C18.4636 33 19.0844 33.4554 19.2953 34.125C19.5062 34.7946 20.1271 35.25 20.8291 35.25H29.0989C29.801 35.25 30.4218 34.7946 30.6327 34.125C30.8436 33.4554 31.4645 33 32.1665 33H43.6506C43.8223 30.7915 43.9646 27.5788 43.9646 22.9961C43.9646 17.1053 43.7295 13.4783 43.4989 11.3379C43.31 9.58317 42.0969 8.25406 40.3576 7.95474C37.7707 7.50956 33.0372 6.99609 24.9646 6.99609C16.892 6.99609 12.1585 7.50956 9.5716 7.95474C7.83228 8.25406 6.61925 9.58317 6.43025 11.3379C6.19973 13.4783 5.9646 17.1053 5.9646 22.9961C5.9646 27.5788 6.1069 30.7915 6.27863 33Z" fill="white"/>
<path d="M24.9647 41C15.3451 41 9.96341 40.5904 7.20767 40.2656C5.60438 40.0765 4.45675 39.0017 4.28415 37.3966C4.21863 36.7872 4.15148 36.0324 4.08723 35.0991C4.00871 33.9585 4.92252 33 6.0658 33H17.7623C18.4643 33 19.0852 33.4554 19.2961 34.125C19.5069 34.7946 20.1278 35.25 20.8298 35.25H29.0997C29.8017 35.25 30.4226 34.7946 30.6334 34.125C30.8443 33.4554 31.4652 33 32.1672 33H43.8636C45.0068 33 45.9207 33.9585 45.8421 35.0991C45.7779 36.0324 45.7107 36.7872 45.6452 37.3966C45.4726 39.0017 44.325 40.0765 42.7217 40.2656C39.966 40.5904 34.5843 41 24.9647 41Z" stroke="#61298A" stroke-width="3" stroke-linecap="round" stroke-linejoin="round"/>
<path d="M6.27832 33C6.10673 30.7916 5.9646 27.58 5.9646 23C5.9646 17.1092 6.19973 13.4822 6.43025 11.3418C6.61925 9.58708 7.83228 8.25796 9.5716 7.95865C12.1585 7.51347 16.892 7 24.9646 7C33.0372 7 37.7707 7.51347 40.3576 7.95865C42.0969 8.25796 43.31 9.58707 43.4989 11.3418C43.7295 13.4822 43.9646 17.1092 43.9646 23C43.9646 27.58 43.8225 30.7916 43.6509 33" stroke="#61298A" stroke-width="3" stroke-linecap="round" stroke-linejoin="round"/>
</svg>
