<svg width="60" height="60" viewBox="0 0 60 60" fill="none" xmlns="http://www.w3.org/2000/svg">
<path d="M38.7053 10.0832C38.221 9.0792 37.8669 7.93142 38.3216 6.91367C39.3364 4.64233 41.7352 3.97436 43.3754 3.79135C44.4557 3.67079 45.4978 4.12023 46.218 4.93451C50.7186 10.0229 55.2677 21.1137 54.9873 33.7454C54.8001 42.1736 51.6111 47.9325 49.1756 51.1237C47.5373 53.2705 45.0699 54.5137 42.4153 55.0101C38.4376 55.754 31.9446 56.6107 25.056 56.0424C22.238 55.8097 19.4433 55.0885 17.0468 53.588C12.1573 50.5267 8.71451 45.7214 7.765 38.9009C7.42278 36.4425 8.73285 34.0359 11.118 33.3489C11.5808 33.2156 12.0788 33.0965 12.6063 33.0034C14.519 32.6656 15.9511 34.3782 16.5649 36.221C17.9565 40.3986 21.8216 43.0515 25.6221 41.9152C26.3974 41.6154 27.1509 41.1627 27.8229 40.6794C29.6326 39.378 30.4089 36.9816 29.4018 34.9931C27.5719 31.3801 23.8333 29.802 19.2985 30.9755C17.2553 31.5042 14.9786 31.2844 13.7721 29.5526C13.5143 29.1824 13.2515 28.7792 12.9941 28.3467C11.5302 25.8862 12.499 22.7406 15.0744 21.4897C19.8713 19.1596 25.0918 19.3864 30.0848 21.3126C28.0641 17.9687 25.6126 14.9172 22.7356 12.5782C21.5771 11.6364 20.6271 10.2952 20.9471 8.83685C21.4123 6.71678 22.8215 5.36371 23.9896 4.57728C25.0348 3.87368 26.3716 3.94486 27.4779 4.54787C33.2011 7.66777 38.0144 12.9322 40.7698 16.4897C40.2994 14.1167 39.5864 11.9105 38.7053 10.0832Z" fill="#D7A1FF"/>
<path d="M38.7055 10.0832C38.2212 9.0792 37.8671 7.93142 38.3219 6.91367C39.3367 4.64233 41.7356 3.97436 43.3757 3.79135C44.4561 3.67079 45.4981 4.12023 46.2182 4.93451C50.719 10.0229 55.268 21.1137 54.9875 33.7454C54.8004 42.1736 51.6114 47.9325 49.1759 51.1237C47.5376 53.2705 45.0701 54.5137 42.4156 55.0101C38.4379 55.754 31.945 56.6107 25.0564 56.0424C22.2384 55.8097 19.4436 55.0885 17.047 53.588C12.1576 50.5267 8.71481 45.7214 7.76531 38.9009C7.42307 36.4425 8.73315 34.0359 11.1183 33.3489C11.5811 33.2156 12.0791 33.0965 12.6065 33.0034C14.5192 32.6656 15.9514 34.3782 16.5652 36.221C17.9567 40.3986 21.822 43.0515 25.6225 41.9152C26.3977 41.6154 27.1511 41.1627 27.8232 40.6794C29.6329 39.378 30.4091 36.9816 29.402 34.9931C27.5722 31.3801 23.8336 29.802 19.2987 30.9755C17.2555 31.5042 14.979 31.2844 13.7725 29.5526C13.5145 29.1824 13.2517 28.7792 12.9944 28.3467C11.5305 25.8862 12.4993 22.7406 15.0746 21.4897C19.8715 19.1596 25.0921 19.3864 30.085 21.3126C28.0644 17.9687 25.613 14.9172 22.7359 12.5782C21.5775 11.6364 20.6274 10.2952 20.9474 8.83685C21.4125 6.71678 22.8219 5.36371 23.99 4.57728C25.0351 3.87368 26.3719 3.94486 27.4781 4.54787C33.2014 7.66777 38.0147 12.9322 40.77 16.4897C40.2997 14.1167 39.5866 11.9105 38.7055 10.0832Z" stroke="#61298A" stroke-width="3.75" stroke-linecap="round" stroke-linejoin="round"/>
</svg>
