<svg width="415" height="396" viewBox="0 0 415 396" fill="none" xmlns="http://www.w3.org/2000/svg">
<g clip-path="url(#clip0_600_15)">
<path d="M272.803 11.3797L-0.00219727 44.6826L42.8046 395.339L315.609 362.037L272.803 11.3797Z" fill="#FFD098"/>
<path d="M281.748 0.000314864L8.94287 33.3032L51.7496 383.96L324.554 350.657L281.748 0.000314864Z" fill="#FFF2E2"/>
<path d="M156.93 63.3202L162.5 109C177.487 108.591 192.224 112.901 204.63 121.32L233.75 85.7502C211.563 69.5027 184.374 61.564 156.93 63.3202Z" fill="#FECC92"/>
<path d="M111.22 132.58C121.222 121.507 134.435 113.836 149.01 110.64L143.44 65C116.474 69.864 92.0614 84.0161 74.4399 105L111.22 132.58Z" fill="#FCB45F"/>
<path d="M244.26 94.3604L215.13 130C226.567 141.335 233.846 156.196 235.79 172.18L281.33 166.62C277.972 138.888 264.827 113.264 244.26 94.3604Z" fill="#FFDEB8"/>
<path d="M66.26 115.93C50.7597 139.243 44.1124 167.333 47.5201 195.12L93.0701 189.56C91.094 173.505 94.6191 157.254 103.07 143.46L66.26 115.93Z" fill="#F7941E"/>
<path d="M152.82 172.65C152.43 175.78 163.11 182.45 165.87 179.79C170.43 175.41 185.87 134.94 183.27 132.89C180.67 130.84 153.44 167.47 152.82 172.65Z" fill="#61298A"/>
<path d="M199.464 214.775L106.713 226.098L107.358 231.389L200.11 220.066L199.464 214.775Z" fill="#D7A1FF"/>
<path d="M163.227 235.806L108.702 242.462L109.348 247.753L163.873 241.097L163.227 235.806Z" fill="#D7A1FF"/>
<path d="M81.92 253.33C81.042 253.441 80.1548 253.212 79.44 252.69L72.44 247.6C72.0436 247.341 71.7039 247.004 71.4418 246.61C71.1797 246.215 71.0007 245.772 70.9155 245.306C70.8304 244.84 70.8409 244.362 70.9465 243.9C71.0521 243.438 71.2506 243.003 71.5298 242.62C71.8091 242.238 72.1632 241.916 72.5707 241.675C72.9783 241.434 73.4306 241.278 73.9003 241.217C74.3699 241.156 74.847 241.192 75.3026 241.321C75.7581 241.451 76.1826 241.671 76.55 241.97L80.13 244.58L87.82 228.58C87.9999 228.14 88.2676 227.742 88.6067 227.41C88.9459 227.077 89.3493 226.817 89.7923 226.646C90.2354 226.475 90.7087 226.396 91.1833 226.414C91.6579 226.432 92.1238 226.547 92.5525 226.752C92.9812 226.956 93.3637 227.246 93.6765 227.603C93.9893 227.961 94.2258 228.378 94.3716 228.83C94.5174 229.282 94.5694 229.759 94.5244 230.232C94.4795 230.705 94.3385 231.164 94.11 231.58L84.61 251.39C84.3874 251.851 84.0659 252.258 83.6684 252.581C83.2709 252.905 82.8072 253.136 82.31 253.26C82.1826 253.296 82.052 253.319 81.92 253.33Z" fill="#CBF2A8"/>
<path d="M205.46 263.966L112.709 275.289L113.355 280.579L206.106 269.257L205.46 263.966Z" fill="#D7A1FF"/>
<path d="M169.232 284.985L114.707 291.642L115.353 296.932L169.878 290.276L169.232 284.985Z" fill="#D7A1FF"/>
<path d="M87.9201 302.52C87.0407 302.629 86.153 302.396 85.4401 301.87L78.4401 296.79C77.6922 296.244 77.192 295.423 77.0494 294.507C76.9069 293.592 77.1338 292.658 77.6801 291.91C78.2264 291.162 79.0475 290.662 79.9627 290.519C80.8779 290.377 81.8122 290.604 82.5601 291.15L86.1401 293.77L93.8301 277.77C94.2588 276.989 94.9703 276.401 95.8186 276.127C96.667 275.853 97.5879 275.915 98.3924 276.298C99.197 276.682 99.8242 277.359 100.145 278.191C100.467 279.022 100.458 279.945 100.12 280.77L90.6101 300.59C90.388 301.05 90.0679 301.456 89.6722 301.779C89.2766 302.102 88.8151 302.334 88.3201 302.46C88.1881 302.488 88.0545 302.508 87.9201 302.52Z" fill="#CBF2A8"/>
<path d="M287.909 306.131L76.6072 331.926L78.2031 344.998L289.504 319.204L287.909 306.131Z" fill="#D7A1FF"/>
<path d="M411.35 287.54L338.24 207.06C329.59 214.54 321.08 222.21 312.34 229.6L385.94 310.6C387.822 312.669 390.448 313.906 393.241 314.041C396.034 314.176 398.767 313.197 400.84 311.32L410.63 302.42C412.697 300.542 413.934 297.919 414.069 295.129C414.204 292.339 413.226 289.609 411.35 287.54Z" fill="#61298A"/>
<path d="M350.79 220.87L338.24 207.06C329.59 214.54 321.08 222.21 312.34 229.6L341.34 261.55C344.33 248 347.55 234.41 350.79 220.87Z" fill="#61298A"/>
<path d="M342.464 178.402C350.99 141.147 327.7 104.035 290.445 95.5092C253.19 86.9835 216.078 110.273 207.552 147.528C199.026 184.783 222.316 221.896 259.571 230.422C296.826 238.947 333.939 215.658 342.464 178.402Z" fill="#CFF0FF"/>
<path d="M275.02 78.7603C258.363 78.7583 242.08 83.6955 228.229 92.9476C214.378 102.2 203.582 115.351 197.206 130.739C190.829 146.127 189.159 163.06 192.406 179.397C195.653 195.734 203.671 210.742 215.447 222.522C227.223 234.302 242.228 242.326 258.564 245.579C274.9 248.832 291.833 247.167 307.224 240.796C322.614 234.425 335.769 223.633 345.026 209.786C354.283 195.938 359.226 179.657 359.23 163C359.233 151.939 357.057 140.987 352.826 130.767C348.595 120.547 342.393 111.261 334.573 103.438C326.753 95.6158 317.469 89.4102 307.251 85.1759C297.033 80.9416 286.081 78.7616 275.02 78.7603ZM275.02 227.35C262.288 227.352 249.841 223.578 239.253 216.505C228.666 209.433 220.414 199.379 215.541 187.616C210.668 175.853 209.393 162.909 211.877 150.421C214.361 137.933 220.493 126.463 229.497 117.46C238.501 108.458 249.973 102.328 262.461 99.8454C274.949 97.3631 287.893 98.6401 299.655 103.515C311.417 108.39 321.47 116.643 328.541 127.232C335.612 137.82 339.384 150.268 339.38 163C339.375 180.067 332.592 196.433 320.523 208.5C308.454 220.567 292.087 227.348 275.02 227.35Z" fill="url(#paint0_linear_600_15)"/>
<g style="mix-blend-mode:hard-light" opacity="0.8">
<path d="M311.06 126.39C303.273 118.923 293.417 113.975 282.777 112.192C272.137 110.408 261.206 111.871 251.41 116.39C250.168 117.019 249.219 118.105 248.762 119.419C248.305 120.734 248.377 122.175 248.962 123.438C249.547 124.701 250.599 125.688 251.897 126.19C253.195 126.692 254.637 126.671 255.92 126.13C263.755 122.514 272.498 121.343 281.009 122.77C289.52 124.197 297.403 128.156 303.63 134.13C304.134 134.64 304.736 135.043 305.399 135.317C306.062 135.591 306.773 135.729 307.49 135.723C308.207 135.717 308.915 135.568 309.574 135.284C310.232 135 310.827 134.587 311.324 134.069C311.82 133.552 312.207 132.94 312.463 132.27C312.719 131.6 312.839 130.886 312.814 130.169C312.79 129.452 312.622 128.748 312.32 128.097C312.019 127.446 311.591 126.863 311.06 126.38V126.39Z" fill="#B7F3FF"/>
<path d="M326.73 155.57C325.964 151.284 324.67 147.109 322.88 143.14C322.591 142.498 322.179 141.919 321.666 141.436C321.153 140.954 320.551 140.577 319.892 140.327C319.234 140.077 318.533 139.959 317.829 139.98C317.125 140.002 316.432 140.161 315.79 140.45C315.148 140.739 314.569 141.152 314.086 141.664C313.603 142.177 313.226 142.78 312.977 143.438C312.727 144.096 312.609 144.797 312.63 145.501C312.652 146.205 312.811 146.898 313.1 147.54C314.528 150.712 315.562 154.047 316.18 157.47C316.3 158.167 316.557 158.833 316.936 159.43C317.315 160.027 317.809 160.543 318.388 160.949C318.967 161.354 319.621 161.641 320.311 161.793C321.002 161.945 321.716 161.958 322.412 161.833C323.108 161.708 323.772 161.446 324.366 161.063C324.961 160.68 325.473 160.183 325.875 159.6C326.276 159.018 326.558 158.362 326.705 157.671C326.852 156.979 326.86 156.265 326.73 155.57Z" fill="#B7F3FF"/>
</g>
</g>
<defs>
<linearGradient id="paint0_linear_600_15" x1="348.12" y1="188.09" x2="210.17" y2="140.7" gradientUnits="userSpaceOnUse">
<stop stop-color="#61298A"/>
<stop offset="1" stop-color="#D7A1FF"/>
</linearGradient>
<clipPath id="clip0_600_15">
<rect width="414.09" height="395.34" fill="white"/>
</clipPath>
</defs>
</svg>
