<svg width="687" height="1242" viewBox="0 0 687 1242" fill="none" xmlns="http://www.w3.org/2000/svg">
<g clip-path="url(#clip0_521_10)">
<path d="M656.878 370.956H687V308.974H630.344C643.931 250.024 616.854 186.85 556.347 142.763C513.128 111.284 455.981 89.9569 408.813 61.1175C381.271 44.2776 356.695 23.0689 343.507 0C330.318 23.0885 305.729 44.2776 278.226 61.1175C231.078 89.9373 173.911 111.284 130.698 142.763C70.1524 186.837 43.075 249.998 56.6628 308.974H0V370.956H30.1879V869.675H0V931.657H56.9706C54.5329 941.766 53.2716 952.122 53.2119 962.521C52.9303 1012.37 80.1387 1062.45 130.653 1099.24C148.019 1111.89 167.631 1122.9 187.944 1133.42C200.425 1139.88 213.168 1146.15 225.813 1152.51C243.808 1161.55 261.613 1170.76 278.2 1180.89C305.749 1197.73 330.325 1218.93 343.507 1242.01C356.695 1218.93 381.271 1197.73 408.813 1180.89C425.387 1170.76 443.185 1161.55 461.2 1152.51C494.433 1135.81 528.327 1119.66 556.36 1099.24C560.944 1095.91 565.336 1092.46 569.536 1088.9C599.442 1063.62 619.454 1033.29 628.419 1001.57C634.928 978.529 635.622 954.759 630.036 931.657H687.007V869.675H656.884L656.878 370.956Z" fill="#FFD098"/>
<path d="M80.1387 746.202C77.886 746.687 75.6006 747.224 73.3022 747.827L66.5901 732.984L64.3244 715.241C69.5014 713.489 74.786 712.074 80.1452 711.003V609.479C77.8926 609.963 75.6072 610.507 73.3087 611.103L66.5967 596.261L64.3309 578.511C69.5081 576.761 74.7927 575.348 80.1518 574.279V464.031C77.8991 464.522 75.6138 465.059 73.3153 465.655L66.5901 450.8L64.3244 433.056C67.3563 432.008 70.5519 431.091 73.8653 430.246C68.8231 420.421 66.2365 408.998 69.681 398.629C73.4397 387.318 83.3932 379.635 91.8209 371.31C100.82 362.42 108.48 352.271 114.563 341.18V293.228C114.563 292.967 114.667 292.717 114.851 292.533C115.035 292.349 115.285 292.245 115.546 292.245C115.806 292.245 116.056 292.349 116.24 292.533C116.424 292.717 116.528 292.967 116.528 293.228V341.796C122.561 352.658 130.113 362.602 138.956 371.329C147.384 379.622 157.331 387.337 161.089 398.649C164.58 409.129 161.882 420.742 156.722 430.626C159.433 431.386 162.065 432.205 164.58 433.076L162.32 450.8L155.576 465.655C153.279 465.061 151.018 464.522 148.792 464.037V574.135C154.124 575.31 159.386 576.784 164.553 578.55L162.32 596.281L155.602 611.136C153.305 610.542 151.044 610.003 148.818 609.518V710.833C154.151 712.004 159.414 713.478 164.58 715.247L162.32 732.978L155.576 747.84C153.279 747.237 151.018 746.696 148.792 746.215V762.826H184.663C183.138 753.467 182.371 744 182.371 734.517C182.371 659.612 229.264 596.15 294.073 574.364C292.508 567.467 292.436 560.361 294.662 553.667C298.775 541.281 309.678 532.831 318.891 523.753C328.628 514.144 336.933 503.185 343.552 491.213V422.439H345.674V490.918C352.321 503.004 360.683 514.064 370.499 523.753C379.732 532.831 390.628 541.281 394.728 553.667C397.039 560.61 396.876 567.985 395.14 575.124C458.803 597.597 504.629 660.47 504.629 734.517C504.631 744 503.867 753.467 502.343 762.826H526.487V676.485H518.282C517.543 676.481 516.836 676.186 516.313 675.664C515.791 675.141 515.496 674.433 515.492 673.694V665.972C515.496 665.233 515.791 664.525 516.313 664.003C516.836 663.48 517.543 663.185 518.282 663.182H534.653C534.587 657.352 534.273 651.523 534.875 645.726C535.635 638.521 537.979 631.133 543.447 625.526C554.285 614.391 574.224 612.845 586.712 603.06C593.018 598.121 596.908 591.453 599.03 584.36V546.599C599.03 546.347 599.13 546.106 599.308 545.928C599.486 545.75 599.727 545.65 599.979 545.65C600.231 545.65 600.472 545.75 600.65 545.928C600.828 546.106 600.929 546.347 600.929 546.599V585.283C603.109 592.03 606.92 598.337 612.958 603.06C625.472 612.845 645.385 614.417 656.223 625.526L656.878 626.181V370.956H687V308.974H630.344C643.931 250.024 616.854 186.85 556.347 142.763C513.128 111.284 455.981 89.9569 408.813 61.1175C381.271 44.2776 356.695 23.0689 343.507 0C330.318 23.0885 305.729 44.2776 278.226 61.1175C231.078 89.9373 173.911 111.284 130.698 142.763C70.1524 186.837 43.075 249.998 56.6628 308.974H0V370.956H30.1879V762.826H80.1387V746.202Z" fill="#61298A"/>
<path d="M287.145 693.803C287.138 692.315 286.574 690.885 285.564 689.793C284.554 688.702 283.172 688.029 281.69 687.908C282.405 684.776 281.919 681.489 280.328 678.698C278.069 674.854 274.231 672.306 270.348 670.282C266.465 668.258 262.549 666.666 259.124 664.086C255.7 666.666 251.699 668.304 247.901 670.282C244.102 672.26 240.18 674.867 237.921 678.698C236.33 681.489 235.844 684.776 236.559 687.908C235.077 688.029 233.694 688.702 232.684 689.793C231.674 690.885 231.111 692.315 231.104 693.803V758.713H287.145V693.803Z" fill="#61298A"/>
<path d="M315.715 693.803V758.713H371.756V693.803C371.75 692.315 371.186 690.885 370.176 689.793C369.166 688.702 367.783 688.029 366.301 687.908C367.017 684.776 366.53 681.489 364.939 678.698C362.68 674.854 358.843 672.306 354.96 670.282C351.076 668.258 347.16 666.666 343.736 664.086C340.311 666.666 336.31 668.304 332.512 670.282C328.714 672.26 324.791 674.867 322.532 678.698C320.941 681.489 320.455 684.776 321.17 687.908C319.688 688.029 318.306 688.702 317.296 689.793C316.286 690.885 315.722 692.315 315.715 693.803Z" fill="#61298A"/>
<path d="M455.903 693.803C455.895 692.316 455.33 690.886 454.32 689.795C453.311 688.704 451.929 688.03 450.448 687.908C451.164 684.775 450.676 681.487 449.079 678.698C446.827 674.854 442.989 672.306 439.1 670.282C435.21 668.258 431.307 666.666 427.882 664.086C424.457 666.666 420.45 668.304 416.658 670.282C412.769 672.306 408.931 674.867 406.679 678.698C405.089 681.49 404.601 684.775 405.31 687.908C403.829 688.031 402.448 688.704 401.44 689.795C400.431 690.887 399.868 692.316 399.862 693.803V758.713H455.903V693.803Z" fill="#61298A"/>
<path d="M97.8193 502.774V543.416H132.912V502.774C132.909 501.842 132.556 500.946 131.925 500.263C131.293 499.579 130.428 499.156 129.5 499.079C129.944 497.116 129.638 495.058 128.642 493.309C127.228 490.905 124.825 489.307 122.395 488.069C119.966 486.831 117.51 485.803 115.369 484.185C113.221 485.803 110.713 486.805 108.343 488.069C105.972 489.333 103.503 490.931 102.089 493.309C101.095 495.059 100.791 497.117 101.238 499.079C100.309 499.155 99.442 499.576 98.809 500.26C98.176 500.945 97.8228 501.841 97.8193 502.774Z" fill="#61298A"/>
<path d="M97.8193 643.728V684.338H132.912V643.728C132.909 642.797 132.556 641.901 131.925 641.217C131.293 640.533 130.428 640.111 129.5 640.034C129.945 638.073 129.639 636.017 128.642 634.27C127.228 631.86 124.825 630.262 122.395 629.03C119.966 627.799 117.51 626.77 115.369 625.153C113.221 626.77 110.713 627.773 108.343 629.03C105.972 630.288 103.503 631.893 102.089 634.27C101.095 636.018 100.791 638.074 101.238 640.034C100.309 640.11 99.442 640.531 98.809 641.215C98.176 641.899 97.8228 642.796 97.8193 643.728Z" fill="#61298A"/>
<path d="M438.281 972.909C441.437 960.195 439.04 945.307 432.538 934.264C423.069 918.125 406.954 907.409 390.628 898.894C374.696 890.596 357.887 883.731 343.48 872.878C329.074 883.731 312.284 890.563 296.332 898.894C280.007 907.409 263.892 918.105 254.423 934.264C247.927 945.34 245.53 960.228 248.687 972.909C242.466 973.438 236.67 976.279 232.441 980.872C228.211 985.465 225.856 991.476 225.839 997.72V1152.53C243.834 1161.57 261.639 1170.78 278.226 1180.91C305.775 1197.75 330.351 1218.95 343.533 1242.02C356.721 1218.95 381.297 1197.75 408.839 1180.91C425.413 1170.78 443.212 1161.57 461.226 1152.53V997.72C461.207 991.46 458.838 985.436 454.589 980.841C450.339 976.245 444.519 973.414 438.281 972.909Z" fill="#61298A"/>
<path d="M207.759 414.284L215.447 410.243L223.135 414.284L221.668 405.723L227.889 399.658L219.291 398.407L215.447 390.619L211.603 398.407L203.005 399.658L209.226 405.723L207.759 414.284Z" fill="#F7941E"/>
<path d="M386.189 261.742L394.191 257.531L402.193 261.742L400.667 252.828L407.143 246.514L398.192 245.217L394.191 237.108L390.19 245.217L381.245 246.514L387.721 252.828L386.189 261.742Z" fill="#F7941E"/>
<path d="M135.603 233.512L147.999 226.995L160.395 233.512L158.025 219.711L168.05 209.932L154.194 207.921L147.999 195.359L141.805 207.921L127.948 209.932L137.974 219.711L135.603 233.512Z" fill="#F7941E"/>
<path d="M503.358 192.634L513.24 187.433L523.128 192.634L521.235 181.623L529.237 173.829L518.184 172.224L513.24 162.203L508.302 172.224L497.249 173.829L505.244 181.623L503.358 192.634Z" fill="#F7941E"/>
<path d="M551.227 374.113L563.309 367.76L575.384 374.113L573.079 360.66L582.855 351.129L569.346 349.171L563.309 336.929L557.264 349.171L543.762 351.129L553.532 360.66L551.227 374.113Z" fill="#F7941E"/>
<path d="M327.692 96.389L339.767 90.0421L351.849 96.389L349.544 82.9354L359.314 73.4118L345.812 71.4468L339.767 59.205L333.73 71.4468L320.221 73.4118L329.997 82.9354L327.692 96.389Z" fill="#F7941E"/>
<path d="M656.878 869.675V762.826H478.108C469.962 817.845 443.284 867.514 403.961 906.486C415.349 913.691 425.695 922.546 432.551 934.231C439.054 945.307 441.45 960.195 438.294 972.876C444.524 973.388 450.335 976.219 454.578 980.809C458.822 985.399 461.19 991.415 461.213 997.668V1152.48C494.446 1135.78 528.34 1119.63 556.374 1099.2C560.958 1095.86 565.349 1092.42 569.549 1088.87C599.455 1063.59 619.467 1033.25 628.432 1001.54C634.941 978.496 635.635 954.726 630.049 931.624H687.02V869.642L656.878 869.675Z" fill="#FFD098"/>
<path d="M656.877 869.675V762.826H639.446C639.599 767.088 639.675 771.367 639.675 775.664C639.675 907.082 568.298 1022.29 461.18 1086.63V1152.51C494.413 1135.81 528.307 1119.66 556.341 1099.24C560.925 1095.9 565.316 1092.45 569.516 1088.9C599.422 1063.62 619.434 1033.29 628.399 1001.57C634.908 978.529 635.602 954.759 630.016 931.657H686.987V869.675H656.877Z" fill="#F7941E"/>
<path d="M287.145 720.933C282.292 722.479 277.229 723.27 272.136 723.277C255.654 723.277 240.92 715.201 231.104 702.501V758.771H287.145V720.933Z" fill="#61298A"/>
<path d="M315.715 702.468V758.739H371.756V720.933C366.901 722.468 361.839 723.248 356.747 723.245C340.265 723.277 325.531 715.169 315.715 702.468Z" fill="#61298A"/>
<path d="M455.903 720.933C451.045 722.468 445.981 723.248 440.887 723.245C424.412 723.245 409.678 715.169 399.862 702.468V758.739H455.903V720.933Z" fill="#61298A"/>
<path d="M656.871 676.485H649.648V762.826H656.871V676.485Z" fill="#F7941E"/>
<path d="M534.601 659.383V659.455C534.601 659.933 534.601 660.411 534.601 660.896V661.243C534.601 661.616 534.601 661.996 534.601 662.369V662.854V663.182H545.471C541.755 662.198 538.121 660.928 534.601 659.383Z" fill="#F7941E"/>
<path d="M522.139 670.315C521.024 670.318 519.928 670.603 518.951 671.142C517.975 671.681 517.15 672.457 516.553 673.4C515.905 672.389 515.547 671.22 515.519 670.02V673.701C515.519 674.072 515.593 674.439 515.735 674.782C515.949 675.287 516.307 675.719 516.765 676.023C517.222 676.327 517.759 676.49 518.308 676.491H656.904V670.321L522.139 670.315Z" fill="#F7941E"/>
<path d="M124.995 460.585V489.575C126.471 490.538 127.718 491.812 128.649 493.309C129.645 495.058 129.949 497.117 129.5 499.079C130.429 499.155 131.295 499.576 131.928 500.261C132.561 500.945 132.915 501.841 132.918 502.774V543.416H124.995V570.801C133.004 571.284 140.964 572.399 148.798 574.135V464.037C140.955 462.326 133.001 461.173 124.995 460.585Z" fill="#F7941E"/>
<path d="M124.995 606.033V630.511C126.472 631.468 127.72 632.741 128.649 634.237C129.645 635.986 129.949 638.046 129.5 640.008C130.429 640.083 131.295 640.505 131.928 641.189C132.561 641.873 132.915 642.77 132.918 643.702V684.312H124.995V707.446C133.005 707.925 140.964 709.04 148.798 710.78V609.518C140.956 607.793 133.002 606.628 124.995 606.033Z" fill="#F7941E"/>
<path d="M124.995 742.763V762.826H148.798V746.202C140.955 744.495 133 743.346 124.995 742.763Z" fill="#F7941E"/>
<path d="M132.912 519.745C129.872 520.706 126.703 521.194 123.515 521.192C113.195 521.192 103.968 516.135 97.8193 508.184V543.416H132.912V519.745Z" fill="#61298A"/>
<path d="M132.912 660.699C129.872 661.66 126.703 662.149 123.515 662.147C113.195 662.147 103.968 657.09 97.8193 649.139V684.371H132.912V660.699Z" fill="#61298A"/>
<path d="M0 931.657H2.1937L0 929.994V931.657Z" fill="#FFD098"/>
<path d="M188.514 992.631C139.696 992.631 93.674 981.751 53.2248 962.501C52.9432 1012.35 80.1516 1062.43 130.666 1099.22C148.025 1111.87 167.644 1122.88 187.957 1133.4C200.438 1139.86 213.181 1146.14 225.826 1152.49V997.72C225.824 995.23 226.202 992.754 226.946 990.378C214.191 991.888 201.358 992.641 188.514 992.631Z" fill="#FFD098"/>
<path d="M187.957 1133.42C200.438 1139.88 213.181 1146.15 225.826 1152.51V1139.05C213.004 1137.79 200.381 1135.91 187.957 1133.42Z" fill="#F7941E"/>
<path d="M687 931.657V869.675H673.163C669.375 890.664 664.17 911.372 657.585 931.657H687Z" fill="#F7941E"/>
<path d="M628.399 1001.57C612.234 1032.87 592.473 1062.18 569.516 1088.9C599.422 1063.62 619.434 1033.29 628.399 1001.57Z" fill="#F7941E"/>
<path d="M398.139 1121.25C328.936 1121.25 267.048 1087.32 225.826 1033.97V1152.53C243.821 1161.57 261.626 1170.78 278.213 1180.91C305.762 1197.75 330.338 1218.95 343.52 1242.03C356.708 1218.95 381.284 1197.75 408.826 1180.91C425.4 1170.78 443.198 1161.57 461.213 1152.53V1111.54C440.81 1117.99 419.537 1121.26 398.139 1121.25Z" fill="#61298A"/>
<path d="M256.459 275.916C256.498 277.226 256.57 278.536 256.662 279.807C256.721 280.672 256.793 281.536 256.872 282.394C256.998 283.704 257.145 284.99 257.31 286.252C257.703 289.239 258.223 292.202 258.869 295.14C259.052 295.979 259.242 296.817 259.445 297.649C259.648 298.481 259.864 299.313 260.1 300.138C260.336 300.963 260.558 301.795 260.801 302.614C261.043 303.433 261.292 304.258 261.554 305.07C261.947 306.295 262.366 307.507 262.805 308.718C263.093 309.524 263.394 310.323 263.702 311.122C264.009 311.921 264.356 312.714 264.664 313.5C265.155 314.685 265.673 315.864 266.203 317.03C266.561 317.812 266.928 318.585 267.303 319.349C267.683 320.122 268.063 320.888 268.462 321.648C269.052 322.788 269.663 323.917 270.296 325.034C270.505 325.408 270.715 325.781 270.951 326.154C271.383 326.895 271.822 327.628 272.26 328.362C272.699 329.095 273.171 329.822 273.635 330.543C274.801 332.346 276.021 334.115 277.296 335.848C278.056 336.883 278.839 337.909 279.647 338.927C280.452 339.942 281.271 340.938 282.116 341.927C282.672 342.582 283.242 343.237 283.818 343.892C284.689 344.855 285.573 345.811 286.477 346.747C287.38 347.684 288.304 348.601 289.247 349.512C301.822 361.591 317.155 370.415 333.916 375.219C350.676 380.022 368.355 380.658 385.417 377.072C402.479 373.486 418.408 365.786 431.818 354.642C445.228 343.498 455.714 329.247 462.365 313.127C462.588 312.576 462.804 312.026 463.02 311.476L461.619 313.841C461.318 314.286 461.016 314.738 460.702 315.183C451.843 327.781 440.141 338.114 426.544 345.343C412.947 352.573 397.839 356.495 382.443 356.793C367.048 357.091 351.799 353.756 337.932 347.058C324.066 340.36 311.973 330.488 302.634 318.242C293.294 305.997 286.972 291.722 284.178 276.575C281.384 261.429 282.198 245.837 286.554 231.064C290.91 216.291 298.685 202.752 309.249 191.546C319.813 180.34 332.868 171.782 347.357 166.565H347.219L346.401 166.696L345.51 166.84L344.692 166.984L343.821 167.141L342.982 167.305L342.131 167.476L341.306 167.646L340.435 167.842L339.643 168.019L338.759 168.229L337.947 168.425L337.102 168.635L336.277 168.851L335.432 169.074L334.633 169.296L333.775 169.539L332.977 169.775L332.145 170.023L331.313 170.285L330.514 170.541L329.683 170.816L328.877 171.085L328.065 171.366L327.253 171.654L326.448 171.949L325.642 172.25L324.85 172.552L324.032 172.873L323.265 173.181L322.427 173.521L321.681 173.836L320.856 174.189L320.096 174.523L319.304 174.877L318.524 175.231L317.765 175.591L316.972 175.964L316.206 176.357L315.46 176.724L314.654 177.137L313.921 177.517L313.168 177.916L312.402 178.322L311.649 178.735L310.902 179.148L310.129 179.593L309.416 180.006L308.623 180.477L307.968 180.877L307.117 181.401L306.508 181.781L305.65 182.324L305.048 182.711L304.184 183.281L303.614 183.66C303.149 183.975 302.684 184.315 302.226 184.617C301.754 184.944 301.289 185.272 300.824 185.612L300.169 186.11L299.469 186.628L298.814 187.132L298.094 187.676L297.478 188.16L296.738 188.743L296.122 189.241L295.389 189.837L294.774 190.348L294.066 190.944L293.411 191.501L292.757 192.077L292.102 192.64L291.447 193.236L290.792 193.813L290.137 194.415L289.522 194.998L288.867 195.653L288.291 196.223L287.636 196.878L287.046 197.474L286.392 198.129L285.802 198.751L285.2 199.406L284.61 200.061L284.008 200.716L283.445 201.371L282.836 202.026L282.299 202.681L281.69 203.395L281.16 204.05L280.583 204.751L280.033 205.406L279.47 206.114L278.946 206.769L278.396 207.489L277.872 208.183L277.329 208.91L276.825 209.605L276.294 210.351L275.796 211.052L275.273 211.806L274.781 212.526L274.271 213.292L273.806 214L273.288 214.812L272.843 215.513L272.345 216.318L271.9 217.039L271.409 217.871L270.99 218.585L270.499 219.436L270.093 220.157L269.641 220.982L269.222 221.755L268.783 222.587L268.377 223.36L267.952 224.198L267.559 224.991L267.12 225.881L266.766 226.621C266.603 226.975 266.439 227.322 266.282 227.676L266 228.285C265.823 228.672 265.653 229.058 265.483 229.445L265.254 229.975C265.011 230.538 264.769 231.108 264.533 231.678C262.455 236.721 260.763 241.915 259.471 247.215C259.148 248.524 258.854 249.834 258.587 251.144C258.411 252.016 258.247 252.887 258.09 253.764C257.933 254.642 257.788 255.507 257.658 256.384C257.592 256.823 257.527 257.256 257.468 257.694C257.343 258.566 257.232 259.443 257.134 260.314C256.928 262.061 256.771 263.808 256.662 265.554C256.579 266.864 256.518 268.174 256.479 269.484C256.479 269.923 256.479 270.355 256.479 270.794C256.479 271.233 256.479 271.659 256.479 272.104C256.479 272.55 256.479 272.975 256.479 273.414C256.407 274.213 256.426 275.078 256.459 275.916Z" fill="#F7941E"/>
<path d="M207.759 414.284L215.447 410.243L223.135 414.284L221.668 405.723L227.889 399.658L219.291 398.407L215.447 390.619L211.603 398.407L203.005 399.658L209.226 405.723L207.759 414.284Z" fill="#F7941E"/>
<path d="M386.189 261.742L394.191 257.531L402.193 261.742L400.667 252.828L407.143 246.514L398.192 245.217L394.191 237.108L390.19 245.217L381.245 246.514L387.721 252.828L386.189 261.742Z" fill="#F7941E"/>
<path d="M135.603 233.512L147.999 226.995L160.395 233.512L158.025 219.711L168.05 209.932L154.194 207.921L147.999 195.359L141.805 207.921L127.948 209.932L137.974 219.711L135.603 233.512Z" fill="#F7941E"/>
<path d="M503.358 192.634L513.24 187.433L523.128 192.634L521.235 181.623L529.237 173.829L518.184 172.224L513.24 162.203L508.302 172.224L497.249 173.829L505.244 181.623L503.358 192.634Z" fill="#F7941E"/>
<path d="M551.227 374.113L563.309 367.76L575.384 374.113L573.079 360.66L582.855 351.129L569.346 349.171L563.309 336.929L557.264 349.171L543.762 351.129L553.532 360.66L551.227 374.113Z" fill="#F7941E"/>
<path d="M327.692 96.389L339.767 90.0421L351.849 96.389L349.544 82.9354L359.314 73.4118L345.812 71.4468L339.767 59.205L333.73 71.4468L320.221 73.4118L329.997 82.9354L327.692 96.389Z" fill="#F7941E"/>
<path d="M161.665 417.264C161.751 416.897 161.823 416.531 161.895 416.164C162.509 413.077 162.743 409.927 162.589 406.784C162.589 406.417 162.563 406.051 162.51 405.684C162.458 405.134 162.399 404.583 162.32 404.04C162.196 403.129 162.026 402.225 161.816 401.328C161.61 400.423 161.359 399.529 161.063 398.649C160.945 398.295 160.827 397.942 160.696 397.595C160.565 397.247 160.428 396.94 160.29 396.566C158.458 392.362 155.947 388.487 152.858 385.097C152.373 384.541 151.876 383.99 151.371 383.447L150.605 382.635L150.219 382.228C149.835 381.831 149.442 381.432 149.04 381.03L147.848 379.844L147.043 379.065L146.434 378.482L145.393 377.486L144.64 376.785L144.594 376.746L142.983 375.227L142.164 374.454L141.352 373.681L140.141 372.528L138.949 371.362C136.902 369.345 134.92 367.257 133.003 365.1C130.55 362.328 128.212 359.454 125.99 356.481L125.257 355.485C124.528 354.485 123.814 353.476 123.115 352.459C122.644 351.804 122.185 351.09 121.727 350.402C121.129 349.498 120.544 348.586 119.972 347.664C119.671 347.186 119.376 346.708 119.082 346.223C118.649 345.516 118.23 344.809 117.811 344.095C116.98 342.667 116.174 341.219 115.395 339.765C115.768 340.453 116.141 341.141 116.521 341.828V293.228C116.521 292.967 116.418 292.717 116.233 292.533C116.049 292.349 115.799 292.245 115.539 292.245C115.278 292.245 115.029 292.349 114.844 292.533C114.66 292.717 114.557 292.967 114.557 293.228V341.219L115.211 340.047C116.079 342.914 117.137 345.719 118.381 348.444C120.529 353.029 123.62 357.09 126.534 361.177C132.362 369.246 138.203 377.552 140.58 387.377C143.939 401.269 140.056 416.124 129.159 425.615L128.812 425.917C125.071 429.018 120.785 431.397 116.174 432.932H155.464C155.903 432.172 156.329 431.399 156.735 430.619C158.79 426.73 160.375 422.609 161.456 418.345C161.489 417.991 161.574 417.624 161.665 417.264Z" fill="#F7941E"/>
<path d="M395.52 573.447C396.062 570.86 396.369 568.23 396.437 565.587C396.437 565.181 396.437 564.782 396.437 564.376C396.437 563.57 396.437 562.764 396.345 561.965L396.293 561.363C396.208 560.361 396.077 559.398 395.9 558.369L395.795 557.78C395.717 557.38 395.631 556.987 395.54 556.594C395.311 555.605 395.036 554.629 394.715 553.66L394.518 553.084C394.381 552.697 394.243 552.317 394.093 551.944C393.942 551.571 393.791 551.197 393.634 550.824C392.748 548.81 391.697 546.874 390.491 545.034C390.275 544.7 390.052 544.379 389.836 544.038C389.62 543.698 389.378 543.383 389.142 543.062L388.422 542.093C388.003 541.543 387.57 540.999 387.112 540.462L386.516 539.741C386.195 539.362 385.861 538.982 385.534 538.608L384.977 537.953C384.414 537.331 383.838 536.709 383.255 536.1C381.435 534.187 379.522 532.333 377.591 530.499L374.493 527.578L374.441 527.532C373.413 526.556 372.378 525.567 371.37 524.598L370.499 523.753C369.534 522.801 368.587 521.838 367.657 520.864C359.059 511.88 351.67 501.813 345.674 490.918V422.438H343.579V491.213C343.899 490.643 344.233 490.067 344.522 489.49C345.47 492.622 346.629 495.686 347.992 498.66C350.343 503.671 353.696 508.131 356.924 512.605C363.302 521.447 369.693 530.545 372.3 541.313C374.559 550.385 373.871 559.94 370.335 568.594C378.783 570.067 387.093 572.243 395.18 575.098L395.291 574.626C395.35 574.253 395.442 573.847 395.52 573.447Z" fill="#F7941E"/>
<path d="M656.236 625.526C645.398 614.391 625.458 612.845 612.971 603.06C606.933 598.337 603.148 592.03 600.941 585.283V546.599C600.941 546.347 600.841 546.106 600.663 545.928C600.485 545.75 600.244 545.65 599.992 545.65C599.74 545.65 599.499 545.75 599.321 545.928C599.143 546.106 599.042 546.347 599.042 546.599V584.36L599.219 583.744V583.908C599.285 592.311 604.609 599.745 610.672 605.103C613.877 607.902 617.38 610.34 621.117 612.374C624.699 614.339 628.484 615.93 632.105 617.836C638.968 621.459 645.202 626.351 647.435 634.067C649.275 640.44 648.319 646.944 643.735 651.837C639.551 656.298 633.48 658.728 627.75 660.457C623.745 661.637 619.665 662.547 615.538 663.182H656.884V626.207L656.236 625.526Z" fill="#F7941E"/>
</g>
<defs>
<clipPath id="clip0_521_10">
<rect width="687" height="1242" fill="white"/>
</clipPath>
</defs>
</svg>
