<svg width="48" height="48" viewBox="0 0 48 48" fill="none" xmlns="http://www.w3.org/2000/svg">
<path d="M12.8725 20.3685C12.5955 21.2105 11.4044 21.2105 11.1275 20.3685L9.41727 15.1683C9.32614 14.8912 9.10882 14.6739 8.83174 14.5827L3.63151 12.8725C2.7895 12.5955 2.7895 11.4044 3.63151 11.1275L8.83174 9.41727C9.10882 9.32614 9.32614 9.10882 9.41727 8.83174L11.1275 3.63151C11.4044 2.7895 12.5956 2.7895 12.8725 3.63151L14.5827 8.83174C14.6739 9.10882 14.8912 9.32614 15.1683 9.41727L20.3685 11.1275C21.2105 11.4044 21.2105 12.5956 20.3685 12.8725L15.1683 14.5827C14.8912 14.6739 14.6739 14.8912 14.5827 15.1683L12.8725 20.3685Z" fill="#D7A1FF"/>
<path d="M16.9694 44.2983C16.6617 45.2339 15.3383 45.2339 15.0306 44.2983L13.1303 38.5203C13.029 38.2124 12.7876 37.971 12.4797 37.8697L6.70167 35.9694C5.76611 35.6617 5.76611 34.3383 6.70167 34.0306L12.4797 32.1303C12.7876 32.029 13.029 31.7876 13.1303 31.4797L15.0306 25.7017C15.3383 24.7661 16.6617 24.7661 16.9694 25.7017L18.8697 31.4797C18.971 31.7876 19.2124 32.029 19.5203 32.1303L25.2983 34.0306C26.2339 34.3383 26.2339 35.6617 25.2983 35.9694L19.5203 37.8697C19.2124 37.971 18.971 38.2124 18.8697 38.5203L16.9694 44.2983Z" fill="#D7A1FF"/>
<path d="M33.18 32.1459C32.8054 33.2847 31.1946 33.2847 30.82 32.1459L28.3021 24.4898C28.1788 24.1151 27.8849 23.8212 27.5102 23.6979L19.8541 21.18C18.7153 20.8054 18.7153 19.1946 19.8541 18.82L27.5102 16.3021C27.8849 16.1788 28.1788 15.8849 28.3021 15.5102L30.82 7.85407C31.1946 6.71531 32.8054 6.71531 33.18 7.85407L35.6979 15.5102C35.8212 15.8849 36.1151 16.1788 36.4898 16.3021L44.1459 18.82C45.2847 19.1946 45.2847 20.8054 44.1459 21.18L36.4898 23.6979C36.1151 23.8212 35.8212 24.1151 35.6979 24.4898L33.18 32.1459Z" fill="#D7A1FF"/>
<path d="M33.18 32.1459C32.8054 33.2847 31.1946 33.2847 30.82 32.1459L28.3021 24.4898C28.1788 24.1151 27.8849 23.8212 27.5102 23.6979L19.8541 21.18C18.7153 20.8054 18.7153 19.1946 19.8541 18.82L27.5102 16.3021C27.8849 16.1788 28.1788 15.8849 28.3021 15.5102L30.82 7.85407C31.1946 6.71531 32.8054 6.71531 33.18 7.85407L35.6979 15.5102C35.8212 15.8849 36.1151 16.1788 36.4898 16.3021L44.1459 18.82C45.2847 19.1946 45.2847 20.8054 44.1459 21.18L36.4898 23.6979C36.1151 23.8212 35.8212 24.1151 35.6979 24.4898L33.18 32.1459Z" stroke="#61298A" stroke-width="3" stroke-linecap="round" stroke-linejoin="round"/>
<path d="M16.9694 44.2983C16.6617 45.2339 15.3383 45.2339 15.0306 44.2983L13.1303 38.5203C13.029 38.2124 12.7876 37.971 12.4797 37.8697L6.70167 35.9694C5.76611 35.6617 5.76611 34.3383 6.70167 34.0306L12.4797 32.1303C12.7876 32.029 13.029 31.7876 13.1303 31.4797L15.0306 25.7017C15.3383 24.7661 16.6617 24.7661 16.9694 25.7017L18.8697 31.4797C18.971 31.7876 19.2124 32.029 19.5203 32.1303L25.2983 34.0306C26.2339 34.3383 26.2339 35.6617 25.2983 35.9694L19.5203 37.8697C19.2124 37.971 18.971 38.2124 18.8697 38.5203L16.9694 44.2983Z" stroke="#61298A" stroke-width="3" stroke-linecap="round" stroke-linejoin="round"/>
<path d="M12.8725 20.3685C12.5955 21.2105 11.4044 21.2105 11.1275 20.3685L9.41727 15.1683C9.32614 14.8912 9.10882 14.6739 8.83174 14.5827L3.63151 12.8725C2.7895 12.5955 2.7895 11.4044 3.63151 11.1275L8.83174 9.41727C9.10882 9.32614 9.32614 9.10882 9.41727 8.83174L11.1275 3.63151C11.4044 2.7895 12.5956 2.7895 12.8725 3.63151L14.5827 8.83174C14.6739 9.10882 14.8912 9.32614 15.1683 9.41727L20.3685 11.1275C21.2105 11.4044 21.2105 12.5956 20.3685 12.8725L15.1683 14.5827C14.8912 14.6739 14.6739 14.8912 14.5827 15.1683L12.8725 20.3685Z" stroke="#61298A" stroke-width="3" stroke-linecap="round" stroke-linejoin="round"/>
</svg>
