<svg width="1440" height="250" viewBox="0 0 1440 250" fill="none" xmlns="http://www.w3.org/2000/svg">
<g clip-path="url(#clip0_494_10)">
<rect width="1440" height="250" fill="url(#paint0_linear_494_10)"/>
<path fill-rule="evenodd" clip-rule="evenodd" d="M1201.91 -38.9322C1181.96 -52.5726 1178.05 -69.3324 1188.87 -89C1207.82 -77.1571 1212.68 -60.6089 1201.91 -38.9322ZM1191.99 50.3122C1140.68 33.6581 1121.73 0.244377 1132.66 -48.6074C1180.85 -35.3371 1201.38 -2.87495 1191.99 50.3122ZM1253 150.924C1221.33 114.443 1222.12 80.0779 1253 47.5629C1283.88 80.0779 1284.72 114.443 1253 150.924ZM1231.04 241.437C1176.89 212.517 1143 161.233 1154.09 98.6881C1155.62 90.0175 1165.12 89.9646 1164.64 100.01C1163.11 124.647 1168.5 146.06 1187.87 162.449C1184.4 153.833 1182.9 144.547 1183.49 135.274C1183.96 127.185 1193.46 127.026 1194.04 135.274C1195.16 147.768 1204.02 153.766 1214.12 160.602C1227.87 169.908 1243.9 180.765 1245.82 211.671C1246.54 223.186 1255.01 233.227 1263.29 243.043C1268.32 249 1273.27 254.875 1276.38 260.946C1276.43 261.157 1261.71 263.325 1231.04 241.437ZM1103 21.0751C1084.1 19.1189 1075.13 9.02077 1075.29 -8.5849C1092.86 -7.58037 1102.26 2.09483 1103 21.0751ZM1130.86 122.903C1079.09 117.616 1054.75 89.8059 1055.02 41.43C1103.21 44.3378 1129.12 70.8785 1130.86 122.903ZM1114.45 192.427C1070.06 201.573 1042.4 185.025 1030 144.844C1070.85 134.481 1099.3 149.655 1114.45 192.427ZM1204.23 271.784C1172.46 219.813 1130.81 207.864 1080.19 232.766C1105.8 279.212 1143.35 294.308 1193.8 275.972C1200.34 273.756 1204.23 271.784 1204.23 271.784ZM1264.61 211.883C1264.64 212.288 1264.64 212.694 1264.61 213.099C1267.32 219.093 1270.97 224.61 1275.43 229.435C1278.28 232.66 1280.97 235.938 1283.56 239.269C1335.23 209.926 1367.17 159.753 1356.35 98.8996C1354.66 90.229 1345.16 90.1761 1345.79 100.221C1347.32 124.859 1341.94 146.271 1322.57 162.661C1326.04 154.045 1327.54 144.758 1326.95 135.486C1326.63 127.238 1317.18 127.079 1316.39 135.486C1315.27 147.979 1306.41 153.978 1296.31 160.814C1282.57 170.119 1266.53 180.976 1264.61 211.883ZM1373.34 -48.6074C1325.15 -35.3371 1304.62 -2.87495 1314.01 50.3122C1314.01 50.3122 1346.71 43.4892 1364.75 16.4797C1371.05 7.26933 1374.76 -3.28647 1375.92 -15.1559C1376.93 -24.8734 1376.28 -35.9643 1373.34 -48.6074ZM1304.09 -38.9322C1324.04 -52.5726 1327.95 -69.3324 1317.13 -89C1298.08 -77.1571 1293.32 -60.6089 1304.09 -38.9322ZM1403.11 21.0751C1422.01 19.1189 1430.98 9.02077 1430.82 -8.5849C1413.14 -7.58037 1403.69 2.09483 1403.11 21.0751ZM1375.14 122.903C1426.91 117.616 1451.51 89.7002 1450.98 41.3243C1402.79 44.3379 1376.72 70.8786 1375.14 122.903ZM1460.88 174.322C1472.83 160.503 1476 144.844 1476 144.844C1435.15 134.481 1406.7 149.655 1391.55 192.427C1405.21 195.474 1416.74 195.625 1426.44 193.873C1440.6 191.497 1452.05 184.933 1460.88 174.322ZM1425.81 232.766C1375.14 207.864 1333.54 219.813 1301.77 271.784C1317.08 279.027 1330.86 282.457 1343.18 283.203C1374.81 285.984 1400.15 272.399 1419.52 243.178C1423.75 237.075 1425.81 232.766 1425.81 232.766ZM1253 13.5676C1268.83 -4.67251 1268.46 -21.9081 1253 -38.1391C1237.54 -21.9081 1237.11 -4.67251 1253 13.5676Z" fill="#F9F9F9"/>
<path d="M-117.386 848.975C-29.0133 944.582 96.9766 1020.3 223.442 1068.35C332.672 1109.84 455.49 1130.56 574.395 1108.63C666.918 1091.56 754.286 1060.34 839.751 1026.95C896.19 1004.95 952.893 983.344 1008.94 960.509C1062.68 938.51 1115.47 908.372 1173.2 894.358C1270.7 870.688 1375.48 884.965 1471.92 857.862C1549.45 836.083 1609.04 791.58 1640.1 728.069C1718.9 567.279 1668.73 332.42 1482.07 234.349C1310.45 144.153 1100.61 114.433 900.842 135.772C822.938 144.087 749.977 165.316 673.289 177.724C562.975 195.543 451.551 193.013 341.052 177.944C231.452 162.984 108.925 137.972 3.31687 179.153C-91.5059 216.133 -147.125 296.671 -187.703 373.425C-272.031 532.939 -244.274 711.702 -117.386 848.975Z" fill="#D7A1FF"/>
<path d="M-116.386 858.141C-28.0133 953.748 97.9766 1029.47 224.442 1077.51C333.672 1119 456.49 1139.73 575.395 1117.79C667.918 1100.72 755.286 1069.51 840.751 1036.11C897.19 1014.11 953.893 992.51 1009.94 969.675C1063.68 947.677 1116.47 917.538 1174.2 903.525C1271.7 879.854 1376.48 894.131 1472.92 867.029C1550.45 845.25 1610.04 800.746 1641.1 737.236C1719.9 576.446 1669.73 341.586 1483.07 243.515C1311.45 153.32 1101.61 123.599 901.842 144.938C823.938 153.254 750.977 174.483 674.289 186.89C563.975 204.709 452.551 202.179 342.052 187.11C232.452 172.151 109.925 147.138 4.31687 188.32C-90.5059 225.3 -146.125 305.838 -186.703 382.592C-271.031 542.106 -243.274 720.868 -116.386 858.141Z" fill="#F9F9F9"/>
</g>
<defs>
<linearGradient id="paint0_linear_494_10" x1="0" y1="125" x2="1440" y2="125" gradientUnits="userSpaceOnUse">
<stop stop-color="#D7A1FF"/>
<stop offset="1" stop-color="#61298A"/>
</linearGradient>
<clipPath id="clip0_494_10">
<rect width="1440" height="250" fill="white"/>
</clipPath>
</defs>
</svg>
