<svg width="49" height="48" viewBox="0 0 49 48" fill="none" xmlns="http://www.w3.org/2000/svg">
<path d="M20.1352 42.6338C20.5742 42.7189 20.8736 42.2124 20.6262 41.8399C18.9444 39.3073 17.9646 36.2681 17.9646 33C17.9646 24.1634 25.128 17 33.9646 17C37.2327 17 40.2719 17.9798 42.8045 19.6616C43.177 19.909 43.6834 19.6089 43.5982 19.1699C41.8114 9.95642 33.7004 3 23.9646 3C12.9189 3 3.9646 11.9543 3.9646 23C3.9646 26.7961 5.0222 30.3452 6.85882 33.3687C5.96731 35.506 5.06068 38.0321 4.48097 40.3537C4.15565 41.6566 5.29865 42.755 6.59259 42.3958C8.83586 41.7729 11.3041 40.8668 13.4303 40.0041C15.453 41.2598 17.7163 42.1648 20.1352 42.6338Z" fill="#D7A1FF"/>
<path d="M21.9646 33C21.9646 26.3726 27.3372 21 33.9646 21C40.592 21 45.9646 26.3726 45.9646 33C45.9646 35.3026 45.3161 37.4537 44.1918 39.2806C44.6231 40.1919 45.0522 41.2412 45.3911 42.3659C45.7785 43.6517 44.6267 44.7572 43.3503 44.3398C42.2753 43.9883 41.2581 43.5672 40.3566 43.1578C38.506 44.3248 36.3141 45 33.9646 45C27.3372 45 21.9646 39.6274 21.9646 33Z" fill="white"/>
<path d="M43.5645 19C41.7114 9.87104 33.6404 3 23.9646 3C12.9189 3 3.9646 11.9543 3.9646 23C3.9646 26.7961 5.0222 30.3452 6.85882 33.3687C5.96731 35.506 5.06068 38.0321 4.48097 40.3537C4.15565 41.6566 5.29865 42.755 6.59259 42.3958C8.83586 41.7729 11.3041 40.8668 13.4303 40.0041C15.4054 41.2303 17.6099 42.1219 19.9646 42.5999" stroke="#61298A" stroke-width="3" stroke-linecap="round" stroke-linejoin="round"/>
<path d="M21.9646 33C21.9646 26.3726 27.3372 21 33.9646 21C40.592 21 45.9646 26.3726 45.9646 33C45.9646 35.3026 45.3161 37.4537 44.1918 39.2806C44.6231 40.1919 45.0522 41.2412 45.3911 42.3659C45.7785 43.6517 44.6267 44.7572 43.3503 44.3398C42.2753 43.9883 41.2581 43.5672 40.3566 43.1578C38.506 44.3248 36.3141 45 33.9646 45C27.3372 45 21.9646 39.6274 21.9646 33Z" stroke="#61298A" stroke-width="3" stroke-linejoin="round"/>
</svg>
