<svg width="48" height="48" viewBox="0 0 48 48" fill="none" xmlns="http://www.w3.org/2000/svg">
<path d="M8.23884 36.9412C5.6944 36.7716 3.69829 34.8857 3.46989 32.3459C3.23028 29.6813 3 25.6903 3 20.1919C3 14.6936 3.23028 10.7025 3.46989 8.03794C3.69829 5.4981 5.6944 3.6122 8.23885 3.44266C11.4676 3.22751 16.6277 3 24.0124 3C31.397 3 36.5571 3.22751 39.7859 3.44266C42.3303 3.61221 44.3264 5.49811 44.5548 8.03794C44.7944 10.7025 45.0247 14.6936 45.0247 20.1919C45.0247 25.6903 44.7944 29.6813 44.5548 32.3459C44.3264 34.8857 42.3303 36.7716 39.7859 36.9412C36.956 37.1298 32.6424 37.3278 26.6479 37.3739L18.7404 44.4131C17.4509 45.561 15.4106 44.6457 15.4106 42.9193V37.2687C12.3972 37.1828 10.0231 37.0601 8.23884 36.9412Z" fill="#D7A1FF"/>
<path d="M27.0684 29C27.0684 30.933 25.5014 32.5 23.5684 32.5C21.6354 32.5 20.0684 30.933 20.0684 29C20.0684 27.067 21.6354 25.5 23.5684 25.5C25.5014 25.5 27.0684 27.067 27.0684 29Z" fill="white"/>
<path d="M26.1375 8.5C22.1645 8.5 18.7991 10.86 18.1377 13.5C17.5431 15.8736 18.9286 17.9239 21.2355 17.878C21.857 17.8657 22.4338 17.5884 22.9687 17.2716C23.7945 16.7825 25.1017 16.0247 26.1375 15.5C24.1035 16.6253 20.4685 18.2967 20.4685 20.7667L20.4654 22.996C20.4634 24.3781 21.5833 25.4995 22.9654 25.4995H24.0688C24.9271 25.4995 25.6844 25.0669 26.1344 24.4079C26.6538 23.6474 27.078 22.7339 27.8809 22.2829C30.9127 20.58 33.1375 18.8711 33.1375 15.5C33.1375 12 31.0257 8.5 26.1375 8.5Z" fill="white"/>
<path d="M8.23884 36.9412C5.6944 36.7716 3.69829 34.8857 3.46989 32.3459C3.23028 29.6813 3 25.6903 3 20.1919C3 14.6936 3.23028 10.7025 3.46989 8.03794C3.69829 5.4981 5.6944 3.6122 8.23885 3.44266C11.4676 3.22751 16.6277 3 24.0124 3C31.397 3 36.5571 3.22751 39.7859 3.44266C42.3303 3.61221 44.3264 5.49811 44.5548 8.03794C44.7944 10.7025 45.0247 14.6936 45.0247 20.1919C45.0247 25.6903 44.7944 29.6813 44.5548 32.3459C44.3264 34.8857 42.3303 36.7716 39.7859 36.9412C36.956 37.1298 32.6424 37.3278 26.6479 37.3739L18.7404 44.4131C17.4509 45.561 15.4106 44.6457 15.4106 42.9193V37.2687C12.3972 37.1828 10.0231 37.0601 8.23884 36.9412Z" stroke="#61298A" stroke-width="3" stroke-linecap="round" stroke-linejoin="round"/>
<path d="M23.568 32.5C25.501 32.5 27.068 30.933 27.068 29C27.068 27.067 25.501 25.5 23.568 25.5C21.635 25.5 20.068 27.067 20.068 29C20.068 30.933 21.635 32.5 23.568 32.5Z" stroke="#61298A" stroke-width="3" stroke-linecap="round" stroke-linejoin="round"/>
<path d="M18.1377 13.5L16.6827 13.1355L18.1377 13.5ZM20.4654 22.996L18.9654 22.9939L20.4654 22.996ZM20.4685 20.7667L21.9685 20.7688V20.7667H20.4685ZM22.9687 17.2716L22.2043 15.981L22.9687 17.2716ZM26.1375 15.5L26.8637 16.8125C27.5792 16.4167 27.8458 15.5206 27.4631 14.7979C27.0803 14.0753 26.1893 13.7924 25.4598 14.1619L26.1375 15.5ZM21.2355 17.878L21.2653 19.3777L21.2355 17.878ZM26.1344 24.4079L27.3732 25.2538L26.1344 24.4079ZM19.5928 13.8645C19.8065 13.0113 20.5124 12.0453 21.7111 11.269C22.8909 10.505 24.4427 10 26.1375 10V7C23.8593 7 21.7419 7.67497 20.0804 8.75094C18.4377 9.81471 17.1303 11.3487 16.6827 13.1355L19.5928 13.8645ZM24.0688 23.9995H22.9654V26.9995H24.0688V23.9995ZM21.9654 22.9981L21.9685 20.7688L18.9685 20.7646L18.9654 22.9939L21.9654 22.9981ZM26.1375 10C28.1917 10 29.5117 10.7188 30.3377 11.6706C31.1937 12.6571 31.6375 14.0339 31.6375 15.5H34.6375C34.6375 13.4661 34.0254 11.3429 32.6035 9.70438C31.1515 8.0312 28.9715 7 26.1375 7V10ZM31.6375 15.5C31.6375 16.8027 31.2264 17.7243 30.5206 18.5255C29.7643 19.384 28.6426 20.1347 27.1463 20.9751L28.6155 23.5908C30.1511 22.7283 31.6577 21.773 32.7717 20.5086C33.9362 19.1868 34.6375 17.5684 34.6375 15.5H31.6375ZM23.7332 18.5622C24.5563 18.0746 25.827 17.3387 26.8153 16.8381L25.4598 14.1619C24.3763 14.7106 23.0326 15.4904 22.2043 15.981L23.7332 18.5622ZM21.2056 16.3783C20.5379 16.3916 20.0942 16.1186 19.8289 15.7383C19.5488 15.3366 19.3864 14.6882 19.5928 13.8645L16.6827 13.1355C16.2944 14.6854 16.5275 16.2489 17.3682 17.4544C18.2238 18.6811 19.6263 19.4103 21.2653 19.3777L21.2056 16.3783ZM21.9685 20.7667C21.9685 20.2976 22.3333 19.6545 23.4369 18.8315C24.492 18.0448 25.7559 17.4254 26.8637 16.8125L25.4114 14.1875C24.4852 14.6999 22.9145 15.4789 21.6436 16.4266C20.4212 17.3382 18.9685 18.7658 18.9685 20.7667H21.9685ZM22.2043 15.981C21.7095 16.2741 21.417 16.3741 21.2056 16.3783L21.2653 19.3777C22.2971 19.3572 23.1582 18.9027 23.7332 18.5622L22.2043 15.981ZM22.9654 23.9995C22.4125 23.9995 21.9646 23.551 21.9654 22.9981L18.9654 22.9939C18.9623 25.2053 20.754 26.9995 22.9654 26.9995V23.9995ZM24.8957 23.562C24.7132 23.8292 24.4107 23.9995 24.0688 23.9995V26.9995C25.4435 26.9995 26.6555 26.3046 27.3732 25.2538L24.8957 23.562ZM27.1463 20.9751C26.4671 21.3566 26.007 21.9008 25.6808 22.3574C25.5164 22.5875 25.3685 22.8212 25.2432 23.0208C25.1105 23.2321 25.0052 23.4017 24.8957 23.562L27.3732 25.2538C27.5233 25.0339 27.6658 24.804 27.7838 24.6161C27.9092 24.4164 28.0149 24.251 28.1219 24.1013C28.3383 23.7983 28.4918 23.6602 28.6155 23.5908L27.1463 20.9751Z" fill="#61298A"/>
</svg>
