<svg width="431" height="459" viewBox="0 0 431 459" fill="none" xmlns="http://www.w3.org/2000/svg">
<g clip-path="url(#clip0_571_10)">
<path d="M159.07 3.67996C125.07 9.26996 92.5999 21.59 64.9799 42.88C24.7999 73.88 2.51993 120.15 0.189929 170.5C-1.34007 203.74 6.58993 236.15 16.1899 267.71C28.5099 308.27 36.4699 354.56 62.2199 389.27C102.32 443.27 179.81 466.05 244.62 456.39C286.49 450.14 330.73 426.39 343.62 383.39C348.39 367.48 350.71 350.39 358.86 335.68C368.63 318.06 386.34 307.77 399.79 293.42C416.41 275.7 423.1 253.62 427.24 230.27C436.3 179.15 423.93 125 394.06 82.59C362.89 38.35 316.65 14.59 264.15 5.26996C258.39 4.26996 252.6 3.37996 246.79 2.64996C217.95 -0.980038 187.97 -1.10004 159.07 3.67996Z" fill="#F7941E"/>
<path opacity="0.7" d="M159.07 3.67996C125.07 9.26996 92.5999 21.59 64.9799 42.88C24.7999 73.88 2.51993 120.15 0.189929 170.5C-1.34007 203.74 6.58993 236.15 16.1899 267.71C28.5099 308.27 36.4699 354.56 62.2199 389.27C102.32 443.27 179.81 466.05 244.62 456.39C286.49 450.14 330.73 426.39 343.62 383.39C348.39 367.48 350.71 350.39 358.86 335.68C368.63 318.06 386.34 307.77 399.79 293.42C416.41 275.7 423.1 253.62 427.24 230.27C436.3 179.15 423.93 125 394.06 82.59C362.89 38.35 316.65 14.59 264.15 5.26996C258.39 4.26996 252.6 3.37996 246.79 2.64996C217.95 -0.980038 187.97 -1.10004 159.07 3.67996Z" fill="white"/>
<path opacity="0.2" d="M166.35 361.93L250.07 346.32C250.07 346.32 269.01 406.08 272.83 413.81L270.83 418.5L272.09 426.35L188.89 445.27L182.22 440.01L166.35 361.93Z" fill="black" fill-opacity="0.7"/>
<path d="M243.988 339.925L163.055 359.086L182.217 440.019L263.149 420.858L243.988 339.925Z" fill="#F7941E"/>
<mask id="mask0_571_10" style="mask-type:luminance" maskUnits="userSpaceOnUse" x="163" y="339" width="101" height="102">
<path d="M243.988 339.915L163.055 359.076L182.217 440.009L263.149 420.848L243.988 339.915Z" fill="white"/>
</mask>
<g mask="url(#mask0_571_10)">
<path opacity="0.2" d="M249.16 361.75L262.59 418.46L185.41 436.73C176.11 413.46 169 384.16 169 384.16L249.16 361.75Z" fill="black" fill-opacity="0.7"/>
</g>
<path d="M243.988 339.925L163.055 359.086L182.217 440.019L263.149 420.858L243.988 339.925Z" stroke="#263238" stroke-linecap="round" stroke-linejoin="round"/>
<path d="M265.68 415.69C245.45 420.48 216.8 424.98 199.52 427.52C190.52 428.84 184.52 429.62 184.52 429.62C176.86 415.62 163.04 359.08 163.04 359.08L243.97 339.92C244.13 340.61 244.27 341.3 244.42 341.98C254.07 385.71 265.68 415.69 265.68 415.69Z" fill="white"/>
<mask id="mask1_571_10" style="mask-type:luminance" maskUnits="userSpaceOnUse" x="163" y="339" width="103" height="91">
<path d="M265.68 415.69C245.45 420.48 216.8 424.98 199.52 427.52C190.52 428.84 184.52 429.62 184.52 429.62C176.86 415.62 163.04 359.08 163.04 359.08L243.97 339.92C244.13 340.61 244.27 341.3 244.42 341.98C254.07 385.71 265.68 415.69 265.68 415.69Z" fill="white"/>
</mask>
<g mask="url(#mask1_571_10)">
<path opacity="0.4" d="M265.68 415.69C245.45 420.48 216.8 424.98 199.52 427.52C186.52 418.89 183.41 410.43 183.57 402.36C183.74 392.78 225.48 402.14 234.2 392.65C240.42 385.88 240.2 357.15 244.44 341.98C254.07 385.71 265.68 415.69 265.68 415.69Z" fill="#F7941E"/>
</g>
<path d="M265.68 415.69C245.45 420.48 216.8 424.98 199.52 427.52C190.52 428.84 184.52 429.62 184.52 429.62C176.86 415.62 163.04 359.08 163.04 359.08L243.97 339.92C244.13 340.61 244.27 341.3 244.42 341.98C254.07 385.71 265.68 415.69 265.68 415.69Z" stroke="#263238" stroke-linecap="round" stroke-linejoin="round"/>
<path d="M176.72 371.32C177.818 370.04 179.135 368.967 180.61 368.15L181.81 371.23L186 369.71C187.4 369.2 189 368.54 189.49 367.15C190.26 368.98 192.92 368.67 194.81 368.07C207.896 363.858 221.262 360.573 234.81 358.24" stroke="#263238" stroke-linecap="round" stroke-linejoin="round"/>
<path d="M178.75 382.52C177.88 382.07 178.6 380.52 179.58 380.58C180.56 380.64 181.19 381.72 181.27 382.7C181.703 382.653 182.111 382.469 182.434 382.177C182.757 381.884 182.98 381.497 183.07 381.07L184.46 382.07C184.344 381.898 184.265 381.703 184.227 381.499C184.189 381.295 184.194 381.085 184.24 380.883C184.287 380.681 184.374 380.49 184.497 380.323C184.62 380.155 184.776 380.015 184.955 379.91C185.135 379.806 185.333 379.739 185.54 379.714C185.746 379.689 185.955 379.706 186.154 379.765C186.353 379.824 186.538 379.924 186.697 380.057C186.856 380.19 186.987 380.355 187.08 380.54C186.98 379.4 187.42 377.76 188.53 378.02C188.876 378.162 189.191 378.369 189.46 378.63C189.799 378.836 190.181 378.96 190.577 378.99C190.973 379.021 191.37 378.957 191.736 378.805C192.103 378.653 192.428 378.417 192.686 378.115C192.944 377.814 193.127 377.456 193.22 377.07C194.31 378.31 196.22 378.14 197.89 377.86L212.45 375.38C212.59 374.46 213.05 373.28 213.97 373.38C214.5 373.46 214.85 373.97 215.31 374.25C216.019 374.547 216.811 374.575 217.54 374.33C224.099 372.909 230.535 370.973 236.79 368.54" stroke="#263238" stroke-linecap="round" stroke-linejoin="round"/>
<path d="M183.77 395.27C185.715 395.44 187.674 395.17 189.5 394.48C189.177 393.797 189.095 393.025 189.268 392.289C189.44 391.554 189.857 390.898 190.45 390.43L192.21 391.56C199.297 391.392 206.342 390.419 213.21 388.66C216.28 387.87 219.32 386.93 222.35 385.98L239.61 380.6" stroke="#263238" stroke-linecap="round" stroke-linejoin="round"/>
<path opacity="0.2" d="M317.51 40.78L315.9 40.88C315.159 40.966 314.411 40.7833 313.792 40.3649C313.174 39.9466 312.726 39.3204 312.53 38.6C310.07 29.65 301.07 24.62 290.68 25.27C281.3 25.85 271.41 31.77 265.68 39.95C264.976 41.0223 264.043 41.9254 262.949 42.5945C261.855 43.2636 260.626 43.6821 259.35 43.82L251.35 44.32C250.258 44.4209 249.162 44.1683 248.224 43.5994C247.286 43.0305 246.556 42.1754 246.14 41.16C242.91 33.53 234.72 28.74 225.33 29.32C214.92 29.96 204.16 36.21 198.81 45.65C198.387 46.4097 197.788 47.0564 197.062 47.5351C196.336 48.0138 195.505 48.3105 194.64 48.4L193.03 48.5C192.653 48.5416 192.298 48.7043 192.021 48.9639C191.743 49.2234 191.557 49.5659 191.49 49.94L190.86 53.94C190.822 54.0741 190.812 54.2149 190.831 54.3531C190.85 54.4914 190.898 54.6242 190.971 54.7429C191.044 54.8615 191.142 54.9635 191.257 55.0423C191.373 55.121 191.503 55.1747 191.64 55.2L193.58 55.79C194.333 56.0138 194.984 56.4925 195.422 57.1439C195.859 57.7953 196.057 58.5788 195.98 59.36C195.3 72.17 204.34 81.58 217.21 80.79C229.62 80.02 241.43 70 245.29 57.65C245.616 56.6502 246.185 55.7468 246.946 55.0208C247.707 54.2948 248.636 53.7689 249.65 53.49C252.402 52.7651 255.264 52.5616 258.09 52.89C258.991 52.9949 259.819 53.4348 260.41 54.1221C261.001 54.8095 261.311 55.694 261.28 56.6C261.28 68.75 270.11 77.51 282.54 76.74C295.43 75.96 307.65 65.27 311.07 52.27C311.316 51.37 311.769 50.5399 312.392 49.8455C313.016 49.1511 313.792 48.6117 314.66 48.27L316.83 47.44C317.133 47.3367 317.404 47.1543 317.613 46.9117C317.822 46.6691 317.963 46.3751 318.02 46.06L318.66 42.06C318.712 41.8943 318.72 41.718 318.683 41.5483C318.646 41.3786 318.566 41.2215 318.45 41.0923C318.334 40.9631 318.186 40.8664 318.022 40.8117C317.857 40.7569 317.681 40.746 317.51 40.78ZM217.76 77.41C205.76 78.15 197.65 68.73 199.59 56.41C201.53 44.09 212.85 33.41 224.82 32.72C236.79 32.03 244.93 41.4 242.98 53.72C241.03 66.04 229.73 76.67 217.76 77.41ZM246.55 51.12C246.597 50.4533 246.617 49.7633 246.61 49.05C246.623 48.765 246.736 48.4937 246.93 48.2848C247.125 48.0759 247.387 47.943 247.67 47.91L261.99 47.03C262.115 47.0182 262.24 47.0389 262.354 47.0902C262.468 47.1414 262.566 47.2214 262.64 47.3222C262.713 47.4231 262.76 47.5414 262.774 47.6655C262.788 47.7896 262.769 47.9152 262.72 48.03C262.5 48.72 262.3 49.41 262.12 50.11C255.96 48.32 249.81 49.93 246.55 51.12ZM283.07 73.36C271.07 74.1 262.96 64.68 264.91 52.36C266.86 40.04 278.16 29.36 290.13 28.67C302.1 27.98 310.24 37.35 308.3 49.67C306.36 61.99 295.07 72.62 283.07 73.36Z" fill="black" fill-opacity="0.7"/>
<path d="M307.24 43.27L215.48 55.45C213.313 55.7377 211.231 56.4764 209.367 57.6184C207.504 58.7603 205.9 60.2802 204.66 62.08L191.23 81.62C191.107 81.8017 191.026 82.0087 190.994 82.2258C190.962 82.4429 190.979 82.6644 191.045 82.8738C191.11 83.0833 191.222 83.2753 191.372 83.4357C191.521 83.596 191.705 83.7206 191.91 83.8C192.809 84.146 193.799 84.1782 194.72 83.8914C195.64 83.6047 196.436 83.0158 196.98 82.22L209.4 64.22C210.139 63.1424 211.094 62.2303 212.204 61.5417C213.315 60.8531 214.556 60.403 215.85 60.22L307.57 47.22L307.24 43.27Z" fill="#263238"/>
<path d="M183.45 50.99L275.99 49.46C278.179 49.4292 280.349 49.8584 282.361 50.7197C284.373 51.581 286.182 52.8553 287.67 54.46L303.85 71.8C303.999 71.9606 304.11 72.1529 304.174 72.3624C304.239 72.572 304.254 72.7933 304.221 73.0099C304.187 73.2265 304.105 73.4326 303.98 73.6127C303.855 73.7929 303.691 73.9424 303.5 74.05C302.663 74.5273 301.689 74.7079 300.736 74.5628C299.783 74.4176 298.907 73.955 298.25 73.25L283.3 57.25C282.406 56.2913 281.321 55.5293 280.116 55.0128C278.911 54.4963 277.611 54.2365 276.3 54.25L183.66 54.95L183.45 50.99Z" fill="#263238"/>
<path d="M239.54 56.8799C240.68 57.0899 240.63 64.8799 238.05 67.5099C235.47 70.1399 232.83 63.7399 233.5 61.4399C234.17 59.1399 235.97 56.1999 239.54 56.8799Z" fill="#F7941E" stroke="#263238" stroke-linecap="round" stroke-linejoin="round"/>
<path d="M255.62 55.88C254.52 56.24 255.53 63.88 258.41 66.25C261.29 68.62 263.13 61.86 262.18 59.67C261.23 57.48 259.07 54.77 255.62 55.88Z" fill="#F7941E" stroke="#263238" stroke-linecap="round" stroke-linejoin="round"/>
<path opacity="0.5" d="M198.29 38.6501C203.13 34.5101 213.38 27.4601 224.6 34.1701C235.82 40.8801 239.69 48.1701 237.39 58.0401C235.09 67.9101 228.02 81.1101 211.39 78.8101C194.76 76.5101 183.26 51.5101 198.29 38.6501Z" fill="#F7941E"/>
<path opacity="0.5" d="M263.72 35.4599C268.56 31.3199 278.8 24.2599 290.02 30.9699C301.24 37.6799 305.12 44.9699 302.81 54.8399C300.5 64.7099 293.45 77.9099 276.81 75.6099C260.17 73.3099 248.68 48.2699 263.72 35.4599Z" fill="#F7941E"/>
<path d="M309.15 41.8699L307.54 41.9699C306.743 42.0226 305.947 41.8416 305.251 41.4491C304.554 41.0565 303.988 40.4695 303.62 39.7599C299.16 31.0799 288.95 26.2199 278.54 26.8599C273.942 27.1597 269.498 28.6312 265.629 31.1343C261.761 33.6373 258.598 37.0887 256.44 41.1599C255.922 42.2184 255.137 43.1231 254.161 43.7844C253.186 44.4457 252.055 44.8406 250.88 44.9299L242.88 45.4199C241.7 45.4819 240.525 45.2328 239.472 44.6975C238.419 44.1622 237.525 43.3595 236.88 42.3699C234.236 38.5961 230.67 35.5617 226.521 33.5558C222.373 31.5498 217.78 30.6389 213.18 30.9099C202.77 31.5599 193.24 37.6399 189.89 46.8099C189.611 47.5586 189.121 48.2099 188.478 48.6841C187.835 49.1583 187.068 49.4348 186.27 49.4799L184.66 49.5799C184.309 49.603 183.981 49.7644 183.749 50.0287C183.516 50.293 183.398 50.6386 183.42 50.9899L183.66 54.8999C183.68 55.1923 183.796 55.4699 183.989 55.6903C184.183 55.9106 184.443 56.0616 184.73 56.1199L186.83 56.6799C187.645 56.8861 188.383 57.3217 188.957 57.935C189.532 58.5483 189.918 59.3136 190.07 60.1399C191.024 66.1702 194.151 71.6431 198.863 75.5263C203.574 79.4094 209.543 81.4343 215.645 81.219C221.746 81.0037 227.558 78.5632 231.984 74.3577C236.41 70.1522 239.144 64.4725 239.67 58.3899C239.78 57.4456 240.174 56.557 240.801 55.8424C241.428 55.1279 242.258 54.6212 243.18 54.3899C245.925 53.6652 248.781 53.4617 251.6 53.7899C252.554 53.9123 253.447 54.3225 254.162 54.9656C254.877 55.6088 255.378 56.4544 255.6 57.3899C256.844 63.3914 260.249 68.7267 265.169 72.3823C270.088 76.0378 276.179 77.7589 282.285 77.2183C288.39 76.6778 294.084 73.9134 298.284 69.4503C302.485 64.9872 304.9 59.1366 305.07 53.0099C305.115 52.1742 305.399 51.3691 305.888 50.6901C306.378 50.0112 307.052 49.487 307.83 49.1799L309.83 48.3599C310.107 48.2665 310.346 48.0849 310.51 47.843C310.675 47.601 310.755 47.312 310.74 47.0199L310.49 43.1099C310.472 42.7695 310.322 42.4495 310.072 42.218C309.821 41.9865 309.491 41.8616 309.15 41.8699ZM216.07 77.5999C211.777 77.8672 207.5 76.8547 203.782 74.6906C200.064 72.5265 197.072 69.308 195.184 65.4425C193.297 61.577 192.598 57.2383 193.177 52.9756C193.756 48.7129 195.587 44.7178 198.437 41.496C201.288 38.2742 205.03 35.9706 209.191 34.8766C213.351 33.7826 217.743 33.9476 221.809 35.3506C225.876 36.7535 229.435 39.3315 232.036 42.758C234.637 46.1846 236.162 50.3058 236.42 54.5999C236.757 60.3449 234.805 65.9896 230.992 70.2996C227.178 74.6097 221.813 77.2344 216.07 77.5999ZM239.47 52.0399C239.36 51.3599 239.23 50.6899 239.07 50.0399C239.039 49.9112 239.037 49.7773 239.063 49.6477C239.09 49.518 239.145 49.3958 239.224 49.2898C239.303 49.1838 239.405 49.0966 239.522 49.0344C239.639 48.9722 239.768 48.9365 239.9 48.9299L254.22 48.0399C254.355 48.0238 254.492 48.0386 254.621 48.0832C254.75 48.1278 254.866 48.2009 254.963 48.2972C255.059 48.3935 255.132 48.5103 255.177 48.639C255.221 48.7676 255.236 48.9047 255.22 49.0399C255.15 49.6999 255.1 50.3799 255.07 51.0399C249.902 49.7524 244.461 50.1018 239.5 52.0399H239.47ZM281.41 73.5499C277.117 73.8172 272.84 72.8048 269.122 70.6406C265.404 68.4765 262.412 65.258 260.524 61.3925C258.637 57.527 257.938 53.1883 258.517 48.9256C259.096 44.6629 260.927 40.6678 263.777 37.446C266.628 34.2242 270.37 31.9206 274.531 30.8266C278.691 29.7326 283.083 29.8976 287.149 31.3006C291.216 32.7035 294.775 35.2815 297.376 38.708C299.977 42.1346 301.502 46.2558 301.76 50.5499C302.1 56.2907 300.153 61.9325 296.345 66.2423C292.538 70.5521 287.179 73.1794 281.44 73.5499H281.41Z" fill="#757575" stroke="#263238" stroke-linecap="round" stroke-linejoin="round"/>
<path opacity="0.4" d="M200.07 69.9099C200.07 69.9099 192.07 59.3199 197.71 47.0199C202.8 35.9599 214.71 34.6999 220.36 37.0199L208.07 58.5399C209.201 53.2834 210.894 48.1639 213.12 43.2699C213.12 43.2699 202.26 54.2699 200.07 69.9099Z" fill="white"/>
<path opacity="0.4" d="M265.25 65.27C265.25 65.27 257.25 54.69 262.89 42.39C267.98 31.32 279.89 30.06 285.53 32.39L273.2 53.87C274.13 46.16 278.3 38.62 278.3 38.62C278.3 38.62 267.43 49.61 265.25 65.27Z" fill="white"/>
<path opacity="0.2" d="M30.67 252.11L33.57 265.14L36.88 250.4L28.18 103.06H22.25L30.67 252.11Z" fill="black" fill-opacity="0.7"/>
<path d="M25.3699 101.27L33.5699 249.47L30.5699 261.66L26.2299 249.88L18.0099 101.67C17.9909 101.423 18.0213 101.175 18.0994 100.94C18.1775 100.705 18.3016 100.489 18.4646 100.302C18.6276 100.116 18.8261 99.9641 19.0485 99.8556C19.2709 99.747 19.5128 99.6839 19.7599 99.67L23.4099 99.47C23.6575 99.4566 23.9052 99.4928 24.1386 99.5765C24.372 99.6601 24.5863 99.7896 24.7689 99.9573C24.9515 100.125 25.0987 100.328 25.2019 100.553C25.3052 100.778 25.3623 101.022 25.3699 101.27Z" fill="#F7941E"/>
<mask id="mask2_571_10" style="mask-type:luminance" maskUnits="userSpaceOnUse" x="18" y="99" width="16" height="163">
<path d="M25.3699 101.27L33.5699 249.47L30.5699 261.66L26.2299 249.88L18.0099 101.67C17.9909 101.423 18.0213 101.175 18.0994 100.94C18.1775 100.705 18.3016 100.489 18.4646 100.302C18.6276 100.116 18.8261 99.9641 19.0485 99.8556C19.2709 99.747 19.5128 99.6839 19.7599 99.67L23.4099 99.47C23.6575 99.4566 23.9052 99.4928 24.1386 99.5765C24.372 99.6601 24.5863 99.7896 24.7689 99.9573C24.9515 100.125 25.0987 100.328 25.2019 100.553C25.3052 100.778 25.3623 101.022 25.3699 101.27Z" fill="white"/>
</mask>
<g mask="url(#mask2_571_10)">
<path opacity="0.2" d="M30.5499 261.66L26.2099 249.88L18.0099 101.67C17.9909 101.423 18.0213 101.175 18.0994 100.94C18.1775 100.705 18.3016 100.488 18.4646 100.302C18.6276 100.116 18.8261 99.964 19.0485 99.8555C19.2709 99.7469 19.5128 99.6838 19.7599 99.6699H20.2699L28.5299 248.96L30.5499 261.66Z" fill="black" fill-opacity="0.7"/>
</g>
<path d="M25.3699 101.27L33.5699 249.47L30.5699 261.66L26.2299 249.88L18.0099 101.67C17.9909 101.423 18.0213 101.175 18.0994 100.94C18.1775 100.705 18.3016 100.489 18.4646 100.302C18.6276 100.116 18.8261 99.9641 19.0485 99.8556C19.2709 99.747 19.5128 99.6839 19.7599 99.67L23.4099 99.47C23.6575 99.4566 23.9052 99.4928 24.1386 99.5765C24.372 99.6601 24.5863 99.7896 24.7689 99.9573C24.9515 100.125 25.0987 100.328 25.2019 100.553C25.3052 100.778 25.3623 101.022 25.3699 101.27Z" stroke="#263238" stroke-linecap="round" stroke-linejoin="round"/>
<path d="M20.4097 102.27L28.4097 247.76C28.4186 247.926 28.4601 248.088 28.5319 248.237C28.6036 248.387 28.7041 248.521 28.8277 248.631C28.9512 248.742 29.0954 248.827 29.2519 248.881C29.4084 248.936 29.5741 248.959 29.7397 248.95H30.6197" fill="#F7941E"/>
<path d="M20.4097 102.27L28.4097 247.76C28.4186 247.926 28.4601 248.088 28.5319 248.237C28.6036 248.387 28.7041 248.521 28.8277 248.631C28.9512 248.742 29.0954 248.827 29.2519 248.881C29.4084 248.936 29.5741 248.959 29.7397 248.95H30.6197" stroke="#263238" stroke-linecap="round" stroke-linejoin="round"/>
<path opacity="0.2" d="M56.8198 279.73L83.9298 102.6C84.7653 97.1544 87.7291 92.2635 92.1696 89.0025C96.6101 85.7415 102.164 84.3774 107.61 85.2099L367.92 125.06C370.617 125.471 373.206 126.41 375.54 127.822C377.874 129.234 379.907 131.093 381.523 133.291C383.139 135.489 384.306 137.983 384.957 140.633C385.609 143.282 385.732 146.033 385.32 148.73L358.2 325.86C357.791 328.558 356.854 331.149 355.443 333.485C354.031 335.821 352.173 337.856 349.975 339.473C347.776 341.09 345.281 342.258 342.63 342.909C339.98 343.561 337.227 343.683 334.53 343.27L74.2098 303.41C68.7643 302.574 63.8734 299.611 60.6124 295.17C57.3514 290.73 55.9872 285.176 56.8198 279.73Z" fill="black" fill-opacity="0.7"/>
<path d="M77.7118 109.274L79.7704 95.8209C79.8105 95.5587 79.9532 95.3233 80.1669 95.1662C80.3806 95.0092 80.648 94.9436 80.9102 94.9837L86.5841 95.8519L84.2245 111.272L78.5505 110.404C78.29 110.364 78.0558 110.223 77.8988 110.012C77.7417 109.8 77.6745 109.535 77.7118 109.274Z" fill="#F7941E" stroke="#263238" stroke-linecap="round" stroke-linejoin="round"/>
<path d="M112.957 80.9395L126.41 82.9982C126.672 83.0383 126.908 83.1809 127.065 83.3947C127.222 83.6084 127.287 83.8758 127.247 84.138L126.379 89.8119L110.959 87.4522L111.827 81.7783C111.867 81.5178 112.008 81.2836 112.219 81.1266C112.431 80.9695 112.696 80.9023 112.957 80.9395Z" fill="#F7941E" stroke="#263238" stroke-linecap="round" stroke-linejoin="round"/>
<path d="M131.292 83.7398L144.745 85.7985C145.008 85.8386 145.243 85.9812 145.4 86.195C145.557 86.4087 145.623 86.6761 145.583 86.9383L144.714 92.6122L129.294 90.2525L130.162 84.5786C130.202 84.3181 130.343 84.0839 130.555 83.9269C130.766 83.7698 131.031 83.7026 131.292 83.7398Z" fill="#F7941E" stroke="#263238" stroke-linecap="round" stroke-linejoin="round"/>
<path d="M53.8198 275.73L80.9298 98.5999C81.7653 93.1544 84.7291 88.2635 89.1696 85.0025C93.6101 81.7415 99.1638 80.3774 104.61 81.2099L364.92 121.06C367.617 121.471 370.206 122.41 372.54 123.822C374.874 125.234 376.907 127.093 378.523 129.291C380.139 131.489 381.306 133.983 381.957 136.633C382.609 139.282 382.732 142.033 382.32 144.73L355.2 321.86C354.791 324.558 353.854 327.149 352.443 329.485C351.031 331.821 349.173 333.856 346.975 335.473C344.776 337.09 342.281 338.258 339.63 338.909C336.98 339.561 334.227 339.683 331.53 339.27L71.2098 299.41C65.7643 298.574 60.8734 295.611 57.6124 291.17C54.3514 286.73 52.9872 281.176 53.8198 275.73Z" fill="#F7941E" stroke="#263238" stroke-linecap="round" stroke-linejoin="round"/>
<path d="M332.55 337.06L70.89 297.01C68.5828 296.659 66.3675 295.856 64.3708 294.648C62.374 293.439 60.635 291.85 59.253 289.969C57.8711 288.088 56.8734 285.954 56.3169 283.687C55.7605 281.421 55.6562 279.067 56.01 276.76L83.33 98.27C84.0423 93.6116 86.5759 89.4269 90.3735 86.6364C94.171 83.8459 98.9215 82.6782 103.58 83.39L365.25 123.44C369.908 124.157 374.091 126.694 376.881 130.492C379.671 134.29 380.839 139.041 380.13 143.7L352.81 322.18C352.457 324.488 351.653 326.703 350.444 328.7C349.235 330.697 347.644 332.436 345.763 333.818C343.881 335.199 341.746 336.197 339.479 336.753C337.212 337.31 334.857 337.414 332.55 337.06Z" fill="#757575" stroke="#263238" stroke-linecap="round" stroke-linejoin="round"/>
<path d="M74.0696 188.19C74.0363 188.383 73.9469 188.563 73.8124 188.706C73.6778 188.849 73.5042 188.949 73.3131 188.994C73.122 189.039 72.9219 189.027 72.7377 188.959C72.5535 188.891 72.3934 188.77 72.2774 188.612C72.1613 188.453 72.0945 188.264 72.0851 188.068C72.0758 187.872 72.1244 187.678 72.2248 187.509C72.3253 187.34 72.4732 187.205 72.6501 187.12C72.827 187.035 73.025 187.003 73.2196 187.03C73.3525 187.048 73.4804 187.093 73.5957 187.162C73.711 187.23 73.8113 187.321 73.8906 187.43C73.9699 187.538 74.0266 187.661 74.0574 187.792C74.0881 187.922 74.0923 188.058 74.0696 188.19Z" fill="#999999" stroke="#263238" stroke-linecap="round" stroke-linejoin="round"/>
<path d="M73.5797 197.5C73.4789 197.99 73.1938 198.422 72.7834 198.708C72.373 198.993 71.8686 199.11 71.3743 199.034C70.8801 198.959 70.4339 198.696 70.1278 198.301C69.8217 197.905 69.6792 197.407 69.7297 196.91C69.8305 196.42 70.1155 195.988 70.526 195.702C70.9364 195.417 71.4408 195.3 71.935 195.376C72.4293 195.451 72.8755 195.714 73.1816 196.109C73.4877 196.505 73.6302 197.002 73.5797 197.5Z" fill="#263238"/>
<path d="M77.0099 175.09C76.9091 175.58 76.624 176.012 76.2136 176.298C75.8032 176.583 75.2987 176.7 74.8045 176.624C74.3103 176.549 73.8641 176.286 73.558 175.891C73.2519 175.495 73.1094 174.997 73.1599 174.5C73.1866 174.237 73.2665 173.982 73.3948 173.751C73.5231 173.519 73.6971 173.317 73.9062 173.155C74.1153 172.993 74.3551 172.875 74.6111 172.809C74.8671 172.743 75.1339 172.729 75.3953 172.769C75.6567 172.809 75.9072 172.902 76.1316 173.042C76.356 173.182 76.5496 173.366 76.7006 173.583C76.8516 173.8 76.9569 174.046 77.0101 174.305C77.0633 174.564 77.0632 174.831 77.0099 175.09Z" fill="#263238"/>
<path d="M72.07 203.79C72.0273 204.067 71.9033 204.326 71.7137 204.533C71.524 204.74 71.2773 204.886 71.0046 204.953C70.732 205.02 70.4456 205.004 70.1818 204.908C69.9179 204.813 69.6884 204.641 69.5222 204.414C69.356 204.188 69.2606 203.918 69.248 203.637C69.2354 203.357 69.3063 203.079 69.4516 202.839C69.5969 202.599 69.8102 202.407 70.0644 202.288C70.3187 202.169 70.6025 202.128 70.88 202.17C71.0646 202.198 71.2419 202.262 71.4016 202.359C71.5614 202.455 71.7005 202.583 71.811 202.733C71.9215 202.884 72.0013 203.054 72.0458 203.236C72.0902 203.417 72.0985 203.605 72.07 203.79Z" fill="#263238"/>
<path d="M373.56 140.63L345.63 323.15C345.277 325.45 344.026 327.516 342.151 328.895C340.276 330.273 337.93 330.85 335.63 330.5L116.42 296.95L111.67 296.27L93.7998 293.53L85.1498 292.21L72.6498 290.27L69.9198 289.85C67.6195 289.497 65.5533 288.246 64.1752 286.371C62.797 284.496 62.2195 282.15 62.5698 279.85L90.5098 97.2699C90.683 96.1307 91.0793 95.0369 91.6759 94.0511C92.2726 93.0653 93.0579 92.2069 93.9868 91.525C94.9157 90.8432 95.97 90.3513 97.0894 90.0776C98.2087 89.8039 99.371 89.7537 100.51 89.9299L182.34 102.45L194.72 104.35L206.55 106.16L221.75 108.48L227.25 109.32L366.25 130.59C367.389 130.769 368.482 131.171 369.466 131.772C370.45 132.374 371.306 133.163 371.985 134.096C372.664 135.028 373.152 136.085 373.422 137.206C373.693 138.327 373.739 139.491 373.56 140.63Z" fill="#263238"/>
<g opacity="0.1">
<path d="M168.07 295.27L75.07 281.04C74.4657 280.946 73.9232 280.617 73.5614 280.124C73.1996 279.631 73.0481 279.015 73.14 278.41L82.37 218.08C82.4661 217.475 82.7976 216.932 83.2922 216.571C83.7868 216.209 84.4043 216.058 85.01 216.15L178.01 230.38C178.31 230.425 178.598 230.529 178.857 230.686C179.117 230.843 179.343 231.049 179.522 231.294C179.701 231.538 179.831 231.816 179.902 232.11C179.974 232.405 179.987 232.711 179.94 233.01L170.71 293.34C170.664 293.64 170.559 293.928 170.401 294.188C170.243 294.448 170.036 294.673 169.79 294.853C169.545 295.032 169.267 295.161 168.972 295.233C168.677 295.304 168.37 295.317 168.07 295.27ZM84.92 216.95C84.725 216.92 84.526 216.929 84.3344 216.977C84.1428 217.024 83.9624 217.108 83.8036 217.225C83.6447 217.342 83.5106 217.49 83.4087 217.659C83.3068 217.828 83.2393 218.015 83.21 218.21L73.98 278.53C73.9502 278.725 73.9592 278.924 74.0064 279.116C74.0536 279.307 74.1382 279.488 74.2552 279.647C74.3723 279.805 74.5195 279.94 74.6885 280.041C74.8575 280.143 75.0449 280.211 75.24 280.24L168.19 294.47C168.385 294.5 168.584 294.491 168.776 294.444C168.967 294.397 169.148 294.312 169.306 294.195C169.465 294.078 169.6 293.931 169.701 293.762C169.803 293.593 169.871 293.405 169.9 293.21L179.14 232.89C179.198 232.495 179.098 232.094 178.862 231.772C178.626 231.45 178.274 231.234 177.88 231.17L84.92 216.95Z" fill="white"/>
</g>
<path opacity="0.4" d="M112.97 253.46L133.79 265.27C135.994 261.227 137.019 256.646 136.747 252.049C136.474 247.452 134.916 243.024 132.25 239.27L112.97 253.46Z" fill="#F7941E"/>
<path opacity="0.6" d="M113.17 252.27L131.77 238.6C129.256 235.289 125.943 232.67 122.14 230.99L118.47 239.69L113.17 252.27Z" fill="#F7941E"/>
<path d="M116.34 229.27L113.12 250.27L121.4 230.64C119.766 230.005 118.07 229.546 116.34 229.27Z" fill="#F7941E"/>
<path opacity="0.1" d="M111.87 253.21L115.54 229.21C111.325 228.634 107.032 229.163 103.084 230.746C99.1347 232.328 95.6648 234.909 93.014 238.237C90.3632 241.564 88.6226 245.523 87.9627 249.726C87.3028 253.928 87.7463 258.23 89.2497 262.21L111.87 253.21Z" fill="white"/>
<path opacity="0.2" d="M108.51 277.77C113.362 278.512 118.326 277.784 122.76 275.679C127.195 273.574 130.897 270.189 133.39 265.96L112.2 253.96L89.54 262.91C91.1578 266.809 93.7534 270.225 97.0764 272.828C100.399 275.431 104.337 277.133 108.51 277.77Z" fill="#F7941E"/>
<path d="M150.831 239.027L148.073 238.605C147.729 238.552 147.408 238.788 147.355 239.132L146.933 241.89C146.88 242.234 147.116 242.556 147.46 242.608L150.218 243.03C150.562 243.083 150.884 242.847 150.936 242.503L151.358 239.745C151.411 239.401 151.175 239.079 150.831 239.027Z" fill="#F7941E"/>
<path d="M165.82 242.82L153.77 240.97C153.709 240.962 153.65 240.941 153.598 240.91C153.545 240.878 153.499 240.836 153.463 240.787C153.427 240.738 153.401 240.682 153.386 240.622C153.372 240.562 153.37 240.501 153.38 240.44C153.388 240.379 153.409 240.321 153.44 240.268C153.472 240.216 153.513 240.17 153.563 240.133C153.612 240.097 153.668 240.071 153.728 240.057C153.787 240.042 153.849 240.04 153.91 240.05L165.91 241.9C165.97 241.909 166.029 241.929 166.081 241.961C166.134 241.992 166.18 242.034 166.216 242.083C166.253 242.132 166.279 242.188 166.293 242.248C166.307 242.308 166.31 242.37 166.3 242.43C166.278 242.541 166.219 242.641 166.131 242.713C166.043 242.784 165.933 242.822 165.82 242.82Z" fill="#F7941E"/>
<path d="M161.83 244.27L153.46 242.99C153.399 242.982 153.341 242.961 153.288 242.93C153.236 242.898 153.19 242.857 153.153 242.807C153.117 242.758 153.091 242.702 153.077 242.642C153.062 242.582 153.06 242.521 153.07 242.46C153.09 242.339 153.156 242.23 153.255 242.157C153.354 242.084 153.478 242.053 153.6 242.07L161.97 243.35C162.031 243.359 162.089 243.379 162.142 243.411C162.194 243.442 162.24 243.484 162.277 243.533C162.313 243.582 162.339 243.639 162.353 243.698C162.368 243.758 162.37 243.82 162.36 243.88C162.352 243.941 162.331 243.999 162.3 244.052C162.268 244.104 162.227 244.15 162.177 244.187C162.128 244.223 162.072 244.249 162.012 244.263C161.952 244.278 161.891 244.28 161.83 244.27Z" fill="#F7941E"/>
<path opacity="0.6" d="M149.461 247.987L146.703 247.565C146.359 247.512 146.038 247.748 145.985 248.092L145.563 250.85C145.511 251.194 145.747 251.515 146.091 251.568L148.849 251.99C149.193 252.043 149.514 251.806 149.567 251.462L149.989 248.705C150.041 248.361 149.805 248.039 149.461 247.987Z" fill="#F7941E"/>
<path d="M164.45 251.77L152.39 249.93C152.269 249.908 152.162 249.841 152.089 249.742C152.017 249.644 151.985 249.521 152 249.4C152.019 249.279 152.086 249.17 152.185 249.097C152.284 249.024 152.408 248.993 152.53 249.01L164.59 250.86C164.649 250.869 164.707 250.89 164.758 250.921C164.81 250.953 164.855 250.994 164.891 251.043C164.927 251.092 164.952 251.147 164.967 251.206C164.981 251.264 164.984 251.325 164.975 251.385C164.965 251.445 164.945 251.502 164.913 251.554C164.882 251.606 164.841 251.651 164.792 251.686C164.743 251.722 164.688 251.748 164.629 251.762C164.57 251.777 164.509 251.779 164.45 251.77Z" fill="#F7941E"/>
<path d="M160.46 253.21L152.07 251.93C151.961 251.897 151.868 251.827 151.808 251.731C151.748 251.635 151.724 251.521 151.741 251.409C151.758 251.297 151.815 251.195 151.901 251.122C151.987 251.049 152.097 251.009 152.21 251.01L160.58 252.29C160.64 252.299 160.699 252.319 160.752 252.351C160.804 252.382 160.85 252.424 160.886 252.473C160.923 252.522 160.949 252.578 160.963 252.638C160.977 252.698 160.98 252.76 160.97 252.82C160.952 252.939 160.889 253.046 160.794 253.119C160.699 253.192 160.579 253.224 160.46 253.21Z" fill="#F7941E"/>
<path opacity="0.4" d="M148.717 257.134L145.955 256.715C145.61 256.663 145.289 256.9 145.237 257.244L144.818 260.006C144.766 260.351 145.003 260.672 145.347 260.725L148.109 261.143C148.454 261.195 148.775 260.958 148.828 260.614L149.246 257.852C149.298 257.507 149.061 257.186 148.717 257.134Z" fill="#F7941E"/>
<path d="M163.07 260.73L151.07 258.89C150.961 258.857 150.868 258.787 150.808 258.691C150.748 258.595 150.724 258.481 150.741 258.369C150.758 258.257 150.815 258.155 150.901 258.082C150.987 258.009 151.097 257.969 151.21 257.97L163.21 259.81C163.27 259.819 163.329 259.839 163.382 259.87C163.434 259.902 163.48 259.944 163.516 259.993C163.553 260.042 163.579 260.098 163.593 260.158C163.607 260.218 163.61 260.279 163.6 260.34C163.591 260.401 163.571 260.459 163.539 260.512C163.508 260.564 163.466 260.61 163.417 260.647C163.367 260.683 163.311 260.709 163.252 260.723C163.192 260.738 163.13 260.74 163.07 260.73Z" fill="#F7941E"/>
<path d="M159.07 262.17L150.7 260.89C150.591 260.857 150.498 260.787 150.438 260.691C150.377 260.595 150.354 260.481 150.371 260.369C150.388 260.257 150.444 260.155 150.531 260.082C150.617 260.009 150.727 259.969 150.84 259.97L159.21 261.25C159.318 261.283 159.411 261.353 159.471 261.449C159.532 261.545 159.556 261.659 159.539 261.771C159.522 261.883 159.465 261.985 159.379 262.058C159.293 262.131 159.183 262.171 159.07 262.17Z" fill="#F7941E"/>
<path opacity="0.2" d="M146.722 265.906L143.964 265.484C143.62 265.431 143.299 265.667 143.246 266.011L142.824 268.769C142.771 269.113 143.008 269.435 143.351 269.487L146.109 269.909C146.453 269.962 146.775 269.726 146.827 269.382L147.249 266.624C147.302 266.28 147.066 265.958 146.722 265.906Z" fill="#F7941E"/>
<path d="M161.7 269.69L149.7 267.85C149.578 267.83 149.47 267.764 149.397 267.665C149.324 267.565 149.293 267.442 149.31 267.32C149.318 267.259 149.339 267.201 149.37 267.148C149.402 267.095 149.443 267.05 149.493 267.013C149.542 266.977 149.598 266.951 149.658 266.937C149.717 266.922 149.779 266.92 149.84 266.93L161.89 268.77C161.951 268.778 162.009 268.799 162.062 268.83C162.114 268.862 162.16 268.903 162.196 268.953C162.233 269.002 162.259 269.058 162.273 269.118C162.287 269.178 162.29 269.239 162.28 269.3C162.272 269.366 162.25 269.429 162.216 269.486C162.181 269.543 162.135 269.591 162.08 269.628C162.024 269.665 161.962 269.69 161.896 269.701C161.831 269.711 161.764 269.708 161.7 269.69Z" fill="#F7941E"/>
<path d="M157.72 271.13L149.35 269.85C149.289 269.841 149.231 269.821 149.178 269.789C149.125 269.758 149.079 269.716 149.043 269.667C149.007 269.618 148.981 269.561 148.966 269.502C148.952 269.442 148.95 269.38 148.96 269.32C148.968 269.259 148.989 269.201 149.02 269.148C149.052 269.095 149.093 269.05 149.143 269.013C149.192 268.977 149.248 268.951 149.308 268.937C149.367 268.922 149.429 268.92 149.49 268.93L157.86 270.21C157.981 270.23 158.09 270.296 158.163 270.395C158.236 270.494 158.267 270.618 158.25 270.74C158.241 270.801 158.221 270.859 158.189 270.912C158.158 270.964 158.116 271.01 158.067 271.046C158.017 271.083 157.961 271.109 157.902 271.123C157.842 271.138 157.78 271.14 157.72 271.13Z" fill="#F7941E"/>
<path opacity="0.1" d="M145.352 274.865L142.594 274.443C142.25 274.391 141.929 274.627 141.876 274.971L141.454 277.729C141.402 278.073 141.638 278.394 141.982 278.447L144.74 278.869C145.084 278.922 145.405 278.685 145.458 278.341L145.88 275.584C145.932 275.24 145.696 274.918 145.352 274.865Z" fill="white"/>
<path d="M160.33 278.65L148.33 276.81C148.208 276.79 148.099 276.724 148.027 276.625C147.954 276.526 147.922 276.402 147.94 276.28C147.948 276.219 147.969 276.161 148 276.108C148.032 276.056 148.073 276.01 148.123 275.974C148.172 275.937 148.228 275.911 148.288 275.897C148.347 275.882 148.409 275.88 148.47 275.89L160.52 277.73C160.58 277.739 160.639 277.759 160.691 277.791C160.744 277.822 160.79 277.864 160.826 277.913C160.863 277.962 160.889 278.019 160.903 278.078C160.917 278.138 160.92 278.2 160.91 278.26C160.902 278.326 160.88 278.39 160.846 278.446C160.811 278.503 160.765 278.552 160.71 278.589C160.654 278.626 160.592 278.65 160.526 278.661C160.461 278.672 160.394 278.668 160.33 278.65Z" fill="#F7941E"/>
<path d="M156.35 280.09L147.97 278.81C147.91 278.8 147.853 278.779 147.801 278.747C147.75 278.715 147.705 278.673 147.67 278.624C147.634 278.575 147.609 278.519 147.595 278.46C147.582 278.401 147.58 278.34 147.59 278.28C147.597 278.219 147.617 278.16 147.648 278.106C147.679 278.053 147.72 278.006 147.77 277.97C147.82 277.933 147.876 277.907 147.937 277.894C147.997 277.88 148.059 277.879 148.12 277.89L156.49 279.17C156.557 279.171 156.624 279.186 156.685 279.214C156.746 279.243 156.8 279.284 156.843 279.335C156.887 279.387 156.919 279.447 156.937 279.511C156.956 279.576 156.96 279.644 156.95 279.711C156.94 279.777 156.916 279.841 156.879 279.897C156.842 279.954 156.793 280.001 156.736 280.037C156.68 280.073 156.616 280.097 156.549 280.106C156.482 280.115 156.414 280.109 156.35 280.09Z" fill="#F7941E"/>
<g opacity="0.1">
<path d="M343.23 255.65L192.07 232.52C191.464 232.428 190.846 232.579 190.352 232.941C189.857 233.302 189.526 233.845 189.43 234.45L188.79 238.61L188.67 239.41L187.81 245.02L187.69 245.82L186.83 251.42L186.71 252.21L185.85 257.82L185.73 258.61L184.87 264.22L184.75 265.02L183.89 270.62L183.77 271.42L182.91 277.02L182.79 277.82L181.93 283.42L181.81 284.22L180.95 289.82L180.83 290.62L180.2 294.78C180.153 295.08 180.165 295.387 180.237 295.682C180.309 295.977 180.438 296.255 180.617 296.5C180.796 296.746 181.022 296.953 181.282 297.111C181.541 297.269 181.829 297.374 182.13 297.42L333.26 320.55C333.864 320.639 334.479 320.485 334.97 320.121C335.461 319.757 335.788 319.214 335.88 318.61L336.52 314.45L336.64 313.65L337.5 308.05L337.62 307.25L338.48 301.64L338.6 300.85L339.46 295.25L339.58 294.45L340.44 288.85L340.56 288.05L341.42 282.44L341.54 281.65L342.4 276.04L342.52 275.25L343.38 269.65L343.5 268.85L344.36 263.24L344.48 262.44L345.12 258.28C345.212 257.681 345.066 257.07 344.713 256.578C344.359 256.086 343.827 255.753 343.23 255.65ZM335.13 318.49C335.068 318.883 334.854 319.236 334.534 319.471C334.213 319.707 333.813 319.808 333.42 319.75L182.3 296.62C181.904 296.558 181.549 296.343 181.311 296.021C181.073 295.699 180.972 295.296 181.03 294.9L181.67 290.74L335.76 314.33L335.13 318.49ZM335.89 313.49L181.79 289.91L182.65 284.3L336.74 307.89L335.89 313.49ZM336.89 307.09L182.77 283.55L183.63 277.94L337.72 301.52L336.89 307.09ZM337.89 300.69L183.79 277.1L184.65 271.5L338.74 295.08L337.89 300.69ZM338.89 294.29L184.79 270.7L185.65 265.1L339.74 288.69L338.89 294.29ZM339.89 287.89L185.79 264.3L186.65 258.69L340.74 282.28L339.89 287.89ZM340.89 281.48L186.79 257.9L187.65 252.3L341.74 275.88L340.89 281.48ZM341.89 275.08L187.67 251.54L188.53 245.94L342.62 269.52L341.89 275.08ZM342.89 268.69L188.65 245.14L189.51 239.53L343.6 263.12L342.89 268.69ZM189.78 238.69L190.42 234.54C190.449 234.345 190.516 234.157 190.618 233.988C190.72 233.819 190.854 233.672 191.013 233.555C191.172 233.438 191.352 233.354 191.544 233.306C191.736 233.259 191.935 233.25 192.13 233.28L343.07 256.45C343.462 256.512 343.814 256.726 344.048 257.047C344.282 257.367 344.38 257.768 344.32 258.16L343.68 262.32L189.78 238.69Z" fill="white"/>
</g>
<g opacity="0.1">
<path d="M359.37 147.99L101.85 108.57C101.508 108.517 101.159 108.533 100.822 108.616C100.486 108.698 100.17 108.847 99.891 109.052C99.6123 109.257 99.3769 109.516 99.1982 109.812C99.0196 110.109 98.9012 110.438 98.8499 110.78L84.4199 205.05C84.3164 205.739 84.4896 206.441 84.9017 207.003C85.3139 207.565 85.9315 207.942 86.6199 208.05L344.15 247.47C344.839 247.574 345.541 247.4 346.103 246.988C346.665 246.576 347.041 245.958 347.15 245.27L361.58 150.99C361.632 150.648 361.617 150.299 361.534 149.963C361.451 149.626 361.303 149.31 361.098 149.031C360.893 148.752 360.634 148.517 360.338 148.338C360.041 148.16 359.712 148.041 359.37 147.99ZM149.37 161.54L167.25 164.27L165.69 174.43L147.78 171.69L149.37 161.54ZM147.02 171.54L129.07 168.85L130.63 158.68L148.54 161.42L147.02 171.54ZM168.07 164.41L185.99 167.15L184.43 177.32L166.52 174.58L168.07 164.41ZM260.95 177.81L243.04 175.07L244.59 164.9L262.51 167.64L260.95 177.81ZM263.3 167.81L281.22 170.55L279.66 180.72L261.75 177.98L263.3 167.81ZM205.49 170.19L223.41 172.93L221.85 183.1L203.91 180.27L205.49 170.19ZM203.14 180.19L185.23 177.45L186.75 167.27L204.67 170.01L203.14 180.19ZM224.2 173.01L242.07 175.74L240.51 185.91L222.6 183.17L224.2 173.01ZM242.91 175.87L260.83 178.61L259.27 188.78L241.36 186.04L242.91 175.87ZM242.24 174.95L224.33 172.21L225.88 162.04L243.8 164.79L242.24 174.95ZM223.53 172.09L205.62 169.35L207.17 159.18L225.07 161.91L223.53 172.09ZM204.79 169.27L186.88 166.52L188.43 156.27L206.35 159.01L204.79 169.27ZM186.07 166.35L168.16 163.61L169.71 153.44L187.63 156.18L186.07 166.35ZM184.27 178.12L182.72 188.27L164.81 185.53L166.37 175.36L184.27 178.12ZM185.07 178.24L202.98 180.98L201.42 191.15L183.51 188.41L185.07 178.24ZM203.78 181.1L221.69 183.84L220.13 194.01L202.23 191.27L203.78 181.1ZM222.49 183.96L240.4 186.71L238.84 196.87L220.93 194.13L222.49 183.96ZM241.2 186.83L259.11 189.57L257.55 199.74L239.64 197L241.2 186.83ZM259.91 189.69L277.82 192.43L276.26 202.6L258.35 199.86L259.91 189.69ZM260.03 188.9L261.58 178.73L279.5 181.47L277.94 191.64L260.03 188.9ZM280.29 181.59L298.21 184.33L296.65 194.5L278.74 191.76L280.29 181.59ZM299 184.45L316.92 187.2L315.36 197.36L297.45 194.62L299 184.45ZM299.13 183.66L300.68 173.49L318.61 176.27L317.07 186.4L299.13 183.66ZM298.33 183.54L280.42 180.79L281.97 170.62L299.89 173.37L298.33 183.54ZM282.07 169.83L283.63 159.66L301.54 162.4L300.07 172.57L282.07 169.83ZM281.28 169.71L263.37 166.96L264.92 156.8L282.83 159.54L281.28 169.71ZM262.57 166.84L244.65 164.1L246.21 153.93L264.12 156.67L262.57 166.84ZM243.86 163.98L225.97 161.27L227.53 151.1L245.44 153.84L243.86 163.98ZM225.15 161.11L207.27 158.37L208.82 148.2L226.73 150.95L225.15 161.11ZM206.47 158.27L188.56 155.53L190.07 145.34L208.07 148.08L206.47 158.27ZM187.76 155.41L169.84 152.67L171.4 142.5L189.31 145.27L187.76 155.41ZM169.07 152.52L151.16 149.78L152.71 139.61L170.62 142.36L169.07 152.52ZM168.95 153.32L167.39 163.49L149.48 160.75L151.03 150.58L168.95 153.32ZM148.68 160.63L130.77 157.88L132.32 147.71L150.24 150.46L148.68 160.63ZM129.97 157.76L112.07 155.02L113.62 144.85L131.54 147.59L129.97 157.76ZM129.85 158.56L128.29 168.73L110.38 165.99L111.94 155.82L129.85 158.56ZM128.17 169.56L126.61 179.73L108.7 176.99L110.26 166.82L128.17 169.56ZM128.97 169.69L146.88 172.43L145.32 182.6L127.41 179.85L128.97 169.69ZM147.68 172.55L165.57 175.27L164.01 185.44L146.07 182.68L147.68 172.55ZM163.89 186.27L162.33 196.44L144.42 193.69L145.98 183.52L163.89 186.27ZM164.69 186.39L182.6 189.13L181.07 199.27L163.15 196.53L164.69 186.39ZM183.4 189.25L201.31 191.99L199.75 202.16L181.84 199.42L183.4 189.25ZM202.07 192.07L220.07 194.81L218.51 204.98L200.55 202.27L202.07 192.07ZM220.78 194.93L238.69 197.67L237.13 207.84L219.22 205.1L220.78 194.93ZM239.49 197.79L257.4 200.54L255.84 210.7L237.93 207.96L239.49 197.79ZM258.2 200.66L276.11 203.4L274.55 213.57L256.64 210.83L258.2 200.66ZM276.91 203.52L294.86 206.27L293.3 216.44L275.39 213.7L276.91 203.52ZM277.03 202.72L278.59 192.56L296.54 195.27L294.98 205.44L277.03 202.72ZM297.3 195.42L315.21 198.16L313.65 208.33L295.74 205.59L297.3 195.42ZM316.07 198.27L333.98 201.01L332.42 211.18L314.51 208.44L316.07 198.27ZM316.19 197.48L317.74 187.31L335.66 190.05L334.07 200.27L316.19 197.48ZM317.87 186.48L319.42 176.31L337.34 179.05L335.76 189.27L317.87 186.48ZM319.54 175.48L321.07 165.39L338.98 168.13L337.44 178.27L319.54 175.48ZM318.75 175.35L300.83 172.61L302.39 162.44L320.28 165.27L318.75 175.35ZM302.51 161.65L304.07 151.56L321.96 154.27L320.41 164.44L302.51 161.65ZM301.72 161.52L283.8 158.78L285.36 148.61L303.27 151.36L301.72 161.52ZM283.01 158.66L265.07 156L266.63 145.83L284.54 148.57L283.01 158.66ZM264.3 155.8L246.38 153.06L247.94 142.89L265.85 145.63L264.3 155.8ZM245.59 152.93L227.65 150.27L229.21 140.1L247.12 142.84L245.59 152.93ZM226.88 150.07L208.96 147.33L210.5 137.27L228.41 140.01L226.88 150.07ZM208.15 147.27L190.23 144.52L191.79 134.36L209.7 137.1L208.15 147.27ZM189.44 144.4L171.52 141.66L173.07 131.51L190.99 134.27L189.44 144.4ZM170.73 141.54L152.81 138.8L154.37 128.63L172.28 131.37L170.73 141.54ZM152.07 138.69L134.07 135.95L135.63 125.78L153.54 128.53L152.07 138.69ZM151.94 139.49L150.39 149.66L132.48 146.92L134.03 136.75L151.94 139.49ZM131.68 146.8L113.77 144.05L115.32 133.89L133.23 136.63L131.68 146.8ZM112.97 143.93L95.0599 141.19L96.6099 131.02L114.53 133.76L112.97 143.93ZM112.85 144.73L111.29 154.9L93.3799 152.16L94.9299 141.99L112.85 144.73ZM111.17 155.73L109.61 165.9L91.6999 163.16L93.2599 152.99L111.17 155.73ZM109.49 166.73L107.93 176.9L90.0199 174.16L91.5799 163.99L109.49 166.73ZM107.81 177.73L106.26 187.89L88.3399 185.15L89.8999 174.98L107.81 177.73ZM108.61 177.85L126.52 180.59L124.97 190.76L107.05 188.02L108.61 177.85ZM127.32 180.71L145.23 183.45L143.67 193.62L125.76 190.88L127.32 180.71ZM143.55 194.42L142 204.59L124.07 201.75L125.63 191.58L143.55 194.42ZM144.35 194.54L162.26 197.28L160.71 207.45L142.79 204.71L144.35 194.54ZM163.01 197.27L180.92 200.02L179.37 210.18L161.45 207.44L163.01 197.27ZM181.72 200.14L199.63 202.88L198.07 213.08L180.15 210.34L181.72 200.14ZM200.43 203L218.34 205.74L216.79 215.91L198.87 213.17L200.43 203ZM219.14 205.87L237.07 208.64L235.52 218.81L217.6 216.06L219.14 205.87ZM237.85 208.73L255.76 211.47L254.21 221.64L236.29 218.9L237.85 208.73ZM256.56 211.59L274.47 214.33L272.92 224.5L255 221.76L256.56 211.59ZM275.27 214.46L293.18 217.27L291.63 227.44L273.71 224.7L275.27 214.46ZM293.98 217.32L311.89 220.06L310.34 230.27L292.42 227.53L293.98 217.32ZM294.1 216.52L295.66 206.35L313.57 209.1L312.01 219.27L294.1 216.52ZM314.37 209.27L332.28 212.01L330.72 222.18L312.81 219.44L314.37 209.27ZM333.07 212.11L350.98 214.85L349.42 225.02L331.52 222.27L333.07 212.11ZM333.19 211.32L334.75 201.15L352.66 203.89L351.07 214.06L333.19 211.32ZM334.87 200.32L336.42 190.15L354.34 192.89L352.78 203.06L334.87 200.32ZM336.55 189.32L338.07 179.27L356.07 181.96L354.52 192.13L336.55 189.32ZM338.22 178.32L339.79 168.27L357.7 171.01L356.15 181.18L338.22 178.32ZM339.9 167.32L341.47 157.27L359.38 160.01L357.83 170.18L339.9 167.32ZM339.11 167.2L321.19 164.46L322.75 154.29L340.66 157.03L339.11 167.2ZM322.87 153.49L324.43 143.33L342.34 146.07L340.78 156.24L322.87 153.49ZM322.07 153.37L304.16 150.63L305.72 140.46L323.63 143.2L322.07 153.37ZM303.36 150.51L285.45 147.77L287.07 137.73L304.98 140.47L303.36 150.51ZM284.65 147.65L266.74 144.9L268.3 134.74L286.21 137.48L284.65 147.65ZM265.94 144.78L248.07 142.17L249.63 132L267.54 134.74L265.94 144.78ZM247.23 141.92L229.33 139.27L230.89 129.1L248.8 131.84L247.23 141.92ZM228.52 139.05L210.61 136.31L212.18 126.27L230.07 129.02L228.52 139.05ZM209.82 136.19L191.9 133.45L193.46 123.28L211.37 126.02L209.82 136.19ZM191.11 133.33L173.19 130.58L174.75 120.42L192.67 123.27L191.11 133.33ZM172.39 130.46L154.48 127.72L156.07 117.68L173.98 120.42L172.39 130.46ZM153.69 127.6L135.77 124.86L137.33 114.69L155.24 117.43L153.69 127.6ZM134.98 124.74L117.07 122.12L118.63 111.96L136.54 114.7L134.98 124.74ZM134.85 125.53L133.3 135.7L115.38 132.96L116.94 122.79L134.85 125.53ZM114.59 132.84L96.6799 130.27L98.2399 120.1L116.15 122.84L114.59 132.84ZM88.1699 185.85L106.07 188.59L104.52 198.76L86.5999 196.02L88.1699 185.85ZM106.88 188.71L124.79 191.45L123.24 201.62L105.32 198.88L106.88 188.71ZM123.07 202.42L121.52 212.59L103.61 209.85L105.16 199.68L123.07 202.42ZM123.87 202.54L141.82 205.27L140.27 215.44L122.36 212.7L123.87 202.54ZM142.58 205.41L160.49 208.15L158.94 218.32L141.07 215.57L142.58 205.41ZM161.33 208.27L179.24 211.01L177.69 221.18L159.77 218.44L161.33 208.27ZM180.07 211.13L197.98 213.88L196.43 224.04L178.49 221.27L180.07 211.13ZM198.78 214L216.69 216.74L215.07 226.91L197.15 224.17L198.78 214ZM217.49 216.86L235.4 219.6L233.85 229.77L215.93 227.03L217.49 216.86ZM236.2 219.72L254.07 222.47L252.52 232.63L234.6 229.89L236.2 219.72ZM254.91 222.59L272.82 225.33L271.27 235.5L253.35 232.76L254.91 222.59ZM273.62 225.45L291.53 228.19L289.98 238.36L272.07 235.62L273.62 225.45ZM292.33 228.32L310.24 231.06L308.66 241.27L290.74 238.52L292.33 228.32ZM311.04 231.18L328.95 233.92L327.4 244.09L309.48 241.35L311.04 231.18ZM311.16 230.38L312.72 220.21L330.63 222.96L329.07 233.12L311.16 230.38ZM331.43 223.08L349.34 225.82L347.79 235.99L329.84 233.27L331.43 223.08ZM360.81 150.87L359.5 159.27L341.59 156.53L343.15 146.36L359.25 148.82C359.722 148.894 360.147 149.15 360.433 149.533C360.719 149.916 360.843 150.396 360.78 150.87H360.81ZM101.81 109.37L117.91 111.83L116.36 122L98.3599 119.27L99.6399 110.91C99.6753 110.671 99.7576 110.442 99.8819 110.235C100.006 110.028 100.17 109.848 100.365 109.705C100.559 109.562 100.779 109.459 101.014 109.401C101.248 109.344 101.491 109.333 101.73 109.37H101.81ZM85.2899 205.17L86.5699 196.81L104.48 199.56L102.93 209.72L86.7399 207.27C86.2589 207.194 85.8277 206.93 85.5409 206.536C85.2541 206.143 85.1351 205.651 85.2099 205.17H85.2899ZM344.27 246.68L328.16 244.21L329.72 234.04L347.63 236.78L346.35 245.15C346.276 245.628 346.016 246.058 345.626 246.344C345.236 246.631 344.748 246.752 344.27 246.68Z" fill="white"/>
</g>
<path opacity="0.5" d="M350.87 215.65L346.35 245.13C346.316 245.358 346.237 245.577 346.118 245.775C345.998 245.972 345.841 246.144 345.656 246.281C345.47 246.418 345.259 246.516 345.035 246.571C344.81 246.626 344.578 246.635 344.35 246.6L86.6798 207.16C86.4526 207.125 86.2345 207.045 86.0381 206.925C85.8417 206.806 85.6709 206.648 85.5353 206.463C85.3997 206.277 85.302 206.066 85.2479 205.843C85.1938 205.619 85.1842 205.387 85.2198 205.16L85.8198 201.22C85.8198 201.22 97.9298 191.46 105.51 192.62C114.46 193.99 116.07 199.07 124.07 200.27C132.07 201.47 140.83 182.97 148.07 184.07C151.98 184.67 152.98 187.68 154.89 190.44C155.709 191.709 156.796 192.783 158.075 193.588C159.353 194.393 160.791 194.909 162.29 195.1L162.59 195.15C172.39 196.65 185.65 144.63 199.13 146.69C205.13 147.6 207.5 159.08 209.29 171.76C211.56 187.76 212.84 205.76 219.09 206.67C230.27 208.38 234.09 185.67 244.47 187.3C251 188.3 253.38 200.4 258.88 209.99C262.13 215.66 266.48 220.46 273.44 221.52C279.77 222.52 284 221.02 287.29 218.71C293.74 214.2 296.62 206.5 304.68 207.71C309.46 208.44 311.2 212.12 312.98 215.59C314.53 218.59 316.11 221.49 319.79 222.05C324.12 222.72 327.79 216.52 331.72 211.05C334.93 206.53 338.28 202.47 342.26 203.05C346.24 203.63 348.74 208.56 349.95 212.05C350.327 213.231 350.634 214.433 350.87 215.65Z" fill="#F7941E"/>
<path opacity="0.5" d="M357.07 175.14L346.35 245.14C346.316 245.368 346.237 245.587 346.118 245.785C345.998 245.982 345.841 246.154 345.656 246.291C345.47 246.428 345.259 246.526 345.035 246.581C344.81 246.636 344.578 246.646 344.35 246.61L86.6798 207.16C86.4526 207.125 86.2345 207.045 86.0381 206.925C85.8417 206.806 85.6709 206.648 85.5353 206.463C85.3997 206.277 85.302 206.066 85.2479 205.843C85.1938 205.619 85.1842 205.387 85.2198 205.16L85.8198 201.22C96.5198 202.86 102.23 194.85 109.41 195.95C116.59 197.05 120.31 202.06 127.03 203.09C133.75 204.12 144.12 188.39 151.47 189.52C152.622 189.688 153.748 190.003 154.82 190.46C157.65 191.64 159.6 193.54 162.22 195.12C164.282 196.37 166.574 197.193 168.96 197.54C177.57 198.85 194.8 167.69 204.79 169.22C206.519 169.533 208.086 170.438 209.22 171.78C215.12 178.21 216.64 194.29 224.96 195.56C235.05 197.11 240.45 180.7 250.24 182.19C260.03 183.68 262.91 200.56 274.24 202.29C285.57 204.02 297.86 173.06 309.63 174.86C321.4 176.66 324.76 192.57 334.99 194.13C346.22 195.85 357.07 175.14 357.07 175.14Z" fill="#F7941E"/>
<path d="M352.07 207.68L346.33 245.13C346.296 245.358 346.217 245.577 346.098 245.775C345.978 245.972 345.821 246.144 345.635 246.281C345.45 246.418 345.239 246.516 345.014 246.571C344.79 246.626 344.558 246.636 344.33 246.6L86.6798 207.16C86.4526 207.125 86.2345 207.045 86.0381 206.925C85.8417 206.806 85.6709 206.648 85.5353 206.463C85.3997 206.277 85.302 206.066 85.2479 205.843C85.1938 205.619 85.1842 205.387 85.2198 205.16L85.5098 203.23C85.8798 202.88 91.9498 197.15 98.1098 198.09C104.48 199.09 104.5 204.77 113.38 206.09C122.26 207.41 124.85 200.42 137.45 202.35C150.05 204.28 150.01 213.09 163.04 215.09C176.07 217.09 178.76 206.52 188.04 207.94C197.32 209.36 196.67 214.75 201.93 215.55C207.19 216.35 210.25 208.11 216.72 209.1C223.19 210.09 228.14 223.65 235.43 224.77C240.55 225.55 249.6 215.41 258.84 209.97C262.74 207.67 266.69 206.21 270.37 206.78C277.98 207.94 282.42 213.88 287.25 218.69C290.25 221.69 293.48 224.29 297.7 224.94C303.7 225.86 308.31 220.4 312.94 215.6C316.7 211.69 320.49 208.21 325.1 208.91C327.405 209.204 329.637 209.922 331.68 211.03C335.68 213.27 336.73 216.29 341.51 217.03C347.26 217.94 352.07 207.68 352.07 207.68Z" fill="#F7941E"/>
<path d="M117.12 105.53L103.28 103.41C102.96 103.361 102.652 103.25 102.376 103.082C102.099 102.914 101.858 102.694 101.666 102.433C101.475 102.172 101.337 101.875 101.26 101.561C101.184 101.246 101.17 100.92 101.22 100.6C101.318 99.9532 101.67 99.3719 102.196 98.9838C102.723 98.5957 103.383 98.4325 104.03 98.5301L117.86 100.65C118.505 100.751 119.085 101.103 119.473 101.629C119.86 102.155 120.025 102.813 119.93 103.46C119.829 104.106 119.477 104.685 118.95 105.073C118.424 105.461 117.766 105.625 117.12 105.53Z" fill="#F7941E"/>
<path d="M124.76 102.74H124.98L138.82 104.86C139.017 104.885 139.207 104.95 139.378 105.049C139.55 105.149 139.7 105.282 139.82 105.44C140.047 105.755 140.143 106.146 140.09 106.53C140.033 106.876 139.857 107.19 139.592 107.419C139.327 107.647 138.99 107.775 138.64 107.78H138.41L124.58 105.66C124.203 105.619 123.858 105.433 123.616 105.141C123.374 104.85 123.255 104.476 123.284 104.099C123.312 103.721 123.486 103.37 123.769 103.118C124.052 102.866 124.421 102.734 124.8 102.75M124.8 101.75C124.169 101.734 123.555 101.961 123.087 102.384C122.619 102.807 122.331 103.395 122.283 104.024C122.236 104.654 122.432 105.277 122.832 105.766C123.231 106.255 123.803 106.571 124.43 106.65L138.26 108.77H138.64C139.26 108.767 139.857 108.53 140.311 108.107C140.765 107.683 141.043 107.105 141.089 106.486C141.136 105.867 140.948 105.253 140.562 104.767C140.177 104.28 139.623 103.956 139.01 103.86L125.17 101.75C125.047 101.74 124.923 101.74 124.8 101.75Z" fill="#F7941E"/>
<path d="M145.86 105.97H146.07L159.9 108.09C160.262 108.15 160.589 108.344 160.815 108.633C161.042 108.921 161.152 109.285 161.125 109.651C161.097 110.017 160.934 110.359 160.666 110.611C160.399 110.863 160.047 111.005 159.68 111.01H159.46L145.62 108.89C145.423 108.865 145.233 108.801 145.061 108.702C144.889 108.602 144.739 108.469 144.62 108.31C144.506 108.155 144.425 107.978 144.38 107.791C144.336 107.604 144.329 107.41 144.36 107.22C144.414 106.876 144.589 106.563 144.852 106.336C145.116 106.109 145.452 105.983 145.8 105.98M145.8 104.98C145.169 104.964 144.555 105.191 144.087 105.614C143.619 106.037 143.331 106.625 143.283 107.254C143.236 107.884 143.432 108.507 143.832 108.996C144.231 109.485 144.803 109.801 145.43 109.88L159.27 112C159.393 112.01 159.517 112.01 159.64 112C160.26 111.997 160.857 111.76 161.311 111.337C161.765 110.913 162.043 110.335 162.089 109.716C162.136 109.097 161.948 108.483 161.562 107.997C161.177 107.51 160.623 107.186 160.01 107.09L146.18 104.98C146.053 104.97 145.926 104.97 145.8 104.98Z" fill="#F7941E"/>
<path d="M361.33 140.68L361.5 139.6L360.7 139.41C360.682 139.232 360.638 139.056 360.57 138.89L361.19 138.35L360.55 137.47L359.84 137.9C359.701 137.79 359.55 137.696 359.39 137.62L359.44 136.8L358.36 136.64L358.17 137.44C357.996 137.459 357.824 137.499 357.66 137.56L357.11 136.94L356.23 137.59L356.66 138.29C356.549 138.43 356.458 138.585 356.39 138.75L355.57 138.69L355.4 139.77L356.2 139.97C356.218 140.146 356.262 140.317 356.33 140.48L355.71 141.02L356.36 141.9L357.06 141.47C357.198 141.581 357.349 141.675 357.51 141.75L357.46 142.57L358.54 142.73L358.73 141.94C358.907 141.912 359.081 141.869 359.25 141.81L359.79 142.43L360.67 141.78L360.24 141.08C360.349 140.942 360.439 140.791 360.51 140.63L361.33 140.68ZM358.26 140.94C358.012 140.902 357.781 140.79 357.596 140.62C357.411 140.45 357.28 140.229 357.221 139.985C357.162 139.741 357.176 139.485 357.262 139.249C357.348 139.013 357.503 138.808 357.705 138.66C357.908 138.512 358.15 138.427 358.401 138.416C358.652 138.406 358.901 138.47 359.115 138.6C359.33 138.731 359.501 138.922 359.607 139.15C359.713 139.378 359.748 139.632 359.71 139.88C359.684 140.045 359.626 140.203 359.54 140.346C359.453 140.488 359.339 140.612 359.204 140.71C359.07 140.809 358.917 140.88 358.755 140.919C358.593 140.959 358.425 140.966 358.26 140.94Z" fill="#F7941E"/>
<path opacity="0.2" d="M205.796 259.677L202.851 259.226L199.614 280.38L202.559 280.831L205.796 259.677Z" fill="#F7941E"/>
<path d="M205.31 262.866L202.365 262.415L200.842 272.369L203.787 272.82L205.31 262.866Z" fill="#F7941E"/>
<path opacity="0.2" d="M198.369 263.992L195.423 263.541L192.186 284.695L195.132 285.146L198.369 263.992Z" fill="#F7941E"/>
<path d="M194.543 269.114L193.018 279.078L195.964 279.529L197.488 269.565L194.543 269.114Z" fill="#F7941E"/>
<path opacity="0.2" d="M193.046 259.057L190.096 258.61L186.886 279.796L189.836 280.243L193.046 259.057Z" fill="#F7941E"/>
<path d="M191.134 266.884L188.188 266.434L186.664 276.398L189.609 276.848L191.134 266.884Z" fill="#F7941E"/>
<path opacity="0.2" d="M211.783 264.862L208.837 264.411L205.6 285.565L208.546 286.016L211.783 264.862Z" fill="#F7941E"/>
<path d="M211.307 268.041L208.361 267.59L206.836 277.554L209.782 278.005L211.307 268.041Z" fill="#F7941E"/>
<path opacity="0.2" d="M219.358 259.629L216.412 259.178L213.175 280.332L216.121 280.782L219.358 259.629Z" fill="#F7941E"/>
<path d="M218.992 262.005L216.046 261.554L214.521 271.518L217.467 271.969L218.992 262.005Z" fill="#F7941E"/>
<path opacity="0.2" d="M225.153 266.1L222.207 265.649L218.97 286.803L221.916 287.254L225.153 266.1Z" fill="#F7941E"/>
<path d="M225.024 266.891L222.079 266.44L220.554 276.404L223.5 276.855L225.024 266.891Z" fill="#F7941E"/>
<path opacity="0.2" d="M233.457 256.043L230.511 255.592L227.274 276.746L230.22 277.197L233.457 256.043Z" fill="#F7941E"/>
<path d="M233.347 256.845L230.401 256.394L228.878 266.348L231.824 266.799L233.347 256.845Z" fill="#F7941E"/>
<path opacity="0.2" d="M238.045 270.38L235.1 269.93L231.863 291.083L234.808 291.534L238.045 270.38Z" fill="#F7941E"/>
<path d="M237.559 273.569L234.614 273.118L233.089 283.082L236.035 283.533L237.559 273.569Z" fill="#F7941E"/>
<path opacity="0.2" d="M244.481 272.629L241.535 272.178L238.298 293.332L241.244 293.783L244.481 272.629Z" fill="#F7941E"/>
<path d="M243.25 280.6L240.305 280.15L238.78 290.114L241.726 290.564L243.25 280.6Z" fill="#F7941E"/>
<path opacity="0.2" d="M253.147 260.358L250.202 259.908L246.965 281.061L249.91 281.512L253.147 260.358Z" fill="#F7941E"/>
<path d="M251.797 269.124L248.852 268.673L247.328 278.627L250.274 279.078L251.797 269.124Z" fill="#F7941E"/>
<path opacity="0.2" d="M258.336 270.686L255.391 270.235L252.154 291.389L255.099 291.84L258.336 270.686Z" fill="#F7941E"/>
<path d="M257.721 274.667L254.775 274.217L253.252 284.171L256.198 284.621L257.721 274.667Z" fill="#F7941E"/>
<path opacity="0.2" d="M265.803 266.178L262.857 265.727L259.62 286.881L262.566 287.332L265.803 266.178Z" fill="#F7941E"/>
<path d="M266.133 269.416L263.183 268.969L261.671 278.948L264.621 279.395L266.133 269.416Z" fill="#F7941E"/>
<path opacity="0.2" d="M273.884 257.688L270.938 257.237L267.701 278.391L270.647 278.842L273.884 257.688Z" fill="#F7941E"/>
<path d="M273.873 257.686L270.928 257.235L269.403 267.199L272.349 267.65L273.873 257.686Z" fill="#F7941E"/>
<path opacity="0.2" d="M278.46 272.093L275.515 271.642L272.278 292.796L275.223 293.247L278.46 272.093Z" fill="#F7941E"/>
<path d="M278.084 274.489L275.138 274.038L273.613 284.002L276.559 284.453L278.084 274.489Z" fill="#F7941E"/>
<path opacity="0.2" d="M283.651 282.411L280.705 281.96L277.468 303.114L280.414 303.565L283.651 282.411Z" fill="#F7941E"/>
<path d="M283.285 284.797L280.339 284.346L278.814 294.31L281.76 294.761L283.285 284.797Z" fill="#F7941E"/>
<path opacity="0.2" d="M291.985 272.228L289.039 271.778L285.802 292.931L288.748 293.382L291.985 272.228Z" fill="#F7941E"/>
<path d="M290.774 280.191L287.829 279.741L286.304 289.705L289.25 290.156L290.774 280.191Z" fill="#F7941E"/>
<path opacity="0.2" d="M300.444 261.284L297.498 260.833L294.261 281.987L297.207 282.438L300.444 261.284Z" fill="#F7941E"/>
<path d="M298.975 270.851L296.029 270.4L294.504 280.364L297.45 280.815L298.975 270.851Z" fill="#F7941E"/>
<path opacity="0.2" d="M305.237 274.249L302.291 273.799L299.054 294.952L302 295.403L305.237 274.249Z" fill="#F7941E"/>
<path d="M305.647 277.449L302.697 277.002L301.185 286.981L304.135 287.428L305.647 277.449Z" fill="#F7941E"/>
<path opacity="0.2" d="M311.31 278.797L308.365 278.346L305.128 299.5L308.073 299.95L311.31 278.797Z" fill="#F7941E"/>
<path d="M309.98 287.552L307.035 287.102L305.51 297.066L308.456 297.516L309.98 287.552Z" fill="#F7941E"/>
<path opacity="0.2" d="M318.948 273.195L316.002 272.744L312.765 293.898L315.711 294.349L318.948 273.195Z" fill="#F7941E"/>
<path d="M318.948 273.204L316.002 272.754L314.477 282.718L317.423 283.168L318.948 273.204Z" fill="#F7941E"/>
<path opacity="0.2" d="M324.562 280.808L321.617 280.357L318.38 301.511L321.325 301.961L324.562 280.808Z" fill="#F7941E"/>
<path d="M324.314 282.411L321.368 281.96L319.843 291.924L322.789 292.375L324.314 282.411Z" fill="#F7941E"/>
<path opacity="0.2" d="M331.629 278.967L328.684 278.516L325.447 299.67L328.392 300.12L331.629 278.967Z" fill="#F7941E"/>
<path d="M331.501 279.767L328.555 279.316L327.03 289.28L329.976 289.731L331.501 279.767Z" fill="#F7941E"/>
<path opacity="0.2" d="M337.824 282.701L334.878 282.251L331.641 303.404L334.587 303.855L337.824 282.701Z" fill="#F7941E"/>
<path d="M337.208 293.056L334.257 292.609L332.745 302.589L335.696 303.036L337.208 293.056Z" fill="#F7941E"/>
<path d="M230.87 312.092L175.396 303.603L175.132 305.323L230.607 313.812L230.87 312.092Z" fill="#999999" stroke="#263238" stroke-linecap="round" stroke-linejoin="round"/>
<path opacity="0.2" d="M266.13 191.15C266.13 191.15 258.61 195.32 263.4 206.62C268.19 217.92 297.32 236.5 296.73 245.94C296.73 245.94 266.82 227.3 258.51 238.06C258.51 238.06 281.1 259.97 283.45 276.45C285.8 292.93 293.45 300.24 311.13 309.64C328.81 319.04 367.25 368.64 367.25 368.64L361.5 285.34L305.5 222.14L277.82 206.36L266.13 191.15Z" fill="black" fill-opacity="0.7"/>
<path d="M418.07 339.67L368.77 372.05H368.69C368.645 372.048 368.601 372.032 368.563 372.006C368.526 371.979 368.497 371.943 368.48 371.9C368.26 371.32 346.48 313.11 341.23 308.57C338.274 305.899 336.12 302.457 335.01 298.63C335.01 298.63 335.01 298.58 335.01 298.55C334.82 297.91 334.73 297.49 334.71 297.38C331.81 291.483 327.362 286.484 321.84 282.92C318.149 280.684 314.251 278.809 310.2 277.32C304 274.81 297.62 272.22 293.11 267.43C292.338 266.612 291.632 265.732 291 264.8C283.83 254.3 272.76 242.71 269.07 240.33C265.38 237.95 258.59 238.27 258.53 238.27C258.475 238.276 258.419 238.261 258.375 238.227C258.33 238.194 258.3 238.145 258.29 238.09C258.17 237.175 258.253 236.244 258.533 235.365C258.813 234.485 259.283 233.678 259.91 233C260.852 231.899 262.023 231.015 263.34 230.411C264.658 229.806 266.091 229.496 267.54 229.5C273.24 229.5 281.09 232.5 285.05 236.27C289.01 240.04 298.17 242.81 299.22 243.13C300.71 242.25 304.22 244.13 305.51 244.94C303.98 239.49 304.6 237.39 304.84 236.86C301.56 232.61 284.48 220.03 275.41 213.72C272.91 211.97 271.03 210.72 270.21 210.23C265.98 207.74 262.48 199.95 263.16 194.51C263.193 193.771 263.39 193.049 263.736 192.396C264.082 191.742 264.568 191.173 265.16 190.73C266.011 190.196 267.007 189.941 268.01 190C268.417 190.011 268.823 190.061 269.22 190.15C269.26 190.168 269.298 190.191 269.33 190.22C269.41 190.33 277.9 200.4 280.84 201.98C282.28 202.75 289.94 206.62 297.22 210.22L300.5 211.84C300.48 208.67 300.647 205.501 301 202.35C301.28 201.11 303.26 199.35 305.51 198.35C306.56 197.87 308.51 197.18 309.94 197.94C310.49 198.25 311.79 199.05 313.59 200.17L316.59 202.03C317.228 201.049 318.01 200.169 318.91 199.42C319.66 198.98 323.81 198.21 325.29 198.73C326.58 199.2 330.72 201.83 335.1 204.61L336.99 205.8C337.22 205.37 337.76 204.47 338.27 204.27C340.432 203.472 342.785 203.346 345.02 203.91C346.5 204.45 351.58 208.2 356.5 211.83C359.2 213.83 361.79 215.74 363.5 216.89C363.558 216.905 363.608 216.941 363.64 216.99C364.13 217.32 364.54 217.58 364.85 217.76C368.47 219.83 377.37 266.51 377.46 266.98C378.04 270.11 380.16 273.34 382.4 276.76C384.935 280.321 387.008 284.188 388.57 288.27C391.42 296.6 397.91 308.79 407.42 323.69C408.28 325.024 409.167 326.394 410.08 327.8C412.65 331.69 415.39 335.75 418.07 339.67Z" fill="white"/>
<path opacity="0.4" d="M308.21 250.27C306.3 251.78 292.44 250.35 290.74 255.01C289.74 257.76 290.48 261.92 293.08 267.41C292.308 266.592 291.602 265.712 290.97 264.78C283.8 254.28 272.73 242.69 269.04 240.31C265.35 237.93 258.59 238.27 258.53 238.27C258.475 238.276 258.419 238.261 258.375 238.227C258.33 238.194 258.3 238.145 258.29 238.09C258.17 237.175 258.253 236.244 258.533 235.365C258.813 234.485 259.283 233.678 259.91 233C260.852 231.899 262.023 231.015 263.34 230.411C264.658 229.806 266.091 229.496 267.54 229.5C273.24 229.5 281.09 232.5 285.05 236.27C289.01 240.04 298.17 242.81 299.22 243.13C300.71 242.25 304.22 244.13 305.51 244.94C303.98 239.49 304.6 237.39 304.84 236.86C301.56 232.61 284.48 220.03 275.41 213.72C272.91 211.97 271.03 210.72 270.21 210.23C265.98 207.74 262.48 199.95 263.16 194.51C263.193 193.771 263.39 193.049 263.736 192.396C264.082 191.742 264.568 191.173 265.16 190.73C266.011 190.196 267.007 189.941 268.01 190C267.322 190.269 266.686 190.655 266.13 191.14C263.35 193.51 269.98 206.02 273.71 209.48C277.61 213.09 295.15 222.05 301.45 227.39C304.91 230.32 309.45 234.76 309.45 234.76C306.68 239.48 310.07 248.79 308.21 250.27Z" fill="#F7941E"/>
<path d="M372.61 173.8C372.61 173.71 372.61 173.69 372.61 173.73C372.618 173.74 372.622 173.753 372.622 173.765C372.622 173.778 372.618 173.79 372.61 173.8Z" fill="#F7941E"/>
<path opacity="0.4" d="M407.42 323.64C399.99 316.57 388.93 305.56 386.86 300.73C383.7 293.33 381.59 286.5 377.66 281.52C373.73 276.54 365.76 223.47 363.47 223.32C361.18 223.17 366.35 244.32 366.62 245.4C366.4 244.73 363.54 235.72 360.8 225.45C357.96 214.78 355.09 214.2 355.09 214.2C351.28 214.96 351.26 217.67 349.31 217.63C347.36 217.59 340.67 212.84 340.67 212.84C334.18 213.78 309.83 198.1 309.83 198.1C304.29 198.85 302.99 203.69 307.72 208.23C312.45 212.77 319.52 218.27 319.52 218.27C314.96 220.49 298.22 211.1 298.22 211.1L297.22 210.2L300.5 211.82C300.48 208.65 300.647 205.481 301 202.33C301.28 201.09 303.26 199.33 305.51 198.33C306.56 197.85 308.51 197.16 309.94 197.92C310.49 198.23 311.79 199.03 313.59 200.15L316.59 202.01C317.228 201.029 318.01 200.149 318.91 199.4C319.66 198.96 323.81 198.19 325.29 198.71C326.58 199.18 330.72 201.81 335.1 204.59L336.99 205.78C337.22 205.35 337.76 204.45 338.27 204.25C340.432 203.452 342.785 203.326 345.02 203.89C346.5 204.43 351.58 208.18 356.5 211.81C359.2 213.81 361.79 215.72 363.5 216.87C363.558 216.885 363.608 216.921 363.64 216.97C364.13 217.3 364.54 217.56 364.85 217.74C368.47 219.81 377.37 266.49 377.46 266.96C378.04 270.09 380.16 273.32 382.4 276.74C384.937 280.307 387.01 284.181 388.57 288.27C391.42 296.55 397.91 308.74 407.42 323.64Z" fill="#F7941E"/>
<path d="M368.69 371.85C368.69 371.85 346.69 313.05 341.38 308.43C338.111 305.475 335.846 301.574 334.9 297.27C331.98 291.314 327.484 286.272 321.9 282.69C312.41 276.44 298.06 274.82 291.12 264.69C284.18 254.56 273.06 242.69 269.12 240.15C265.18 237.61 258.47 238.07 258.47 238.07C257.78 234.13 262.17 229.74 267.47 229.74C272.77 229.74 280.66 232.51 284.83 236.45C289 240.39 299.18 243.39 299.18 243.39C300.8 242.23 305.81 245.45 305.81 245.45C303.81 238.68 305.02 236.85 305.02 236.85C301.09 231.53 274.18 212.38 270.25 210.06C266.32 207.74 262.61 200.11 263.3 194.55C263.317 193.86 263.494 193.182 263.817 192.572C264.14 191.961 264.6 191.433 265.161 191.03C265.722 190.627 266.368 190.36 267.05 190.249C267.732 190.138 268.43 190.186 269.09 190.39C269.09 190.39 277.65 200.57 280.66 202.19C283.67 203.81 307.28 215.62 310.75 217C311.714 217.411 312.762 217.584 313.806 217.504C314.851 217.424 315.86 217.093 316.75 216.54" stroke="#263238" stroke-linecap="round" stroke-linejoin="round"/>
<path d="M300.72 212.2C300.72 212.2 300.72 204.5 301.22 202.41C301.72 200.32 307.29 196.72 309.83 198.1C312.37 199.48 331.13 211.82 336.02 212.37" stroke="#263238" stroke-linecap="round" stroke-linejoin="round"/>
<path d="M316.66 202.27C317.324 201.255 318.125 200.337 319.04 199.54C319.73 199.13 323.84 198.37 325.23 198.87C328.01 199.87 344.39 211.17 347.16 211.87" stroke="#263238" stroke-linecap="round" stroke-linejoin="round"/>
<path d="M337.07 206.09C337.07 206.09 337.78 204.67 338.35 204.44C340.461 203.658 342.759 203.535 344.94 204.09C347.49 205.02 361.49 216.09 364.73 217.92C367.97 219.75 376.08 260.74 377.23 266.99C378.38 273.24 385.34 279.49 388.34 288.29C391.34 297.09 398.53 310.51 409.87 327.87C411.87 330.87 413.95 334.04 416.04 337.1" stroke="#263238" stroke-linecap="round" stroke-linejoin="round"/>
<path d="M314.99 228.51C314.99 228.51 315.99 223.82 318.81 221.74C321.63 219.66 325.41 222.96 328.18 223.3" stroke="#263238" stroke-linecap="round" stroke-linejoin="round"/>
<path d="M333.91 221.05C333.91 221.05 335.47 215.66 338.25 214.45C341.03 213.24 345.31 216.88 347.16 217.05" stroke="#263238" stroke-linecap="round" stroke-linejoin="round"/>
<path d="M352.14 216.18C352.14 216.18 354.22 214.18 355.09 214.18C355.96 214.18 359.6 217.99 360.39 218.25C361.18 218.51 362.12 217.08 363.47 217.06" stroke="#263238" stroke-linecap="round" stroke-linejoin="round"/>
<path d="M345.81 211.27C347.33 211.157 348.847 211.532 350.14 212.34" stroke="#263238" stroke-linecap="round" stroke-linejoin="round"/>
<path d="M305.07 236.84C305.07 236.84 303.69 233.28 304.38 231.46" stroke="#263238" stroke-linecap="round" stroke-linejoin="round"/>
<path d="M307.78 210.72C307.78 210.72 309.43 212.65 309.52 214.2C309.61 215.75 313.52 217.63 313.52 217.63" stroke="#263238" stroke-linecap="round" stroke-linejoin="round"/>
<path d="M334.25 211.9C334.25 211.9 336.52 211.09 337.73 211.9" stroke="#263238" stroke-linecap="round" stroke-linejoin="round"/>
<path d="M305.07 241.53C304.993 240.386 305.198 239.241 305.667 238.195C306.136 237.148 306.855 236.233 307.76 235.53" stroke="#263238" stroke-linecap="round" stroke-linejoin="round"/>
<path d="M305.88 245.44C305.88 245.44 303.3 247.66 303.3 249.05" stroke="#263238" stroke-linecap="round" stroke-linejoin="round"/>
<path d="M294 241.53C297.06 242.67 299.6 247.43 301.45 248.24" stroke="#263238" stroke-linecap="round" stroke-linejoin="round"/>
<path d="M331.07 226.37C332.92 229.03 337.07 248.37 341.25 254.49" stroke="#263238" stroke-linecap="round" stroke-linejoin="round"/>
<path d="M346.59 220.91C346.94 221.14 349.37 228.66 349.37 228.66" stroke="#263238" stroke-linecap="round" stroke-linejoin="round"/>
<path d="M377.66 268.56C378.269 272.408 379.379 276.16 380.96 279.72" stroke="#263238" stroke-linecap="round" stroke-linejoin="round"/>
<path d="M335.21 298.58C334.9 297.31 333.56 288.98 331.91 286.2" stroke="#263238" stroke-linecap="round" stroke-linejoin="round"/>
<path opacity="0.2" d="M54.96 428.56C54.96 428.56 87.5 384.81 112.04 376.8C136.58 368.79 137.79 357.92 136.79 337.64C135.79 317.36 136.53 296.92 129.79 294.48C123.05 292.04 137.87 265.56 130.79 255.07L84.36 328.01L54.96 428.56Z" fill="black" fill-opacity="0.7"/>
<path d="M47.0698 440.75L46.5798 440.59L47.2798 440.98L47.0698 440.75ZM126.17 306.54C122.17 304.67 114.23 295.9 113.24 294.8C118.24 286.38 123.18 278.26 124.89 276.31C128.44 272.31 132.77 260.64 131.01 255C129.4 249.82 124.13 250.65 123.41 250.79H123.33C123.303 250.794 123.277 250.804 123.254 250.82C123.232 250.836 123.213 250.856 123.2 250.88C123.09 251.07 112.36 269.16 109.03 273.49C107.44 275.55 103.78 280.24 100.03 284.94L98.9198 284.77C96.5939 284.408 94.2212 284.476 91.9198 284.97L91.6898 285.05C90.4995 285.564 89.3524 286.172 88.2598 286.87L87.4698 286.54C85.8898 285.88 82.6198 284.61 81.0698 284.54C79.1798 284.44 72.5198 287.54 68.5398 290.04C65.796 289.207 62.9364 288.818 60.0698 288.89C57.0198 289.02 50.7998 291.55 45.7998 293.58C43.5798 294.48 41.6598 295.26 40.5398 295.58L39.5398 295.88C36.5398 296.77 34.9198 297.27 32.8398 301.43C30.6798 305.75 28.3498 321.86 27.2298 329.6L27.0798 330.65C26.6498 333.65 26.7198 338.91 26.7898 344.52C26.8998 352.32 27.0098 360.38 25.8498 363.52C24.2828 367.476 22.2124 371.213 19.6898 374.64C19.3598 375.11 19.0598 375.55 18.7798 375.97C17.2185 378.406 15.972 381.031 15.0698 383.78C14.2298 386 13.1798 388.44 12.1598 390.67C10.2798 394.8 8.52979 398.21 8.52979 398.21C8.52979 398.21 43.9798 437.32 47.0698 440.75C47.2363 440.814 47.4066 440.867 47.5798 440.91C47.6998 440.71 54.2398 429.53 61.1698 418.5C67.1698 408.98 73.3998 399.57 76.0698 397.41C79.7311 394.269 82.3937 390.125 83.7298 385.49C85.1698 380.86 94.3598 375.15 103.25 369.63C113.08 363.53 123.25 357.22 123.59 352C123.78 349.3 124.4 344.83 125.12 339.64C127.07 325.58 129.49 308.07 126.17 306.54ZM109.33 329.02L104.96 333.27C104.34 329.77 100.09 325.12 99.4198 324.41C99.7558 322.727 99.973 321.023 100.07 319.31C100.23 317.36 100.4 315.31 100.88 314.98C101.36 314.65 103.57 310.98 107.17 304.98C107.47 309.21 111.17 313.87 111.67 314.54L109.33 329.02Z" fill="white"/>
<path opacity="0.4" d="M57.44 316.03C56.15 327.55 44.86 356.13 44.86 356.13L42.86 327.34C42.86 327.34 34.07 366.41 31.66 367.82C29.25 369.23 25.02 376.7 22.66 382.63C21.07 386.63 15.66 389.35 12.25 390.72C13.25 388.49 14.32 386.05 15.16 383.83C16.0622 381.081 17.3087 378.456 18.87 376.02C19.15 375.6 19.45 375.16 19.78 374.69C22.3026 371.263 24.373 367.526 25.94 363.57C27.1 360.41 26.94 352.35 26.88 344.57C26.81 338.96 26.74 333.66 27.17 330.7L27.32 329.65C28.44 321.91 30.77 305.8 32.93 301.48C35.01 297.32 36.65 296.82 39.63 295.93L40.63 295.63C41.75 295.28 43.63 294.5 45.89 293.63C50.89 291.63 57.11 289.07 60.16 288.94C63.011 288.88 65.8533 289.275 68.58 290.11C72.58 287.6 79.22 284.51 81.11 284.61C82.66 284.68 85.93 285.95 87.51 286.61C80.87 290.03 69.7 298.27 69.7 298.27C57.07 301.01 57.44 316.03 57.44 316.03Z" fill="#F7941E"/>
<path opacity="0.4" d="M79.8198 300.73C83.0891 298.467 86.4773 296.381 89.9698 294.48C93.2098 292.96 94.2498 286.9 91.9698 285.19C91.8846 285.127 91.785 285.085 91.6798 285.07L91.9098 284.99C94.2113 284.496 96.5839 284.428 98.9098 284.79C94.7198 291.08 91.4398 295.9 90.5698 296.94C87.6898 300.44 79.8198 300.73 79.8198 300.73Z" fill="#F7941E"/>
<path opacity="0.4" d="M96.3496 340.2L97.8796 340.86C96.9496 344.57 96.3496 340.2 96.3496 340.2Z" fill="#F7941E"/>
<path opacity="0.4" d="M126.17 306.54C122.17 304.67 114.23 295.9 113.24 294.8C118.24 286.38 123.18 278.26 124.89 276.31C128.44 272.31 132.77 260.64 131.01 255C129.4 249.82 124.13 250.65 123.41 250.79V251.01C123.41 251.01 129.11 251.72 129.1 259.96C129.09 268.2 114.29 284.53 114.29 284.53C114.29 284.53 99.0699 313.08 98.0699 312.65C97.0699 312.22 94.8399 331.73 94.8399 331.73C94.8399 331.73 99.0799 335.34 98.0699 340.2C98.0166 340.44 97.9666 340.66 97.9199 340.86L104.44 343.67C104.44 343.67 110.98 339.08 114.3 345.83C117.62 352.58 82.3799 376.7 79.6099 380.27C79.6099 380.27 79.2199 393.72 74.0799 395.7C70.7499 396.98 64.8799 409.7 61.1699 418.51C67.1699 408.99 73.3999 399.58 76.0699 397.42C79.7312 394.279 82.3939 390.135 83.7299 385.5C85.1699 380.87 94.3599 375.16 103.25 369.64C113.08 363.54 123.25 357.23 123.59 352.01C123.78 349.31 124.4 344.84 125.12 339.65C127.07 325.58 129.49 308.07 126.17 306.54ZM109.33 329.02L104.96 333.27C104.34 329.77 100.09 325.12 99.4199 324.41C99.7559 322.727 99.9731 321.023 100.07 319.31C100.23 317.36 100.4 315.31 100.88 314.98C101.36 314.65 103.57 310.98 107.17 304.98C107.47 309.21 111.17 313.87 111.67 314.54L109.33 329.02Z" fill="#F7941E"/>
<path d="M83.5298 300.99C86.2547 300.405 88.7316 298.99 90.6198 296.94C93.6198 293.57 105.82 278.03 109.2 273.64C112.58 269.25 123.38 251.01 123.38 251.01C123.38 251.01 129.12 249.66 130.81 255.07C132.5 260.48 128.45 271.95 124.73 276.17C121.01 280.39 102.1 313.83 100.73 314.84C99.3598 315.85 100.4 325.32 97.7298 327.34" stroke="#263238" stroke-linecap="round" stroke-linejoin="round"/>
<path d="M99.1797 324.5C99.1797 324.5 104.47 330.04 104.81 333.75L109.53 329.13L111.9 314.5C111.9 314.5 107.23 308.88 107.37 304.26" stroke="#263238" stroke-linecap="round" stroke-linejoin="round"/>
<path d="M112.98 294.83C112.98 294.83 121.69 304.71 126.08 306.74C130.47 308.77 124.08 342.2 123.38 351.99C122.68 361.78 86.5696 375.61 83.5296 385.42C82.213 390.021 79.5695 394.133 75.9296 397.24C70.0696 401.99 47.3896 440.81 47.3896 440.81" stroke="#263238" stroke-linecap="round" stroke-linejoin="round"/>
<path d="M100.16 285.19C100.16 285.19 95.0099 284.24 91.9699 285.19C88.9299 286.14 76.0699 295.27 73.0699 296.94C70.0699 298.61 65.6399 298.94 64.6299 300.99" stroke="#263238" stroke-linecap="round" stroke-linejoin="round"/>
<path d="M88.27 287.13C88.27 287.13 83.07 284.87 81.07 284.77C79.07 284.67 70.94 288.5 67.23 291.2C64.3774 293.292 61.1736 294.856 57.77 295.82" stroke="#263238" stroke-linecap="round" stroke-linejoin="round"/>
<path d="M68.5497 290.27C65.823 289.418 62.9756 289.016 60.1197 289.08C55.7197 289.27 44.2396 294.67 40.6396 295.8C37.0396 296.93 35.3496 297.03 33.0996 301.54C30.8496 306.05 28.3696 323.71 27.3596 330.69C26.3496 337.67 28.1496 358.1 26.1196 363.62C24.0896 369.14 20.9596 373.27 19.0696 376.14C15.2196 381.86 15.6496 386.14 8.63965 398.26" stroke="#263238" stroke-linecap="round" stroke-linejoin="round"/>
<path d="M60.3999 302.51C56.0099 306.4 56.8199 313.83 57.3999 316.03C57.9799 318.23 55.2899 327.03 54.3999 331.73" stroke="#263238" stroke-linecap="round" stroke-linejoin="round"/>
<path d="M88.27 306.27C80.27 306.44 77.79 311.84 77.27 315.39" stroke="#263238" stroke-linecap="round" stroke-linejoin="round"/>
<path d="M54.4899 298.27C52.1199 298.1 46.0399 301.82 44.8599 307.9" stroke="#263238" stroke-linecap="round" stroke-linejoin="round"/>
<path d="M111.9 314.5C111.9 314.5 113.08 311.13 114.26 310.79" stroke="#263238" stroke-linecap="round" stroke-linejoin="round"/>
<path d="M109.53 329.13C108.947 331.112 108.225 333.05 107.37 334.93C106.37 336.93 107.37 340.12 107.37 340.12" stroke="#263238" stroke-linecap="round" stroke-linejoin="round"/>
<path d="M104.81 333.75C104.64 337.13 100.92 340.75 100.16 340.12" stroke="#263238" stroke-linecap="round" stroke-linejoin="round"/>
<path d="M73.0097 328.01C72.8897 331.73 66.1396 358.91 66.1396 358.91" stroke="#263238" stroke-linecap="round" stroke-linejoin="round"/>
</g>
<defs>
<clipPath id="clip0_571_10">
<rect width="430.14" height="458.55" fill="white"/>
</clipPath>
</defs>
</svg>
