<svg width="531" height="549" viewBox="0 0 531 549" fill="none" xmlns="http://www.w3.org/2000/svg">
<g clip-path="url(#clip0_522_10)">
<path d="M371.115 176.694C366.955 186.762 342.594 186.068 317.033 175.532C291.473 164.996 274.12 148.292 278.28 138.225C279.236 135.9 281.916 127.182 284.802 125.964C294.321 121.952 312.424 131.007 332.062 139.087C350.333 146.586 371.209 151.479 374.451 161.397C376.419 167.433 372.296 173.826 371.115 176.694Z" fill="#F7941E"/>
<path opacity="0.2" d="M374.451 161.415C376.006 169.308 372.577 173.095 371.115 176.695C369.654 180.294 365.306 182.656 359.253 183.481C358.522 183.612 357.754 183.669 356.967 183.744C352.319 184.017 347.656 183.771 343.062 183.012C342.407 183.012 341.751 182.806 341.095 182.694C335.697 181.73 330.379 180.364 325.185 178.607L323.311 177.969C321.212 177.238 319.076 176.432 316.958 175.551C314.841 174.67 312.78 173.676 310.774 172.795L309.069 171.97C304.341 169.642 299.787 166.972 295.446 163.984L293.909 162.896C290.113 160.207 286.631 157.101 283.527 153.635C283.059 153.11 282.647 152.604 282.234 152.079C278.205 146.961 276.612 142.105 278.205 138.225C279.236 135.713 281.503 127.201 284.708 125.964C288.679 124.85 292.88 124.85 296.851 125.964L298.725 126.414C308.095 128.795 319.9 134.138 331.95 139.125C346.173 144.993 362.982 151.067 371.209 158.116C371.706 158.529 372.181 158.967 372.633 159.428C373.292 160.04 373.9 160.705 374.451 161.415Z" fill="black"/>
<g opacity="0.2">
<path d="M299.68 124.82L298.819 126.395L283.602 153.635C283.134 153.11 282.721 152.604 282.309 152.079L296.926 125.945L298.05 123.92L299.68 124.82Z" fill="black"/>
</g>
<g opacity="0.2">
<path d="M311.187 135.863L295.521 163.984L293.984 162.896L309.575 134.981L311.187 135.863Z" fill="black"/>
</g>
<g opacity="0.2">
<path d="M340.027 152.042L325.185 178.607L323.311 177.969L338.303 151.104L340.027 152.042Z" fill="black"/>
</g>
<g opacity="0.2">
<path d="M326.628 144.543L310.849 172.795L309.144 171.97L324.979 143.624L326.628 144.543Z" fill="black"/>
</g>
<g opacity="0.2">
<path d="M357.51 157.179L343.062 183.013C342.406 183.013 341.751 182.806 341.095 182.694L355.88 156.241L357.51 157.179Z" fill="black"/>
</g>
<path d="M374.339 167.846C370.197 177.913 346.117 177.52 320.575 166.965C295.033 156.41 277.662 139.725 281.803 129.657C285.945 119.59 310.044 119.984 335.585 130.538C361.127 141.093 378.499 157.778 374.339 167.846Z" fill="#F7941E"/>
<path opacity="0.2" d="M365.662 164.265C362.72 171.37 343.962 170.377 323.742 162.015C303.522 153.654 289.486 141.149 292.429 133.988C295.371 126.826 314.129 127.876 334.349 136.219C354.568 144.561 368.585 157.16 365.662 164.265Z" fill="white"/>
<path d="M500.267 85.6946C506.92 94.2997 494.215 115.128 472.364 132.057C450.514 148.986 427.39 155.735 420.737 147.055C419.182 145.068 412.96 138.412 413.335 135.3C414.591 125.045 431.456 113.834 448.247 100.824C463.857 88.7129 478.455 73.0026 488.686 75.121C494.964 76.4896 498.356 83.2387 500.267 85.6946Z" fill="#F7941E"/>
<path opacity="0.2" d="M488.686 75.196C496.294 77.7644 497.869 82.695 500.267 85.6946C502.666 88.6942 502.535 93.6998 500.267 99.3615C500.005 100.055 499.686 100.768 499.349 101.48C497.29 105.645 494.776 109.568 491.853 113.178C491.46 113.703 491.029 114.209 490.579 114.734C487.061 118.939 483.234 122.875 479.129 126.508L477.686 127.745C476 129.207 474.238 130.651 472.42 132.057C470.603 133.463 468.729 134.794 466.855 136.05C466.33 136.425 465.805 136.781 465.281 137.119C460.911 140.066 456.333 142.691 451.582 144.974L449.877 145.78C445.684 147.733 441.283 149.204 436.759 150.167C436.066 150.317 435.41 150.43 434.773 150.523C428.327 151.479 423.323 150.523 420.756 147.13C419.088 144.993 412.829 138.787 413.354 135.394C414.342 131.386 416.425 127.732 419.369 124.839L420.7 123.414C427.483 116.403 437.94 108.885 448.247 100.918C460.409 91.5438 474.051 79.9391 484.245 76.3021C484.859 76.0758 485.485 75.8818 486.119 75.721C486.961 75.4835 487.819 75.308 488.686 75.196Z" fill="black"/>
<g opacity="0.2">
<path d="M419.763 121.877L420.681 123.414L436.741 150.167C436.047 150.317 435.391 150.429 434.754 150.523L419.351 124.839L418.151 122.852L419.763 121.877Z" fill="black"/>
</g>
<g opacity="0.2">
<path d="M435.092 117.415L451.638 144.974L449.933 145.78L433.48 118.353L435.092 117.415Z" fill="black"/>
</g>
<g opacity="0.2">
<path d="M463.426 100.411L479.073 126.489L477.63 127.726L461.795 101.367L463.426 100.411Z" fill="black"/>
</g>
<g opacity="0.2">
<path d="M450.252 108.304L466.855 136.05C466.33 136.425 465.806 136.781 465.281 137.119L448.584 109.279L450.252 108.304Z" fill="black"/>
</g>
<g opacity="0.2">
<path d="M476.562 87.7754L491.797 113.178C491.404 113.703 490.973 114.209 490.523 114.734L474.95 88.7502L476.562 87.7754Z" fill="black"/>
</g>
<path d="M466.7 124.67C488.555 107.735 500.872 87.0327 494.211 78.4296C487.55 69.8265 464.434 76.5807 442.579 93.5156C420.725 110.45 408.408 131.153 415.069 139.756C421.73 148.359 444.846 141.605 466.7 124.67Z" fill="#F7941E"/>
<path opacity="0.2" d="M463.99 119.471C481.287 106.068 491.492 90.2717 486.783 84.1898C482.074 78.1079 464.235 84.043 446.938 97.4464C429.641 110.85 419.436 126.646 424.145 132.728C428.854 138.81 446.693 132.874 463.99 119.471Z" fill="white"/>
<path d="M409.793 45.3875C407.601 57.7233 380.016 62.9538 348.665 57.3671C317.314 51.7804 293.703 37.2699 295.914 24.934C296.42 22.0657 297.301 11.6046 300.224 9.54238C309.95 2.68082 332.55 8.3988 356.63 12.692C379.023 16.6852 403.722 17.0039 409.793 27.3712C413.485 33.6703 410.412 41.863 409.793 45.3875Z" fill="#F7941E"/>
<path opacity="0.2" d="M409.812 27.3711C413.56 35.8637 410.58 40.963 409.812 45.3874C409.044 49.8118 404.753 53.505 398.138 55.9422C397.35 56.2609 396.507 56.5234 395.626 56.7859C390.467 58.2382 385.163 59.1122 379.81 59.3918C379.061 59.3918 378.293 59.4292 377.505 59.5042C371.201 59.7456 364.886 59.5137 358.616 58.8106L356.424 58.5481C353.894 58.2294 351.289 57.8545 348.684 57.3858C346.079 56.9171 343.55 56.3922 341.057 55.811L338.94 55.3048C333.048 53.8446 327.267 51.9651 321.643 49.6806L319.657 48.8369C314.721 46.7481 310.038 44.1066 305.696 40.963C305.04 40.4943 304.44 40.0256 303.822 39.5382C298.032 34.7763 295.052 29.6958 295.895 24.9527C296.439 21.8781 296.888 11.717 300.205 9.56106C303.522 7.40511 308.207 6.58022 313.848 6.54272H316.096C327.34 6.91767 341.807 10.0485 356.592 12.6731C374.039 15.7852 394.427 18.5036 405.427 24.3903C406.073 24.7289 406.699 25.1044 407.301 25.5151C408.19 26.0608 409.03 26.6817 409.812 27.3711Z" fill="black"/>
<g opacity="0.2">
<path d="M316.696 4.63054L316.115 6.59902L305.696 40.9443C305.04 40.4756 304.44 40.007 303.822 39.5195L313.848 6.52402L314.616 3.97437L316.696 4.63054Z" fill="black"/>
</g>
<g opacity="0.2">
<path d="M332.381 14.2294L321.625 49.6245L319.638 48.7809L330.32 13.5544L332.381 14.2294Z" fill="black"/>
</g>
<g opacity="0.2">
<path d="M368.773 25.2526L358.597 58.7731L356.405 58.5106L366.693 24.6152L368.773 25.2526Z" fill="black"/>
</g>
<g opacity="0.2">
<path d="M351.851 20.1534L341.038 55.7736L338.921 55.2674L349.771 19.4785L351.851 20.1534Z" fill="black"/>
</g>
<g opacity="0.2">
<path d="M389.705 26.7526L379.792 59.3919C379.042 59.3919 378.274 59.4294 377.487 59.5044L387.643 26.1152L389.705 26.7526Z" fill="black"/>
</g>
<path d="M411.259 34.6187C413.453 22.2843 389.823 7.76193 358.481 2.18221C327.138 -3.39752 299.951 2.07828 297.757 14.4128C295.563 26.7473 319.193 41.2696 350.536 46.8493C381.879 52.429 409.065 46.9532 411.259 34.6187Z" fill="#F7941E"/>
<path opacity="0.2" d="M400.611 32.7179C402.162 24.0022 383.313 13.3575 358.512 8.9423C333.711 4.52714 312.349 8.01343 310.799 16.7291C309.248 25.4448 328.097 36.0895 352.898 40.5046C377.699 44.9198 399.061 41.4335 400.611 32.7179Z" fill="white"/>
<path d="M488.293 236.405L295.446 247.654C288.633 248.055 281.949 249.681 275.713 252.453L66.2439 346.19C62.5686 347.807 59.5588 350.636 57.7171 354.205C55.8754 357.774 55.3133 361.867 56.1246 365.8L90.7363 529.559C91.3214 532.196 92.5016 534.664 94.1865 536.775C95.8714 538.886 98.0164 540.583 100.458 541.737C102.899 542.891 105.571 543.472 108.271 543.434C110.971 543.397 113.626 542.742 116.034 541.52L322.786 438.259L513.704 431.866C516.053 431.803 518.362 431.241 520.477 430.216C522.592 429.19 524.464 427.726 525.969 425.921C527.475 424.115 528.578 422.009 529.206 419.744C529.835 417.478 529.973 415.105 529.613 412.781L504.071 255.978C502.741 247.879 496.594 236.162 488.293 236.405Z" fill="#F7941E"/>
<path opacity="0.1" d="M488.293 236.405L295.446 247.654C288.633 248.055 281.949 249.681 275.713 252.453L66.2439 346.19C62.5686 347.807 59.5588 350.636 57.7171 354.205C55.8754 357.774 55.3133 361.867 56.1246 365.8L90.7363 529.559C91.3214 532.196 92.5016 534.664 94.1865 536.775C95.8714 538.886 98.0164 540.583 100.458 541.737C102.899 542.891 105.571 543.472 108.271 543.434C110.971 543.397 113.626 542.742 116.034 541.52L322.786 438.259L513.704 431.866C516.053 431.803 518.362 431.241 520.477 430.216C522.592 429.19 524.464 427.726 525.969 425.921C527.475 424.115 528.578 422.009 529.206 419.744C529.835 417.478 529.973 415.105 529.613 412.781L504.071 255.978C502.741 247.879 496.594 236.162 488.293 236.405Z" fill="black"/>
<path d="M101.21 129.778L0.00634766 223.108L181.619 420.211L282.823 326.882L101.21 129.778Z" fill="#F7941E"/>
<path opacity="0.5" d="M282.797 326.899L181.604 420.224L0 223.132L66.4125 161.884L101.212 129.789L107.021 136.088L282.797 326.899Z" fill="#FAFAFA"/>
<path d="M101.86 141.828L12.561 224.179L182.438 408.546L271.737 326.195L101.86 141.828Z" stroke="#F7941E" stroke-miterlimit="10"/>
<path d="M162.242 297.014C172.485 287.569 171.189 269.494 159.349 256.643C147.508 243.792 129.606 241.032 119.363 250.478C109.121 259.924 110.416 277.999 122.257 290.849C134.097 303.7 152 306.46 162.242 297.014Z" fill="#F7941E"/>
<path opacity="0.1" d="M180.517 340.229L144.556 352.658L66.4126 161.884L101.212 129.789L107.021 136.088L180.517 340.229Z" fill="black"/>
<path d="M187.523 52.5586L58.1257 99.4966L149.464 351.511L278.862 304.573L187.523 52.5586Z" fill="#F7941E"/>
<path opacity="0.5" d="M187.523 52.5586L58.1257 99.4966L149.464 351.511L278.862 304.573L187.523 52.5586Z" fill="#FAFAFA"/>
<path d="M183.475 63.9229L69.2983 105.34L154.734 341.069L268.911 299.653L183.475 63.9229Z" stroke="#F7941E" stroke-miterlimit="10"/>
<path d="M179.207 230.382C192.303 225.632 198.092 208.461 192.137 192.03C186.182 175.6 170.738 166.131 157.642 170.882C144.546 175.632 138.757 192.803 144.712 209.234C150.667 225.664 166.111 235.133 179.207 230.382Z" fill="#F7941E"/>
<path d="M489.548 243.061L299.343 253.784C292.601 254.154 285.986 255.775 279.836 258.565L73.4397 351.777C69.8043 353.421 66.8384 356.257 65.0325 359.815C63.2266 363.374 62.6887 367.443 63.5079 371.349L98.1196 535.183C98.6771 537.804 99.8277 540.262 101.483 542.368C103.138 544.475 105.254 546.174 107.669 547.334C110.083 548.495 112.731 549.086 115.409 549.063C118.087 549.04 120.724 548.402 123.118 547.2L326.815 444.521L515.109 438.559C517.44 438.485 519.729 437.915 521.822 436.886C523.915 435.857 525.765 434.393 527.247 432.592C528.73 430.791 529.812 428.694 530.42 426.442C531.028 424.19 531.149 421.833 530.775 419.53L505.158 262.745C503.828 254.571 497.756 242.836 489.548 243.061Z" fill="#F7941E"/>
<path opacity="0.2" d="M307.083 282.468L470.284 272.4" stroke="black" stroke-width="2" stroke-linecap="round" stroke-linejoin="round"/>
<path opacity="0.2" d="M287.538 286.686L317.352 423.692" stroke="black" stroke-width="2" stroke-linecap="round" stroke-linejoin="round"/>
<path opacity="0.2" d="M88.7498 410.382L109.775 515.761C109.775 515.761 125.891 473.954 88.7498 410.382Z" fill="#FAFAFA"/>
<path opacity="0.2" d="M91.5046 411.619C92.2355 413.493 278.262 333.629 278.262 333.629C278.766 351.736 274.24 369.628 265.189 385.316C256.138 401.003 242.915 413.872 226.991 422.492C170.997 453.894 91.5046 411.619 91.5046 411.619Z" fill="#FAFAFA"/>
<path d="M215.091 414.731C219.541 414.731 223.149 411.122 223.149 406.67C223.149 402.217 219.541 398.608 215.091 398.608C210.641 398.608 207.033 402.217 207.033 406.67C207.033 411.122 210.641 414.731 215.091 414.731Z" fill="#F7941E"/>
<path opacity="0.2" d="M278.355 333.629C278.355 333.629 301.423 368.368 295.839 427.535Z" fill="black"/>
<g opacity="0.2">
<path d="M79.8486 368.987L84.14 367.094" stroke="#FAFAFA" stroke-linecap="round" stroke-linejoin="round"/>
<path d="M93.0413 363.157L266.756 286.33" stroke="#FAFAFA" stroke-linecap="round" stroke-linejoin="round" stroke-dasharray="5.2 5.2"/>
<path d="M271.216 284.361L275.507 282.468" stroke="#FAFAFA" stroke-linecap="round" stroke-linejoin="round"/>
</g>
<path opacity="0.2" d="M312.555 313.27L475.756 303.202" stroke="black" stroke-width="2" stroke-linecap="round" stroke-linejoin="round"/>
<path opacity="0.2" d="M319.901 351.665L483.102 341.616" stroke="black" stroke-width="2" stroke-linecap="round" stroke-linejoin="round"/>
</g>
<defs>
<clipPath id="clip0_522_10">
<rect width="531" height="549" fill="white"/>
</clipPath>
</defs>
</svg>
