<svg width="48" height="48" viewBox="0 0 48 48" fill="none" xmlns="http://www.w3.org/2000/svg">
<path d="M28.3286 32.4494C26.7346 33.4245 24.819 33.7978 22.9714 33.7978C17.7884 33.7978 14.2286 30.104 14.2286 24.9438C14.2286 18.6973 18.7737 13.9326 25.0714 13.9326C27.6107 13.9326 30.0956 14.5576 32.1857 16.0449C33.4229 16.9431 34.1031 18.4406 33.8143 19.9551L32.5 28.5C36.4113 30.5508 39.5 26.5 39.5 21.3933C39.5 14.1708 33.9714 8.45714 24.9857 8.45714C16 8.45714 8.5 16.1161 8.5 24.6292C8.5 32.0788 14.2286 39.5 22.7143 39.5C24.0695 39.5 25.3915 39.3635 26.7202 39.1876C27.5144 39.0825 28.3349 39.4402 28.5794 40.2031C29.0256 41.5951 28.842 43.0942 27.4286 44C26.4571 44.6592 24.7714 45 22.2 45C11.1275 45 3 35.6597 3 24.6292C3 12.276 13.0359 3 24.9857 3C35.2988 3 45 10.26 45 21.3933C45 28.2997 41.3602 34.0225 33.9857 34.0225C32.0148 34.0225 29.9905 33.5312 28.3286 32.4494ZM21.4714 24.8989C21.4714 26.6457 22.3361 28.0449 24.2143 28.0449C25.0429 28.0449 25.7571 27.8202 26.3571 27.3708L27 20.3596C26.4386 19.9916 25.6816 19.9101 25.0286 19.9101C24.0286 19.9101 23.1857 20.3446 22.5 21.2135C21.8143 22.0524 21.4714 23.2809 21.4714 24.8989Z" fill="#D7A1FF"/>
<path d="M28.3286 32.4494C26.7346 33.4245 24.819 33.7978 22.9714 33.7978C17.7884 33.7978 14.2286 30.104 14.2286 24.9438C14.2286 18.6973 18.7737 13.9326 25.0714 13.9326C27.6107 13.9326 30.0956 14.5576 32.1857 16.0449C33.4229 16.9431 34.1031 18.4406 33.8143 19.9551L32.5 28.5C36.4113 30.5508 39.5 26.5 39.5 21.3933C39.5 14.1708 33.9714 8.45714 24.9857 8.45714C16 8.45714 8.5 16.1161 8.5 24.6292C8.5 32.0788 14.2286 39.5 22.7143 39.5C24.0695 39.5 25.3915 39.3635 26.7202 39.1876C27.5144 39.0825 28.3349 39.4402 28.5794 40.2031C29.0256 41.5951 28.842 43.0942 27.4286 44C26.4571 44.6592 24.7714 45 22.2 45C11.1275 45 3 35.6597 3 24.6292C3 12.276 13.0359 3 24.9857 3C35.2988 3 45 10.26 45 21.3933C45 28.2997 41.3602 34.0225 33.9857 34.0225C32.0148 34.0225 29.9905 33.5312 28.3286 32.4494ZM21.4714 24.8989C21.4714 26.6457 22.3361 28.0449 24.2143 28.0449C25.0429 28.0449 25.7571 27.8202 26.3571 27.3708L27 20.3596C26.4386 19.9916 25.6816 19.9101 25.0286 19.9101C24.0286 19.9101 23.1857 20.3446 22.5 21.2135C21.8143 22.0524 21.4714 23.2809 21.4714 24.8989Z" stroke="#61298A" stroke-width="3" stroke-linejoin="round"/>
</svg>
