<svg width="379" height="281" viewBox="0 0 379 281" fill="none" xmlns="http://www.w3.org/2000/svg">
<g clip-path="url(#clip0_647_10)">
<path d="M364.99 140.17C361.6 113.17 353.12 87.1 342.99 68.41C318.52 23.5 250.35 -6.53997 198.99 1.23003C155.18 7.85003 134.13 47.82 94.63 61.69C58.29 74.45 25.57 84.3 8.44003 117.97C-27.85 189.09 60.86 266.84 136.89 260.78C160.89 258.86 182.33 249.63 206.96 253.96C256.96 262.75 273.56 272.2 317.72 254.62C361.23 237.29 370.92 187.4 364.99 140.17Z" fill="#FFD098"/>
<path d="M190.06 276.09L147.41 180.59H250.76L378.21 264.66" fill="white"/>
<path d="M190.06 276.09L147.41 180.59H250.76L378.21 264.66" stroke="#263238" stroke-width="0.75" stroke-linecap="round" stroke-linejoin="round"/>
<path d="M179.48 272.32L147.41 186.96V180.59L192.78 280.54L179.48 272.32Z" fill="#263238" stroke="#263238" stroke-width="0.75" stroke-linecap="round" stroke-linejoin="round"/>
<path d="M206.5 184.53L250.46 236.07L197.1 248.5L166.78 190.9L206.5 184.53Z" fill="white" stroke="#263238" stroke-width="0.75" stroke-linecap="round" stroke-linejoin="round"/>
<path d="M197.1 248.5V250.02L249.55 239.41L250.46 236.07L197.1 248.5Z" fill="#263238" stroke="#263238" stroke-width="0.75" stroke-linecap="round" stroke-linejoin="round"/>
<path d="M204.84 203.08L207.08 206.39L212.81 204.84L210.43 201.61L204.84 203.08Z" fill="#263238"/>
<path d="M226.49 223.39L223.77 219.7L217.27 221.46L219.81 225.22L226.49 223.39Z" fill="#263238"/>
<path d="M200.16 196.16L201.84 198.63L207.22 197.26L205.53 194.97L200.16 196.16Z" fill="#263238"/>
<path d="M210.53 211.49L213.61 216.05L219.9 214.45L216.5 209.85L210.53 211.49Z" fill="#263238"/>
<path d="M226.82 213.63L221.43 215L224.13 218.66L229.62 217.18L226.82 213.63Z" fill="#263238"/>
<path d="M214.16 216.85L216.73 220.66L223.19 218.92L220.48 215.24L214.16 216.85Z" fill="#263238"/>
<path d="M194.07 197.51L195.74 200.19L200.9 198.87L199.21 196.37L194.07 197.51Z" fill="#263238"/>
<path d="M207.62 207.19L209.99 210.7L215.92 209.06L213.39 205.63L207.62 207.19Z" fill="#263238"/>
<path d="M202.38 199.43L204.3 202.28L209.84 200.82L207.8 198.05L202.38 199.43Z" fill="#263238"/>
<path d="M190.74 205.86L189.06 202.82L182.93 204.38L184.64 207.47L190.74 205.86Z" fill="#263238"/>
<path d="M181.93 213.19L186.14 212.05L184.19 208.53L180.04 209.63L181.93 213.19Z" fill="#263238"/>
<path d="M192.25 194.57L193.57 196.69L198.66 195.56L197.29 193.54L192.25 194.57Z" fill="#263238"/>
<path d="M188.6 202L186.98 199.07L180.75 200.45L182.47 203.56L188.6 202Z" fill="#263238"/>
<path d="M186.21 195.8L187.45 198.04L192.63 196.9L191.3 194.76L186.21 195.8Z" fill="#263238"/>
<path d="M177.5 204.82L181.56 203.79L179.82 200.66L175.77 201.55L177.5 204.82Z" fill="#263238"/>
<path d="M178.99 197.28L180.29 199.62L186.52 198.25L185.27 195.99L178.99 197.28Z" fill="#263238"/>
<path d="M198.56 204.74L200.66 208.13L206.16 206.65L203.91 203.32L198.56 204.74Z" fill="#263238"/>
<path d="M212.68 216.29L209.61 211.75L203.88 213.33L206.66 217.82L212.68 216.29Z" fill="#263238"/>
<path d="M187.91 198.87L189.51 201.77L194.81 200.42L193.13 197.71L187.91 198.87Z" fill="#263238"/>
<path d="M189.11 217.4L184.79 218.59L187.03 222.82L191.48 221.68L189.11 217.4Z" fill="#263238"/>
<path d="M201.16 208.94L203.38 212.52L209.07 210.95L206.69 207.44L201.16 208.94Z" fill="#263238"/>
<path d="M197.14 204.17L195.31 201.23L189.97 202.59L191.65 205.62L197.14 204.17Z" fill="#263238"/>
<path d="M207.17 235.53L201.06 237.08L203.24 241.02L209.37 239.5L207.17 235.53Z" fill="#263238"/>
<path d="M197.71 192.52L202.94 191.46L200.13 187.64L194.98 188.49L197.71 192.52Z" fill="#263238"/>
<path d="M184.81 195.16L182.28 190.59L175.87 191.64L178.53 196.44L184.81 195.16Z" fill="#263238"/>
<path d="M193.12 210.17L191.19 206.68L185.1 208.29L187.05 211.81L193.12 210.17Z" fill="#263238"/>
<path d="M208.7 222.84L206.24 218.87L199.88 220.49L202.16 224.61L208.7 222.84Z" fill="#263238"/>
<path d="M205.74 218.06L202.96 213.58L196.97 215.23L199.42 219.66L205.74 218.06Z" fill="#263238"/>
<path d="M215.81 220.92L213.22 217.09L207.16 218.63L209.62 222.59L215.81 220.92Z" fill="#263238"/>
<path d="M199.74 208.38L197.64 204.98L192.1 206.44L194.03 209.92L199.74 208.38Z" fill="#263238"/>
<path d="M196.24 201L198.06 203.93L203.37 202.53L201.44 199.67L196.24 201Z" fill="#263238"/>
<path d="M202.46 212.77L200.24 209.19L194.48 210.74L196.52 214.41L202.46 212.77Z" fill="#263238"/>
<path d="M218.89 225.47L216.34 221.71L210.12 223.4L212.49 227.22L218.89 225.47Z" fill="#263238"/>
<path d="M214.78 232.65L212.07 228.28L205.23 230.15L207.63 234.47L214.78 232.65Z" fill="#263238"/>
<path d="M194.28 226.74L191.94 222.51L187.47 223.64L189.75 227.97L194.28 226.74Z" fill="#263238"/>
<path d="M186.6 212.87L182.37 214.02L184.35 217.77L188.65 216.58L186.6 212.87Z" fill="#263238"/>
<path d="M206.71 234.7L204.33 230.4L198.27 232.06L200.6 236.26L206.71 234.7Z" fill="#263238"/>
<path d="M195.61 214.66L193.58 210.99L187.5 212.63L189.56 216.33L195.61 214.66Z" fill="#263238"/>
<path d="M198.26 193.34L199.62 195.35L204.94 194.17L203.53 192.26L198.26 193.34Z" fill="#263238"/>
<path d="M175.33 200.72L179.36 199.83L178.06 197.47L174.04 198.29L175.33 200.72Z" fill="#263238"/>
<path d="M191.74 193.74L196.74 192.72L193.99 188.65L189.09 189.46L191.74 193.74Z" fill="#263238"/>
<path d="M185.75 194.97L190.79 193.94L188.12 189.62L183.23 190.43L185.75 194.97Z" fill="#263238"/>
<path d="M183.74 207.71L182.02 204.62L177.94 205.65L179.61 208.8L183.74 207.71Z" fill="#263238"/>
<path d="M203.92 191.25L208.43 190.33L205.6 186.74L201.13 187.47L203.92 191.25Z" fill="#263238"/>
<path d="M177.59 196.63L174.91 191.8L170.95 192.45L173.6 197.45L177.59 196.63Z" fill="#263238"/>
<path d="M200.15 237.32L195.35 238.54L197.43 242.46L202.33 241.25L200.15 237.32Z" fill="#263238"/>
<path d="M222.96 231.5L216.2 233.22L218.67 237.21L225.65 235.48L222.96 231.5Z" fill="#263238"/>
<path d="M215.28 233.46L208.08 235.29L210.29 239.28L217.74 237.44L215.28 233.46Z" fill="#263238"/>
<path d="M230.96 229.46L223.9 231.26L226.59 235.25L233.9 233.44L230.96 229.46Z" fill="#263238"/>
<path d="M237.91 227.69L231.91 229.22L234.85 233.21L241.06 231.67L237.91 227.69Z" fill="#263238"/>
<path d="M197.37 232.31L192.72 233.58L194.91 237.71L199.69 236.49L197.37 232.31Z" fill="#263238"/>
<path d="M211.57 227.48L209.2 223.65L202.62 225.43L204.78 229.34L211.57 227.48Z" fill="#263238"/>
<path d="M222.42 230.7L219.42 226.27L212.99 228.03L215.7 232.41L222.42 230.7Z" fill="#263238"/>
<path d="M203.88 229.58L201.71 225.67L195.64 227.31L197.82 231.24L203.88 229.58Z" fill="#263238"/>
<path d="M192.29 232.75L196.92 231.49L194.74 227.56L190.19 228.79L192.29 232.75Z" fill="#263238"/>
<path d="M198.51 219.9L196.07 215.48L190.01 217.15L192.39 221.45L198.51 219.9Z" fill="#263238"/>
<path d="M230.38 228.67L227.07 224.18L220.35 226.01L223.35 230.46L230.38 228.67Z" fill="#263238"/>
<path d="M201.26 224.85L198.97 220.72L192.85 222.27L195.19 226.5L201.26 224.85Z" fill="#263238"/>
<path d="M217.44 209.59L220.85 214.21L226.2 212.85L222.52 208.19L217.44 209.59Z" fill="#263238"/>
<path d="M210.79 200.57L215.53 199.32L213.4 196.63L208.76 197.81L210.79 200.57Z" fill="#263238"/>
<path d="M206.5 194.76L208.17 197.02L212.79 195.85L211.12 193.74L206.5 194.76Z" fill="#263238"/>
<path d="M237.29 226.91L233.71 222.36L228.01 223.92L231.33 228.43L237.29 226.91Z" fill="#263238"/>
<path d="M211.37 201.36L213.76 204.59L218.64 203.27L216.14 200.1L211.37 201.36Z" fill="#263238"/>
<path d="M224.71 219.45L227.43 223.13L233.09 221.58L230.23 217.95L224.71 219.45Z" fill="#263238"/>
<path d="M205.91 193.96L210.5 192.94L209.06 191.13L204.52 192.06L205.91 193.96Z" fill="#263238"/>
<path d="M216.86 208.8L221.91 207.41L219.26 204.05L214.34 205.38L216.86 208.8Z" fill="#263238"/>
<path d="M257.43 190.3V198.48C256.599 199.283 255.684 199.994 254.7 200.6C253.19 201.51 240.76 203.6 240.76 203.6L256.52 220.89C256.52 220.89 270.97 219.31 275.02 218.16C279.26 216.94 278.35 201.48 278.35 201.48L257.43 190.3Z" fill="white" stroke="#263238" stroke-width="0.75" stroke-linecap="round" stroke-linejoin="round"/>
<path d="M257.43 190.3V198.48C257.43 198.48 257.21 198.7 256.85 199.02L275.28 218.08C279.22 216.31 278.35 201.51 278.35 201.51L257.43 190.3Z" fill="#263238" stroke="#263238" stroke-width="0.75" stroke-linecap="round" stroke-linejoin="round"/>
<path d="M229.54 85.7V172.41L295.63 224.55V90.55L229.54 85.7Z" fill="white" stroke="#263238" stroke-width="0.75" stroke-linecap="round" stroke-linejoin="round"/>
<path d="M234.09 90.25V163.31L289.57 197.57V95.1L234.09 90.25Z" fill="#F7941E" stroke="#263238" stroke-width="0.75" stroke-linecap="round" stroke-linejoin="round"/>
<path d="M302.3 90.55H295.63V224.58H302.3V90.55Z" fill="#263238" stroke="#263238" stroke-width="0.75" stroke-linecap="round" stroke-linejoin="round"/>
<path d="M237.72 94.8L238.03 159.98L284.41 186.35V105.64L252.58 100.82L250.46 96.31L237.72 94.8Z" fill="white" stroke="#263238" stroke-width="0.75" stroke-linecap="round" stroke-linejoin="round"/>
<path d="M240.76 102.68V158.16L281.69 179.99V109.95L240.76 102.68Z" fill="#F7941E" stroke="#263238" stroke-width="0.75" stroke-linecap="round" stroke-linejoin="round"/>
<path d="M264.698 156.822C270.473 154.883 272.988 146.859 270.316 138.901C267.644 130.943 260.797 126.064 255.022 128.003C249.247 129.942 246.732 137.965 249.404 145.923C252.076 153.881 258.923 158.76 264.698 156.822Z" fill="#263238"/>
<path d="M261.07 143.33L264.96 139.02C265.222 138.636 265.357 138.179 265.344 137.713C265.332 137.248 265.173 136.799 264.89 136.43C264.31 135.6 263.4 135.43 262.89 136.02L259.15 140.17L255.4 134.17C254.86 133.3 253.95 133.03 253.4 133.57C253.11 133.928 252.945 134.371 252.931 134.831C252.917 135.292 253.053 135.744 253.32 136.12L257.21 142.37L253.25 146.66C252.988 147.044 252.854 147.502 252.868 147.968C252.883 148.433 253.044 148.882 253.33 149.25C253.558 149.612 253.916 149.873 254.33 149.98C254.51 150.024 254.699 150.018 254.875 149.962C255.052 149.905 255.209 149.801 255.33 149.66L259.08 145.51L262.82 151.51C263.05 151.918 263.43 152.219 263.88 152.35C264.053 152.404 264.237 152.411 264.413 152.368C264.589 152.326 264.751 152.237 264.88 152.11C265.167 151.75 265.329 151.307 265.341 150.847C265.354 150.387 265.217 149.935 264.95 149.56L261.07 143.33Z" fill="white"/>
<path d="M248.03 121.47L270.95 128.21" stroke="#263238" stroke-width="0.75" stroke-linecap="round" stroke-linejoin="round"/>
<path d="M247.12 115.11L276.83 123.4" stroke="#263238" stroke-width="0.75" stroke-linecap="round" stroke-linejoin="round"/>
<path d="M267.6 257.97C267.6 257.97 253.11 259.31 247.75 263.6C242.39 267.89 246.41 270.04 251.5 271.38C256.59 272.72 279.4 270.57 282.35 267.62C285.3 264.67 282.35 257.43 267.6 257.97Z" fill="white" stroke="#263238" stroke-width="0.75" stroke-linecap="round" stroke-linejoin="round"/>
<path d="M282.35 267.66C282.92 267.091 283.274 266.341 283.35 265.54C276.86 265.22 268.35 267.1 260.62 269.54C258.011 270.37 255.36 271.068 252.68 271.63C259.42 272.44 279.59 270.38 282.35 267.66Z" fill="#263238" stroke="#263238" stroke-width="0.75" stroke-linecap="round" stroke-linejoin="round"/>
<path d="M216.23 98.8201L226.82 104.32" stroke="#263238" stroke-linecap="round" stroke-linejoin="round"/>
<path d="M210.15 95.6599L213.3 97.2999" stroke="#263238" stroke-linecap="round" stroke-linejoin="round"/>
<path d="M218.56 126.58L222.15 126.99" stroke="#263238" stroke-linecap="round" stroke-linejoin="round"/>
<path d="M204.82 124.99L214.5 126.11" stroke="#263238" stroke-linecap="round" stroke-linejoin="round"/>
<path d="M220.82 152.32L208.82 155.66" stroke="#263238" stroke-linecap="round" stroke-linejoin="round"/>
<path d="M205.33 5.65991C199.654 5.65991 194.105 7.34314 189.385 10.4967C184.665 13.6503 180.987 18.1327 178.815 23.3769C176.642 28.6211 176.074 34.3917 177.181 39.959C178.289 45.5263 181.022 50.6401 185.036 54.6539C189.05 58.6676 194.164 61.4011 199.731 62.5085C205.298 63.6158 211.069 63.0475 216.313 60.8753C221.557 58.703 226.039 55.0245 229.193 50.3048C232.347 45.5851 234.03 40.0362 234.03 34.3599C234.03 26.7482 231.006 19.4482 225.624 14.0659C220.242 8.68365 212.942 5.65991 205.33 5.65991ZM205.33 57.4199C200.769 57.4179 196.312 56.0638 192.521 53.5287C188.73 50.9937 185.776 47.3915 184.032 43.1777C182.289 38.9638 181.833 34.3275 182.724 29.855C183.615 25.3825 185.812 21.2745 189.038 18.0505C192.263 14.8265 196.372 12.6312 200.845 11.7423C205.318 10.8533 209.954 11.3106 214.167 13.0562C218.38 14.8019 221.981 17.7575 224.514 21.5495C227.048 25.3415 228.4 29.7995 228.4 34.3599C228.405 37.3919 227.812 40.3952 226.655 43.1977C225.498 46.0002 223.799 48.5468 221.656 50.6917C219.513 52.8366 216.968 54.5376 214.166 55.6973C211.365 56.857 208.362 57.4525 205.33 57.4499V57.4199Z" fill="#263238"/>
<path d="M207.38 34.3899C207.39 34.7973 207.278 35.1985 207.059 35.5421C206.84 35.8857 206.523 36.1563 206.149 36.3191C205.776 36.482 205.362 36.5298 204.961 36.4564C204.56 36.383 204.19 36.1919 203.899 35.9073C203.607 35.6227 203.407 35.2575 203.323 34.8586C203.24 34.4596 203.278 34.0449 203.431 33.6674C203.585 33.2899 203.848 32.9667 204.186 32.7392C204.524 32.5116 204.922 32.39 205.33 32.3899C205.865 32.3897 206.379 32.5988 206.762 32.9725C207.145 33.3463 207.367 33.8549 207.38 34.3899Z" fill="#263238"/>
<path d="M198.45 44.7999L205.33 34.3899L216.94 43.9899" stroke="#263238" stroke-linecap="round" stroke-linejoin="round"/>
<path d="M53.0301 56.39L49.5801 46.96L51.4201 49.03V45.81L55.3301 51.79L51.8801 30.4L56.4801 42.13L56.9401 31.78L57.6301 35.23L58.5501 23.5L60.1601 41.44L62.4601 35.23L62.0001 43.28L68.2101 24.88L65.2201 47.88L69.5901 44.66L67.0601 48.8L70.2801 46.5L66.6001 57.08L53.2601 57.31" fill="#A3E169"/>
<path d="M67.7903 79.62H53.4103L49.5303 54.7H71.6603L67.7903 79.62Z" fill="#263238" stroke="#263238" stroke-linecap="round" stroke-linejoin="round"/>
<path d="M107.15 79.45H34.5601V272.56H107.15V79.45Z" fill="white" stroke="#263238" stroke-linecap="round" stroke-linejoin="round"/>
<path d="M102.22 85.79H38.79V132.3H102.22V85.79Z" stroke="#263238" stroke-linecap="round" stroke-linejoin="round"/>
<path d="M83.1898 104.82H57.8198V113.28H83.1898V104.82Z" fill="#263238"/>
<path d="M102.22 140.06H38.79V186.57H102.22V140.06Z" stroke="#263238" stroke-linecap="round" stroke-linejoin="round"/>
<path d="M83.1898 159.08H57.8198V167.54H83.1898V159.08Z" fill="#263238"/>
<path d="M102.22 194.32H38.79V240.83H102.22V194.32Z" stroke="#263238" stroke-linecap="round" stroke-linejoin="round"/>
<path d="M83.1898 213.35H57.8198V221.81H83.1898V213.35Z" fill="#263238"/>
<mask id="mask0_647_10" style="mask-type:luminance" maskUnits="userSpaceOnUse" x="-10" y="45" width="231" height="229">
<path d="M220.82 45.6599H-9.18018V273.66H220.82V45.6599Z" fill="white"/>
</mask>
<g mask="url(#mask0_647_10)">
<path d="M114.94 261.54C114.94 261.54 151.32 245.47 170.88 244.26L185.15 275.79H77.3701L114.94 261.54Z" fill="#263238" stroke="#263238" stroke-width="0.75" stroke-linecap="round" stroke-linejoin="round"/>
<path d="M159.22 71.5598C159.22 71.5598 184.83 101.98 190.22 107.56C195.61 113.14 195.81 117.19 194.07 119.69C192.33 122.19 179.25 126.82 165.77 135.48C152.29 144.14 113.97 166.48 113.59 167.26C113.21 168.04 109.54 140.26 109.54 140.26L173.66 113.88L173.47 111.95L152.67 73.4398L159.22 71.5598Z" fill="white"/>
<mask id="mask1_647_10" style="mask-type:luminance" maskUnits="userSpaceOnUse" x="109" y="71" width="87" height="97">
<path d="M159.22 71.5598C159.22 71.5598 184.83 101.98 190.22 107.56C195.61 113.14 195.81 117.19 194.07 119.69C192.33 122.19 179.25 126.82 165.77 135.48C152.29 144.14 113.97 166.48 113.59 167.26C113.21 168.04 109.54 140.26 109.54 140.26L173.66 113.88L173.47 111.95L152.67 73.4398L159.22 71.5598Z" fill="white"/>
</mask>
<g mask="url(#mask1_647_10)">
<path d="M183.87 116.46L154.15 73.0598L152.72 73.4798L173.52 111.99L173.71 113.92L109.59 140.3C109.59 140.3 109.66 140.78 109.76 141.59L113.94 151.18L183.87 116.46Z" fill="#FFD098"/>
<path opacity="0.5" d="M183.87 116.46L154.15 73.0598L152.72 73.4798L173.52 111.99L173.71 113.92L109.59 140.3C109.59 140.3 109.66 140.78 109.76 141.59L113.94 151.18L183.87 116.46Z" fill="white"/>
</g>
<path d="M159.22 71.5598C159.22 71.5598 184.83 101.98 190.22 107.56C195.61 113.14 195.81 117.19 194.07 119.69C192.33 122.19 179.25 126.82 165.77 135.48C152.29 144.14 113.97 166.48 113.59 167.26C113.21 168.04 109.54 140.26 109.54 140.26L173.66 113.88L173.47 111.95L152.67 73.4398L159.22 71.5598Z" stroke="#263238" stroke-width="0.75" stroke-linecap="round" stroke-linejoin="round"/>
<path d="M138.81 58.2698C138.81 58.2698 135.73 55.5698 134.19 58.2698C132.65 60.9698 132.46 65.3898 133.42 65.7798C134.38 66.1698 138.23 65.5898 138.81 64.4298C139.39 63.2698 138.81 58.2698 138.81 58.2698Z" fill="white" stroke="#263238" stroke-width="0.75" stroke-linecap="round" stroke-linejoin="round"/>
<path d="M144.2 56.9199C144.2 56.9199 140.93 53.4599 138.81 54.7999C136.69 56.1399 137.27 63.4699 138.04 64.0499C138.81 64.6299 143.43 63.0499 144.04 62.1199C144.65 61.1899 144.2 56.9199 144.2 56.9199Z" fill="white" stroke="#263238" stroke-width="0.75" stroke-linecap="round" stroke-linejoin="round"/>
<path d="M151.52 57.1099C151.52 57.1099 148.63 53.1099 145.94 53.1099C143.25 53.1099 141.31 62.7399 142.28 63.5099C143.25 64.2799 149.59 63.3199 149.98 62.7399C150.597 60.8932 151.112 59.0137 151.52 57.1099Z" fill="white" stroke="#263238" stroke-width="0.75" stroke-linecap="round" stroke-linejoin="round"/>
<path d="M157.15 63.6599C157.15 62.5099 156.58 52.4899 153.15 53.0699C149.72 53.6499 146.03 61.7399 146.22 63.0699C146.41 64.3999 157.15 63.6599 157.15 63.6599Z" fill="white" stroke="#263238" stroke-width="0.75" stroke-linecap="round" stroke-linejoin="round"/>
<path d="M173.66 113.92C173.66 113.92 183.48 117.58 187.14 117.38Z" fill="white"/>
<path d="M173.66 113.92C173.66 113.92 183.48 117.58 187.14 117.38" stroke="#263238" stroke-width="0.75" stroke-linecap="round" stroke-linejoin="round"/>
<path d="M92.9098 276.05C103.37 274.29 116.77 267.1 120.76 258.05C117.76 242.36 113.97 220.26 113.97 206.74C113.97 184.02 119.97 171.12 117.24 155.74C114.51 140.36 108.77 130.32 102.61 126.28C102.61 126.28 93.1798 128.78 83.5498 137.83C73.9198 146.88 65.4498 162.44 62.1498 177.27C58.8498 192.1 54.4498 237.73 54.4498 249.67C54.4498 261.61 53.5898 276.43 53.5898 276.43C65.1198 276.43 76.6498 276.43 88.1798 276.43C89.7647 276.445 91.3477 276.318 92.9098 276.05Z" fill="white"/>
<mask id="mask2_647_10" style="mask-type:luminance" maskUnits="userSpaceOnUse" x="53" y="126" width="68" height="151">
<path d="M92.9098 276.05C103.37 274.29 116.77 267.1 120.76 258.05C117.76 242.36 113.97 220.26 113.97 206.74C113.97 184.02 119.97 171.12 117.24 155.74C114.51 140.36 108.77 130.32 102.61 126.28C102.61 126.28 93.1798 128.78 83.5498 137.83C73.9198 146.88 65.4498 162.44 62.1498 177.27C58.8498 192.1 54.4498 237.73 54.4498 249.67C54.4498 261.61 53.5898 276.43 53.5898 276.43C65.1198 276.43 76.6498 276.43 88.1798 276.43C89.7647 276.445 91.3477 276.318 92.9098 276.05Z" fill="white"/>
</mask>
<g mask="url(#mask2_647_10)">
<path d="M120.76 258.04C114.9 263.04 88.5098 272.75 84.6598 273.61C80.8098 274.47 82.9498 266.33 88.9398 258.2C94.9298 250.07 81.6598 261.2 79.5198 262.05C77.3798 262.9 80.3798 246.21 80.3798 238.05C80.3798 229.89 88.0898 160.57 88.0898 160.57L102.64 134.02L107.64 131.02C106.243 129.163 104.555 127.546 102.64 126.23C102.64 126.23 93.2098 128.73 83.5798 137.78C73.9498 146.83 65.4498 162.44 62.1498 177.27C58.8498 192.1 54.4498 237.73 54.4498 249.67C54.4498 261.61 53.5898 276.43 53.5898 276.43C65.1198 276.43 76.6498 276.43 88.1798 276.43C89.7592 276.431 91.3355 276.29 92.8898 276.01C103.37 274.29 116.77 267.1 120.76 258.04Z" fill="#FFD098"/>
<path opacity="0.5" d="M120.76 258.04C114.9 263.04 88.5098 272.75 84.6598 273.61C80.8098 274.47 82.9498 266.33 88.9398 258.2C94.9298 250.07 81.6598 261.2 79.5198 262.05C77.3798 262.9 80.3798 246.21 80.3798 238.05C80.3798 229.89 88.0898 160.57 88.0898 160.57L102.64 134.02L107.64 131.02C106.243 129.163 104.555 127.546 102.64 126.23C102.64 126.23 93.2098 128.73 83.5798 137.78C73.9498 146.83 65.4498 162.44 62.1498 177.27C58.8498 192.1 54.4498 237.73 54.4498 249.67C54.4498 261.61 53.5898 276.43 53.5898 276.43C65.1198 276.43 76.6498 276.43 88.1798 276.43C89.7592 276.431 91.3355 276.29 92.8898 276.01C103.37 274.29 116.77 267.1 120.76 258.04Z" fill="white"/>
</g>
<path d="M92.9098 276.05C103.37 274.29 116.77 267.1 120.76 258.05C117.76 242.36 113.97 220.26 113.97 206.74C113.97 184.02 119.97 171.12 117.24 155.74C114.51 140.36 108.77 130.32 102.61 126.28C102.61 126.28 93.1798 128.78 83.5498 137.83C73.9198 146.88 65.4498 162.44 62.1498 177.27C58.8498 192.1 54.4498 237.73 54.4498 249.67C54.4498 261.61 53.5898 276.43 53.5898 276.43C65.1198 276.43 76.6498 276.43 88.1798 276.43C89.7647 276.445 91.3477 276.318 92.9098 276.05Z" stroke="#263238" stroke-width="0.75" stroke-linecap="round" stroke-linejoin="round"/>
<path d="M102.05 129.82L118.59 159.94L119.48 176.46C119.48 176.46 124.09 164.68 122.04 156.99C119.99 149.3 102.05 129.82 102.05 129.82Z" fill="#263238" stroke="#263238" stroke-width="0.75" stroke-linecap="round" stroke-linejoin="round"/>
<path d="M119.47 176.46L114.86 246.17L119.99 260.53L123.58 231.82L120.5 174.41L119.47 176.46Z" fill="#263238" stroke="#263238" stroke-width="0.75" stroke-linecap="round" stroke-linejoin="round"/>
<path d="M114.93 101.59C114.93 101.59 115.51 109.1 116.09 112.76C116.67 116.42 107.62 126.66 107.62 126.66L120.71 146.49L135.54 134.94C135.54 134.94 156.54 133.4 158.45 131.66C160.36 129.92 160.38 110.87 160.38 110.87L165.38 107.98C165.38 107.98 160.76 87.9798 159.61 83.5198L158.45 79.0998C158.45 79.0998 165.19 76.7798 163.65 70.0998C162.11 63.4198 152.29 60.0998 142.47 61.6198C132.65 63.1398 130.15 66.8198 130.15 66.8198C130.15 66.8198 116.28 66.6298 108.39 73.1798C100.5 79.7298 105.31 90.1198 107.81 93.7798C109.938 96.5972 112.321 99.2117 114.93 101.59Z" fill="white"/>
<mask id="mask3_647_10" style="mask-type:luminance" maskUnits="userSpaceOnUse" x="104" y="61" width="62" height="86">
<path d="M114.93 101.59C114.93 101.59 115.51 109.1 116.09 112.76C116.67 116.42 107.62 126.66 107.62 126.66L120.71 146.49L135.54 134.94C135.54 134.94 156.54 133.4 158.45 131.66C160.36 129.92 160.38 110.87 160.38 110.87L165.38 107.98C165.38 107.98 160.76 87.9798 159.61 83.5198L158.45 79.0998C158.45 79.0998 165.19 76.7798 163.65 70.0998C162.11 63.4198 152.29 60.0998 142.47 61.6198C132.65 63.1398 130.15 66.8198 130.15 66.8198C130.15 66.8198 116.28 66.6298 108.39 73.1798C100.5 79.7298 105.31 90.1198 107.81 93.7798C109.938 96.5972 112.321 99.2117 114.93 101.59Z" fill="white"/>
</mask>
<g mask="url(#mask3_647_10)">
<path d="M138.15 128.49C134.3 123.78 138.15 105.8 141.15 96.8098C144.15 87.8198 136.87 83.9698 136.87 83.9698L158.73 80.1998L158.43 79.0698C159.909 78.4921 161.224 77.5617 162.26 76.3598L163.44 69.4098C161.44 63.0898 151.97 60.0498 142.44 61.5398C132.62 63.0798 130.12 66.7398 130.12 66.7398C130.12 66.7398 116.25 66.5498 108.36 73.0998C100.47 79.6498 105.28 90.0398 107.78 93.6998C109.904 96.545 112.288 99.1864 114.9 101.59C114.9 101.59 115.48 109.1 116.06 112.76C116.64 116.42 107.62 126.66 107.62 126.66L120.71 146.49L135.54 134.94C135.54 134.94 151.54 133.76 156.9 132.31L158.45 131.66C158.45 131.66 142.02 133.2 138.15 128.49Z" fill="#FFD098"/>
<path opacity="0.5" d="M138.15 128.49C134.3 123.78 138.15 105.8 141.15 96.8098C144.15 87.8198 136.87 83.9698 136.87 83.9698L158.73 80.1998L158.43 79.0698C159.909 78.4921 161.224 77.5617 162.26 76.3598L163.44 69.4098C161.44 63.0898 151.97 60.0498 142.44 61.5398C132.62 63.0798 130.12 66.7398 130.12 66.7398C130.12 66.7398 116.25 66.5498 108.36 73.0998C100.47 79.6498 105.28 90.0398 107.78 93.6998C109.904 96.545 112.288 99.1864 114.9 101.59C114.9 101.59 115.48 109.1 116.06 112.76C116.64 116.42 107.62 126.66 107.62 126.66L120.71 146.49L135.54 134.94C135.54 134.94 151.54 133.76 156.9 132.31L158.45 131.66C158.45 131.66 142.02 133.2 138.15 128.49Z" fill="white"/>
<path d="M149.4 92.7399C149.4 92.7399 149.4 92.4399 149.4 91.9699C149.4 90.4799 149.65 87.2599 152.14 86.3799C155.41 85.2299 158.14 88.3099 158.14 88.3099L158.33 91.3899C157.86 90.8019 157.242 90.3494 156.539 90.0788C155.836 89.8082 155.074 89.7292 154.33 89.8499C152.417 90.2521 150.686 91.2666 149.4 92.7399Z" fill="#263238"/>
<path d="M154.99 98.8998C154.99 100.49 154.55 101.79 153.99 101.79C153.43 101.79 152.99 100.49 152.99 98.8998C152.99 97.3098 153.42 96.0098 153.99 96.0098C154.56 96.0098 154.99 97.2998 154.99 98.8998Z" fill="#263238"/>
<path d="M148.92 119.07C147.85 120.18 146.42 120.54 145.73 119.88C145.04 119.22 145.35 117.77 146.42 116.66C147.49 115.55 148.91 115.19 149.6 115.85C150.29 116.51 149.99 117.96 148.92 119.07Z" fill="#263238"/>
</g>
<path d="M114.93 101.59C114.93 101.59 115.51 109.1 116.09 112.76C116.67 116.42 107.62 126.66 107.62 126.66L120.71 146.49L135.54 134.94C135.54 134.94 156.54 133.4 158.45 131.66C160.36 129.92 160.38 110.87 160.38 110.87L165.38 107.98C165.38 107.98 160.76 87.9798 159.61 83.5198L158.45 79.0998C158.45 79.0998 165.19 76.7798 163.65 70.0998C162.11 63.4198 152.29 60.0998 142.47 61.6198C132.65 63.1398 130.15 66.8198 130.15 66.8198C130.15 66.8198 116.28 66.6298 108.39 73.1798C100.5 79.7298 105.31 90.1198 107.81 93.7798C109.938 96.5972 112.321 99.2117 114.93 101.59Z" stroke="#263238" stroke-width="0.75" stroke-linecap="round" stroke-linejoin="round"/>
<path d="M133.42 82.7198C136.89 80.4098 158.42 79.0698 158.42 79.0698C158.42 79.0698 165.16 76.7498 163.62 70.0698C162.08 63.3898 152.26 60.0698 142.44 61.5898C132.62 63.1098 130.12 66.7898 130.12 66.7898C130.12 66.7898 116.25 66.5998 108.36 73.1498C100.47 79.6998 105.28 90.0898 107.78 93.7498C109.903 96.5949 112.287 99.2363 114.9 101.64C114.9 101.64 115.22 105.76 115.62 109.39L121.62 111.08L128.17 107.61L134.72 106.07C134.72 106.07 129.9 102.41 132.6 98.9498C135.3 95.4898 140.3 94.3298 140.49 91.6298C140.68 88.9298 129.95 85.0298 133.42 82.7198Z" fill="#263238" stroke="#263238" stroke-width="0.75" stroke-linecap="round" stroke-linejoin="round"/>
<path d="M154.44 71.5299C154.44 71.5299 152.18 67.3899 156.32 68.1399C160.46 68.8899 160.46 76.0499 157.07 77.5499C153.68 79.0499 135.24 75.6699 125.07 78.6799C114.9 81.6899 107.76 89.9699 107.76 89.9699" stroke="white" stroke-miterlimit="10" stroke-linecap="round"/>
<path d="M113.41 96.3698C113.41 96.3698 121.32 89.5998 127.71 88.4698C134.1 87.3398 137.5 87.3398 130.35 91.4698C123.2 95.5998 128.09 94.8498 132.61 93.3498" stroke="white" stroke-miterlimit="10" stroke-linecap="round"/>
<path d="M129.95 111.22C129.95 111.22 128.8 99.0898 122.83 98.7098C116.86 98.3298 117.05 106.99 118.83 112.96C120.61 118.93 124.83 120.85 128.26 117.77" fill="#FFD098"/>
<mask id="mask4_647_10" style="mask-type:luminance" maskUnits="userSpaceOnUse" x="117" y="98" width="13" height="22">
<path d="M129.95 111.22C129.95 111.22 128.8 99.0898 122.83 98.7098C116.86 98.3298 117.05 106.99 118.83 112.96C120.61 118.93 124.83 120.85 128.26 117.77" fill="white"/>
</mask>
<g mask="url(#mask4_647_10)">
<g opacity="0.5">
<path d="M129.95 111.22C129.95 111.22 128.8 99.0898 122.83 98.7098C116.86 98.3298 117.05 106.99 118.83 112.96C120.61 118.93 124.83 120.85 128.26 117.77" fill="white"/>
<path d="M129.95 111.22C129.95 111.22 128.8 99.0898 122.83 98.7098C116.86 98.3298 117.05 106.99 118.83 112.96C120.61 118.93 124.83 120.85 128.26 117.77" stroke="#263238" stroke-width="0.75" stroke-linecap="round" stroke-linejoin="round"/>
</g>
</g>
<path d="M129.95 111.22C129.95 111.22 128.8 99.0898 122.83 98.7098C116.86 98.3298 117.05 106.99 118.83 112.96C120.61 118.93 124.83 120.85 128.26 117.77" stroke="#263238" stroke-width="0.75" stroke-linecap="round" stroke-linejoin="round"/>
<path d="M108.15 119.31L127.41 148.58L118.55 159.94C114.56 152.242 110.126 144.783 105.27 137.6C98.7202 128.36 97.9502 126.82 97.9502 126.82L108.15 119.31Z" fill="white"/>
<mask id="mask5_647_10" style="mask-type:luminance" maskUnits="userSpaceOnUse" x="97" y="119" width="31" height="41">
<path d="M108.15 119.31L127.41 148.58L118.55 159.94C114.56 152.242 110.126 144.783 105.27 137.6C98.7202 128.36 97.9502 126.82 97.9502 126.82L108.15 119.31Z" fill="white"/>
</mask>
<g mask="url(#mask5_647_10)">
<path d="M108.15 119.31L97.9502 126.82C97.9502 126.82 98.5202 127.95 102.72 133.98L113.5 127.44L108.15 119.31Z" fill="#FFD098"/>
<path opacity="0.5" d="M108.15 119.31L97.9502 126.82C97.9502 126.82 98.5202 127.95 102.72 133.98L113.5 127.44L108.15 119.31Z" fill="white"/>
</g>
<path d="M108.15 119.31L127.41 148.58L118.55 159.94C114.56 152.242 110.126 144.783 105.27 137.6C98.7202 128.36 97.9502 126.82 97.9502 126.82L108.15 119.31Z" stroke="#263238" stroke-width="0.75" stroke-linecap="round" stroke-linejoin="round"/>
<path d="M157.68 192.1C157.68 192.1 160.76 185.74 161.34 181.7C161.92 177.66 162.11 175.34 164.42 173.42C166.73 171.5 174.24 163.79 175.42 160.9C176.6 158.01 177.34 160.71 177.92 163.02C178.5 165.33 178.3 167.45 176.38 168.8C175.027 169.804 173.799 170.965 172.72 172.26L174.45 173.61C174.45 173.61 198.52 164.56 201.03 163.61C203.54 162.66 205.84 163.41 206.03 165.34C206.22 167.27 205.46 167.46 204.3 168.04C203.14 168.62 190.44 173.04 188.7 173.81L186.97 174.58L188.32 175.93C188.32 175.93 195.25 175.74 198.72 175.55C202.19 175.36 207.38 174.78 208.15 175.93C208.494 176.444 208.625 177.072 208.517 177.681C208.409 178.291 208.07 178.835 207.57 179.2C207.165 179.588 206.678 179.879 206.145 180.053C205.611 180.226 205.046 180.276 204.49 180.2C202.76 180.2 187.93 181.35 187.93 181.35L188.32 183.47C188.32 183.47 204.11 185.97 204.68 186.74C205.25 187.51 205.26 187.9 204.68 189.05C204.1 190.2 203.68 190.21 202.18 190.21C200.68 190.21 188.18 188.28 188.18 188.28C188.18 188.28 194.34 191.75 195.11 192.33C195.88 192.91 198.57 193.33 197.8 194.64C197.03 195.95 196.65 196.37 195.49 196.18C194.33 195.99 186.06 192.33 186.06 192.33C186.06 192.33 177.78 193.48 175.06 193.68C173.058 193.773 171.052 193.706 169.06 193.48L161.36 198.48L157.68 192.1Z" fill="white" stroke="#263238" stroke-width="0.75" stroke-linecap="round" stroke-linejoin="round"/>
<path d="M103 183.43C103 183.43 97.4098 160.13 95.0998 154.93C92.7898 149.73 79.6998 144.93 73.3398 156.28C66.9798 167.63 72.7598 180.54 75.0798 189.78C77.3998 199.02 92.0198 240.78 94.1398 246.01C96.2598 251.24 100.14 250.01 102.23 249.48C104.32 248.95 162.88 201.72 162.88 201.72L158.26 191.33L112.82 214.66L103 183.43Z" fill="white"/>
<mask id="mask6_647_10" style="mask-type:luminance" maskUnits="userSpaceOnUse" x="70" y="149" width="93" height="101">
<path d="M103 183.43C103 183.43 97.4098 160.13 95.0998 154.93C92.7898 149.73 79.6998 144.93 73.3398 156.28C66.9798 167.63 72.7598 180.54 75.0798 189.78C77.3998 199.02 92.0198 240.78 94.1398 246.01C96.2598 251.24 100.14 250.01 102.23 249.48C104.32 248.95 162.88 201.72 162.88 201.72L158.26 191.33L112.82 214.66L103 183.43Z" fill="white"/>
</mask>
<g mask="url(#mask6_647_10)">
<path d="M101.36 234.66C102.843 230.152 104.556 225.723 106.49 221.39C108.63 217.11 96.2198 231.24 93.6498 223.53C91.0798 215.82 74.8198 177.3 77.8098 164.46C79.1067 158.494 82.5973 153.233 87.5898 149.72C82.8198 148.59 76.9798 149.79 73.3398 156.29C66.9898 167.65 72.7598 180.55 75.0798 189.79C77.3998 199.03 92.0198 240.79 94.1398 246.02C96.2598 251.25 100.14 250.02 102.23 249.49C103.77 249.07 135.23 223.94 152.23 210.31L101.36 234.66Z" fill="#FFD098"/>
<path opacity="0.5" d="M101.36 234.66C102.843 230.152 104.556 225.723 106.49 221.39C108.63 217.11 96.2198 231.24 93.6498 223.53C91.0798 215.82 74.8198 177.3 77.8098 164.46C79.1067 158.494 82.5973 153.233 87.5898 149.72C82.8198 148.59 76.9798 149.79 73.3398 156.29C66.9898 167.65 72.7598 180.55 75.0798 189.79C77.3998 199.03 92.0198 240.79 94.1398 246.02C96.2598 251.25 100.14 250.02 102.23 249.49C103.77 249.07 135.23 223.94 152.23 210.31L101.36 234.66Z" fill="white"/>
</g>
<path d="M103 183.43C103 183.43 97.4098 160.13 95.0998 154.93C92.7898 149.73 79.6998 144.93 73.3398 156.28C66.9798 167.63 72.7598 180.54 75.0798 189.78C77.3998 199.02 92.0198 240.78 94.1398 246.01C96.2598 251.24 100.14 250.01 102.23 249.48C104.32 248.95 162.88 201.72 162.88 201.72L158.26 191.33L112.82 214.66L103 183.43Z" stroke="#263238" stroke-width="0.75" stroke-linecap="round" stroke-linejoin="round"/>
<path d="M151.52 195.17L156.72 205.76" stroke="#263238" stroke-width="0.75" stroke-linecap="round" stroke-linejoin="round"/>
<path d="M29.37 142.05L2.77002 160.5C2.77002 160.5 15.88 174.36 14.53 210.72C13.53 238.49 17.2 270.02 22.53 276.43H50.85C50.85 276.43 41.06 222.43 41.76 191.49C42.31 167.98 35.25 151.66 29.37 142.05Z" fill="white" stroke="#263238" stroke-width="0.75" stroke-linecap="round" stroke-linejoin="round"/>
<path d="M32.5702 142.05L5.97021 160.5C5.97021 160.5 19.0802 174.36 17.7202 210.72C16.7202 238.49 20.3902 270.02 25.7202 276.43H54.0502C54.0502 276.43 44.2702 222.43 44.9702 191.49C45.5002 167.98 38.4402 151.66 32.5702 142.05Z" fill="#263238" stroke="#263238" stroke-width="0.75" stroke-linecap="round" stroke-linejoin="round"/>
<path d="M29.37 142.05H32.56L5.97002 160.5H2.77002L29.37 142.05Z" fill="white" stroke="#263238" stroke-width="0.75" stroke-linecap="round" stroke-linejoin="round"/>
</g>
</g>
<defs>
<clipPath id="clip0_647_10">
<rect width="378.58" height="280.92" fill="white"/>
</clipPath>
</defs>
</svg>
