<svg width="681" height="493" viewBox="0 0 681 493" fill="none" xmlns="http://www.w3.org/2000/svg">
<path d="M632.697 397.48C648.365 361.922 650.675 321.368 647.045 282.105C643.788 247.338 638.867 207.429 625.121 176.065C590.255 96.5499 502.2 59.212 430.717 83.1514C400.902 93.2039 379.982 116.181 356.035 138.239C338.344 154.496 318.916 170.379 296.045 173.624C241.264 181.422 178.935 118.091 126.995 123.577C75.0541 129.063 34.4343 185.859 32.5834 234.815C30.7325 283.771 70.3622 333.804 66.5887 367.178C62.8151 400.553 38.251 489.532 135.532 492.878C232.813 496.224 283.806 429.475 321.585 443.922C359.364 458.369 442.483 500.662 512.416 489.532C558 482.352 602.58 454.822 627.575 408.178C629.392 404.665 631.1 401.098 632.697 397.48Z" fill="#FFD098"/>
<path d="M28.7246 492.206H643.694" stroke="#212121" stroke-linecap="round" stroke-linejoin="round"/>
<path d="M441.544 492.127L429.521 415.498L256.047 416.911L245.119 492.127H441.544Z" fill="white" stroke="#212121" stroke-linecap="round" stroke-linejoin="round"/>
<path d="M300.982 449.613C276.112 446.327 263.137 441.755 253.398 434.866L256 416.927L304.154 416.53L300.982 449.613Z" fill="#212121" stroke="#212121" stroke-linecap="round" stroke-linejoin="round"/>
<path d="M403.207 415.72L429.521 415.498L432.17 432.452C424.603 436.761 416.693 440.436 408.52 443.438L403.207 415.72Z" fill="#212121" stroke="#212121" stroke-linecap="round" stroke-linejoin="round"/>
<path d="M319.444 416.45L395.435 415.831L400.749 446.184C382.077 452.145 362.467 454.604 342.903 453.439C332.99 452.82 324.218 452.153 316.367 451.391L319.444 416.45Z" fill="#212121" stroke="#212121" stroke-linecap="round" stroke-linejoin="round"/>
<path d="M370.39 149.749L404.191 170.387C404.191 170.387 455.803 185.627 457.69 190.278C459.578 194.93 547.845 311.675 547.845 311.675C547.845 311.675 538.424 330.804 505.211 334.583C482.894 337.107 471.315 336.059 469.586 335.71C467.857 335.361 442.876 310.183 442.876 310.183C442.876 310.183 435.961 384.018 435.39 391.781C434.819 399.543 436.706 415.339 433.439 419.752C430.171 424.166 405.38 438.009 352.229 439.993C299.079 441.978 262.693 431.341 258.204 425.928C255.227 421.915 253.15 417.307 252.114 412.418C252.114 412.418 252.114 338.409 251.971 333.265C251.828 328.122 244.722 300.055 244.722 300.055C244.722 300.055 217.758 347.918 216.473 347.965C215.189 348.013 169.778 349.299 159.373 335.519C148.968 321.74 147.033 314.882 147.033 314.882C147.033 314.882 186.686 250.223 191.445 240.602C196.203 230.982 214.142 203.725 216.14 199.819C218.139 195.914 220.756 185.532 224.515 182.754C228.274 179.976 278.332 165.291 278.332 165.291C278.332 165.291 306.422 148.352 312.783 146.4C319.143 144.447 370.39 149.749 370.39 149.749Z" fill="#F7941E" stroke="#212121" stroke-linecap="round" stroke-linejoin="round"/>
<path d="M315.193 176.356C307.643 167.149 302.504 158.528 302.076 151.591C305.513 149.6 309.091 147.865 312.782 146.4C319.127 144.431 370.39 149.813 370.39 149.813L377.718 154.29C378.21 159.735 378.575 171.435 374.07 179.293C368.027 189.818 352.134 200.724 352.134 200.724L347.376 222.362L339.984 196.883C339.984 196.883 323.679 186.77 315.193 176.356Z" fill="#212121" stroke="#212121" stroke-linecap="round" stroke-linejoin="round"/>
<path d="M401.399 55.0388C401.399 55.0388 419.449 57.8328 416.975 64.5638C414.501 71.2949 378.194 67.7388 378.194 67.7388L378.638 55.0388C378.638 55.0388 397.719 53.9593 401.399 55.0388Z" fill="#787878" stroke="#212121" stroke-linecap="round" stroke-linejoin="round"/>
<path d="M396.498 54.0069L394.087 94.79C394.087 94.79 390.915 141.066 388.393 145.416C385.871 149.765 377.385 151.305 377.385 151.305C377.385 151.305 368.566 175.023 359.43 182.341C350.294 189.659 346.377 190.421 342.966 188.421C339.556 186.421 313.338 166.767 310.863 157.687C308.389 148.606 308.548 144.4 308.548 144.4L309.134 86.9795L305.677 67.6754C305.677 67.6754 337.954 52.9116 357.908 52.4194C370.791 52.1944 383.676 52.7245 396.498 54.0069Z" fill="white" stroke="#212121" stroke-linecap="round" stroke-linejoin="round"/>
<path d="M401.399 55.0388C401.399 55.0388 397.688 20.8598 393.897 16.7482C390.106 12.6365 369.915 0.333358 348.994 0.87311C328.073 1.41286 299.221 24.908 297.604 30.4484C295.986 35.9888 301.474 69.4057 301.474 69.4057L310.784 66.6276C310.784 66.6276 341.301 55.1658 359.478 54.4832C377.655 53.8006 390.725 53.0227 392.247 53.2608C393.77 53.4989 401.399 55.0388 401.399 55.0388Z" fill="#F7941E" stroke="#212121" stroke-linecap="round" stroke-linejoin="round"/>
<path d="M373.706 69.4375C379.324 67.5617 385.235 66.7226 391.153 66.961C400.273 67.5166 406.475 70.9298 405.935 72.7713C405.396 74.6128 405.555 86.7572 399.274 89.4242C392.993 92.0912 381.414 90.4085 378.94 89.2813C376.465 88.1542 374.578 78.1688 371.533 77.7084C368.487 77.248 366.505 81.2486 366.029 84.5982C365.553 87.9478 359.335 92.1388 352.658 92.3928C345.98 92.6468 338.383 91.7102 335.797 87.6303C333.945 84.3195 332.487 80.8031 331.451 77.1528L311.403 76.3908L310.943 72.1521L338.985 67.3896C344.92 66.2776 350.987 66.0529 356.988 66.7229C365.823 67.9135 367.678 68.7549 369.518 68.993C371.358 69.2311 373.706 69.4375 373.706 69.4375Z" fill="#212121" stroke="#212121" stroke-linecap="round" stroke-linejoin="round"/>
<path d="M317.335 79.7563C317.335 79.7563 310.308 62.0874 299.887 66.1355C289.467 70.1836 301.664 89.456 306.073 93.5358C309.24 96.1577 313.095 97.8111 317.176 98.2984" fill="white"/>
<path d="M317.335 79.7563C317.335 79.7563 310.308 62.0874 299.887 66.1355C289.467 70.1836 301.664 89.456 306.073 93.5358C309.24 96.1577 313.095 97.8111 317.176 98.2984" stroke="#212121" stroke-linecap="round" stroke-linejoin="round"/>
<path d="M401.399 55.0388C399.289 54.1498 393.389 55.7214 390.883 55.9754C386.965 56.3564 383.063 56.8009 379.177 57.3724C371.16 58.4881 363.292 60.4955 355.719 63.3573C341.761 68.8184 325.408 72.4855 310.8 66.6276C310.8 66.6276 323.076 54.3244 354.228 51.3399C385.379 48.3554 401.399 55.0388 401.399 55.0388Z" fill="#B2B2B2" stroke="#212121" stroke-linecap="round" stroke-linejoin="round"/>
<path d="M379.003 89.2813C379.003 89.2813 383.762 101.553 381.668 103.458C379.574 105.363 374.197 106.474 374.197 106.474L374.308 109.808" stroke="#212121" stroke-linecap="round" stroke-linejoin="round"/>
<path d="M378.495 116.031C378.495 116.031 363.142 119.333 355.18 117.507C350.736 116.656 346.701 114.35 343.712 110.951" stroke="#212121" stroke-linecap="round" stroke-linejoin="round"/>
<path d="M348.502 109.252L340.683 110.76" stroke="#212121" stroke-linecap="round" stroke-linejoin="round"/>
<path d="M373.737 151.131C373.737 151.131 357.686 151.734 353.419 151.591C348.838 151.317 344.534 149.308 341.38 145.971C338.525 142.796 332.197 135.684 332.197 135.684C332.197 135.684 340.127 153.305 349.248 161.767C354.272 166.609 360.201 170.412 366.695 172.959C366.695 172.959 375.609 159.56 377.417 151.305L373.737 151.131Z" fill="#212121" stroke="#212121" stroke-linecap="round" stroke-linejoin="round"/>
<path d="M356.829 31.8136C356.931 34.4218 357.718 36.9572 359.11 39.1644C360.502 41.3716 362.451 43.1728 364.76 44.3866C367.066 45.6087 369.654 46.2012 372.262 46.1046C374.87 46.008 377.407 45.2257 379.617 43.8364C381.827 42.4471 383.633 40.4998 384.852 38.1903C386.072 35.8809 386.662 33.2908 386.564 30.6804C386.466 28.0701 385.682 25.5317 384.293 23.3206C382.903 21.1094 380.957 19.3034 378.649 18.0843C376.34 16.8652 373.752 16.2759 371.144 16.3757C368.536 16.4756 366 17.2611 363.792 18.6532C361.577 20.0397 359.767 21.9866 358.544 24.2973C357.322 26.608 356.73 29.2007 356.829 31.8136Z" fill="white" stroke="#212121" stroke-linecap="round" stroke-linejoin="round"/>
<path d="M377.433 31.0357C377.504 33.03 377.977 34.9894 378.825 36.7955C379.673 38.6017 380.877 40.2173 382.366 41.545C383.756 40.1087 384.84 38.4056 385.555 36.5384C386.27 34.6711 386.599 32.6784 386.523 30.6803C386.448 28.6822 385.969 26.7201 385.115 24.9123C384.262 23.1045 383.051 21.4883 381.557 20.1613C380.176 21.6042 379.099 23.3106 378.39 25.1789C377.682 27.0471 377.356 29.0389 377.433 31.0357Z" stroke="#212121" stroke-linecap="round" stroke-linejoin="round"/>
<path d="M356.829 31.8136C356.931 34.4219 357.718 36.9572 359.11 39.1644C360.502 41.3716 362.451 43.1728 364.76 44.3867C366.969 42.9994 368.775 41.0538 369.995 38.7458C371.214 36.4379 371.805 33.8491 371.707 31.2401C371.609 28.6311 370.825 26.0939 369.436 23.8843C368.046 21.6746 366.1 19.8703 363.792 18.6532C361.577 20.0397 359.767 21.9866 358.544 24.2974C357.322 26.6081 356.73 29.2008 356.829 31.8136Z" stroke="#212121" stroke-linecap="round" stroke-linejoin="round"/>
<path d="M370.343 286.275C371.929 330.487 372.214 403.75 365.981 427.865" stroke="#212121" stroke-linecap="round" stroke-linejoin="round"/>
<path d="M395.149 193.898C393.851 198.469 391.536 202.686 388.377 206.233C381.846 212.347 374.72 217.793 367.107 222.489C367.107 222.489 368.788 246.381 370.01 277.623" stroke="#212121" stroke-linecap="round" stroke-linejoin="round"/>
<path d="M399.147 173.197C398.778 177.639 398.116 182.051 397.164 186.405" stroke="#212121" stroke-linecap="round" stroke-linejoin="round"/>
<path d="M334.687 425.229C334.274 431.833 334.052 434.754 334.052 434.754" stroke="#212121" stroke-linecap="round" stroke-linejoin="round"/>
<path d="M284.359 181.15C287.901 189.874 293.185 197.783 299.887 204.391C308.146 212.473 317.501 219.351 327.676 224.823C327.676 224.823 341.127 263.383 338.43 328.725C337.05 362.189 335.924 402.591 335.147 416.292" stroke="#212121" stroke-linecap="round" stroke-linejoin="round"/>
<path d="M281.14 171.625C281.55 173.322 282.047 174.996 282.631 176.642" stroke="#212121" stroke-linecap="round" stroke-linejoin="round"/>
<path d="M275.461 252.937C275.585 256.209 276.784 259.348 278.872 261.869C280.96 264.389 283.82 266.149 287.01 266.877C290.199 267.604 293.539 267.258 296.512 265.893C299.485 264.527 301.925 262.217 303.453 259.323C304.981 256.428 305.512 253.109 304.964 249.881C304.416 246.654 302.819 243.697 300.422 241.47C298.024 239.243 294.959 237.87 291.702 237.564C288.445 237.258 285.178 238.036 282.408 239.777C280.195 241.164 278.387 243.112 277.167 245.423C275.947 247.733 275.359 250.326 275.461 252.937Z" fill="white" stroke="#212121" stroke-linecap="round" stroke-linejoin="round"/>
<path d="M296.065 252.207C296.139 254.203 296.614 256.164 297.462 257.972C298.309 259.78 299.512 261.399 300.998 262.732C302.387 261.296 303.471 259.593 304.185 257.727C304.9 255.86 305.23 253.869 305.156 251.871C305.082 249.874 304.605 247.912 303.754 246.104C302.904 244.295 301.696 242.678 300.205 241.349C298.818 242.785 297.736 244.488 297.025 246.354C296.314 248.22 295.987 250.211 296.065 252.207Z" stroke="#212121" stroke-linecap="round" stroke-linejoin="round"/>
<path d="M275.461 252.937C275.559 255.549 276.344 258.088 277.736 260.299C279.129 262.509 281.08 264.312 283.392 265.526C285.597 264.134 287.398 262.186 288.614 259.877C289.83 257.568 290.419 254.981 290.321 252.373C290.223 249.765 289.442 247.228 288.056 245.018C286.67 242.807 284.728 241 282.424 239.777C280.212 241.166 278.403 243.113 277.181 245.423C275.959 247.734 275.366 250.325 275.461 252.937Z" stroke="#212121" stroke-linecap="round" stroke-linejoin="round"/>
<path d="M447.507 239.983C447.507 236.411 447.507 233.332 447.365 230.966Z" fill="white"/>
<path d="M447.507 239.983C447.507 236.411 447.507 233.332 447.365 230.966" stroke="#212121" stroke-linecap="round" stroke-linejoin="round"/>
<path d="M442.876 310.215C442.876 310.215 461.227 280.814 461.909 255.922" stroke="#212121" stroke-linecap="round" stroke-linejoin="round"/>
<path d="M236.665 249.572C235.65 247.111 234.714 244.92 233.921 243.222" stroke="#212121" stroke-linecap="round" stroke-linejoin="round"/>
<path d="M244.77 300.054C244.77 300.054 249.845 287.91 249.75 285.37C249.75 283.656 244.786 270.066 240.059 258.033" stroke="#212121" stroke-linecap="round" stroke-linejoin="round"/>
<path d="M159.437 335.488C169.271 348.537 210.542 348.077 215.934 347.95L241.312 400.258C241.312 400.258 271.448 416.323 273.431 418.514C275.414 420.705 293.083 449.883 293.147 451.852C293.173 452.285 293.11 452.718 292.962 453.125C292.814 453.533 292.585 453.906 292.288 454.221C291.99 454.536 291.632 454.787 291.234 454.959C290.836 455.13 290.407 455.218 289.974 455.217C288.388 455.217 285.914 450.455 284.883 448.867L277.301 437.152L272.971 433.738C272.971 433.738 281.774 452.55 282.837 455.106C283.899 457.662 285.724 462.79 284.153 464.139C282.583 465.489 279.03 465.631 278.634 464.028C277.487 461.09 276.19 458.213 274.748 455.408L264.533 442.168L260.235 438.501C260.235 438.501 269.323 455.963 270.735 458.869C272.146 461.774 274.319 468.14 273.066 469.156C271.813 470.172 269.894 471.235 268.546 469.664C267.198 468.092 263.994 460.742 263.296 459.472C262.598 458.202 252.415 445.93 252.415 445.93C252.415 445.93 258.474 460.631 260.203 463.488C261.932 466.346 264.025 470.473 262.122 471.521C261.394 471.799 260.617 471.928 259.838 471.901C259.059 471.874 258.293 471.691 257.586 471.362L251.447 462.488C251.447 462.488 243.517 451.376 242.581 450.82C241.645 450.264 225.625 439.453 222.85 434.358C220.074 429.262 210.748 405.624 210.748 405.624C210.748 405.624 173.49 371.318 163.862 347.997C161.467 342.187 159.532 337.409 157.978 333.503L159.437 335.488Z" fill="white" stroke="#212121" stroke-linecap="round" stroke-linejoin="round"/>
<path d="M273.066 433.802L267.991 427.833" stroke="#212121" stroke-linecap="round" stroke-linejoin="round"/>
<path d="M402.985 440.168C403.16 438.231 422.114 409.91 424.255 407.814C426.396 405.719 457.135 391.05 457.135 391.05L485.019 336.139C490.349 335.964 497.058 335.519 505.211 334.551C528.082 331.948 539.677 322.057 544.673 316.168C545.133 316.787 545.561 317.295 545.768 317.025C544.023 320.851 541.882 325.534 539.201 331.217C528.511 354.061 487.446 397.797 487.446 397.797C487.446 397.797 477.041 420.991 474.028 425.944C471.014 430.897 454.55 440.898 453.535 441.454C452.52 442.009 444.129 452.693 444.129 452.693L437.563 461.25C436.842 461.554 436.068 461.711 435.287 461.711C434.505 461.711 433.731 461.554 433.01 461.25C431.171 460.123 433.455 456.091 435.31 453.312C437.166 450.534 443.907 436.151 443.907 436.151C443.907 436.151 433.169 447.931 432.408 449.169C431.646 450.407 428.125 457.583 426.698 459.091C425.27 460.599 423.414 459.472 422.209 458.392C421.004 457.313 423.478 451.01 425.016 448.216C426.555 445.422 436.436 428.357 436.436 428.357L431.916 431.881L421.099 444.581C419.526 447.315 418.096 450.128 416.816 453.011C416.356 454.598 412.803 454.297 411.297 452.868C409.79 451.439 411.836 446.407 413.025 443.898C414.215 441.39 423.89 423.023 423.89 423.023L419.386 426.198L411.281 437.548C410.186 439.136 407.506 443.724 405.904 443.597C405.071 443.509 404.304 443.104 403.761 442.465C403.218 441.827 402.94 441.005 402.985 440.168Z" fill="white" stroke="#212121" stroke-linecap="round" stroke-linejoin="round"/>
<path d="M508.065 317.866C523.435 310.659 533.015 303.579 538.614 298.435L547.845 311.707C547.845 311.707 538.424 330.836 505.211 334.615C482.894 337.139 471.315 336.091 469.586 335.726C468.73 335.551 465.716 331.932 462.893 328.344C468.603 328.741 485.035 328.661 508.065 317.866Z" fill="#212121" stroke="#212121" stroke-linecap="round" stroke-linejoin="round"/>
<path d="M187.114 332.551C197.932 337.631 215.284 337.313 223.674 336.853C220.312 342.679 217.092 347.965 216.521 347.965C215.236 347.965 169.826 349.299 159.421 335.519C149.016 321.74 147.081 314.882 147.081 314.882C147.081 314.882 150.665 309.183 155.455 301.483C161.578 309.58 175.884 327.248 187.114 332.551Z" fill="#212121" stroke="#212121" stroke-linecap="round" stroke-linejoin="round"/>
</svg>
