<svg width="40" height="60" viewBox="0 0 40 60" fill="none" xmlns="http://www.w3.org/2000/svg">
<mask id="path-1-outside-1_85_201" maskUnits="userSpaceOnUse" x="0" y="5" width="41" height="49" fill="black">
<rect fill="white" y="5" width="41" height="49"/>
<path d="M29.4446 29.4C31.8846 29.92 33.8446 31.14 35.3246 33.06C36.8046 34.94 37.5446 37.1 37.5446 39.54C37.5446 43.06 36.3046 45.86 33.8246 47.94C31.3846 49.98 27.9646 51 23.5646 51H3.94461V8.88H22.9046C27.1846 8.88 30.5246 9.86 32.9246 11.82C35.3646 13.78 36.5846 16.44 36.5846 19.8C36.5846 22.28 35.9246 24.34 34.6046 25.98C33.3246 27.62 31.6046 28.76 29.4446 29.4ZM14.2046 25.92H20.9246C22.6046 25.92 23.8846 25.56 24.7646 24.84C25.6846 24.08 26.1446 22.98 26.1446 21.54C26.1446 20.1 25.6846 19 24.7646 18.24C23.8846 17.48 22.6046 17.1 20.9246 17.1H14.2046V25.92ZM21.7646 42.72C23.4846 42.72 24.8046 42.34 25.7246 41.58C26.6846 40.78 27.1646 39.64 27.1646 38.16C27.1646 36.68 26.6646 35.52 25.6646 34.68C24.7046 33.84 23.3646 33.42 21.6446 33.42H14.2046V42.72H21.7646Z"/>
</mask>
<path d="M29.4446 29.4C31.8846 29.92 33.8446 31.14 35.3246 33.06C36.8046 34.94 37.5446 37.1 37.5446 39.54C37.5446 43.06 36.3046 45.86 33.8246 47.94C31.3846 49.98 27.9646 51 23.5646 51H3.94461V8.88H22.9046C27.1846 8.88 30.5246 9.86 32.9246 11.82C35.3646 13.78 36.5846 16.44 36.5846 19.8C36.5846 22.28 35.9246 24.34 34.6046 25.98C33.3246 27.62 31.6046 28.76 29.4446 29.4ZM14.2046 25.92H20.9246C22.6046 25.92 23.8846 25.56 24.7646 24.84C25.6846 24.08 26.1446 22.98 26.1446 21.54C26.1446 20.1 25.6846 19 24.7646 18.24C23.8846 17.48 22.6046 17.1 20.9246 17.1H14.2046V25.92ZM21.7646 42.72C23.4846 42.72 24.8046 42.34 25.7246 41.58C26.6846 40.78 27.1646 39.64 27.1646 38.16C27.1646 36.68 26.6646 35.52 25.6646 34.68C24.7046 33.84 23.3646 33.42 21.6446 33.42H14.2046V42.72H21.7646Z" fill="#FFD098"/>
<path d="M29.4446 29.4L28.5923 26.5236C27.2768 26.9134 26.3933 28.146 26.4469 29.5171C26.5005 30.8881 27.4774 32.0481 28.8193 32.3341L29.4446 29.4ZM35.3246 33.06L32.9486 34.8915C32.9548 34.8996 32.9611 34.9077 32.9674 34.9157L35.3246 33.06ZM33.8246 47.94L35.7489 50.2416L35.7524 50.2386L33.8246 47.94ZM3.94461 51H0.94461C0.94461 52.6569 2.28776 54 3.94461 54V51ZM3.94461 8.88V5.88C2.28776 5.88 0.94461 7.22314 0.94461 8.88H3.94461ZM32.9246 11.82L31.027 14.1436C31.0333 14.1487 31.0396 14.1538 31.0459 14.1589L32.9246 11.82ZM34.6046 25.98L32.2676 24.099C32.2582 24.1106 32.2489 24.1224 32.2397 24.1342L34.6046 25.98ZM14.2046 25.92H11.2046C11.2046 27.5769 12.5478 28.92 14.2046 28.92V25.92ZM24.7646 24.84L26.6643 27.1619C26.668 27.1589 26.6716 27.1559 26.6753 27.1529L24.7646 24.84ZM24.7646 18.24L22.8037 20.5105C22.8203 20.5248 22.8371 20.5389 22.854 20.5529L24.7646 18.24ZM14.2046 17.1V14.1C12.5478 14.1 11.2046 15.4431 11.2046 17.1H14.2046ZM25.7246 41.58L27.6353 43.8929L27.6452 43.8847L25.7246 41.58ZM25.6646 34.68L23.6891 36.9377C23.7043 36.951 23.7196 36.9641 23.735 36.9771L25.6646 34.68ZM14.2046 33.42V30.42C12.5478 30.42 11.2046 31.7631 11.2046 33.42H14.2046ZM14.2046 42.72H11.2046C11.2046 44.3769 12.5478 45.72 14.2046 45.72V42.72ZM28.8193 32.3341C30.5856 32.7105 31.9166 33.5527 32.9486 34.8915L37.7006 31.2285C35.7727 28.7273 33.1836 27.1295 30.0699 26.4659L28.8193 32.3341ZM32.9674 34.9157C34.0222 36.2555 34.5446 37.7587 34.5446 39.54H40.5446C40.5446 36.4413 39.5871 33.6245 37.6818 31.2043L32.9674 34.9157ZM34.5446 39.54C34.5446 42.2611 33.6324 44.1857 31.8968 45.6414L35.7524 50.2386C38.9768 47.5343 40.5446 43.8589 40.5446 39.54H34.5446ZM31.9003 45.6384C30.1751 47.0809 27.5291 48 23.5646 48V54C28.4001 54 32.5942 52.8791 35.7489 50.2416L31.9003 45.6384ZM23.5646 48H3.94461V54H23.5646V48ZM6.94461 51V8.88H0.94461V51H6.94461ZM3.94461 11.88H22.9046V5.88H3.94461V11.88ZM22.9046 11.88C26.7543 11.88 29.3351 12.7619 31.027 14.1436L34.8222 9.4964C31.7141 6.95814 27.6149 5.88 22.9046 5.88V11.88ZM31.0459 14.1589C32.7192 15.503 33.5846 17.2725 33.5846 19.8H39.5846C39.5846 15.6075 38.01 12.057 34.8034 9.48114L31.0459 14.1589ZM33.5846 19.8C33.5846 21.7228 33.0851 23.0833 32.2676 24.099L36.9416 27.861C38.7641 25.5967 39.5846 22.8372 39.5846 19.8H33.5846ZM32.2397 24.1342C31.3765 25.2401 30.2054 26.0457 28.5923 26.5236L30.2969 32.2764C33.0038 31.4743 35.2727 29.9999 36.9696 27.8258L32.2397 24.1342ZM14.2046 28.92H20.9246V22.92H14.2046V28.92ZM20.9246 28.92C22.9775 28.92 25.0444 28.4872 26.6643 27.1619L22.8649 22.5181C22.7248 22.6327 22.2317 22.92 20.9246 22.92V28.92ZM26.6753 27.1529C28.4284 25.7047 29.1446 23.6708 29.1446 21.54H23.1446C23.1446 22.2892 22.9409 22.4553 22.854 22.5271L26.6753 27.1529ZM29.1446 21.54C29.1446 19.4092 28.4284 17.3753 26.6753 15.9271L22.854 20.5529C22.9409 20.6247 23.1446 20.7908 23.1446 21.54H29.1446ZM26.7255 15.9695C25.1022 14.5676 23.0102 14.1 20.9246 14.1V20.1C22.1991 20.1 22.667 20.3924 22.8037 20.5105L26.7255 15.9695ZM20.9246 14.1H14.2046V20.1H20.9246V14.1ZM11.2046 17.1V25.92H17.2046V17.1H11.2046ZM21.7646 45.72C23.8813 45.72 25.9842 45.2568 27.6353 43.8929L23.814 39.2671C23.625 39.4232 23.0879 39.72 21.7646 39.72V45.72ZM27.6452 43.8847C29.4175 42.4077 30.1646 40.3485 30.1646 38.16H24.1646C24.1646 38.9315 23.9517 39.1523 23.8041 39.2753L27.6452 43.8847ZM30.1646 38.16C30.1646 35.9262 29.368 33.8729 27.5942 32.3829L23.735 36.9771C23.9612 37.1671 24.1646 37.4338 24.1646 38.16H30.1646ZM27.6401 32.4223C25.9675 30.9588 23.8359 30.42 21.6446 30.42V36.42C22.8934 36.42 23.4417 36.7212 23.6891 36.9377L27.6401 32.4223ZM21.6446 30.42H14.2046V36.42H21.6446V30.42ZM11.2046 33.42V42.72H17.2046V33.42H11.2046ZM14.2046 45.72H21.7646V39.72H14.2046V45.72Z" fill="#F7941E" mask="url(#path-1-outside-1_85_201)"/>
</svg>
