<svg width="49" height="48" viewBox="0 0 49 48" fill="none" xmlns="http://www.w3.org/2000/svg">
<path d="M29.7989 15.0541L29.4308 5.73231C29.3764 4.35426 28.3865 3.19441 27.0119 3.08351C26.4081 3.0348 25.7141 3 24.9639 3C24.2135 3 23.5193 3.03482 22.9153 3.08355C21.5405 3.19446 20.5504 4.35443 20.496 5.73262L20.1283 15.0541C18.8346 15.086 17.7601 15.1295 16.8717 15.1777C14.8958 15.2849 14.0775 17.1674 15.3801 18.657C16.1504 19.5379 17.1453 20.6195 18.419 21.9176C20.6654 24.2072 22.3337 25.4864 23.4237 26.1887C24.383 26.8067 25.5459 26.8067 26.5051 26.1885C27.595 25.4862 29.2632 24.207 31.5099 21.9176C32.7843 20.6191 33.7795 19.5372 34.5499 18.6562C35.8522 17.1669 35.0339 15.2849 33.0584 15.1777C32.1694 15.1295 31.0939 15.086 29.7989 15.0541Z" fill="#D7A1FF"/>
<path d="M15.9972 30.7728C15.8527 29.7636 14.9721 29.0245 13.9532 29.0588C10.8879 29.1618 7.84465 29.2747 5.93765 29.347C4.84329 29.3884 3.99057 30.3006 4.04307 31.3945C4.17935 34.2337 4.52042 39.4593 5.27184 42.4434C5.6069 43.774 6.79848 44.5108 8.16705 44.6102C10.5652 44.7844 15.4539 44.9999 24.9645 44.9999C34.4751 44.9999 39.3638 44.7844 41.762 44.6102C43.1306 44.5108 44.3221 43.774 44.6572 42.4434C45.4086 39.4593 45.7497 34.2337 45.886 31.3945C45.9385 30.3006 45.0857 29.3884 43.9914 29.347C42.0844 29.2747 39.0411 29.1618 35.9759 29.0588C34.9569 29.0245 34.0764 29.7636 33.9318 30.7728L33.5904 33.1569C33.4493 34.1419 32.6056 34.8734 31.6106 34.8734H18.3185C17.3234 34.8734 16.4797 34.1419 16.3386 33.1569L15.9972 30.7728Z" fill="white"/>
<path d="M16.3386 33.1569L14.8538 33.3696L16.3386 33.1569ZM33.5904 33.1569L35.0752 33.3696L33.5904 33.1569ZM35.9759 29.0588L36.0263 27.5596L35.9759 29.0588ZM33.9318 30.7728L32.447 30.5601L33.9318 30.7728ZM41.762 44.6102L41.6533 43.1142L41.762 44.6102ZM44.6572 42.4434L46.1118 42.8096L44.6572 42.4434ZM5.27183 42.4434L6.72642 42.0771L5.27183 42.4434ZM8.16704 44.6102L8.27568 43.1142L8.16704 44.6102ZM13.9532 29.0588L14.0036 30.5579L13.9532 29.0588ZM15.9972 30.7728L17.4821 30.5601L15.9972 30.7728ZM45.886 31.3945L44.3877 31.3226L45.886 31.3945ZM43.9914 29.347L44.0482 27.848L43.9914 29.347ZM5.93764 29.347L5.88082 27.848L5.93764 29.347ZM4.04306 31.3945L2.54479 31.4664L4.04306 31.3945ZM5.99447 30.8459C7.90043 30.7736 10.9413 30.6609 14.0036 30.5579L13.9028 27.5596C10.8345 27.6628 7.78886 27.7757 5.88082 27.848L5.99447 30.8459ZM6.72642 42.0771C6.01794 39.2635 5.67904 34.1915 5.54134 31.3226L2.54479 31.4664C2.67964 34.2759 3.02288 39.655 3.81723 42.8096L6.72642 42.0771ZM24.9645 43.4999C15.4715 43.4999 10.6229 43.2846 8.27568 43.1142L8.05839 46.1063C10.5075 46.2842 15.4363 46.4999 24.9645 46.4999V43.4999ZM41.6533 43.1142C39.3061 43.2846 34.4575 43.4999 24.9645 43.4999V46.4999C34.4927 46.4999 39.4216 46.2842 41.8706 46.1063L41.6533 43.1142ZM44.3877 31.3226C44.25 34.1915 43.9111 39.2635 43.2026 42.0771L46.1118 42.8096C46.9061 39.655 47.2494 34.2759 47.3842 31.4664L44.3877 31.3226ZM35.9254 30.5579C38.9877 30.6609 42.0286 30.7736 43.9346 30.8459L44.0482 27.848C42.1402 27.7757 39.0946 27.6628 36.0263 27.5596L35.9254 30.5579ZM32.447 30.5601L32.1055 32.9443L35.0752 33.3696L35.4167 30.9854L32.447 30.5601ZM31.6106 33.3734H18.3185V36.3734H31.6106V33.3734ZM17.8235 32.9443L17.4821 30.5601L14.5124 30.9854L14.8538 33.3696L17.8235 32.9443ZM18.3185 33.3734C18.0697 33.3734 17.8588 33.1905 17.8235 32.9443L14.8538 33.3696C15.1007 35.0933 16.5771 36.3734 18.3185 36.3734V33.3734ZM32.1055 32.9443C32.0703 33.1905 31.8593 33.3734 31.6106 33.3734V36.3734C33.3519 36.3734 34.8284 35.0933 35.0752 33.3696L32.1055 32.9443ZM36.0263 27.5596C34.241 27.4996 32.6998 28.7945 32.447 30.5601L35.4167 30.9854C35.4529 30.7327 35.6729 30.5494 35.9254 30.5579L36.0263 27.5596ZM41.8706 46.1063C43.6755 45.9752 45.5729 44.9496 46.1118 42.8096L43.2026 42.0771C43.0713 42.5984 42.5856 43.0465 41.6533 43.1142L41.8706 46.1063ZM3.81723 42.8096C4.35608 44.9496 6.25355 45.9752 8.05839 46.1063L8.27568 43.1142C7.34338 43.0465 6.85769 42.5984 6.72642 42.0771L3.81723 42.8096ZM14.0036 30.5579C14.2562 30.5494 14.4762 30.7327 14.5124 30.9854L17.4821 30.5601C17.2292 28.7945 15.688 27.4996 13.9028 27.5596L14.0036 30.5579ZM47.3842 31.4664C47.4775 29.5229 45.96 27.9205 44.0482 27.848L43.9346 30.8459C44.2115 30.8564 44.3994 31.0783 44.3877 31.3226L47.3842 31.4664ZM5.88082 27.848C3.96904 27.9205 2.45151 29.5229 2.54479 31.4664L5.54134 31.3226C5.52961 31.0783 5.71753 30.8564 5.99447 30.8459L5.88082 27.848Z" fill="#61298A"/>
<path d="M29.7991 15.0541L29.4311 5.73231C29.3767 4.35426 28.3868 3.19441 27.0121 3.08351C26.4083 3.0348 25.7144 3 24.9641 3C24.2137 3 23.5196 3.03482 22.9155 3.08355C21.5407 3.19446 20.5506 4.35443 20.4963 5.73262L20.1285 15.0541C18.8348 15.086 17.7604 15.1295 16.872 15.1777C14.8961 15.2849 14.0777 17.1674 15.3803 18.657C16.1506 19.5379 17.1455 20.6195 18.4192 21.9176C20.6657 24.2072 22.3339 25.4864 23.4239 26.1887C24.3832 26.8067 25.5462 26.8067 26.5054 26.1885C27.5953 25.4862 29.2635 24.207 31.5102 21.9176C32.7845 20.6191 33.7797 19.5372 34.5501 18.6562C35.8525 17.1669 35.0342 15.2849 33.0587 15.1777C32.1696 15.1295 31.0942 15.086 29.7991 15.0541Z" stroke="#61298A" stroke-width="3" stroke-linecap="round" stroke-linejoin="round"/>
</svg>
