<svg width="585" height="579" viewBox="0 0 585 579" fill="none" xmlns="http://www.w3.org/2000/svg">
<g clip-path="url(#clip0_601_111)">
<path d="M529.548 115.852C525.571 109.189 521.182 102.78 516.408 96.664C477.526 46.9114 426.672 25.8664 368.615 11.7955C308.628 -2.80434 238.401 -7.39216 180.81 19.0032C167.288 25.1531 154.406 33.5046 144.179 44.7466C105.654 87.1194 92.4517 158.126 49.5263 214.238C6.60088 270.349 -14.321 340.163 24.2037 406.582C40.5036 434.687 61.2902 457.872 85.8875 478.216C116.176 503.27 142.298 537.058 177.295 556.614C214.086 577.167 263.072 584.326 303.772 574.953C350.225 564.216 377.466 521.523 412.917 492.397C440.858 469.434 474.294 454.416 501.681 430.738C543.648 394.454 575.436 336.153 570.138 278.356C564.975 222.257 558.3 163.932 529.548 115.852Z" fill="#FFD098"/>
<path d="M423.317 399.325C427.349 402.043 438.129 403.753 438.129 403.753C438.129 403.753 437.109 396.311 436.986 395.844C435.523 390.481 429.61 380.986 423.353 380.703C422.324 380.689 421.302 380.891 420.355 381.296C419.408 381.701 418.556 382.299 417.854 383.054C417.153 383.808 416.617 384.701 416.281 385.675C415.945 386.649 415.817 387.683 415.904 388.71C416.113 393.101 419.875 397 423.317 399.325Z" fill="#B0B0B0"/>
<path d="M454.859 534.216C454.859 534.462 454.859 534.708 454.859 534.954L458.547 537.291C458.547 536.283 458.547 535.25 458.547 534.192C458.547 531.203 458.4 528.042 458.264 524.733C461.333 524.088 464.362 523.266 467.336 522.273C469.856 526.234 477.17 531.67 478.092 532.359C476.506 534.819 474.945 537.279 473.433 539.493C472.401 541.043 471.393 542.523 470.409 543.933L474.466 544.671C475.142 543.65 475.818 542.605 476.519 541.51C478.129 539.05 479.813 536.271 481.509 533.466C482.616 533.909 491.675 537.537 496.26 537.353C500.403 537.181 505.627 535.803 508.123 532.199C508.737 531.37 509.17 530.42 509.394 529.413C509.618 528.405 509.629 527.361 509.425 526.35C509.221 525.338 508.807 524.38 508.21 523.538C507.613 522.696 506.846 521.988 505.959 521.462C500.514 518.46 490.471 523.43 486.426 527.23C486.193 527.464 483.882 530.182 482.444 531.929C483.132 530.773 483.808 529.666 484.497 528.46C485.886 526.111 487.201 523.725 488.627 521.154L490.569 517.329C491.245 516.099 491.798 514.648 492.437 513.295C493.827 510.121 495.08 506.849 496.273 503.455C498.338 504.685 505.726 508.854 509.856 509.309C513.986 509.765 519.346 509.199 522.37 506.013C523.101 505.286 523.671 504.413 524.045 503.452C524.418 502.491 524.586 501.461 524.537 500.431C524.488 499.401 524.224 498.392 523.762 497.47C523.3 496.548 522.65 495.734 521.853 495.079C516.936 491.278 506.242 494.673 501.669 497.821C501.386 498.018 498.362 500.638 496.752 502.114C497.453 500.109 498.166 498.104 498.805 496.05C500.661 490.134 502.358 484.07 504.078 478.031C504.607 476.186 505.148 474.341 505.689 472.508C506.426 472.951 515.093 478.117 519.727 478.658C523.845 479.126 529.217 478.56 532.241 475.362C532.972 474.635 533.542 473.762 533.916 472.801C534.289 471.839 534.457 470.81 534.408 469.78C534.359 468.75 534.095 467.741 533.633 466.819C533.171 465.897 532.521 465.083 531.724 464.428C526.807 460.639 516.113 464.022 511.54 467.17C511.196 467.404 506.844 471.192 505.787 472.213C507.016 468.154 508.246 464.132 509.573 460.209C511.394 454.905 513.553 449.725 516.039 444.699C516.383 444.908 525.406 450.332 530.151 450.849C534.269 451.304 539.641 450.75 542.665 447.552C543.396 446.825 543.966 445.953 544.34 444.991C544.713 444.03 544.881 443.001 544.832 441.97C544.783 440.94 544.519 439.931 544.057 439.009C543.595 438.087 542.945 437.273 542.148 436.618C537.231 432.817 526.537 436.212 521.964 439.361C521.608 439.607 516.936 443.678 516.137 444.477C516.285 444.194 516.408 443.875 516.555 443.592C519.191 438.621 522.264 433.896 525.738 429.472C527.619 427.012 529.561 424.748 531.503 422.596C533.076 423.826 540.341 429.115 544.57 430.062C548.799 431.009 554.011 430.997 557.354 428.155C558.16 427.513 558.823 426.709 559.299 425.795C559.776 424.88 560.055 423.876 560.12 422.847C560.185 421.818 560.034 420.787 559.676 419.82C559.318 418.853 558.762 417.972 558.043 417.233C553.568 412.916 542.579 415.118 537.698 417.738C537.428 417.885 534.884 419.632 533.052 420.935C533.937 419.976 534.847 418.968 535.707 418.07C538.977 414.687 542.161 411.784 545.012 409.238C546.647 407.799 548.147 406.545 549.573 405.376C551.724 405.721 560.415 407.037 564.521 405.954C568.626 404.872 573.347 402.437 575.006 398.365C575.426 397.423 575.643 396.403 575.645 395.372C575.646 394.34 575.432 393.32 575.015 392.376C574.598 391.433 573.988 390.588 573.224 389.895C572.46 389.202 571.56 388.677 570.581 388.353C564.619 386.595 555.83 393.605 552.757 398.193C552.486 398.587 548.958 405.266 549.069 405.29H549.204C547.815 406.385 546.34 407.578 544.754 408.906C541.841 411.366 538.608 414.232 535.228 417.516C531.581 421.063 528.146 424.821 524.939 428.77C521.327 433.171 518.115 437.884 515.338 442.854C515.338 442.854 515.277 442.989 515.24 443.038C515.609 441.255 516.469 436.224 516.469 435.843C516.752 430.296 514.011 419.41 508.246 417.196C507.27 416.859 506.235 416.731 505.207 416.819C504.179 416.907 503.181 417.211 502.277 417.709C501.373 418.207 500.584 418.89 499.961 419.713C499.337 420.536 498.893 421.48 498.657 422.485C497.527 426.729 499.887 431.599 502.345 434.871C505.222 438.561 514.195 443.272 514.908 443.641C512.211 448.772 509.858 454.076 507.865 459.52C506.635 462.693 505.59 465.916 504.533 469.163C504.804 467.613 505.025 466.223 505.025 466.014C505.32 460.479 502.567 449.594 496.801 447.38C495.826 447.043 494.791 446.914 493.763 447.003C492.735 447.091 491.736 447.394 490.833 447.893C489.929 448.391 489.14 449.074 488.517 449.897C487.893 450.719 487.449 451.664 487.213 452.669C486.082 456.912 488.442 461.783 490.962 465.055C493.482 468.327 501.116 472.545 503.132 473.665C502.739 474.895 502.333 476.125 501.903 477.416C500.047 483.418 498.215 489.421 496.26 495.251C495.572 497.305 494.81 499.297 494.06 501.302C494.294 499.925 494.466 498.756 494.478 498.584C494.761 493.037 492.02 482.152 486.254 479.938C485.279 479.6 484.244 479.472 483.216 479.56C482.188 479.649 481.189 479.952 480.286 480.45C479.382 480.949 478.593 481.631 477.97 482.454C477.346 483.277 476.902 484.221 476.666 485.226C475.535 489.47 477.895 494.341 480.354 497.612C482.812 500.884 489.868 504.845 492.327 506.075C491.491 508.092 490.667 510.133 489.77 512.052C489.119 513.356 488.602 514.66 487.877 515.927L485.849 519.715C484.472 522.064 483.058 524.512 481.657 526.775C480.698 528.362 479.752 529.85 478.793 531.351C479.506 529.321 480.821 525.299 480.895 524.955C481.721 520.14 481.298 515.193 479.666 510.589C479.786 510.06 479.852 509.52 479.862 508.977C479.917 507.947 479.755 506.917 479.386 505.953C479.018 504.989 478.452 504.113 477.725 503.382C476.997 502.65 476.125 502.08 475.163 501.707C474.202 501.334 473.173 501.167 472.143 501.216C465.996 501.708 460.305 511.4 459.026 516.8C458.953 517.12 458.522 520.674 458.289 522.95C458.227 521.609 458.178 520.318 458.105 518.94C457.957 516.21 457.736 513.491 457.502 510.564C457.342 509.162 457.183 507.735 457.023 506.296C456.863 504.857 456.568 503.381 456.347 501.905C455.757 498.498 455.007 495.066 454.159 491.635C456.556 491.499 465.013 490.909 468.725 489.015C472.438 487.121 476.58 483.677 477.33 479.359C477.538 478.349 477.532 477.306 477.313 476.299C477.094 475.291 476.665 474.34 476.056 473.508C475.447 472.676 474.67 471.98 473.776 471.467C472.882 470.954 471.89 470.634 470.864 470.528C464.718 470.073 457.625 478.794 455.548 483.947C455.412 484.267 454.318 488.129 453.79 490.257C453.274 488.203 452.757 486.137 452.167 484.107C450.446 478.142 448.48 472.152 446.623 466.162C446.046 464.329 445.492 462.472 444.927 460.676C445.775 460.676 455.855 460.147 459.998 458.019C463.685 456.125 467.865 452.694 468.602 448.376C468.812 447.366 468.809 446.323 468.591 445.314C468.373 444.306 467.946 443.354 467.338 442.521C466.73 441.687 465.954 440.991 465.06 440.476C464.166 439.961 463.174 439.64 462.149 439.533C456.003 439.09 448.91 447.811 446.832 452.952C446.673 453.345 445.136 458.905 444.804 460.332C443.575 456.297 442.346 452.263 441.35 448.241C439.936 442.814 438.88 437.3 438.191 431.735C438.584 431.735 449.106 431.267 453.36 429.078C457.047 427.196 461.215 423.752 461.964 419.435C462.175 418.424 462.17 417.38 461.952 416.37C461.733 415.361 461.305 414.409 460.696 413.575C460.087 412.742 459.309 412.045 458.414 411.531C457.518 411.017 456.525 410.697 455.499 410.591C449.352 410.149 442.26 418.869 440.182 424.01C440.022 424.416 438.363 430.406 438.142 431.501C438.142 431.181 438.031 430.849 437.994 430.529C437.451 424.931 437.41 419.296 437.871 413.691C438.08 410.591 438.461 407.639 438.891 404.774C440.858 404.884 449.869 405.327 453.901 403.79C457.932 402.252 462.296 399.349 463.526 395.18C463.845 394.199 463.955 393.162 463.849 392.136C463.742 391.11 463.422 390.117 462.909 389.222C462.396 388.328 461.701 387.551 460.869 386.941C460.038 386.332 459.087 385.904 458.08 385.684C451.934 384.553 444.005 392.449 441.374 397.332C441.239 397.603 440.084 400.469 439.272 402.56C439.481 401.33 439.678 399.94 439.912 398.71C440.76 394.085 441.829 389.903 442.8 386.213C443.366 384.11 443.931 382.228 444.472 380.469C446.464 379.571 454.441 375.869 457.269 372.696C460.096 369.522 462.677 364.898 461.817 360.593C461.648 359.575 461.268 358.604 460.702 357.742C460.135 356.88 459.394 356.147 458.526 355.589C457.658 355.032 456.684 354.663 455.665 354.505C454.646 354.348 453.605 354.406 452.61 354.677C446.673 356.497 443.243 367.173 443.157 372.72C443.157 373.2 443.907 380.715 444.005 380.678L444.128 380.617C443.575 382.302 442.997 384.11 442.407 386.102C441.35 389.792 440.194 393.95 439.248 398.574C438.158 403.546 437.361 408.577 436.863 413.642C436.274 419.306 436.191 425.011 436.617 430.689V430.898C435.929 429.213 433.851 424.552 433.655 424.22C430.827 419.435 422.592 411.846 416.519 413.211C415.519 413.468 414.584 413.931 413.774 414.572C412.964 415.213 412.298 416.017 411.818 416.931C411.338 417.846 411.056 418.851 410.989 419.882C410.922 420.913 411.072 421.947 411.43 422.916C412.819 427.073 417.453 429.853 421.387 431.181C425.812 432.669 435.892 431.649 436.691 431.563C437.276 437.33 438.237 443.054 439.567 448.696C440.33 451.992 441.202 455.289 442.112 458.536C441.473 457.097 440.883 455.818 440.784 455.645C437.969 450.861 429.721 443.272 423.649 444.637C422.656 444.896 421.727 445.359 420.923 445.997C420.119 446.635 419.457 447.434 418.979 448.343C418.501 449.252 418.218 450.25 418.148 451.275C418.078 452.299 418.222 453.327 418.572 454.292C419.961 458.45 424.595 461.23 428.529 462.558C432.462 463.886 441.116 463.198 443.403 462.976C443.759 464.206 444.116 465.498 444.484 466.752C446.242 472.791 448.037 478.794 449.598 484.747C450.164 486.838 450.631 488.929 451.11 491.007C450.532 489.777 450.053 488.658 449.955 488.547C447.14 483.775 438.891 476.248 432.819 477.551C431.821 477.809 430.889 478.274 430.082 478.914C429.274 479.555 428.61 480.357 428.132 481.271C427.653 482.184 427.372 483.187 427.305 484.216C427.237 485.245 427.386 486.276 427.742 487.244C429.131 491.413 433.765 494.193 437.687 495.521C441.608 496.85 449.451 496.222 452.155 495.976C452.585 498.129 453.003 500.281 453.323 502.372C453.507 503.824 453.778 505.189 453.888 506.653C453.999 508.116 454.146 509.519 454.282 510.921C454.429 513.651 454.601 516.468 454.675 519.137C454.749 520.982 454.786 522.753 454.822 524.537C454.294 522.433 453.163 518.387 453.04 518.03C450.975 512.876 443.968 504.131 437.76 504.562C436.734 504.665 435.741 504.982 434.845 505.493C433.948 506.004 433.169 506.698 432.558 507.529C431.946 508.36 431.515 509.31 431.293 510.318C431.072 511.326 431.064 512.369 431.27 513.381C432.02 517.698 436.187 521.154 439.875 523.061C443.931 525.152 453.655 525.693 454.872 525.742C454.859 528.645 454.884 531.511 454.859 534.216Z" fill="#B0B0B0"/>
<path d="M531.417 421.501C531.491 421.575 534.662 414.724 534.81 414.269C536.555 408.992 536.813 397.787 531.798 394.122C530.947 393.541 529.984 393.144 528.971 392.958C527.957 392.772 526.916 392.8 525.914 393.041C524.913 393.282 523.972 393.73 523.154 394.357C522.336 394.984 521.659 395.775 521.165 396.68C518.94 400.469 519.936 405.794 521.497 409.62C523.365 414.109 531.405 421.489 531.417 421.501Z" fill="#B0B0B0"/>
<path d="M149.095 402.314C145.15 404.983 134.59 406.655 134.59 406.668C134.59 406.68 135.586 399.362 135.709 398.919C137.135 393.667 142.974 384.368 149.059 384.085C150.07 384.066 151.073 384.259 152.005 384.654C152.936 385.049 153.773 385.636 154.462 386.376C155.151 387.117 155.676 387.994 156.003 388.952C156.331 389.909 156.452 390.925 156.36 391.933C156.127 396.225 152.464 400.05 149.095 402.314Z" fill="#B0B0B0"/>
<path d="M118.204 534.426V535.151L114.517 537.439C114.517 536.455 114.517 535.447 114.517 534.413C114.517 531.486 114.652 528.362 114.787 525.139C111.781 524.53 108.814 523.745 105.9 522.79C103.441 526.664 96.2869 531.99 95.365 532.63C96.9138 535.09 98.4381 537.414 99.9255 539.616C100.933 541.129 101.929 542.568 102.888 543.958L98.9052 544.684L96.9015 541.584C95.3281 539.124 93.6809 536.455 91.9845 533.7C90.9028 534.143 82.0276 537.697 77.5532 537.513C73.4966 537.341 68.3829 536 65.9367 532.47C65.3462 531.648 64.9353 530.711 64.7307 529.72C64.5262 528.729 64.5325 527.706 64.7493 526.717C64.9662 525.728 65.3887 524.797 65.9893 523.982C66.59 523.168 67.3553 522.489 68.2354 521.991C73.5581 519.051 83.3921 523.922 87.3503 527.648C87.5961 527.858 89.8088 530.527 91.2593 532.236C90.5832 531.105 89.9194 530.022 89.2433 528.854C87.8911 526.541 86.6004 524.205 85.2114 521.695L83.306 517.944C82.6422 516.714 82.0768 515.312 81.4744 513.983C80.11 510.884 78.8807 507.674 77.713 504.414C75.697 505.644 68.469 509.703 64.4125 510.146C60.3559 510.589 55.1193 510.047 52.12 506.923C51.4045 506.213 50.8459 505.36 50.4804 504.42C50.1148 503.481 49.9505 502.474 49.998 501.467C50.0455 500.46 50.3038 499.473 50.7561 498.572C51.2085 497.671 51.8448 496.875 52.624 496.235C57.4426 492.545 67.9035 495.841 72.378 498.916C72.6607 499.113 75.6232 501.684 77.2212 503.123C76.5329 501.167 75.8445 499.199 75.2053 497.194C73.386 491.389 71.7265 485.46 70.0424 479.544C69.5262 477.736 68.9976 475.928 68.469 474.132C67.756 474.563 59.2619 479.618 54.726 480.122C50.6817 480.565 45.4206 480.024 42.4335 476.9C41.7139 476.189 41.1518 475.335 40.7839 474.392C40.416 473.45 40.2504 472.441 40.2979 471.431C40.3454 470.42 40.605 469.431 41.0598 468.527C41.5146 467.624 42.1543 466.826 42.9375 466.186C47.7561 462.496 58.2171 465.781 62.7038 468.868C63.0357 469.101 67.3012 472.804 68.3338 473.788C67.1045 469.827 65.9736 465.879 64.646 462.041C62.8613 456.846 60.7426 451.772 58.3031 446.851C57.9712 447.048 49.1329 452.361 44.4863 452.878C40.4544 453.333 35.1932 452.78 32.1938 449.656C31.4749 448.944 30.9138 448.089 30.5469 447.146C30.18 446.204 30.0155 445.194 30.0642 444.184C30.1129 443.173 30.3737 442.184 30.8295 441.281C31.2854 440.378 31.9262 439.581 32.7101 438.942C37.5288 435.252 47.9897 438.549 52.4642 441.624C52.8206 441.87 57.3812 445.867 58.1802 446.642C58.0327 446.359 57.922 446.052 57.7745 445.769C55.1891 440.904 52.1779 436.277 48.7764 431.944C46.9325 429.484 45.0887 427.319 43.1342 425.216C41.5853 426.372 34.4679 431.587 30.3377 432.522C26.2074 433.457 21.0814 433.432 17.7993 430.652C17.0073 430.024 16.3562 429.237 15.8884 428.34C15.4205 427.444 15.1464 426.459 15.0838 425.45C15.0212 424.441 15.1715 423.43 15.525 422.482C15.8785 421.535 16.4272 420.673 17.1355 419.952C21.5116 415.733 32.2799 417.885 37.0617 420.456C37.3198 420.591 39.8152 422.301 41.6099 423.58C40.7371 422.645 39.8521 421.661 39.0039 420.776C35.8078 417.467 32.6855 414.626 29.8951 412.166C28.2971 410.764 26.822 409.521 25.433 408.377C23.3186 408.722 14.7999 410.013 10.7803 408.956C6.76065 407.898 2.17555 405.499 0.516061 401.576C0.0981309 400.651 -0.12028 399.649 -0.124924 398.634C-0.129569 397.619 0.0796572 396.614 0.489106 395.686C0.898555 394.757 1.49903 393.926 2.25135 393.245C3.00368 392.564 3.89096 392.05 4.85531 391.736C10.682 390.002 19.2498 396.877 22.323 401.367C22.5811 401.76 26.0107 408.304 25.9247 408.316H25.7894C27.1539 409.386 28.5921 410.554 30.1533 411.871C33.0051 414.331 36.2012 417.086 39.471 420.345C43.0495 423.83 46.4155 427.526 49.5508 431.415C53.094 435.725 56.2452 440.344 58.9669 445.215C58.9904 445.279 59.0192 445.341 59.0529 445.4C58.6965 443.641 57.8852 438.721 57.8237 438.34C57.541 432.903 60.1961 422.252 65.8876 420.087C66.8418 419.753 67.8556 419.625 68.8629 419.71C69.8701 419.795 70.8481 420.091 71.7331 420.58C72.6181 421.068 73.3903 421.738 73.9991 422.545C74.608 423.353 75.0399 424.279 75.2667 425.265C76.3854 429.41 74.0375 434.182 71.579 437.393C68.764 441.009 59.9749 445.621 59.2865 446.002C61.9363 451.028 64.2443 456.226 66.1949 461.562C67.3504 464.661 68.4198 467.822 69.4524 470.996C69.1942 469.483 68.973 468.118 68.973 467.921C68.6903 462.496 71.3331 451.833 77.0246 449.668C77.9796 449.334 78.9942 449.206 80.0022 449.291C81.0102 449.375 81.9891 449.672 82.875 450.16C83.761 450.649 84.5342 451.318 85.1443 452.126C85.7544 452.933 86.1877 453.86 86.416 454.846C87.5224 458.991 85.2483 463.776 82.7283 466.974C80.2083 470.172 72.7837 474.353 70.8046 475.362C71.1856 476.592 71.579 477.822 71.9601 479.052C73.7794 484.944 75.5618 490.811 77.4917 496.53C78.1678 498.535 78.9053 500.491 79.6429 502.458C79.4216 501.106 79.2372 499.999 79.2249 499.789C78.9545 494.353 81.5974 483.701 87.2888 481.537C88.2431 481.203 89.2569 481.075 90.2641 481.159C91.2713 481.244 92.2493 481.541 93.1343 482.029C94.0194 482.518 94.7915 483.188 95.4004 483.995C96.0092 484.802 96.4412 485.729 96.668 486.715C97.7866 490.86 95.5002 495.632 92.9802 498.842C90.4603 502.053 83.7609 505.779 81.413 507.034C82.2243 509.027 83.0356 511.007 83.8715 512.901C84.4984 514.131 85.0147 515.447 85.7154 516.689C86.416 517.932 87.0429 519.149 87.7067 520.379C89.0589 522.692 90.4357 525.09 91.8124 527.304C92.7467 528.854 93.6809 530.318 94.6151 531.793C94.1234 529.666 92.8204 525.754 92.8204 525.385C92.0176 520.667 92.4409 515.822 94.0497 511.314C93.9384 510.792 93.8767 510.261 93.8653 509.728C93.8086 508.718 93.9651 507.708 94.3247 506.764C94.6842 505.819 95.2387 504.96 95.9519 504.244C96.6652 503.528 97.5213 502.971 98.4643 502.608C99.4074 502.245 100.416 502.085 101.425 502.139C107.498 502.618 113.017 512.114 114.259 517.403C114.332 517.723 114.763 521.191 114.984 523.393C115.058 522.077 115.094 520.81 115.18 519.457C115.316 516.788 115.537 514.119 115.758 511.253C115.922 509.875 116.082 508.485 116.238 507.083C116.361 505.681 116.68 504.217 116.889 502.778C117.467 499.433 118.204 496.075 119.028 492.717C116.692 492.582 108.407 492.016 104.769 490.146C101.13 488.277 97.0736 484.931 96.3361 480.7C96.1351 479.713 96.1431 478.695 96.3594 477.712C96.5758 476.728 96.9957 475.801 97.5922 474.99C98.1887 474.179 98.9484 473.501 99.8224 473.002C100.696 472.503 101.665 472.192 102.667 472.09C108.727 471.648 115.623 480.196 117.664 485.239C117.786 485.546 118.893 489.335 119.385 491.389C119.901 489.359 120.393 487.342 120.983 485.325C122.667 479.47 124.547 473.615 126.404 467.748C126.969 465.953 127.51 464.157 128.063 462.361C127.239 462.361 117.369 461.857 113.312 459.778C109.698 457.921 105.617 454.551 104.879 450.32C104.678 449.334 104.686 448.317 104.902 447.334C105.117 446.351 105.536 445.424 106.131 444.613C106.726 443.802 107.485 443.125 108.357 442.625C109.23 442.125 110.197 441.813 111.198 441.71C117.27 441.279 124.166 449.815 126.207 454.858C126.354 455.24 127.866 460.688 128.186 462.091C129.415 458.13 130.571 454.182 131.579 450.246C132.938 444.905 133.952 439.482 134.615 434.01C134.222 434.01 123.92 433.555 119.753 431.415C116.152 429.57 112.058 426.2 111.321 421.969C111.12 420.982 111.128 419.964 111.344 418.98C111.56 417.997 111.98 417.07 112.577 416.258C113.173 415.447 113.933 414.77 114.807 414.271C115.681 413.771 116.65 413.461 117.651 413.359C123.724 412.916 130.62 421.464 132.648 426.507C132.808 426.901 134.431 432.756 134.652 433.887C134.652 433.58 134.762 433.248 134.787 432.94C135.318 427.453 135.359 421.929 134.91 416.434C134.701 413.396 134.332 410.518 133.914 407.713C131.984 407.824 123.171 408.242 119.163 406.742C115.156 405.241 110.94 402.4 109.735 398.267C109.421 397.305 109.313 396.289 109.418 395.283C109.522 394.277 109.836 393.304 110.341 392.427C110.845 391.55 111.527 390.79 112.344 390.194C113.161 389.598 114.094 389.18 115.082 388.968C121.056 387.861 128.85 395.598 131.431 400.395C131.566 400.653 132.66 403.458 133.496 405.512C133.287 404.282 133.091 402.941 132.869 401.736C132.034 397.209 130.989 393.126 130.042 389.436C129.477 387.382 128.936 385.537 128.407 383.815C126.453 382.941 118.635 379.313 115.869 376.214C113.103 373.114 110.571 368.563 111.407 364.344C111.57 363.347 111.942 362.394 112.497 361.55C113.053 360.705 113.78 359.987 114.631 359.442C115.481 358.897 116.437 358.537 117.437 358.385C118.436 358.234 119.455 358.295 120.429 358.563C126.244 360.334 129.6 370.789 129.686 376.226C129.686 376.705 128.96 384.061 128.862 384.024L128.739 383.962C129.28 385.611 129.845 387.382 130.423 389.337C131.456 392.941 132.587 397.025 133.521 401.551C134.586 406.421 135.366 411.35 135.856 416.311C136.423 421.865 136.502 427.458 136.09 433.026C136.083 433.092 136.083 433.158 136.09 433.223C136.754 431.563 138.794 427.012 138.991 426.68C141.745 421.993 149.833 414.564 155.77 415.905C156.75 416.154 157.666 416.607 158.46 417.233C159.253 417.86 159.906 418.647 160.375 419.542C160.845 420.438 161.121 421.422 161.185 422.431C161.249 423.441 161.101 424.452 160.749 425.4C159.384 429.484 154.848 432.202 151.001 433.494C146.662 434.957 136.791 433.949 136.004 433.875C135.44 439.524 134.5 445.129 133.189 450.652C132.439 453.874 131.591 457.109 130.73 460.319C131.357 458.917 131.96 457.663 132.033 457.49C134.799 452.804 142.875 445.375 148.813 446.716C149.792 446.965 150.709 447.418 151.502 448.044C152.295 448.671 152.948 449.457 153.418 450.353C153.887 451.249 154.163 452.233 154.227 453.242C154.292 454.252 154.143 455.263 153.791 456.211C152.439 460.295 147.891 463.013 144.043 464.317C140.196 465.621 131.751 464.932 129.477 464.723C129.12 465.953 128.776 467.183 128.42 468.413C126.686 474.317 124.941 480.208 123.404 486.026C122.851 488.08 122.396 490.122 121.929 492.176C122.482 490.946 122.962 489.876 123.06 489.716C125.813 485.03 133.902 477.601 139.839 478.941C140.813 479.197 141.723 479.655 142.509 480.285C143.296 480.914 143.942 481.702 144.405 482.597C144.868 483.491 145.139 484.473 145.199 485.479C145.26 486.485 145.109 487.493 144.756 488.437C143.392 492.508 138.856 495.238 135.008 496.53C131.161 497.821 123.49 497.219 120.835 496.985C120.429 499.088 119.999 501.192 119.692 503.258C119.52 504.66 119.249 506.013 119.151 507.44C119.053 508.867 118.893 510.244 118.758 511.622C118.61 514.291 118.45 517.046 118.364 519.666C118.364 521.474 118.266 523.208 118.229 524.955C118.745 522.901 119.852 518.903 119.975 518.584C121.991 513.541 128.862 504.968 134.935 505.386C135.938 505.484 136.91 505.793 137.787 506.291C138.664 506.789 139.426 507.465 140.025 508.277C140.624 509.089 141.046 510.017 141.264 511.002C141.482 511.987 141.491 513.007 141.29 513.996C140.564 518.239 136.496 521.609 132.882 523.479C128.911 525.533 119.36 526.062 118.204 526.111C118.204 528.977 118.18 531.781 118.204 534.426Z" fill="#B0B0B0"/>
<path d="M43.2323 424.035C43.1462 424.109 40.0485 417.393 39.901 416.95C38.1924 411.784 37.9342 400.813 42.8512 397.271C43.6816 396.697 44.6232 396.303 45.6151 396.116C46.6069 395.929 47.627 395.952 48.6094 396.183C49.5918 396.415 50.5147 396.851 51.3184 397.462C52.1221 398.073 52.7887 398.846 53.2753 399.731C55.4387 403.421 54.5045 408.648 52.9434 412.399C51.1118 416.803 43.2323 424.035 43.2323 424.035Z" fill="#B0B0B0"/>
<path d="M293.09 561.928C453.975 561.928 584.397 555.347 584.397 547.23C584.397 539.112 453.975 532.531 293.09 532.531C132.205 532.531 1.78223 539.112 1.78223 547.23C1.78223 555.347 132.205 561.928 293.09 561.928Z" fill="#212121" stroke="#212121" stroke-linecap="round" stroke-linejoin="round"/>
<path d="M291.357 554.782C327.881 554.782 357.49 525.155 357.49 488.609C357.49 452.063 327.881 422.436 291.357 422.436C254.832 422.436 225.223 452.063 225.223 488.609C225.223 525.155 254.832 554.782 291.357 554.782Z" fill="#666666" stroke="#212121" stroke-linecap="round" stroke-linejoin="round"/>
<path d="M356.003 474.71C354.104 466.186 350.538 458.123 345.51 450.985C340.482 443.847 334.091 437.776 326.706 433.121C319.322 428.467 311.089 425.321 302.483 423.866C293.877 422.41 285.069 422.674 276.566 424.642C268.062 426.61 260.032 430.243 252.939 435.331C245.846 440.419 239.83 446.862 235.237 454.288C230.645 461.714 227.567 469.977 226.182 478.599C224.796 487.221 225.13 496.033 227.165 504.525C255.61 488.203 301.99 468.942 356.003 474.71Z" fill="#212121" stroke="#212121" stroke-linecap="round" stroke-linejoin="round"/>
<path d="M512.609 450.024L69.0469 420.013L87.4487 399.14L497.182 426.864L512.609 450.024Z" fill="#FFD098" stroke="#212121" stroke-linecap="round" stroke-linejoin="round"/>
<path d="M512.751 450.076L69.1943 420.053L68.6791 427.674L512.236 457.697L512.751 450.076Z" fill="#212121" stroke="#212121" stroke-linecap="round" stroke-linejoin="round"/>
<path d="M191.382 146.023C191.382 146.023 179.618 152.936 178.672 153.218C177.725 153.501 163.552 156.601 159.422 159.368C155.291 162.136 118.328 186.834 115.783 188.014C113.239 189.195 111.997 189.171 111.075 188.839C110.153 188.506 96.5085 183.722 92.4766 181.102C88.4446 178.482 85.1011 175.911 85.3223 179.048C85.5436 182.184 89.8952 184.177 90.8171 184.829L94.5048 187.424C94.5048 187.424 91.653 187.596 84.7692 187.424C77.8854 187.252 70.1411 185.235 71.9481 188.101C73.7551 190.966 79.7538 191.2 81.6346 191.2C84.528 191.576 87.4001 192.102 90.2393 192.775L73.9149 197.473C73.6304 197.555 73.3818 197.731 73.2095 197.972C73.0371 198.213 72.9511 198.505 72.9653 198.801C72.9796 199.097 73.0932 199.379 73.2878 199.603C73.4825 199.826 73.7467 199.977 74.0378 200.031C75.0164 200.199 76.0137 200.228 77.0003 200.117C82.3353 199.625 97.0863 198.432 97.0863 198.432C97.0863 198.432 85.5682 203.955 83.9702 205.16C82.3721 206.366 80.7372 209.158 85.4698 208.026C90.2025 206.895 105.138 201.458 105.138 201.458L108.826 203.426C108.826 203.426 106.736 207.214 104.167 208.506C101.598 209.797 98.4876 212.11 99.471 213.34C100.454 214.57 105.925 211.987 110.534 211.765C115.144 211.544 120.467 199.859 122.335 199.22C124.204 198.58 198.549 169.909 198.549 169.909L191.382 146.023Z" fill="white" stroke="#212121" stroke-linecap="round" stroke-linejoin="round"/>
<path d="M497.244 171.988C497.244 171.988 501.263 172.418 500.083 174.448C498.903 176.477 492.548 176.059 492.548 176.059C492.548 176.059 496.764 178.076 494.49 178.667C492.216 179.257 486.918 178.15 486.279 178.125C485.64 178.101 497.244 171.988 497.244 171.988Z" stroke="#212121" stroke-linecap="round" stroke-linejoin="round"/>
<path d="M380.465 151.361C380.465 151.361 384.792 152.997 397.601 157.044C410.41 161.09 441.264 177.855 447.312 180.856C453.36 183.857 455.56 183.254 456.654 183.07C457.748 182.885 471.54 174.03 474.872 172.148C478.203 170.266 483.009 170.598 483.009 170.598L489.155 170.106C491.02 169.967 492.83 169.412 494.454 168.482C497.773 166.822 499.297 167.252 498.572 169.712C498.042 171.133 497.233 172.432 496.192 173.533C495.151 174.633 493.899 175.514 492.511 176.121C489.201 177.667 486.069 179.568 483.169 181.791C480.502 183.919 477.502 189.97 477.502 189.97C477.502 189.97 488.688 188.506 492.007 187.055C495.326 185.604 494.552 190.401 492.315 192.319C490.077 194.238 483.513 194.066 482.407 194.693C479.796 196.33 476.859 197.375 473.802 197.756C468.75 198.506 453.974 194.398 452.008 194.349C450.041 194.3 415.241 186.416 401.51 184.312C387.779 182.209 383.243 180.13 377.011 175.813C370.779 171.496 368.197 169.663 368.197 169.663L380.465 151.361Z" fill="white" stroke="#212121" stroke-linecap="round" stroke-linejoin="round"/>
<path d="M493.249 168.827C493.249 168.827 482.665 176.071 477.613 176.809" stroke="#212121" stroke-linecap="round" stroke-linejoin="round"/>
<path d="M419.863 409.226C419.863 409.226 425.702 427.983 428.922 433.284C432.143 438.586 445.616 448.967 452.045 445.806C458.474 442.645 454.061 425.019 449.008 418.931C443.956 412.842 433.323 406.225 433.323 406.225L419.863 409.226Z" fill="#212121" stroke="#212121" stroke-linecap="round" stroke-linejoin="round"/>
<path d="M174.185 385.537C166.359 390.799 158.99 396.711 152.157 403.212C142.618 412.658 138.549 426.323 148.936 427.7C159.323 429.078 167.375 419.607 170.079 415.585C172.784 411.563 181.523 404.343 181.523 404.343C181.523 404.343 188.592 404.146 190.214 398.98C191.273 395.107 191.875 391.124 192.009 387.111L174.185 385.537Z" fill="#212121" stroke="#212121" stroke-linecap="round" stroke-linejoin="round"/>
<path d="M230.988 219.674L220.81 245.971C220.81 245.971 184.621 294.186 176.852 307.015C169.083 319.844 168.69 320.545 167.338 330.225C165.986 339.905 168.493 389.805 170.669 392.092C170.669 392.092 184.412 393.187 193.754 391.182C203.097 389.177 204.56 374.479 205.285 367.69C206.354 357.85 206.121 340.889 210.804 332.451C215.488 324.013 221.302 314.469 221.302 314.469C221.302 314.469 262.543 287.237 268.554 285.158C274.565 283.08 290.865 285.355 296.434 286.241C302.002 287.126 349.845 336.362 351.971 340.507C354.098 344.652 411.196 411.981 411.196 411.981C416.207 412.956 421.315 413.336 426.415 413.113C433.126 412.547 440.231 411.243 440.231 411.243C440.231 411.243 427.533 395.118 424.128 383.077C420.723 371.035 398.314 342.795 393.397 330.766C388.48 318.737 369.636 289.598 358.117 274.039C346.599 258.48 322.949 238.148 322.236 237.017C321.523 235.885 319.04 229.772 319.04 229.772L230.988 219.674Z" fill="#F7941E"/>
<path opacity="0.19" d="M424.128 383.077C421.805 374.947 410.778 359.338 402.395 346.374C402.395 347.235 402.395 348.108 402.395 349.019C402.592 359.941 392.487 365.857 374.798 352.586C357.109 339.314 341.154 314.727 341.154 314.727L346.046 329.597L313.717 295.084L317.761 304.198L317.909 304.666C333.065 319.425 350.693 338.023 351.971 340.507C354.098 344.652 411.196 411.981 411.196 411.981C416.207 412.956 421.315 413.336 426.414 413.113C433.126 412.547 440.231 411.243 440.231 411.243C440.231 411.243 427.533 395.118 424.128 383.077Z" fill="black" stroke="#212121" stroke-linecap="round" stroke-linejoin="round"/>
<path d="M371.996 354.923C377.613 359.781 382.948 363.803 386.575 365.205" stroke="#212121" stroke-linecap="round" stroke-linejoin="round"/>
<path d="M346.046 329.597C346.046 329.597 356.298 340.667 367.042 350.507" stroke="#212121" stroke-linecap="round" stroke-linejoin="round"/>
<path d="M410.803 386.201C413.172 387.411 415.61 388.478 418.105 389.399" stroke="#212121" stroke-linecap="round" stroke-linejoin="round"/>
<path d="M372.512 359.83C372.512 359.83 388.64 373.471 404.559 382.782" stroke="#212121" stroke-linecap="round" stroke-linejoin="round"/>
<path d="M261.634 272.883C264.744 275.958 267.448 278.553 269.009 279.955" stroke="#212121" stroke-linecap="round" stroke-linejoin="round"/>
<path d="M240.761 251.69C240.761 251.69 249.169 260.399 257.061 268.332" stroke="#212121" stroke-linecap="round" stroke-linejoin="round"/>
<path d="M239.532 241.629C239.532 241.629 254.344 258.763 259.052 263.769" stroke="#212121" stroke-linecap="round" stroke-linejoin="round"/>
<path d="M311.332 252.65L301.375 265.122" stroke="#212121" stroke-linecap="round" stroke-linejoin="round"/>
<path d="M317.958 244.347L314.233 249.009" stroke="#212121" stroke-linecap="round" stroke-linejoin="round"/>
<path d="M314.664 256.918L298.941 275.503" stroke="#212121" stroke-linecap="round" stroke-linejoin="round"/>
<path d="M262.998 254.864C276.84 259.229 291.839 258.006 304.793 251.457" stroke="#212121" stroke-linecap="round" stroke-linejoin="round"/>
<g opacity="0.19">
<path d="M210.017 304.875L241.781 299.364L195.07 323.484L212.967 322.082C212.967 322.082 188.198 345.267 178.708 337.961C169.218 330.655 180.749 301.529 180.749 301.529L180.638 301.246C179.077 303.559 177.786 305.527 176.95 307.015C169.182 319.844 168.788 320.545 167.436 330.225C166.084 339.905 168.592 389.805 170.767 392.092C170.767 392.092 184.51 393.187 193.853 391.182C203.195 389.177 204.547 374.467 205.383 367.69C206.403 359.412 206.219 340.888 210.902 332.451C215.586 324.013 221.4 314.469 221.4 314.469C221.4 314.469 262.641 287.237 268.652 285.158L210.017 304.875Z" fill="black" stroke="#212121" stroke-linecap="round" stroke-linejoin="round"/>
</g>
<path d="M216.594 317.002C216.594 317.002 201.658 329.991 190.607 337.235" stroke="#212121" stroke-linecap="round" stroke-linejoin="round"/>
<path d="M187.62 346.251C185.117 347.517 182.524 348.598 179.864 349.486" stroke="#212121" stroke-linecap="round" stroke-linejoin="round"/>
<path d="M206.207 331.774C201.924 336.867 196.766 341.153 190.977 344.431" stroke="#212121" stroke-linecap="round" stroke-linejoin="round"/>
<path d="M230.988 219.674L220.81 245.971C220.81 245.971 184.621 294.186 176.852 307.015C169.083 319.844 168.69 320.545 167.338 330.225C165.986 339.905 168.493 389.805 170.669 392.092C170.669 392.092 184.412 393.187 193.754 391.182C203.097 389.177 204.474 374.467 205.285 367.69C206.342 358.945 206.121 340.889 210.804 332.451C215.488 324.013 221.302 314.469 221.302 314.469C221.302 314.469 262.543 287.237 268.554 285.158C274.565 283.08 290.865 285.355 296.434 286.241C302.002 287.126 349.845 336.362 351.971 340.507C354.098 344.652 411.196 411.981 411.196 411.981C416.207 412.956 421.315 413.336 426.415 413.113C433.126 412.547 440.231 411.243 440.231 411.243C440.231 411.243 427.533 395.118 424.128 383.077C420.723 371.035 398.314 342.795 393.397 330.766C388.48 318.737 369.636 289.598 358.117 274.039C346.599 258.48 322.949 238.148 322.236 237.017C321.523 235.885 319.04 229.772 319.04 229.772L230.988 219.674Z" stroke="#212121" stroke-linecap="round" stroke-linejoin="round"/>
<path d="M274.897 112.199C274.897 112.199 254.11 115.483 245.002 118.103C235.893 120.722 188.456 141.903 188.456 141.903C188.456 141.903 187.596 147.364 190.657 157.892C192.769 164.638 196.102 170.938 200.491 176.477L230.583 162.948L233.668 163.021L235.315 203.069L231.037 219.637C231.037 219.637 239.077 240.793 260.318 247.533C281.56 254.273 302.481 246.217 307.571 242.773C312.66 239.329 318.056 232.81 319.089 229.735C319.47 228.579 317.601 222.565 318.781 213.094C320.736 197.399 325.935 175.616 325.935 175.616L334.331 163.686L361.707 180.13C361.707 180.13 377.687 161.964 385.321 150.02C385.321 150.02 354.589 131.374 342.174 124.621C331.001 118.381 318.811 114.171 306.169 112.186C293.987 110.304 274.897 112.199 274.897 112.199Z" fill="white" stroke="#212121" stroke-linecap="round" stroke-linejoin="round"/>
<path d="M345.518 154.141L334.282 163.71L354.565 155.555" stroke="#212121" stroke-linecap="round" stroke-linejoin="round"/>
<path d="M233.631 163.058L252.845 164.423" stroke="#212121" stroke-linecap="round" stroke-linejoin="round"/>
<path d="M246.587 171.52C247.817 172.099 249.046 172.64 250.275 173.095" stroke="#212121" stroke-linecap="round" stroke-linejoin="round"/>
<path d="M236.643 165.198C238.539 166.677 240.522 168.04 242.58 169.282" stroke="#212121" stroke-linecap="round" stroke-linejoin="round"/>
<path d="M258.241 208.998C266.219 217.866 279.519 231.543 290.865 237.706" stroke="#212121" stroke-linecap="round" stroke-linejoin="round"/>
<path d="M251.124 200.732C251.124 200.732 252.562 202.516 254.996 205.32" stroke="#212121" stroke-linecap="round" stroke-linejoin="round"/>
<path d="M258.61 217.128C261.74 222.259 266.304 226.36 271.738 228.924" stroke="#212121" stroke-linecap="round" stroke-linejoin="round"/>
<path d="M280.527 153.059L286.87 175.37L274.246 259.821L285.247 276.536L295.93 258.714L291.381 175.481L303.772 156.035L291.873 146.675L280.527 153.059Z" fill="#212121" stroke="#212121" stroke-linecap="round" stroke-linejoin="round"/>
<path d="M275.278 116.012C273.007 120.009 271.596 124.437 271.136 129.012C270.472 136.392 270.902 147.573 269.636 150.648C268.37 153.723 265.395 158.151 266.809 159.147C268.222 160.143 277.872 156.084 280.724 154.731C283.267 153.756 285.922 153.103 288.628 152.788L300.674 156.478C300.674 156.478 313.729 166.822 314.749 164.46C315.77 162.099 315.303 139.652 315.303 139.652C315.303 139.652 312.475 122.727 305.272 115.876C298.068 109.025 280.416 110.427 275.278 116.012Z" fill="white" stroke="#212121" stroke-linecap="round" stroke-linejoin="round"/>
<path d="M282.691 142.641C282.691 142.641 284.793 153.883 287.042 158.704C289.292 163.526 292.168 163.12 293.631 161.964C295.094 160.807 298.548 154.473 298.548 154.473L282.691 142.641Z" fill="white" stroke="#212121" stroke-linecap="round" stroke-linejoin="round"/>
<path d="M273.52 101.879C273.52 101.879 277.774 87.759 279.593 82.1995C281.412 76.64 288.124 75.4346 288.124 75.4346C288.124 75.4346 293.041 66.6402 305.837 69.7521C318.634 72.8639 327.595 80.6251 329.033 78.9892C330.472 77.3533 329.439 73.9832 333.016 75.4592C336.593 76.9352 343.047 87.1563 340.957 92.4083L338.867 97.6603C338.867 97.6603 346.735 95.6185 344.903 101.436C343.071 107.254 332.426 109.763 332.426 109.763L326.71 115.2C319.711 116.055 312.61 115.006 306.157 112.162C295.954 107.439 294.664 103.552 293.225 105.421C291.787 107.291 292.869 108.484 288.075 110.587C283.281 112.691 277.393 113.662 275.241 110.587C273.09 107.512 273.52 101.879 273.52 101.879Z" fill="#212121" stroke="#212121" stroke-linecap="round" stroke-linejoin="round"/>
<path d="M277.847 107.562C277.847 107.562 277.208 99.7389 273.533 101.879C269.857 104.019 270.939 115.753 271.996 118.299C273.053 120.845 277.22 120.944 277.22 120.944C277.22 120.944 277.22 130.71 278.019 133.797C278.818 136.884 284.792 152.099 290.828 156.158C296.864 160.217 304.165 157.892 306.145 156.835C308.124 155.777 317.023 145.666 319.052 142.653C321.08 139.639 325.579 127.475 327.656 123.342C329.538 118.937 331.144 114.418 332.463 109.812C329.225 110.708 325.775 110.424 322.727 109.013C319.757 107.694 316.903 106.126 314.196 104.327C314.196 104.327 321.572 110.378 313.213 110.169C304.854 109.96 299.076 96.1351 295.229 93.7981C291.381 91.4612 290.201 93.958 290.951 97.3159C291.701 100.674 291.627 103.749 286.858 105.028C282.088 106.307 282.936 105.766 281.486 107.955C280.035 110.145 278.044 110.637 277.847 107.562Z" fill="white" stroke="#212121" stroke-linecap="round" stroke-linejoin="round"/>
<path d="M288.714 116.368C288.502 116.04 288.39 115.658 288.39 115.267C288.39 114.877 288.502 114.495 288.714 114.167C289.525 113.232 292.402 111.411 298.056 112.506C303.711 113.601 303.662 115.335 302.678 116.565C301.695 117.795 297.183 115.802 294.811 115.889C292.439 115.975 290.287 116.725 288.714 116.368Z" fill="#212121" stroke="#212121" stroke-linecap="round" stroke-linejoin="round"/>
<path d="M324.768 125.212C325.118 124.996 325.408 124.696 325.612 124.34C325.816 123.983 325.927 123.581 325.936 123.17C325.825 121.94 324.621 118.927 319.704 117.291C314.787 115.655 313.877 117.291 313.938 118.853C314 120.415 318.56 120.71 320.318 121.903C322.076 123.096 323.379 124.781 324.768 125.212Z" fill="#212121" stroke="#212121" stroke-linecap="round" stroke-linejoin="round"/>
<path d="M298.032 127.93C297.835 129.345 296.876 130.39 295.88 130.255C294.885 130.119 294.246 128.865 294.442 127.438C294.639 126.011 295.598 124.978 296.581 125.101C297.565 125.224 298.228 126.503 298.032 127.93Z" fill="#212121"/>
<path d="M316.815 133.526C316.384 134.892 315.253 135.753 314.295 135.445C313.336 135.138 312.93 133.785 313.373 132.419C313.815 131.054 314.934 130.193 315.893 130.488C316.851 130.784 317.257 132.161 316.815 133.526Z" fill="#212121"/>
<path d="M299.568 142.358C299.568 142.358 302.027 145.101 304.399 144.522C305.234 144.32 306.001 143.902 306.625 143.311C307.248 142.72 307.705 141.976 307.952 141.152" stroke="#212121" stroke-linecap="round" stroke-linejoin="round"/>
<path d="M291.701 141.521C292.501 143.105 293.687 144.461 295.151 145.463C296.614 146.465 298.307 147.081 300.072 147.253" stroke="#212121" stroke-linecap="round" stroke-linejoin="round"/>
<path d="M303.084 129.504C301.474 133.354 296.618 134.978 292.242 133.133C287.866 131.288 285.641 126.688 287.251 122.85C288.862 119.013 293.717 117.389 298.093 119.16C302.47 120.931 304.694 125.667 303.084 129.504Z" stroke="#212121" stroke-linecap="round" stroke-linejoin="round"/>
<path d="M325.395 134.24C324.436 138.299 319.912 140.697 315.303 139.603C310.693 138.508 307.718 134.326 308.689 130.279C309.66 126.233 314.172 123.822 318.781 124.917C323.391 126.011 326.378 130.193 325.395 134.24Z" stroke="#212121" stroke-linecap="round" stroke-linejoin="round"/>
<path d="M303.231 128.471C304.12 128.184 305.063 128.104 305.987 128.236C306.911 128.368 307.793 128.71 308.566 129.234" stroke="#212121" stroke-linecap="round" stroke-linejoin="round"/>
<path d="M287.251 122.85L277.848 107.562" stroke="#212121" stroke-linecap="round" stroke-linejoin="round"/>
</g>
<defs>
<clipPath id="clip0_601_111">
<rect width="585" height="579" fill="white"/>
</clipPath>
</defs>
</svg>
