<svg xmlns="http://www.w3.org/2000/svg" viewBox="0 0 70.69 38.93"><defs><style>.cls-1{fill:#7fc145;}.cls-1,.cls-2,.cls-3{fill-rule:evenodd;}.cls-2{fill:#4a007d;}.cls-3{fill:#81c247;}</style></defs><g id="Layer_2" data-name="Layer 2"><g id="MDIN"><path class="cls-1" d="M1.58,36.67V35.5c0-.15,0-.15.16-.16H2c.12,0,.14,0,.14.15v1.93c0,.18,0,.19.18.19h.8c.18,0,.18,0,.17.18s0,.07,0,.11,0,.13-.14.13H1.73c-.14,0-.15,0-.15-.16Z"/><path class="cls-2" d="M37.34,20.88c0-1.06,0-2.24,0-3.42,0-.65,0-1.29,0-1.94a2.35,2.35,0,0,0,0-.26c0-.31-.19-.43-.51-.4h-.67c-.37,0-.45-.06-.49-.42a8.1,8.1,0,0,1,0-.85.41.41,0,0,1,.42-.45,5.46,5.46,0,0,1,.57,0c.61,0,1.23,0,1.84,0,.32,0,.41.06.5.37a5.15,5.15,0,0,1,.17.87.19.19,0,0,0,0,.07.19.19,0,0,0,.14.19.2.2,0,0,0,.23-.08c.11-.12.23-.25.35-.36A5.38,5.38,0,0,1,42.38,13a5.7,5.7,0,0,1,3.7.51,4.74,4.74,0,0,1,1.46,1.13,2,2,0,0,0,.2.21.22.22,0,0,0,.32,0,.48.48,0,0,0,.09-.11,4.27,4.27,0,0,1,2.07-1.45,6.33,6.33,0,0,1,4.78.19,3.9,3.9,0,0,1,2.35,3.22,12.62,12.62,0,0,1,.07,1.62v6.42c0,.69,0,1.37,0,2.06,0,.43-.11.57-.53.59a8.29,8.29,0,0,1-1.12,0,.61.61,0,0,1-.64-.64c0-.23,0-.46,0-.69q0-3.12,0-6.24c0-.72,0-1.43,0-2.15a4.6,4.6,0,0,0-.16-1.05,2.37,2.37,0,0,0-1.68-1.65A4.44,4.44,0,0,0,51,14.8,3,3,0,0,0,48.71,17a4.34,4.34,0,0,0-.19,1.18c-.07,2.54-.05,5.09,0,7.63,0,.31,0,.62,0,.94a.49.49,0,0,1-.49.54h0a7.13,7.13,0,0,1-1.3-.07.52.52,0,0,1-.46-.45,7.77,7.77,0,0,1,0-.83c0-2.62,0-5.24,0-7.87A5.66,5.66,0,0,0,46,16.64a2.37,2.37,0,0,0-1.81-1.8,3.92,3.92,0,0,0-2.35.09,3.08,3.08,0,0,0-2.06,2.44,8,8,0,0,0-.12,1.38v8.17c0,.28,0,.36-.32.4a7.7,7.7,0,0,1-1.36.07.55.55,0,0,1-.58-.5,3.55,3.55,0,0,1,0-.8Z"/><path class="cls-2" d="M14.87,20.87v-5a4.14,4.14,0,0,0,0-.61.42.42,0,0,0-.54-.43,6.45,6.45,0,0,1-.76,0,.28.28,0,0,1-.32-.26,4.57,4.57,0,0,1,0-1.11.37.37,0,0,1,.33-.33,3.38,3.38,0,0,1,.78-.05c.47,0,.95,0,1.43,0l.17,0a.65.65,0,0,1,.54.39c.09.23.14.47.21.7a1.29,1.29,0,0,0,.07.21c.07.19.14.21.31.09a1.67,1.67,0,0,1,.13-.12,5.64,5.64,0,0,1,4.29-1.53,5.56,5.56,0,0,1,2.83.95,2.47,2.47,0,0,1,.76.75l0,0c.24.34.38.35.68.05s.3-.32.46-.47a4.87,4.87,0,0,1,3-1.27,7.45,7.45,0,0,1,2.49.21,4,4,0,0,1,3.13,3.33A5.61,5.61,0,0,1,35,17.81v8.87c0,.49-.13.64-.62.63a6.67,6.67,0,0,1-1.1,0,.58.58,0,0,1-.57-.58,4.21,4.21,0,0,1,0-.5c0-1.24,0-2.48,0-3.72,0-1.53,0-3.06,0-4.59a6.44,6.44,0,0,0-.13-1.16,2.58,2.58,0,0,0-1.62-1.8,3.76,3.76,0,0,0-4.05.95,3.25,3.25,0,0,0-.72,1.56A8.4,8.4,0,0,0,26,19.09c0,2.52,0,5,0,7.54A1.77,1.77,0,0,1,26,27a.38.38,0,0,1-.37.34,6.05,6.05,0,0,1-1.41,0,.56.56,0,0,1-.47-.45,3.6,3.6,0,0,1,0-.65q0-4,0-8a6.53,6.53,0,0,0-.19-1.59A2.36,2.36,0,0,0,22.24,15a3.37,3.37,0,0,0-3.27.14A3,3,0,0,0,17.4,17.2a6.26,6.26,0,0,0-.18,1.49q0,3.6,0,7.19c0,.31,0,.63,0,.94s-.14.48-.49.49a7.23,7.23,0,0,1-1.23,0,.59.59,0,0,1-.58-.6,6.26,6.26,0,0,1,0-.87V20.87Z"/><path class="cls-2" d="M4.08,14.24l.3-.22A5.4,5.4,0,0,1,6.7,13a5.71,5.71,0,0,1,2.84.19,6.12,6.12,0,0,1,.93.35,4.51,4.51,0,0,1,2.12,2.19,9.51,9.51,0,0,1,.82,2.67,10.27,10.27,0,0,1,.08,2.77,9.54,9.54,0,0,1-.64,2.72,5.42,5.42,0,0,1-4.14,3.5,10.88,10.88,0,0,1-3,.19,19,19,0,0,1-3.59-.62L2,26.86a.46.46,0,0,1-.3-.39,2.26,2.26,0,0,1,0-.26V11.67c0-.68,0-1.35,0-2a1.46,1.46,0,0,0,0-.36A.43.43,0,0,0,1.31,9a1.36,1.36,0,0,0-.6,0L.39,9a.32.32,0,0,1-.32-.25A1.92,1.92,0,0,1,0,8.21a3.94,3.94,0,0,1,.05-.69c0-.23.07-.26.31-.26H3.53c.3,0,.44.14.45.44s0,.68,0,1v4.44c0,.21,0,.43,0,.65A.77.77,0,0,0,4.08,14.24ZM4,21.47H4V25a1.21,1.21,0,0,0,0,.19.48.48,0,0,0,.38.49l.19.05.88.15a7,7,0,0,0,2.46-.07,3.67,3.67,0,0,0,2.78-2.34,7.8,7.8,0,0,0,.47-2.18,12.63,12.63,0,0,0-.08-3,6.71,6.71,0,0,0-.53-1.86,2.77,2.77,0,0,0-1.63-1.5,4.71,4.71,0,0,0-1.66-.28,3.11,3.11,0,0,0-2.92,2A4.65,4.65,0,0,0,4,18.29Z"/><path class="cls-1" d="M66.5,4.33a6.88,6.88,0,0,1,1.43.9,2,2,0,0,1,.41,2.42A2.43,2.43,0,0,1,66.57,9a9.51,9.51,0,0,1-1.06,0c-.44,0-.86,0-1.29,0a1,1,0,0,0-.39,0,.31.31,0,0,0-.26.3,1.13,1.13,0,0,0,0,.26,3.94,3.94,0,0,1-.85,3.12,5.19,5.19,0,0,1-1,1,2.53,2.53,0,0,1-2.59.42,5.72,5.72,0,0,1-2.41-1.67,4.94,4.94,0,0,1-.5-.7A2,2,0,0,1,56,10.4a6.21,6.21,0,0,1,2-3.63l.11-.08c0,.06,0,.1,0,.14a7.65,7.65,0,0,0-.42,1.25,3.79,3.79,0,0,0,2.26,4.28,3.72,3.72,0,0,0,1.59.3,1.32,1.32,0,0,0,1.16-.7,2.76,2.76,0,0,0,.31-2,2.43,2.43,0,0,0-.21-.73A.28.28,0,0,0,62.4,9a1,1,0,0,1-.75-.26,3.65,3.65,0,0,1-.3-.27,5.66,5.66,0,0,0-.67-.72c0-.07.08,0,.13,0h1a.23.23,0,0,0,.2-.28.34.34,0,0,0-.05-.17,5.19,5.19,0,0,1-.36-1.95,3.58,3.58,0,0,1,.08-1.26,2.6,2.6,0,0,1,1.05-1.56,3.13,3.13,0,0,1,.67-.4c-.08.42-.15.81-.22,1.2s-.19.91-.25,1.37A6.68,6.68,0,0,0,63,6.53a5.6,5.6,0,0,0,.12.59.72.72,0,0,0,.79.67,3.83,3.83,0,0,0,1.57-.27,2.09,2.09,0,0,0,1.31-2,2.93,2.93,0,0,0-.21-.93.27.27,0,0,1-.07-.22Z"/><path class="cls-1" d="M61.86,14.71a4.9,4.9,0,0,1,1.44-1.32A2.93,2.93,0,0,1,64.63,13a5.18,5.18,0,0,0,3.18-1.36A6.67,6.67,0,0,0,70,7.72a4,4,0,0,0-.45-2.61,5.36,5.36,0,0,0-2-2.09,14.72,14.72,0,0,0-2.79-1.3l-.26-.12a.18.18,0,0,1-.05-.26.65.65,0,0,1,.17-.2,3,3,0,0,0,.7-.85A.43.43,0,0,1,65.39.1.29.29,0,0,1,65.72,0,.68.68,0,0,1,66,.15,10,10,0,0,1,69.58,4a10.37,10.37,0,0,1,1,3,14.93,14.93,0,0,1,.15,2.41,5,5,0,0,1-.77,2.57,5.4,5.4,0,0,1-2,1.79,9.24,9.24,0,0,1-2.68.87,13.69,13.69,0,0,1-3.26.13Z"/><path class="cls-2" d="M32.8,32c.3-.74.64-1.44,1-2.17,0-.07.07-.11.17-.11s.49,0,.74,0c.07,0,.13,0,.12.11v3.51c0,.07,0,.1-.11.1H34c-.11,0-.11-.07-.11-.15v-1.8c-.08,0-.07.06-.09.1-.26.57-.52,1.13-.77,1.7a.17.17,0,0,1-.22.15h-.15a.15.15,0,0,1-.18-.12c-.26-.58-.58-1.14-.81-1.73,0,0,0,0,0,0s0,.12,0,.18v1.52c0,.19,0,.19-.19.19h-.52c-.11,0-.15,0-.14-.14s0,0,0,0V29.93c0-.19,0-.19.19-.19s.4,0,.59,0a.2.2,0,0,1,.22.14c.33.7.69,1.38,1,2.1Z"/><path class="cls-2" d="M43.1,31c.06,0,.08-.07.13-.11a1.23,1.23,0,0,1,1.3-.18.86.86,0,0,1,.16.1c.07,0,.11.15.18.14a.62.62,0,0,0,.19-.14,1.16,1.16,0,0,1,1-.15.8.8,0,0,1,.58.79c0,.46,0,.93,0,1.39v.55c0,.08,0,.11-.12.11h-.73c-.13,0-.14-.05-.14-.16V31.61a.33.33,0,0,0-.29-.31.34.34,0,0,0-.37.24.73.73,0,0,0,0,.3c0,.48,0,1,0,1.45,0,.17,0,.17-.15.17h-.68c-.11,0-.15,0-.15-.15V31.92c0-.1,0-.2,0-.3a.29.29,0,0,0-.29-.32.34.34,0,0,0-.37.29,1.56,1.56,0,0,0,0,.3c0,.47,0,.93,0,1.4,0,.16,0,.17-.16.17h-.65c-.17,0-.18,0-.18-.16V31.51c0-.19,0-.2-.19-.2s-.15,0-.15-.15,0-.29,0-.43,0-.12.12-.12.47,0,.72,0a.14.14,0,0,1,.14.1A.75.75,0,0,0,43.1,31Z"/><path class="cls-2" d="M17.31,30.91a1.21,1.21,0,0,1,1.74,0,1.15,1.15,0,0,1,1.23-.34.79.79,0,0,1,.64.68,3,3,0,0,1,0,.31c0,.56,0,1.12,0,1.69,0,.16,0,.17-.15.17s-.3,0-.38,0-.05-.24-.05-.37V31.74a1.93,1.93,0,0,0,0-.24.47.47,0,0,0-.44-.48.58.58,0,0,0-.65.32,1,1,0,0,0-.07.45v1.48c0,.19,0,.19-.19.19s-.29.06-.37,0,0-.24,0-.36V31.59c0-.36-.16-.55-.49-.58a.57.57,0,0,0-.65.48,1.84,1.84,0,0,0,0,.41v1.39c0,.16,0,.17-.16.17s-.3,0-.39,0,0-.25,0-.38V31.23c0-.18,0-.19-.17-.19s-.18,0-.18-.18a.66.66,0,0,0,0-.14c0-.08,0-.11.12-.11a3.23,3.23,0,0,0,.44,0c.11,0,.15,0,.18.14S17.28,30.84,17.31,30.91Z"/><path class="cls-2" d="M38.52,32.83c0,.1,0,.2,0,.29a.27.27,0,0,1-.21.3,1.35,1.35,0,0,1-.4.08.67.67,0,0,1-.63-.29,1.59,1.59,0,0,1-.65.29,1.36,1.36,0,0,1-.6,0,.76.76,0,0,1-.56-.68,8.42,8.42,0,0,1,0-.87V30.77c0-.15,0-.15.15-.15s.45,0,.68,0,.16,0,.16.17v1.3c0,.11,0,.23,0,.35s.13.32.31.34a.38.38,0,0,0,.39-.28.92.92,0,0,0,0-.28V30.78c0-.16,0-.16.17-.16s.45,0,.67,0,.16,0,.16.15v1.78C38.17,32.88,38.18,32.89,38.52,32.83Z"/><path class="cls-2" d="M52.63,31.4c0-.19,0-.36,0-.52s0-.15.15-.18a2.79,2.79,0,0,1,1.46-.08.83.83,0,0,1,.78.87c0,.34,0,.68,0,1v.15c0,.19,0,.22.24.18l.13,0a3.77,3.77,0,0,1,0,.48.18.18,0,0,1-.1.09,1.19,1.19,0,0,1-.61.12.62.62,0,0,1-.51-.28,1.17,1.17,0,0,1-1.07.26.82.82,0,0,1-.7-.78.9.9,0,0,1,.86-1.05,1.56,1.56,0,0,1,.65,0c.13,0,.15,0,.14-.13a.34.34,0,0,0-.33-.36,1.71,1.71,0,0,0-.78.08Zm1.4,1c0-.25,0-.29-.28-.29s-.39.15-.38.44a.33.33,0,0,0,.34.32.3.3,0,0,0,.32-.31Z"/><path class="cls-2" d="M50.22,32.83a2.62,2.62,0,0,1,0,.28c0,.24,0,.25-.26.33a1.59,1.59,0,0,1-.38.07.61.61,0,0,1-.59-.29,1.22,1.22,0,0,1-1.11.26.81.81,0,0,1-.66-.8.88.88,0,0,1,.86-1,2,2,0,0,1,.76.06c.07-.3,0-.45-.31-.51a1.59,1.59,0,0,0-.72.07l-.32.11a3.62,3.62,0,0,1,0-.57c0-.06.05-.08.09-.1a2.83,2.83,0,0,1,1.63-.06.8.8,0,0,1,.65.76,3.41,3.41,0,0,1,0,.55c0,.24,0,.48,0,.72s0,.19.23.16C50.12,32.84,50.16,32.81,50.22,32.83Zm-1.36-.4h0v-.11c0-.12,0-.16-.13-.18a.39.39,0,0,0-.52.46.33.33,0,0,0,.33.29.3.3,0,0,0,.32-.29Z"/><path class="cls-2" d="M41.81,32.83a.53.53,0,0,1,0,.28c0,.25,0,.25-.24.33a1.59,1.59,0,0,1-.38.07.6.6,0,0,1-.59-.29,1.2,1.2,0,0,1-1.09.26.8.8,0,0,1-.68-.76.88.88,0,0,1,.5-1,1.59,1.59,0,0,1,.94-.07.62.62,0,0,1,.16,0c.08-.3,0-.47-.31-.52a1.76,1.76,0,0,0-.75.09l-.3.11V31c0-.27,0-.28.27-.35a3,3,0,0,1,1.31-.05,1.07,1.07,0,0,1,.39.14.86.86,0,0,1,.42.78v1.1c0,.23,0,.25.26.21Zm-1.33-.39h0v-.18s0-.08-.06-.09a.47.47,0,0,0-.46,0,.42.42,0,0,0-.13.41.32.32,0,0,0,.36.28.31.31,0,0,0,.29-.3Z"/><path class="cls-2" d="M3.93,31.47a1.08,1.08,0,0,1,.39.24,1.05,1.05,0,0,1-.39,1.65,2.2,2.2,0,0,1-.68.1H2.08c-.17,0-.17,0-.17-.17V30.36c0-.15,0-.19-.18-.18s-.16,0-.16-.15c0-.34,0-.28.27-.29H3.08a2.15,2.15,0,0,1,.62.08.79.79,0,0,1,.63.67.89.89,0,0,1-.32.92Zm-1.41.91v.53c0,.08,0,.11.1.11a3.85,3.85,0,0,0,.83,0,.52.52,0,0,0,.46-.54.49.49,0,0,0,0-.17.52.52,0,0,0-.45-.51,5.9,5.9,0,0,0-.84,0c-.08,0-.1.05-.1.12Zm0-1.61v.47c0,.07,0,.11.1.11a5.15,5.15,0,0,0,.68,0,.47.47,0,0,0,.43-.45.74.74,0,0,0,0-.21.48.48,0,0,0-.4-.46,2.74,2.74,0,0,0-.7,0c-.08,0-.11,0-.11.12Z"/><path class="cls-2" d="M57.74,32.68v.52c0,.07-.06.11-.11.14a1.61,1.61,0,0,1-1.2.1A.6.6,0,0,1,56,33a2.73,2.73,0,0,1,0-.41V31.47c0-.16,0-.16-.17-.17s-.32,0-.31-.32c0-.11,0-.25,0-.34s.2,0,.32,0,.13-.06.13-.15,0-.28,0-.41,0-.13.1-.15l.75-.16c.13,0,.14,0,.14.11v.63c0,.1,0,.13.13.13h.39c.07,0,.12,0,.12.11v.46c0,.09,0,.13-.13.13h-.39c-.08,0-.12,0-.12.11,0,.39,0,.77,0,1.16,0,.18.12.26.31.24A3.78,3.78,0,0,0,57.74,32.68Z"/><path class="cls-2" d="M50.35,30.14c0-.22,0-.41,0-.59s0-.11.09-.11h1.13c.1,0,.11,0,.11.12v3.11c0,.18.06.2.25.17l.1,0a1.56,1.56,0,0,1,0,.43.14.14,0,0,1-.1.13,1.2,1.2,0,0,1-.89.08.54.54,0,0,1-.35-.44c0-.1,0-.2,0-.3V30.24c0-.07,0-.11-.1-.1Z"/><path class="cls-3" d="M6.33,36.18a.94.94,0,0,1,1.28,0,1.13,1.13,0,0,1,.45-.23.94.94,0,0,1,.5,0,.56.56,0,0,1,.4.53v1.37c0,.11,0,.17-.14.15H8.53c-.1,0-.15,0-.15-.15,0-.35,0-.7,0-1.06a1,1,0,0,0,0-.17.29.29,0,0,0-.25-.29.33.33,0,0,0-.35.18.46.46,0,0,0-.06.25v1.07c0,.17,0,.17-.19.17-.39,0-.39,0-.39-.38v-.94c0-.24-.12-.35-.32-.35a.33.33,0,0,0-.34.34c0,.36,0,.72,0,1.07s0,.26-.27.26-.3,0-.3-.29,0-.8,0-1.2c0-.1,0-.18-.15-.17a.08.08,0,0,1-.1-.1v-.05c0-.3,0-.25.25-.26H6C6.12,35.94,6.29,35.94,6.33,36.18Z"/><path class="cls-3" d="M24.15,36.18A.93.93,0,0,1,25,36a.6.6,0,0,1,.47.49,1.48,1.48,0,0,1,0,.21v1.19c0,.19,0,.19-.17.19s-.29.06-.37,0,0-.24,0-.36v-.91c0-.24-.1-.36-.3-.37a.35.35,0,0,0-.37.33c0,.18,0,.36,0,.54v.68c0,.09,0,.12-.12.12-.45,0-.45,0-.45-.41v-.87c0-.26-.11-.39-.31-.39a.33.33,0,0,0-.35.38c0,.33,0,.67,0,1s0,.29-.31.29-.27,0-.27-.28V36.56c0-.12,0-.21-.15-.19s-.09,0-.09-.1a1,1,0,0,1,0-.29,1,1,0,0,1,.29,0c.25,0,.25,0,.37.23a.91.91,0,0,1,.65-.27A.76.76,0,0,1,24.15,36.18Z"/><path class="cls-2" d="M6.75,31.64A.51.51,0,0,0,6.29,31a1.58,1.58,0,0,0-.71.09.6.6,0,0,1-.21.08.07.07,0,0,1,0-.08c0-.33,0-.34.31-.43a2.07,2.07,0,0,1,1,0,.82.82,0,0,1,.68.85c0,.43,0,.86,0,1.28a.57.57,0,0,0,0,.13c0,.19.05.23.24.19l.08,0s0,0,0,.05c0,.3-.06.38-.36.4a.54.54,0,0,1-.52-.25,1.15,1.15,0,0,1-.53.26,1.33,1.33,0,0,1-.63-.06.81.81,0,0,1-.58-.74.92.92,0,0,1,.87-1.1,1.73,1.73,0,0,1,.68,0S6.7,31.66,6.75,31.64Zm0,.74h0v-.24c0-.06,0-.09-.09-.1A1.34,1.34,0,0,0,6,32a.48.48,0,0,0-.38.49.53.53,0,0,0,.32.56.57.57,0,0,0,.81-.51Z"/><path class="cls-2" d="M25,31.14c0-.45-.1-.39.36-.52a1.79,1.79,0,0,1,.92,0,.8.8,0,0,1,.71.86c0,.42,0,.85,0,1.27a.85.85,0,0,0,0,.16c0,.16.06.2.23.17s.07,0,.09,0c0,.35,0,.42-.34.44a.51.51,0,0,1-.51-.25,1.15,1.15,0,0,1-1,.25.87.87,0,0,1-.77-.94.9.9,0,0,1,.82-.94,1.85,1.85,0,0,1,.74,0c.05,0,.08,0,.13,0A.51.51,0,0,0,25.9,31a1.56,1.56,0,0,0-.72.1A.71.71,0,0,1,25,31.14Zm1.42,1.23a1,1,0,0,1,0-.17c0-.11,0-.15-.14-.18a3,3,0,0,0-.42,0,.54.54,0,0,0-.57.64.52.52,0,0,0,.51.48.56.56,0,0,0,.6-.39A2.06,2.06,0,0,0,26.38,32.37Z"/><path class="cls-2" d="M23.32,31.66c.06-.4-.09-.62-.45-.68a1.51,1.51,0,0,0-.73.09c-.07,0-.13.07-.19.07a0,0,0,0,1,0-.05c0-.36,0-.38.34-.47a2.09,2.09,0,0,1,.93,0,.83.83,0,0,1,.74.9c0,.41,0,.83,0,1.24v.15c0,.17.07.21.24.17h.09s0,0,0,0c0,.3-.06.38-.37.39a.52.52,0,0,1-.52-.24,1.15,1.15,0,0,1-.53.26,1.26,1.26,0,0,1-.61-.06.79.79,0,0,1-.58-.73.91.91,0,0,1,.85-1.11A2.06,2.06,0,0,1,23.32,31.66Zm0,.72v-.15c0-.17,0-.18-.17-.21a1.59,1.59,0,0,0-.43,0,.52.52,0,0,0-.52.66.48.48,0,0,0,.48.46.55.55,0,0,0,.6-.39A1.42,1.42,0,0,0,23.35,32.38Z"/><path class="cls-2" d="M14.62,33c0,.34,0,.42-.4.45-.22,0-.31-.05-.48-.27a1.09,1.09,0,0,1-.59.28,1.47,1.47,0,0,1-.72-.09.74.74,0,0,1-.47-.57,1.64,1.64,0,0,1-.05-.37v-1.7c0-.15,0-.15.15-.15h.31c.09,0,.13,0,.13.13s0,.2,0,.3v1.52a.5.5,0,0,0,.44.49.6.6,0,0,0,.71-.35,1.27,1.27,0,0,0,0-.43V30.79c0-.17,0-.17.18-.17s.2,0,.31,0,.1,0,.1.09v2.2c0,.15.06.19.22.16Z"/><path class="cls-3" d="M43.17,36.93V35.51c0-.16,0-.17.15-.17.44,0,.36-.05.36.35,0,.71,0,1.43,0,2.15,0,.19,0,.18-.2.2a.35.35,0,0,1-.33-.17c-.38-.48-.73-1-1.11-1.43-.07,0,0,.09,0,.13v1.28c0,.18,0,.18-.17.18-.37,0-.32,0-.32-.32,0-.71,0-1.41,0-2.12v-.16a.12.12,0,0,1,0-.08.59.59,0,0,1,.43.07l.35.45.75,1S43.1,36.93,43.17,36.93Z"/><path class="cls-3" d="M14.22,38.34a1.89,1.89,0,0,0,.46.15l.15,0c.41,0,.6-.18.51-.61-.06,0-.1,0-.16.06A.82.82,0,0,1,14,37.38a1.51,1.51,0,0,1,0-.73,1,1,0,0,1,.73-.67,2,2,0,0,1,1.05,0,.12.12,0,0,1,.11.13c0,.66,0,1.31,0,2a.8.8,0,0,1,0,.15.72.72,0,0,1-.62.65,1.92,1.92,0,0,1-.95-.09c-.11,0-.17-.09-.14-.22S14.21,38.45,14.22,38.34Zm1.15-1.47c0-.16,0-.29,0-.42s0-.14-.13-.14a.53.53,0,0,0-.54.24.89.89,0,0,0-.06.85.35.35,0,0,0,.39.24c.19,0,.28-.13.33-.33A3.23,3.23,0,0,0,15.37,36.87Z"/><path class="cls-3" d="M22.1,38h-.53c-.08,0-.11,0-.12-.09s-.08-.22-.12-.33a.15.15,0,0,0-.17-.13c-.23,0-.48,0-.71,0a.14.14,0,0,0-.16.12v0c-.06.13,0,.33-.15.39a1.52,1.52,0,0,1-.57,0c.25-.76.5-1.5.73-2.23l0,0c-.2,0-.19,0-.19-.23s0-.2.2-.2H21a.16.16,0,0,1,.17.11C21.46,36.3,21.78,37.14,22.1,38ZM20.79,36c-.12.4-.23.74-.33,1.12.23,0,.45,0,.68,0C21,36.71,20.92,36.37,20.79,36Z"/><path class="cls-3" d="M10.08,36.1a1,1,0,0,1,.72-.16.65.65,0,0,1,.53.45,1.55,1.55,0,0,1,0,1.14.8.8,0,0,1-.64.51A2.82,2.82,0,0,1,9.62,38c-.12,0-.11-.11-.11-.2V35.65c0-.08,0-.14-.12-.13s-.14,0-.13-.14a.24.24,0,0,0,0-.12c0-.1,0-.14.12-.14a5.42,5.42,0,0,0,.57,0c.1,0,.13,0,.13.14v.84Zm0,1h0v.44a.12.12,0,0,0,.09.13.51.51,0,0,0,.64-.33,1.26,1.26,0,0,0,0-.72.36.36,0,0,0-.41-.28.34.34,0,0,0-.32.35Z"/><path class="cls-3" d="M36,36c-.13.21-.23.38-.33.56s-.19.23-.19.36.13.24.19.36a1,1,0,0,1,.14.24c.08.14.18.25.34.16l0,0c0,.11.06.25-.08.31a.61.61,0,0,1-.57,0,.74.74,0,0,1-.18-.21c-.09-.17-.2-.34-.29-.51a.24.24,0,0,1-.06-.09c0-.06-.12,0-.17,0s-.06.08-.06.12v.66c0,.1,0,.13-.13.13-.43,0-.43,0-.43-.4V35.72c0-.16,0-.17-.18-.2s-.07,0-.07-.1v-.08c0-.21,0-.21.2-.21h.48c.11,0,.13,0,.13.14v1.28c0,.06,0,.13.06.15s.17,0,.2-.07a1.7,1.7,0,0,0,.19-.35.46.46,0,0,1,.56-.31Z"/><path class="cls-2" d="M11.36,33v.16c0,.24,0,.25-.24.31a1.11,1.11,0,0,1-.6,0A.63.63,0,0,1,10,33c0-.12,0-.23,0-.35V31.23C10,31,10,31,9.81,31H9.7c-.12,0-.15,0-.14-.15V30.8c0-.18,0-.18.19-.18s.25,0,.25-.25V30c0-.09,0-.13.11-.15l.31-.09c.15,0,.15,0,.16.1v.61c0,.1,0,.15.13.15s.29,0,.43,0,.11,0,.11.09c0,.31,0,.33-.29.33-.12,0-.28-.05-.36,0s0,.22,0,.33v1.18c0,.45.2.59.63.44A.21.21,0,0,1,11.36,33Z"/><path class="cls-3" d="M30.7,35.76h-1s-.07,0-.07,0a1.61,1.61,0,0,1,0-.31s0,0,.06,0h1.6c.17,0,.17,0,.17.17a.46.46,0,0,1-.08.3c-.32.52-.64,1-.95,1.57a.56.56,0,0,0-.09.19c0,.06.08,0,.14,0h.89c.15,0,.15,0,.15.16s0,0,0,.08,0,.18-.2.18H29.75c-.18,0-.18,0-.18-.18a.49.49,0,0,1,.08-.29l1-1.58A.66.66,0,0,0,30.7,35.76Z"/><path class="cls-3" d="M52.53,36.2a1,1,0,0,1,.51-.26,1.1,1.1,0,0,1,.25,0,.66.66,0,0,1,.66.72v1.24c0,.15,0,.15-.16.15s-.29,0-.37,0,0-.25-.05-.38v-1a.3.3,0,0,0-.32-.29.32.32,0,0,0-.34.26,1.33,1.33,0,0,0,0,.28c0,.32,0,.64,0,1s0,.17-.17.17-.28,0-.38,0,0-.25,0-.38q0-.56,0-1.11c0-.08,0-.16-.13-.14s-.12-.06-.12-.14v0c0-.29,0-.23.22-.24h.07C52.33,35.94,52.51,36,52.53,36.2Z"/><path class="cls-3" d="M37.73,37.88a.89.89,0,0,1-.7.18.64.64,0,0,1-.59-.68.67.67,0,0,1,.6-.68,1.45,1.45,0,0,1,.51,0c.1,0,.12,0,.12-.08a.3.3,0,0,0-.3-.32,1.31,1.31,0,0,0-.55.06c-.06,0-.1.06-.15.06s0,0,0,0c0-.39-.07-.35.34-.44a1.54,1.54,0,0,1,.64,0,.65.65,0,0,1,.63.72v.74c0,.26,0,.26.23.26,0,0,0,0,0,0s0,.23-.1.28a.6.6,0,0,1-.54,0A1.42,1.42,0,0,1,37.73,37.88Zm0-.61c0-.08,0-.18-.07-.22a.45.45,0,0,0-.46,0,.34.34,0,0,0-.12.34.28.28,0,0,0,.29.27.3.3,0,0,0,.34-.21C37.67,37.41,37.67,37.34,37.68,37.27Z"/><path class="cls-3" d="M33.87,37.67c0,.3,0,.36-.32.38a.47.47,0,0,1-.45-.18.8.8,0,0,1-.74.17.59.59,0,0,1-.52-.58.62.62,0,0,1,.4-.71,1.38,1.38,0,0,1,.78,0,.3.3,0,0,0-.28-.42,1.11,1.11,0,0,0-.51.06l-.18.06,0,0c0-.34,0-.37.34-.43a1.83,1.83,0,0,1,.7,0,.62.62,0,0,1,.56.64v.81C33.62,37.66,33.62,37.66,33.87,37.67Zm-.83-.4c0-.23,0-.25-.25-.26a.34.34,0,0,0-.37.45.27.27,0,0,0,.31.23.29.29,0,0,0,.31-.27A.75.75,0,0,0,33,37.27Z"/><path class="cls-3" d="M13,37.88a.88.88,0,0,1-.77.16.62.62,0,0,1-.51-.58.64.64,0,0,1,.42-.71,1.31,1.31,0,0,1,.76,0c.06-.24,0-.4-.27-.42a1.16,1.16,0,0,0-.52.06l-.2.07c0-.43-.07-.39.33-.48A1.75,1.75,0,0,1,13,36a.63.63,0,0,1,.55.63c0,.29,0,.58,0,.86s0,.22.21.21l0,0c0,.11.05.25-.1.31a.58.58,0,0,1-.53,0A.75.75,0,0,1,13,37.88ZM13,37.32c0-.28,0-.3-.26-.31a.35.35,0,0,0-.37.48.29.29,0,0,0,.31.2.3.3,0,0,0,.31-.22A1,1,0,0,0,13,37.32Z"/><path class="cls-3" d="M44.35,36.44c0-.42-.08-.39.36-.49a1.68,1.68,0,0,1,.67,0,.64.64,0,0,1,.57.67c0,.27,0,.53,0,.79s0,.25.22.25c0,0,0,.11,0,.17a.15.15,0,0,1-.13.17.52.52,0,0,1-.56-.07.09.09,0,0,0-.15,0,.81.81,0,0,1-.69.11.61.61,0,0,1-.51-.58.69.69,0,0,1,.36-.69,1.26,1.26,0,0,1,.69-.07c.17,0,.19,0,.16-.15a.3.3,0,0,0-.3-.24,1.16,1.16,0,0,0-.52.06A.89.89,0,0,0,44.35,36.44Zm1,.81s0-.15-.05-.2a.53.53,0,0,0-.46,0,.36.36,0,0,0-.14.36.28.28,0,0,0,.27.27.3.3,0,0,0,.35-.21A.51.51,0,0,0,45.38,37.25Z"/><path class="cls-3" d="M56.43,37.66c0,.31-.06.37-.33.39a.39.39,0,0,1-.38-.12c-.07-.06-.1,0-.14,0a.83.83,0,0,1-.7.11.59.59,0,0,1-.49-.55.63.63,0,0,1,.35-.72,1.31,1.31,0,0,1,.71-.07.24.24,0,0,0,.13,0c0-.25-.06-.39-.31-.41a1.24,1.24,0,0,0-.66.12s0,0-.06-.06c0-.33,0-.36.34-.41a1.88,1.88,0,0,1,.71,0,.62.62,0,0,1,.57.66c0,.27,0,.54,0,.81S56.17,37.67,56.43,37.66Zm-.83-.41s0-.16-.05-.2a.5.5,0,0,0-.46,0,.36.36,0,0,0-.14.36.29.29,0,0,0,.26.26.33.33,0,0,0,.37-.19A1.69,1.69,0,0,0,55.6,37.25Z"/><path class="cls-3" d="M17.58,36.72c0-.26-.06-.39-.31-.41a1.12,1.12,0,0,0-.51.06.41.41,0,0,1-.19.05c0-.41-.06-.37.35-.46a1.65,1.65,0,0,1,.7,0,.63.63,0,0,1,.55.66c0,.28,0,.55,0,.82s0,.23.22.22l0,0c0,.11,0,.24-.09.3a.52.52,0,0,1-.55,0c-.12-.08-.17-.08-.27,0a.86.86,0,0,1-.78,0,.62.62,0,0,1-.36-.64.61.61,0,0,1,.39-.6,1.24,1.24,0,0,1,.69,0S17.53,36.74,17.58,36.72Zm0,.53s.06-.16-.07-.2a.46.46,0,0,0-.38,0,.37.37,0,0,0-.19.41.3.3,0,0,0,.31.24.3.3,0,0,0,.33-.27Z"/><path class="cls-3" d="M51.66,37v.18a.91.91,0,0,1-.85.88,1.19,1.19,0,0,1-.47,0,.84.84,0,0,1-.62-.55,1.53,1.53,0,0,1,0-1,.8.8,0,0,1,.55-.51A1.14,1.14,0,0,1,51,36a.89.89,0,0,1,.63.8,1.7,1.7,0,0,1,0,.22Zm-.58,0a1.19,1.19,0,0,0-.07-.47.36.36,0,0,0-.37-.23.36.36,0,0,0-.35.24,1.4,1.4,0,0,0,0,.86.36.36,0,0,0,.36.26.38.38,0,0,0,.37-.27A1.12,1.12,0,0,0,51.08,37Z"/><path class="cls-3" d="M4.12,37.2a.46.46,0,0,0,.45.46,1.18,1.18,0,0,0,.56-.09c.06,0,.11-.08.18-.07s0,0,0,0c0,.37,0,.36-.36.49a1.31,1.31,0,0,1-.65,0,.9.9,0,0,1-.76-.68,1.43,1.43,0,0,1,.05-.87A1,1,0,0,1,4.75,36a.9.9,0,0,1,.68,1c0,.19-.08.26-.28.26h-.8A.6.6,0,0,0,4.12,37.2Zm.35-.34h.29c.08,0,.11,0,.11-.12a.43.43,0,0,0-.33-.43c-.19,0-.35.1-.42.33s0,.22.16.22Z"/><path class="cls-2" d="M16.16,33.05c0,.36,0,.42-.37.44s-.54-.15-.54-.52V30c0-.1,0-.15-.13-.14H15s-.07,0-.07,0v-.34s.06,0,.09,0h.72c.08,0,.1,0,.1.11v3.28c0,.24.05.28.28.22Z"/><path class="cls-2" d="M28.8,33.05c0,.35,0,.42-.35.43s-.54-.13-.54-.5c0-.93,0-1.87,0-2.8v-.13c0-.17,0-.17-.17-.17s-.18,0-.18-.19v-.11c0-.1,0-.14.13-.14h.66c.1,0,.14,0,.13.14a2.62,2.62,0,0,0,0,.28v2.87a.75.75,0,0,0,0,.15c0,.19,0,.22.24.18Z"/><path class="cls-3" d="M47.89,36.4l-.4-.08a.53.53,0,0,0-.35,0,.16.16,0,0,0-.12.14.15.15,0,0,0,.11.15,2.12,2.12,0,0,0,.29.11,1.77,1.77,0,0,1,.38.15.59.59,0,0,1,0,1,1.11,1.11,0,0,1-.32.11,2,2,0,0,1-.84-.07c-.12,0-.14-.08-.13-.19a2,2,0,0,0,0-.27l.31.1a1.29,1.29,0,0,0,.51,0c.11,0,.19-.06.19-.16a.21.21,0,0,0-.13-.2l-.26-.08a1.61,1.61,0,0,1-.33-.12.58.58,0,0,1-.07-1A.7.7,0,0,1,47,36a1.62,1.62,0,0,1,.82,0c.08,0,.13.06.12.15A.89.89,0,0,1,47.89,36.4Z"/><path class="cls-3" d="M40.08,37.57c0,.37.08.4-.36.48a.82.82,0,0,1-.21,0A.52.52,0,0,1,39,37.5c0-.32,0-.64,0-1s0-.17-.17-.18-.14,0-.15-.16v-.13c0-.09,0-.13.12-.12h.11c.06,0,.09,0,.09-.1s0-.2,0-.3,0-.12.1-.13a3.63,3.63,0,0,1,.45-.1,1.37,1.37,0,0,1,0,.35c0,.32,0,.28.28.28h.09c.09,0,.13,0,.13.13s0,0,0,0c0,.25,0,.25-.24.24a.4.4,0,0,1-.11,0c-.11,0-.15.05-.15.16,0,.27,0,.55,0,.82s.13.36.4.27Z"/><path class="cls-2" d="M9.23,33c0,.33,0,.41-.37.44s-.53-.12-.54-.5,0-.9,0-1.35c0-.15,0-.3,0-.46s0-.13-.14-.13S8,31,8,30.83V30.7c0-.06,0-.08.09-.08H8.8c.08,0,.1,0,.1.1v2.19c0,.15.06.19.21.16Z"/><path class="cls-3" d="M57.63,37.65c0,.35-.08.41-.4.4s-.4-.1-.41-.38a1.55,1.55,0,0,1,0-.22c0-.58,0-1.17,0-1.75,0-.11,0-.2-.16-.18s-.09,0-.09-.11a1.52,1.52,0,0,1,0-.29c.24,0,.45,0,.7,0s.09.09.09.16v1.78c0,.15,0,.3,0,.44s0,.17.17.15Z"/><path class="cls-3" d="M28.19,37.67c.06.29,0,.34-.32.38a.74.74,0,0,1-.21,0,.3.3,0,0,1-.26-.27,1.63,1.63,0,0,1,0-.31V35.73c0-.17,0-.18-.16-.21s-.08,0-.08-.1v-.08c0-.23,0-.21.21-.21h.47c.11,0,.14,0,.13.14v2.15C27.94,37.67,27.94,37.67,28.19,37.67Z"/><path class="cls-3" d="M26.94,37.66c0,.32-.06.38-.37.39s-.45-.11-.46-.43,0-.69,0-1c0-.16,0-.17-.15-.2a.12.12,0,0,1-.1-.11c0-.29,0-.31.29-.31h.4c.11,0,.14,0,.14.15,0,.39,0,.78,0,1.17v.22c0,.16,0,.16.18.16Z"/><path class="cls-3" d="M49.38,37.65c0,.32,0,.38-.32.4s-.48-.11-.48-.46,0-.7,0-1c0-.11,0-.19-.16-.18s-.1,0-.1-.12c0-.36,0-.28.26-.29H49c.14,0,.14,0,.15.17v1.33C49.13,37.66,49.15,37.67,49.38,37.65Z"/><path class="cls-3" d="M64.74,11.05a.65.65,0,0,1-.61-.5.45.45,0,0,1,.05-.32.84.84,0,0,1,.4-.32A.48.48,0,0,1,65,10a3.41,3.41,0,0,1,.37.39.14.14,0,0,1,0,.11,1.24,1.24,0,0,1-.46.55A.43.43,0,0,1,64.74,11.05Z"/><path class="cls-3" d="M67.26,10.42a.47.47,0,0,1-.15.35,1.57,1.57,0,0,1-.4.32.1.1,0,0,1-.14,0l-.38-.3a.36.36,0,0,1-.08-.45.39.39,0,0,1,.13-.22.47.47,0,0,1,.52-.22.61.61,0,0,1,.48.46S67.25,10.41,67.26,10.42Z"/><path class="cls-3" d="M60.42,5.79a.66.66,0,0,1-.59-.52.46.46,0,0,1,.1-.34,3.15,3.15,0,0,1,.38-.35.08.08,0,0,1,.12,0,4,4,0,0,1,.41.31.37.37,0,0,1,.11.5A.58.58,0,0,1,60.42,5.79Z"/><path class="cls-2" d="M8.58,29.48a.34.34,0,0,1,.34.35.35.35,0,0,1-.35.34.34.34,0,0,1-.33-.35A.33.33,0,0,1,8.58,29.48Z"/><path class="cls-3" d="M48.84,35.09a.32.32,0,0,1,.32.32.32.32,0,1,1-.64,0A.31.31,0,0,1,48.84,35.09Z"/><path class="cls-3" d="M26.69,35.41a.32.32,0,0,1-.32.32.34.34,0,0,1-.31-.33.32.32,0,0,1,.32-.31A.31.31,0,0,1,26.69,35.41Z"/><path class="cls-1" d="M66.49,4.35l0,0a0,0,0,0,1,0,0Z"/></g></g></svg>