<svg width="540" height="612" viewBox="0 0 540 612" fill="none" xmlns="http://www.w3.org/2000/svg">
<g clip-path="url(#clip0_601_54)">
<path d="M491.689 138.898C488.292 136.964 484.905 134.991 481.528 132.979C445.512 111.217 277.222 12.5638 210.17 27.3474C134.946 43.9008 -9.1743 304.694 37.0608 375.899C83.2959 447.104 297.763 561.164 350.821 536.936C403.879 512.708 534.223 276.52 539.637 220.404C544.254 172.412 503.665 145.688 491.689 138.898Z" fill="#FFD098"/>
<path d="M1.33528 17.7286L155.718 0.725403L215.265 101.454L293.262 78.9228L449.068 402.927L497.147 380.483L479.567 511.098L367.34 441.402L414.229 419.713L266.871 135.199L187.727 153.682L134.118 63.8201L0.725586 93.4162L1.33528 17.7286Z" fill="#212121" stroke="#212121" stroke-linejoin="round"/>
<path d="M134.089 258.893V251.886" stroke="#212121" stroke-linejoin="round"/>
<path d="M134.089 302.141V268.091" stroke="#212121" stroke-linejoin="round"/>
<path d="M201.649 293.349V276.593" stroke="#212121" stroke-linejoin="round"/>
<path d="M219.17 171.744V130.092" stroke="#212121" stroke-linejoin="round"/>
<path d="M293.988 213.991V166.13" stroke="#212121" stroke-linejoin="round"/>
<path d="M435.757 195.871V170.337" stroke="#212121" stroke-linejoin="round"/>
<path d="M472.861 140.683V101.961" stroke="#212121" stroke-linejoin="round"/>
<path d="M162.832 595.983C162.079 599.74 161.109 603.451 159.929 607.096C158.622 610.462 160.175 612.276 161.99 610.723C163.805 609.171 166.127 599.117 166.127 599.117L162.832 595.983Z" fill="white" stroke="#212121" stroke-linejoin="round"/>
<path d="M160.756 594.431C160.756 594.431 158.68 600.64 156.619 603.223C154.557 605.805 151.175 608.387 153.251 608.91C155.327 609.432 161.017 604.775 162.57 602.178C163.346 600.733 164.636 599.63 166.185 599.088L160.756 594.431Z" fill="white" stroke="#212121" stroke-linejoin="round"/>
<path d="M178.364 550.443C178.364 550.443 174.735 564.951 174.474 565.705C174.213 566.46 164.124 586.147 164.124 586.147L160.756 594.431C160.756 594.431 165.938 608.649 167.492 608.939C169.045 609.229 169.045 608.417 169.292 605.573C169.538 602.729 167.738 593.154 167.738 593.154L168.522 588.497C168.522 588.497 170.845 599.886 171.629 602.468C172.413 605.051 174.997 605.37 175.505 604.021C176.013 602.671 173.951 584.101 173.951 584.101L187.669 571.436H193.883C193.883 571.436 193.374 577.892 194.666 580.997C195.958 584.101 199.588 590.833 200.88 589.019C202.171 587.206 200.096 584.667 199.849 578.414C199.602 572.161 203.202 568.578 201.91 564.965C200.618 561.353 191.56 542.972 191.56 542.972L178.364 550.443Z" fill="white" stroke="#212121" stroke-linejoin="round"/>
<path d="M173.182 573.728C173.182 573.728 168 582.52 168 584.595C168.01 585.903 168.186 587.204 168.522 588.468" fill="white"/>
<path d="M173.182 573.728C173.182 573.728 168 582.52 168 584.595C168.01 585.903 168.186 587.204 168.522 588.468" stroke="#212121" stroke-linejoin="round"/>
<path d="M173.443 542.159L175.519 554.317L193.636 544.495L191.299 534.397L173.443 542.159Z" fill="white" stroke="#212121" stroke-linejoin="round"/>
<path d="M179.381 341.08C179.381 341.08 201.155 341.414 213.277 337.729C225.398 334.044 255.897 319.942 266.988 316.924C278.078 313.907 285.772 312.224 286.788 315.923C287.804 319.623 292.159 326.311 273.723 341.08C255.287 355.849 218.009 374.288 199.544 376.972C181.079 379.656 173.342 352.773 179.381 341.08Z" fill="white" stroke="#212121" stroke-linejoin="round"/>
<path d="M251.702 260.706C251.702 260.706 227.416 277.608 225.935 278.595C224.455 279.581 201.649 293.349 201.649 293.349C201.649 293.349 193.113 297.121 192.446 298.935C191.778 300.748 183.91 331.911 183.91 331.911L183.721 344.968C192.063 345.56 200.435 345.56 208.777 344.968C220.259 343.924 252.602 323.409 252.602 323.409H235.908L225.442 314.342C225.442 314.342 247.013 286.879 250.846 278.87C254.678 270.862 254.286 258.878 251.702 260.706Z" fill="#F7941E" stroke="#212121" stroke-linejoin="round"/>
<path d="M211.215 351.787L219.156 345.447C219.156 345.447 230.769 336.205 233.063 334.885C235.356 333.565 229.071 316.504 224.353 299.849C219.635 283.194 239.436 278.45 242.6 254.657C245.765 230.864 236.256 223.334 233.89 211.844C232.298 202.803 231.371 193.658 231.118 184.482L214.061 172.6L207.702 190.837C207.702 190.837 215.643 213.034 223.177 222.144C230.711 231.255 233.092 254.265 230.711 262.592C228.33 270.92 211.273 292.203 212.87 298.601C214.467 304.999 227.546 330.779 222.379 335.93C219.497 338.756 216.847 341.807 214.453 345.055L205.568 344.446L201.765 349.814L211.215 351.787Z" fill="#212121" stroke="#212121" stroke-linejoin="round"/>
<path d="M206.062 365.265L211.216 351.787L201.707 349.799L209.241 339.89L185.986 335.045L194.899 372.504L206.062 365.265Z" fill="white" stroke="#212121" stroke-linejoin="round"/>
<path d="M188.729 340.964C192.288 342.796 195.687 344.921 198.891 347.318C201.693 349.814 200.343 351.975 198.673 356.212C197.778 358.551 196.567 360.758 195.073 362.769L188.729 340.964Z" fill="white" stroke="#212121" stroke-linejoin="round"/>
<path d="M233.062 334.885L271.314 321.233C271.314 321.233 304.702 309.699 306.153 308.481C307.605 307.262 309.797 279.958 310.102 274.808C310.407 269.658 310.711 263.579 310.711 263.579C310.711 263.579 290.969 277.231 280.038 285.123C269.107 293.015 251.208 309.699 246.04 315.764C240.872 321.828 233.062 334.885 233.062 334.885Z" fill="#212121" stroke="#212121" stroke-linejoin="round"/>
<path d="M452.553 196.973C452.553 196.973 460.406 191.301 462.598 189.981C464.79 188.66 469.174 168.509 470.045 160.617C470.916 152.724 472.237 149.213 475.75 150.098C479.263 150.983 485.404 180.333 485.839 185.599C486.275 190.865 483.647 198.308 484.518 201.369C485.389 204.43 487.596 207.956 485.404 211.017C483.212 214.078 454.919 212.642 454.919 212.642L452.553 196.973Z" fill="#212121" stroke="#212121" stroke-linejoin="round"/>
<path d="M485.839 185.599C485.403 180.333 479.263 150.969 475.75 150.098C475.016 149.876 474.227 149.928 473.529 150.243C477.172 159.949 483.255 177.257 482.326 182.523C481.019 189.981 479.263 205.315 480.134 208.826C480.395 209.856 480.7 211.133 481.019 212.41C483.298 212.105 484.939 211.67 485.374 210.959C487.566 207.898 485.374 204.387 484.489 201.311C483.603 198.235 486.274 190.851 485.839 185.599Z" fill="#212121" stroke="#212121" stroke-linejoin="round"/>
<path d="M335.172 270.078C335.172 270.078 338.656 228.644 341.094 224.814C343.533 220.984 363.348 218.895 380.768 215.079C398.188 211.264 452.523 196.973 452.523 196.973L454.948 212.642C454.948 212.642 432.665 223.421 419.077 229.689C405.49 235.956 390.872 243.268 383.904 244.661C376.936 246.053 371.71 246.75 371.71 246.75C371.71 246.75 382.162 308.713 384.252 325.774C386.342 342.835 382.162 354.659 379.723 358.141C377.284 361.623 363 335.857 347.67 304.883C332.341 273.909 335.172 270.078 335.172 270.078Z" fill="#F7941E" stroke="#212121" stroke-linejoin="round"/>
<path d="M379.752 358.141C382.191 354.659 386.371 342.821 384.281 325.774C383.875 322.466 383.149 317.461 382.263 311.571C370.834 284.766 356.212 259.436 338.714 236.13C336.841 249.622 335.128 270.064 335.128 270.064C335.128 270.064 332.341 273.88 347.656 304.883C362.971 335.886 377.313 361.623 379.752 358.141Z" fill="#212121" stroke="#212121" stroke-linejoin="round"/>
<path d="M380.579 179.027C380.579 179.027 381.465 171.57 381.9 168.059C382.336 164.548 377.952 142.641 374.454 136.505C370.955 130.368 374.004 127.307 376.196 127.307C378.387 127.307 399.422 143.526 402.949 148.778C406.477 154.03 414.795 171.135 416.987 174.646C419.179 178.157 389.797 193.1 389.797 193.1L380.579 179.027Z" fill="#212121" stroke="#212121" stroke-linejoin="round"/>
<path d="M417.059 174.646C414.867 171.135 406.535 154.045 403.022 148.778C399.509 143.512 378.46 127.307 376.268 127.307C375.666 127.318 375.083 127.515 374.599 127.872C381.146 133.284 399.785 148.923 403.022 153.609C405.925 157.701 411.877 170.859 415.027 177.924C416.58 176.517 417.422 175.342 417.059 174.646Z" fill="#212121" stroke="#212121" stroke-linejoin="round"/>
<path d="M313.992 317.418C313.992 317.418 274.638 233.519 276.032 230.037C277.425 226.555 364.844 188.269 369.373 185.483C373.078 182.892 376.486 179.899 379.535 176.561L393.804 193.491C393.804 193.491 368.023 209.856 350.951 222.377C333.88 234.897 320.656 242.572 320.656 242.572C320.656 242.572 326.23 253.714 347.468 274.242C368.705 294.771 388.578 330.983 384.398 352.585C380.217 374.187 356.09 380.774 348.745 383.893C344.186 385.814 339.384 387.103 334.475 387.723C334.475 387.723 322.978 330.286 313.992 317.418Z" fill="#F7941E" stroke="#212121" stroke-linejoin="round"/>
<path d="M195.276 366.324C195.276 366.324 205.931 360.825 207.209 360.521C208.486 360.216 214.365 353.542 214.365 353.542L218.227 360.521L223.177 352.991C223.554 352.44 227.953 343.459 227.953 343.459C227.953 343.459 240.248 343.271 243.369 342.719C246.49 342.168 261.733 334.218 261.733 334.218C261.733 334.218 289.082 305.057 293.669 299.181C296.912 295.175 300.47 291.435 304.31 287.996C307.518 300.26 312.075 312.132 317.897 323.395C327.072 340.645 334.591 373.302 334.591 383.748C334.591 394.193 336.043 395.862 336.043 395.862C336.043 395.862 320.83 399.111 303.831 400.997C286.832 402.884 263.634 407.599 263.634 407.599L195.102 427.228C195.102 427.228 189.789 496.169 190.152 500.028C190.515 503.887 193.825 537.444 193.825 537.444C193.825 537.444 181.529 542.217 178.408 544.234C175.287 546.25 172.892 547.904 172.892 547.904C172.892 547.904 165.735 533.048 163.906 517.641C162.077 502.233 156.009 429.796 156.009 429.796C156.009 429.796 154.165 420.075 151.785 416.216C149.404 412.357 151.407 407.047 152.888 401.549C154.369 396.05 159.856 364.119 159.856 364.119C159.856 364.119 172.921 367.978 182.255 367.978C191.589 367.978 195.276 366.324 195.276 366.324Z" fill="#F7941E" stroke="#212121" stroke-linejoin="round"/>
<path d="M195.102 427.228L208.849 403.667L211.027 421.729L195.102 427.228Z" fill="#212121" stroke="#212121" stroke-linejoin="round"/>
<path d="M253.531 343.807C256.435 340.906 258.351 338.831 258.351 338.831" stroke="#212121" stroke-linejoin="round"/>
<path d="M197.25 371.938C197.25 371.938 216.122 370.125 226.763 365.729C232.569 363.35 241.279 355.66 248.131 349.117" stroke="#212121" stroke-linejoin="round"/>
<path d="M178.452 418.77C180.028 419.436 181.556 420.211 183.024 421.091" stroke="#212121" stroke-linejoin="round"/>
<path d="M156.357 415.404C161.001 415.064 165.67 415.357 170.235 416.274" stroke="#212121" stroke-linejoin="round"/>
<path d="M272.939 352.817L276.264 375.014L280.706 374.651L276.641 351.714" fill="#F7941E"/>
<path d="M272.939 352.817L276.264 375.014L280.706 374.651L276.641 351.714" stroke="#212121" stroke-linejoin="round"/>
<path d="M139.17 350.989C139.17 350.989 144.047 356.792 148.489 361.144C152.931 365.497 161.264 370.125 168.479 372.678C175.693 375.232 184.345 379.004 188.003 378.554C191.662 378.104 193.81 374.564 194.884 372.461C195.958 370.357 196.771 363.756 195 354.369C193.553 347.895 191.197 341.658 188.003 335.843C189.026 335.09 189.852 334.103 190.413 332.964C190.974 331.825 191.253 330.568 191.226 329.3C191.11 324.947 186.218 321.77 183.402 321.32C182.466 321.195 181.513 321.325 180.645 321.695C179.776 322.065 179.024 322.662 178.466 323.424C174.399 323.729 170.312 323.656 166.258 323.206C165.14 322.757 161.032 316.214 158.709 316.33C157.678 316.436 156.699 316.837 155.891 317.486C155.082 318.134 154.478 319.002 154.151 319.986C152.689 323.709 150.789 327.245 148.489 330.518C147.488 331.418 141.231 336.742 141.231 336.742C141.231 336.742 135.671 336.626 134.786 341.617C133.9 346.608 139.17 350.989 139.17 350.989Z" fill="white" stroke="#212121" stroke-linejoin="round"/>
<path d="M159.188 353.18L169.538 363.524L171.977 360.651" stroke="#212121" stroke-linejoin="round"/>
<path d="M176.085 367.702C176.085 367.702 176.942 362.102 179.961 359.65C182.981 357.198 189.455 355.486 189.455 355.486L184.708 366.701C184.859 365.026 184.859 363.341 184.708 361.667C184.345 360.375 177.16 364.394 176.085 367.702Z" fill="#212121" stroke="#212121" stroke-linejoin="round"/>
<path d="M152.438 348.74C152.438 348.74 148.548 348.305 147.401 350.031C146.742 351.426 146.639 353.018 147.11 354.485" stroke="#212121" stroke-linejoin="round"/>
<path d="M159.188 342.531C159.675 340.597 160.788 338.879 162.353 337.642C164.371 336.683 166.578 336.187 168.812 336.191" stroke="#212121" stroke-linejoin="round"/>
<path d="M156.241 356.096C157.17 357.126 157.388 358.46 156.72 358.997C156.053 359.534 154.732 359.287 153.817 358.257C152.903 357.227 152.67 355.893 153.338 355.283C154.006 354.674 155.312 355.08 156.241 356.096Z" fill="#212121"/>
<path d="M168.464 347.057C169.393 348.073 169.611 349.408 168.929 349.959C168.247 350.51 166.955 350.249 166.025 349.219C165.096 348.189 164.879 346.854 165.561 346.317C166.243 345.781 167.521 346.027 168.464 347.057Z" fill="#212121"/>
<path d="M137.878 341.399L144.251 342.531C144.251 342.531 142.886 340.268 145.615 337.308C148.344 334.348 156.996 330.257 157.446 326.616C157.726 324.426 157.881 322.222 157.911 320.015L164.733 328.212C164.733 328.212 169.088 326.848 171.556 325.934C174.024 325.02 179.294 330.025 179.976 330.475C180.658 330.924 184.534 330.475 183.852 329.111C182.889 327.466 182.124 325.713 181.573 323.888C181.573 322.974 183.402 321.378 183.402 321.378C183.402 321.378 184.984 318.651 182.037 313.428C179.09 308.205 175.432 305.695 171.106 302.504C168.923 301.009 166.934 299.25 165.183 297.266L163.369 300.008C161.398 299.681 159.529 298.901 157.911 297.73C155.632 295.902 153.556 293.857 153.556 293.857C153.556 293.857 151.277 299.326 149.201 300.908C147.125 302.489 135.439 307.712 133.987 311.368C133.074 313.901 132.318 316.489 131.723 319.115L127.165 315.923C127.165 315.923 126.932 321.843 126.932 325.02C126.932 328.197 119.674 339.528 124.886 344.809C130.097 350.089 140.854 352.062 140.854 352.062C140.854 352.062 136.049 349.785 137.878 341.399Z" fill="#212121" stroke="#212121" stroke-linejoin="round"/>
<path d="M229.216 296.802C229.216 296.802 213.132 297.614 212.812 298.601C212.484 299.449 212.096 300.274 211.651 301.067C211.651 301.067 204.102 300.574 203.943 301.227C203.783 301.88 203.289 306.319 203.289 306.319C203.289 306.319 196.394 312.543 196.713 313.37C197.033 314.197 199.022 318.448 199.022 318.448C199.022 318.448 196.118 323.7 196.554 325.179C196.989 326.659 200.168 328.951 200.168 328.951C200.168 328.951 196.554 332.883 198.847 333.87C200.188 334.461 201.675 334.633 203.115 334.363C203.115 334.363 205.583 336.989 207.223 336.002C207.729 335.641 208.151 335.175 208.461 334.637C208.772 334.099 208.963 333.501 209.023 332.883C209.023 332.883 215.759 330.75 218.88 329.982C222.001 329.213 224.788 323.917 225.122 321.944C225.72 320.138 226.667 318.467 227.909 317.026C227.909 317.026 233.716 314.56 234.964 312.761C236.213 310.962 244.807 306.682 244.807 306.682C244.807 306.682 241.7 302.417 238.245 298.645C236.381 296.505 234.092 294.776 231.524 293.567L229.216 296.802Z" fill="white" stroke="#212121" stroke-linejoin="round"/>
<path d="M211.651 301.067C211.037 304.266 210.601 307.497 210.344 310.744C210.504 312.195 210.678 312.877 214.278 313.53C217.878 314.182 222.32 315.996 223.307 314.85C224.295 313.704 224.454 312.717 222.988 311.397C221.627 310.38 220.132 309.555 218.546 308.945C218.546 308.945 219.374 306.812 219.867 304.999" fill="white"/>
<path d="M211.651 301.067C211.037 304.266 210.601 307.497 210.344 310.744C210.504 312.195 210.678 312.877 214.278 313.53C217.878 314.182 222.32 315.996 223.307 314.85C224.295 313.704 224.454 312.717 222.988 311.397C221.627 310.38 220.132 309.555 218.546 308.945C218.546 308.945 219.374 306.812 219.867 304.999" stroke="#212121" stroke-linejoin="round"/>
<path d="M203.289 306.261C203.289 306.261 202.462 312.819 203.115 314.298C203.768 315.778 210.504 321.552 211.825 322.829C212.609 323.483 213.553 323.919 214.559 324.092C215.566 324.265 216.601 324.17 217.559 323.816C217.853 323.69 218.107 323.488 218.297 323.231C218.487 322.974 218.605 322.671 218.639 322.354C218.673 322.036 218.622 321.715 218.491 321.424C218.36 321.133 218.153 320.882 217.893 320.696C217.116 320.085 216.29 319.536 215.425 319.057L211.157 313.254" fill="white"/>
<path d="M203.289 306.261C203.289 306.261 202.462 312.819 203.115 314.298C203.768 315.778 210.504 321.552 211.825 322.829C212.609 323.483 213.553 323.919 214.559 324.092C215.566 324.265 216.601 324.17 217.559 323.816C217.853 323.69 218.107 323.488 218.297 323.231C218.487 322.974 218.605 322.671 218.639 322.354C218.673 322.036 218.622 321.715 218.491 321.424C218.36 321.133 218.153 320.882 217.893 320.696C217.116 320.085 216.29 319.536 215.425 319.057L211.157 313.254" stroke="#212121" stroke-linejoin="round"/>
<path d="M199.021 318.448C199.021 318.448 202.796 326.006 203.609 326.485C204.422 326.964 209.517 331.418 211.331 330.431C213.146 329.445 211.825 327.312 210.998 326.325C210.17 325.339 209.198 324.033 209.198 324.033L206.57 319.318" fill="white"/>
<path d="M199.021 318.448C199.021 318.448 202.796 326.006 203.609 326.485C204.422 326.964 209.517 331.418 211.331 330.431C213.146 329.445 211.825 327.312 210.998 326.325C210.17 325.339 209.198 324.033 209.198 324.033L206.57 319.318" stroke="#212121" stroke-linejoin="round"/>
<path d="M200.168 328.951L203.13 334.363" stroke="#212121" stroke-linejoin="round"/>
<path d="M209.038 332.883L206.077 328.951" stroke="#212121" stroke-linejoin="round"/>
<path d="M234.805 289.911L231.524 293.523L245.474 308.771L249.568 303.36C248.324 300.527 246.412 298.037 243.994 296.106C241.129 293.761 238.053 291.687 234.805 289.911Z" fill="white" stroke="#212121" stroke-linejoin="round"/>
<path d="M232.497 290.404L250.236 307.959C250.236 307.959 274.188 280.553 277.817 275.635C281.446 270.717 283.725 266.292 280.938 261.04C278.151 255.788 271.096 250.377 264.52 251.523C259.397 252.559 254.739 255.202 251.223 259.067C249.568 261.04 232.497 290.404 232.497 290.404Z" fill="#F7941E" stroke="#212121" stroke-linejoin="round"/>
</g>
<defs>
<clipPath id="clip0_601_54">
<rect width="540" height="612" fill="white"/>
</clipPath>
</defs>
</svg>
